<svg width="340" height="141" viewBox="0 0 340 141" fill="none" xmlns="http://www.w3.org/2000/svg">
<rect y="0.25" width="340" height="140" rx="16" fill="url(#paint0_linear_25_369)"/>
<g clip-path="url(#clip0_25_369)">
<rect x="22" y="29.25" width="24" height="24" rx="12" fill="#414787" fill-opacity="0.5"/>
<g clip-path="url(#clip1_25_369)">
<path d="M33.25 36H32.125C31.504 36 31 36.504 31 37.125V45.375C31 45.996 31.504 46.5 32.125 46.5H35.875C36.496 46.5 37 45.996 37 45.375V37.125C37 36.504 36.496 36 35.875 36H34.75M33.25 36V36.75H34.75V36M33.25 36H34.75M33.25 45.375H34.75" stroke="white" stroke-linecap="round" stroke-linejoin="round"/>
</g>
<path d="M55.2784 46.75V35.1136H62.5739V36.625H57.0341V40.1705H62.1932V41.6761H57.0341V45.2386H62.642V46.75H55.2784ZM64.7827 46.75V38.0227H66.4134V39.4432H66.5213C66.7031 38.9621 67.0005 38.5871 67.4134 38.3182C67.8262 38.0455 68.3205 37.9091 68.8963 37.9091C69.4796 37.9091 69.9683 38.0455 70.3622 38.3182C70.7599 38.5909 71.0535 38.9659 71.2429 39.4432H71.3338C71.5421 38.9773 71.8736 38.6061 72.3281 38.3295C72.7827 38.0492 73.3243 37.9091 73.9531 37.9091C74.7448 37.9091 75.3906 38.1572 75.8906 38.6534C76.3944 39.1496 76.6463 39.8977 76.6463 40.8977V46.75H74.9474V41.0568C74.9474 40.4659 74.7865 40.0379 74.4645 39.7727C74.1425 39.5076 73.758 39.375 73.3111 39.375C72.758 39.375 72.3281 39.5455 72.0213 39.8864C71.7145 40.2235 71.5611 40.6572 71.5611 41.1875V46.75H69.8679V40.9489C69.8679 40.4754 69.7202 40.0947 69.4247 39.8068C69.1293 39.5189 68.7448 39.375 68.2713 39.375C67.9493 39.375 67.652 39.4602 67.3793 39.6307C67.1103 39.7973 66.8925 40.0303 66.7259 40.3295C66.563 40.6288 66.4815 40.9754 66.4815 41.3693V46.75H64.7827ZM78.9233 50.0227V38.0227H80.5824V39.4375H80.7244C80.8229 39.2557 80.965 39.0455 81.1506 38.8068C81.3362 38.5682 81.5938 38.3598 81.9233 38.1818C82.2528 38 82.6884 37.9091 83.2301 37.9091C83.9347 37.9091 84.5634 38.0871 85.1165 38.4432C85.6695 38.7992 86.1032 39.3125 86.4176 39.983C86.7358 40.6534 86.8949 41.4602 86.8949 42.4034C86.8949 43.3466 86.7377 44.1553 86.4233 44.8295C86.1089 45.5 85.6771 46.017 85.1278 46.3807C84.5786 46.7405 83.9517 46.9205 83.2472 46.9205C82.7169 46.9205 82.2831 46.8314 81.946 46.6534C81.6127 46.4754 81.3513 46.267 81.1619 46.0284C80.9725 45.7898 80.8267 45.5777 80.7244 45.392H80.6222V50.0227H78.9233ZM80.5881 42.3864C80.5881 43 80.6771 43.5379 80.8551 44C81.0331 44.4621 81.2907 44.8239 81.6278 45.0852C81.965 45.3428 82.3778 45.4716 82.8665 45.4716C83.3741 45.4716 83.7983 45.3371 84.1392 45.0682C84.4801 44.7955 84.7377 44.4261 84.9119 43.9602C85.09 43.4943 85.179 42.9697 85.179 42.3864C85.179 41.8106 85.0919 41.2936 84.9176 40.8352C84.7472 40.3769 84.4896 40.0152 84.1449 39.75C83.804 39.4848 83.3778 39.3523 82.8665 39.3523C82.3741 39.3523 81.9574 39.4792 81.6165 39.733C81.2794 39.9867 81.0237 40.3409 80.8494 40.7955C80.6752 41.25 80.5881 41.7803 80.5881 42.3864ZM90.4972 35.1136V46.75H88.7983V35.1136H90.4972ZM96.4588 46.9261C95.6406 46.9261 94.9266 46.7386 94.3168 46.3636C93.7069 45.9886 93.2334 45.464 92.8963 44.7898C92.5592 44.1155 92.3906 43.3277 92.3906 42.4261C92.3906 41.5208 92.5592 40.7292 92.8963 40.0511C93.2334 39.3731 93.7069 38.8466 94.3168 38.4716C94.9266 38.0966 95.6406 37.9091 96.4588 37.9091C97.277 37.9091 97.991 38.0966 98.6009 38.4716C99.2107 38.8466 99.6842 39.3731 100.021 40.0511C100.358 40.7292 100.527 41.5208 100.527 42.4261C100.527 43.3277 100.358 44.1155 100.021 44.7898C99.6842 45.464 99.2107 45.9886 98.6009 46.3636C97.991 46.7386 97.277 46.9261 96.4588 46.9261ZM96.4645 45.5C96.9948 45.5 97.4342 45.3598 97.7827 45.0795C98.1312 44.7992 98.3887 44.4261 98.5554 43.9602C98.7259 43.4943 98.8111 42.9811 98.8111 42.4205C98.8111 41.8636 98.7259 41.3523 98.5554 40.8864C98.3887 40.4167 98.1312 40.0398 97.7827 39.7557C97.4342 39.4716 96.9948 39.3295 96.4645 39.3295C95.9304 39.3295 95.4872 39.4716 95.1349 39.7557C94.7865 40.0398 94.527 40.4167 94.3565 40.8864C94.1899 41.3523 94.1065 41.8636 94.1065 42.4205C94.1065 42.9811 94.1899 43.4943 94.3565 43.9602C94.527 44.4261 94.7865 44.7992 95.1349 45.0795C95.4872 45.3598 95.9304 45.5 96.4645 45.5ZM103.2 50.0227C102.946 50.0227 102.715 50.0019 102.507 49.9602C102.299 49.9223 102.143 49.8807 102.041 49.8352L102.45 48.4432C102.761 48.5265 103.037 48.5625 103.28 48.5511C103.522 48.5398 103.736 48.4489 103.922 48.2784C104.111 48.108 104.278 47.8295 104.422 47.4432L104.632 46.8636L101.439 38.0227H103.257L105.467 44.7955H105.558L107.768 38.0227H109.592L105.996 47.9148C105.829 48.3693 105.617 48.7538 105.359 49.0682C105.102 49.3864 104.795 49.625 104.439 49.7841C104.083 49.9432 103.67 50.0227 103.2 50.0227ZM114.653 46.9261C113.794 46.9261 113.053 46.7424 112.432 46.375C111.814 46.0038 111.337 45.483 111 44.8125C110.667 44.1383 110.5 43.3485 110.5 42.4432C110.5 41.5492 110.667 40.7614 111 40.0795C111.337 39.3977 111.807 38.8655 112.409 38.483C113.015 38.1004 113.723 37.9091 114.534 37.9091C115.027 37.9091 115.504 37.9905 115.966 38.1534C116.428 38.3163 116.843 38.572 117.21 38.9205C117.578 39.2689 117.867 39.7216 118.08 40.2784C118.292 40.8314 118.398 41.5038 118.398 42.2955V42.8977H111.46V41.625H116.733C116.733 41.178 116.642 40.7822 116.46 40.4375C116.278 40.089 116.023 39.8144 115.693 39.6136C115.367 39.4129 114.985 39.3125 114.545 39.3125C114.068 39.3125 113.652 39.4299 113.295 39.6648C112.943 39.8958 112.67 40.1989 112.477 40.5739C112.288 40.9451 112.193 41.3485 112.193 41.7841V42.7784C112.193 43.3617 112.295 43.858 112.5 44.267C112.708 44.6761 112.998 44.9886 113.369 45.2045C113.741 45.4167 114.174 45.5227 114.67 45.5227C114.992 45.5227 115.286 45.4773 115.551 45.3864C115.816 45.2917 116.045 45.1515 116.239 44.9659C116.432 44.7803 116.58 44.5511 116.682 44.2784L118.29 44.5682C118.161 45.0417 117.93 45.4564 117.597 45.8125C117.267 46.1648 116.852 46.4394 116.352 46.6364C115.856 46.8295 115.29 46.9261 114.653 46.9261ZM124.044 46.9261C123.184 46.9261 122.444 46.7424 121.822 46.375C121.205 46.0038 120.728 45.483 120.391 44.8125C120.057 44.1383 119.891 43.3485 119.891 42.4432C119.891 41.5492 120.057 40.7614 120.391 40.0795C120.728 39.3977 121.197 38.8655 121.8 38.483C122.406 38.1004 123.114 37.9091 123.925 37.9091C124.417 37.9091 124.894 37.9905 125.357 38.1534C125.819 38.3163 126.233 38.572 126.601 38.9205C126.968 39.2689 127.258 39.7216 127.47 40.2784C127.682 40.8314 127.788 41.5038 127.788 42.2955V42.8977H120.851V41.625H126.124C126.124 41.178 126.033 40.7822 125.851 40.4375C125.669 40.089 125.413 39.8144 125.084 39.6136C124.758 39.4129 124.375 39.3125 123.936 39.3125C123.459 39.3125 123.042 39.4299 122.686 39.6648C122.334 39.8958 122.061 40.1989 121.868 40.5739C121.679 40.9451 121.584 41.3485 121.584 41.7841V42.7784C121.584 43.3617 121.686 43.858 121.891 44.267C122.099 44.6761 122.389 44.9886 122.76 45.2045C123.131 45.4167 123.565 45.5227 124.061 45.5227C124.383 45.5227 124.677 45.4773 124.942 45.3864C125.207 45.2917 125.436 45.1515 125.629 44.9659C125.822 44.7803 125.97 44.5511 126.072 44.2784L127.68 44.5682C127.552 45.0417 127.321 45.4564 126.987 45.8125C126.658 46.1648 126.243 46.4394 125.743 46.6364C125.247 46.8295 124.68 46.9261 124.044 46.9261ZM140.391 38.1705C140.33 37.6326 140.08 37.2159 139.641 36.9205C139.201 36.6212 138.648 36.4716 137.982 36.4716C137.504 36.4716 137.091 36.5473 136.743 36.6989C136.394 36.8466 136.124 37.0511 135.93 37.3125C135.741 37.5701 135.646 37.8636 135.646 38.1932C135.646 38.4697 135.711 38.7083 135.839 38.9091C135.972 39.1098 136.144 39.2784 136.357 39.4148C136.572 39.5473 136.804 39.6591 137.05 39.75C137.296 39.8371 137.533 39.9091 137.76 39.9659L138.896 40.2614C139.268 40.3523 139.648 40.4754 140.038 40.6307C140.429 40.786 140.79 40.9905 141.124 41.2443C141.457 41.4981 141.726 41.8125 141.93 42.1875C142.139 42.5625 142.243 43.0114 142.243 43.5341C142.243 44.1932 142.072 44.7784 141.732 45.2898C141.394 45.8011 140.904 46.2045 140.26 46.5C139.62 46.7955 138.845 46.9432 137.936 46.9432C137.065 46.9432 136.311 46.8049 135.675 46.5284C135.038 46.2519 134.54 45.8598 134.18 45.3523C133.821 44.8409 133.622 44.2348 133.584 43.5341H135.345C135.379 43.9545 135.516 44.3049 135.754 44.5852C135.997 44.8617 136.305 45.0682 136.68 45.2045C137.059 45.3371 137.474 45.4034 137.925 45.4034C138.421 45.4034 138.862 45.3258 139.249 45.1705C139.639 45.0114 139.946 44.7917 140.169 44.5114C140.393 44.2273 140.504 43.8958 140.504 43.517C140.504 43.1723 140.406 42.8902 140.209 42.6705C140.016 42.4508 139.752 42.2689 139.419 42.125C139.089 41.9811 138.716 41.8542 138.3 41.7443L136.925 41.3693C135.993 41.1155 135.254 40.7424 134.709 40.25C134.167 39.7576 133.896 39.1061 133.896 38.2955C133.896 37.625 134.078 37.0398 134.442 36.5398C134.805 36.0398 135.298 35.6515 135.919 35.375C136.54 35.0947 137.241 34.9545 138.021 34.9545C138.809 34.9545 139.504 35.0928 140.107 35.3693C140.713 35.6458 141.19 36.0265 141.538 36.5114C141.887 36.9924 142.069 37.5455 142.084 38.1705H140.391ZM147.966 46.9261C147.106 46.9261 146.366 46.7424 145.744 46.375C145.127 46.0038 144.65 45.483 144.312 44.8125C143.979 44.1383 143.812 43.3485 143.812 42.4432C143.812 41.5492 143.979 40.7614 144.312 40.0795C144.65 39.3977 145.119 38.8655 145.722 38.483C146.328 38.1004 147.036 37.9091 147.847 37.9091C148.339 37.9091 148.816 37.9905 149.278 38.1534C149.741 38.3163 150.155 38.572 150.523 38.9205C150.89 39.2689 151.18 39.7216 151.392 40.2784C151.604 40.8314 151.71 41.5038 151.71 42.2955V42.8977H144.773V41.625H150.045C150.045 41.178 149.955 40.7822 149.773 40.4375C149.591 40.089 149.335 39.8144 149.006 39.6136C148.68 39.4129 148.297 39.3125 147.858 39.3125C147.381 39.3125 146.964 39.4299 146.608 39.6648C146.256 39.8958 145.983 40.1989 145.79 40.5739C145.6 40.9451 145.506 41.3485 145.506 41.7841V42.7784C145.506 43.3617 145.608 43.858 145.812 44.267C146.021 44.6761 146.311 44.9886 146.682 45.2045C147.053 45.4167 147.487 45.5227 147.983 45.5227C148.305 45.5227 148.598 45.4773 148.864 45.3864C149.129 45.2917 149.358 45.1515 149.551 44.9659C149.744 44.7803 149.892 44.5511 149.994 44.2784L151.602 44.5682C151.473 45.0417 151.242 45.4564 150.909 45.8125C150.58 46.1648 150.165 46.4394 149.665 46.6364C149.169 46.8295 148.602 46.9261 147.966 46.9261ZM155.294 35.1136V46.75H153.595V35.1136H155.294ZM161.733 38.0227V39.3864H156.801V38.0227H161.733ZM158.153 46.75V37.0114C158.153 36.4659 158.273 36.0133 158.511 35.6534C158.75 35.2898 159.066 35.0189 159.46 34.8409C159.854 34.6591 160.282 34.5682 160.744 34.5682C161.085 34.5682 161.377 34.5966 161.619 34.6534C161.862 34.7064 162.042 34.7557 162.159 34.8011L161.761 36.1761C161.682 36.1534 161.58 36.1269 161.455 36.0966C161.33 36.0625 161.178 36.0455 161 36.0455C160.587 36.0455 160.292 36.1477 160.114 36.3523C159.939 36.5568 159.852 36.8523 159.852 37.2386V46.75H158.153ZM174.203 38.1705C174.143 37.6326 173.893 37.2159 173.453 36.9205C173.014 36.6212 172.461 36.4716 171.794 36.4716C171.317 36.4716 170.904 36.5473 170.555 36.6989C170.207 36.8466 169.936 37.0511 169.743 37.3125C169.554 37.5701 169.459 37.8636 169.459 38.1932C169.459 38.4697 169.523 38.7083 169.652 38.9091C169.785 39.1098 169.957 39.2784 170.169 39.4148C170.385 39.5473 170.616 39.6591 170.862 39.75C171.108 39.8371 171.345 39.9091 171.572 39.9659L172.709 40.2614C173.08 40.3523 173.461 40.4754 173.851 40.6307C174.241 40.786 174.603 40.9905 174.936 41.2443C175.269 41.4981 175.538 41.8125 175.743 42.1875C175.951 42.5625 176.055 43.0114 176.055 43.5341C176.055 44.1932 175.885 44.7784 175.544 45.2898C175.207 45.8011 174.716 46.2045 174.072 46.5C173.432 46.7955 172.658 46.9432 171.749 46.9432C170.877 46.9432 170.124 46.8049 169.487 46.5284C168.851 46.2519 168.353 45.8598 167.993 45.3523C167.633 44.8409 167.434 44.2348 167.396 43.5341H169.158C169.192 43.9545 169.328 44.3049 169.567 44.5852C169.809 44.8617 170.118 45.0682 170.493 45.2045C170.872 45.3371 171.286 45.4034 171.737 45.4034C172.233 45.4034 172.675 45.3258 173.061 45.1705C173.451 45.0114 173.758 44.7917 173.982 44.5114C174.205 44.2273 174.317 43.8958 174.317 43.517C174.317 43.1723 174.218 42.8902 174.021 42.6705C173.828 42.4508 173.565 42.2689 173.232 42.125C172.902 41.9811 172.529 41.8542 172.112 41.7443L170.737 41.3693C169.805 41.1155 169.067 40.7424 168.521 40.25C167.98 39.7576 167.709 39.1061 167.709 38.2955C167.709 37.625 167.891 37.0398 168.254 36.5398C168.618 36.0398 169.11 35.6515 169.732 35.375C170.353 35.0947 171.054 34.9545 171.834 34.9545C172.622 34.9545 173.317 35.0928 173.919 35.3693C174.525 35.6458 175.002 36.0265 175.351 36.5114C175.699 36.9924 175.881 37.5455 175.896 38.1705H174.203ZM181.778 46.9261C180.919 46.9261 180.178 46.7424 179.557 46.375C178.939 46.0038 178.462 45.483 178.125 44.8125C177.792 44.1383 177.625 43.3485 177.625 42.4432C177.625 41.5492 177.792 40.7614 178.125 40.0795C178.462 39.3977 178.932 38.8655 179.534 38.483C180.14 38.1004 180.848 37.9091 181.659 37.9091C182.152 37.9091 182.629 37.9905 183.091 38.1534C183.553 38.3163 183.968 38.572 184.335 38.9205C184.703 39.2689 184.992 39.7216 185.205 40.2784C185.417 40.8314 185.523 41.5038 185.523 42.2955V42.8977H178.585V41.625H183.858C183.858 41.178 183.767 40.7822 183.585 40.4375C183.403 40.089 183.148 39.8144 182.818 39.6136C182.492 39.4129 182.11 39.3125 181.67 39.3125C181.193 39.3125 180.777 39.4299 180.42 39.6648C180.068 39.8958 179.795 40.1989 179.602 40.5739C179.413 40.9451 179.318 41.3485 179.318 41.7841V42.7784C179.318 43.3617 179.42 43.858 179.625 44.267C179.833 44.6761 180.123 44.9886 180.494 45.2045C180.866 45.4167 181.299 45.5227 181.795 45.5227C182.117 45.5227 182.411 45.4773 182.676 45.3864C182.941 45.2917 183.17 45.1515 183.364 44.9659C183.557 44.7803 183.705 44.5511 183.807 44.2784L185.415 44.5682C185.286 45.0417 185.055 45.4564 184.722 45.8125C184.392 46.1648 183.977 46.4394 183.477 46.6364C182.981 46.8295 182.415 46.9261 181.778 46.9261ZM187.408 46.75V38.0227H189.05V39.4091H189.141C189.3 38.9394 189.58 38.5701 189.982 38.3011C190.387 38.0284 190.845 37.892 191.357 37.892C191.463 37.892 191.588 37.8958 191.732 37.9034C191.879 37.911 191.995 37.9205 192.078 37.9318V39.5568C192.01 39.5379 191.889 39.517 191.714 39.4943C191.54 39.4678 191.366 39.4545 191.192 39.4545C190.79 39.4545 190.432 39.5398 190.118 39.7102C189.807 39.8769 189.561 40.1098 189.379 40.4091C189.197 40.7045 189.107 41.0417 189.107 41.4205V46.75H187.408ZM201.28 38.0227L198.115 46.75H196.297L193.126 38.0227H194.95L197.161 44.7386H197.251L199.456 38.0227H201.28ZM202.876 46.75V38.0227H204.575V46.75H202.876ZM203.734 36.6761C203.439 36.6761 203.185 36.5777 202.973 36.3807C202.765 36.1799 202.661 35.9413 202.661 35.6648C202.661 35.3845 202.765 35.1458 202.973 34.9489C203.185 34.7481 203.439 34.6477 203.734 34.6477C204.03 34.6477 204.282 34.7481 204.49 34.9489C204.702 35.1458 204.808 35.3845 204.808 35.6648C204.808 35.9413 204.702 36.1799 204.49 36.3807C204.282 36.5777 204.03 36.6761 203.734 36.6761ZM210.537 46.9261C209.692 46.9261 208.965 46.7348 208.355 46.3523C207.749 45.9659 207.283 45.4337 206.957 44.7557C206.632 44.0777 206.469 43.3011 206.469 42.4261C206.469 41.5398 206.635 40.7576 206.969 40.0795C207.302 39.3977 207.772 38.8655 208.378 38.483C208.984 38.1004 209.698 37.9091 210.52 37.9091C211.183 37.9091 211.774 38.0322 212.293 38.2784C212.812 38.5208 213.23 38.8617 213.548 39.3011C213.87 39.7405 214.062 40.2538 214.122 40.8409H212.469C212.378 40.4318 212.17 40.0795 211.844 39.7841C211.522 39.4886 211.09 39.3409 210.548 39.3409C210.075 39.3409 209.66 39.4659 209.304 39.7159C208.952 39.9621 208.677 40.3144 208.48 40.7727C208.283 41.2273 208.185 41.7652 208.185 42.3864C208.185 43.0227 208.281 43.572 208.474 44.0341C208.668 44.4962 208.94 44.8542 209.293 45.108C209.649 45.3617 210.067 45.4886 210.548 45.4886C210.87 45.4886 211.162 45.4299 211.423 45.3125C211.688 45.1913 211.91 45.0189 212.088 44.7955C212.27 44.572 212.397 44.303 212.469 43.9886H214.122C214.062 44.553 213.878 45.0568 213.571 45.5C213.264 45.9432 212.853 46.2917 212.338 46.5455C211.827 46.7992 211.226 46.9261 210.537 46.9261ZM219.7 46.9261C218.84 46.9261 218.1 46.7424 217.479 46.375C216.861 46.0038 216.384 45.483 216.047 44.8125C215.714 44.1383 215.547 43.3485 215.547 42.4432C215.547 41.5492 215.714 40.7614 216.047 40.0795C216.384 39.3977 216.854 38.8655 217.456 38.483C218.062 38.1004 218.77 37.9091 219.581 37.9091C220.073 37.9091 220.551 37.9905 221.013 38.1534C221.475 38.3163 221.89 38.572 222.257 38.9205C222.625 39.2689 222.914 39.7216 223.126 40.2784C223.339 40.8314 223.445 41.5038 223.445 42.2955V42.8977H216.507V41.625H221.78C221.78 41.178 221.689 40.7822 221.507 40.4375C221.325 40.089 221.07 39.8144 220.74 39.6136C220.414 39.4129 220.032 39.3125 219.592 39.3125C219.115 39.3125 218.698 39.4299 218.342 39.6648C217.99 39.8958 217.717 40.1989 217.524 40.5739C217.335 40.9451 217.24 41.3485 217.24 41.7841V42.7784C217.24 43.3617 217.342 43.858 217.547 44.267C217.755 44.6761 218.045 44.9886 218.416 45.2045C218.787 45.4167 219.221 45.5227 219.717 45.5227C220.039 45.5227 220.333 45.4773 220.598 45.3864C220.863 45.2917 221.092 45.1515 221.286 44.9659C221.479 44.7803 221.626 44.5511 221.729 44.2784L223.337 44.5682C223.208 45.0417 222.977 45.4564 222.643 45.8125C222.314 46.1648 221.899 46.4394 221.399 46.6364C220.903 46.8295 220.337 46.9261 219.7 46.9261Z" fill="white"/>
</g>
<path d="M27.9148 75.0682H29.1477V81.8097C29.1477 82.5057 28.9837 83.1271 28.6555 83.674C28.3307 84.2176 27.8717 84.6468 27.2784 84.9616C26.6851 85.2732 25.9891 85.429 25.1903 85.429C24.3916 85.429 23.6955 85.2732 23.1023 84.9616C22.509 84.6468 22.0483 84.2176 21.7202 83.674C21.3954 83.1271 21.233 82.5057 21.233 81.8097V75.0682H22.4659V81.7102C22.4659 82.2074 22.5753 82.6499 22.794 83.0376C23.0128 83.4221 23.3243 83.7254 23.7287 83.9474C24.1364 84.1662 24.6236 84.2756 25.1903 84.2756C25.7571 84.2756 26.2443 84.1662 26.652 83.9474C27.0597 83.7254 27.3712 83.4221 27.5866 83.0376C27.8054 82.6499 27.9148 82.2074 27.9148 81.7102V75.0682ZM31.4508 88.1136V77.6136H32.5843V78.8267H32.7235C32.8097 78.6941 32.929 78.5251 33.0815 78.3196C33.2373 78.1108 33.4593 77.9252 33.7477 77.7628C34.0394 77.5971 34.4338 77.5142 34.9309 77.5142C35.5739 77.5142 36.1407 77.675 36.6312 77.9964C37.1217 78.3179 37.5046 78.7737 37.7797 79.3636C38.0547 79.9536 38.1923 80.6496 38.1923 81.4517C38.1923 82.2604 38.0547 82.9614 37.7797 83.5547C37.5046 84.1446 37.1234 84.602 36.6362 84.9268C36.149 85.2483 35.5872 85.4091 34.9508 85.4091C34.4603 85.4091 34.0675 85.3279 33.7725 85.1655C33.4776 84.9998 33.2505 84.8125 33.0914 84.6037C32.9324 84.3916 32.8097 84.2159 32.7235 84.0767H32.6241V88.1136H31.4508ZM32.6042 81.4318C32.6042 82.0085 32.6887 82.5173 32.8578 82.9581C33.0268 83.3956 33.2737 83.7386 33.5985 83.9872C33.9234 84.2325 34.3211 84.3551 34.7917 84.3551C35.2823 84.3551 35.6916 84.2259 36.0197 83.9673C36.3511 83.7055 36.5997 83.3542 36.7654 82.9134C36.9345 82.4692 37.019 81.9754 37.019 81.4318C37.019 80.8949 36.9361 80.411 36.7704 79.9801C36.608 79.5459 36.3611 79.2029 36.0297 78.951C35.7015 78.6958 35.2889 78.5682 34.7917 78.5682C34.3145 78.5682 33.9134 78.6892 33.5886 78.9311C33.2638 79.1697 33.0185 79.5045 32.8528 79.9354C32.6871 80.3629 32.6042 80.8617 32.6042 81.4318ZM42.8656 85.4091C42.2292 85.4091 41.6674 85.2483 41.1802 84.9268C40.693 84.602 40.3118 84.1446 40.0368 83.5547C39.7617 82.9614 39.6241 82.2604 39.6241 81.4517C39.6241 80.6496 39.7617 79.9536 40.0368 79.3636C40.3118 78.7737 40.6947 78.3179 41.1852 77.9964C41.6757 77.675 42.2425 77.5142 42.8855 77.5142C43.3826 77.5142 43.7754 77.5971 44.0637 77.7628C44.3554 77.9252 44.5775 78.1108 44.7299 78.3196C44.8857 78.5251 45.0067 78.6941 45.0929 78.8267H45.1923V75.0682H46.3656V85.25H45.2321V84.0767H45.0929C45.0067 84.2159 44.8841 84.3916 44.725 84.6037C44.5659 84.8125 44.3388 84.9998 44.0439 85.1655C43.7489 85.3279 43.3561 85.4091 42.8656 85.4091ZM43.0247 84.3551C43.4953 84.3551 43.8931 84.2325 44.2179 83.9872C44.5427 83.7386 44.7896 83.3956 44.9586 82.9581C45.1277 82.5173 45.2122 82.0085 45.2122 81.4318C45.2122 80.8617 45.1293 80.3629 44.9636 79.9354C44.7979 79.5045 44.5526 79.1697 44.2278 78.9311C43.903 78.6892 43.502 78.5682 43.0247 78.5682C42.5275 78.5682 42.1132 78.6958 41.7818 78.951C41.4537 79.2029 41.2067 79.5459 41.041 79.9801C40.8786 80.411 40.7974 80.8949 40.7974 81.4318C40.7974 81.9754 40.8803 82.4692 41.046 82.9134C41.215 83.3542 41.4636 83.7055 41.7917 83.9673C42.1232 84.2259 42.5342 84.3551 43.0247 84.3551ZM50.9245 85.429C50.4406 85.429 50.0015 85.3378 49.6071 85.1555C49.2127 84.9699 48.8994 84.7031 48.6674 84.3551C48.4354 84.0038 48.3194 83.5795 48.3194 83.0824C48.3194 82.6449 48.4056 82.2902 48.5779 82.0185C48.7503 81.7434 48.9806 81.5279 49.269 81.3722C49.5574 81.2164 49.8755 81.1004 50.2235 81.0241C50.5749 80.9446 50.9279 80.8816 51.2825 80.8352C51.7465 80.7756 52.1227 80.7308 52.411 80.701C52.7027 80.6679 52.9148 80.6132 53.0474 80.5369C53.1833 80.4607 53.2512 80.3281 53.2512 80.1392V80.0994C53.2512 79.6089 53.117 79.2277 52.8485 78.956C52.5834 78.6842 52.1807 78.5483 51.6404 78.5483C51.0803 78.5483 50.6412 78.6709 50.323 78.9162C50.0048 79.1615 49.7811 79.4233 49.6518 79.7017L48.5382 79.304C48.737 78.84 49.0022 78.4787 49.3336 78.2202C49.6684 77.9583 50.033 77.776 50.4274 77.6733C50.8251 77.5672 51.2162 77.5142 51.6007 77.5142C51.8459 77.5142 52.1277 77.544 52.4458 77.6037C52.7673 77.66 53.0772 77.7777 53.3755 77.9567C53.6771 78.1357 53.9274 78.4058 54.1262 78.767C54.3251 79.1283 54.4245 79.6122 54.4245 80.2188V85.25H53.2512V84.2159H53.1916C53.112 84.3816 52.9795 84.5589 52.7939 84.7479C52.6083 84.9368 52.3613 85.0975 52.0531 85.2301C51.7449 85.3627 51.3687 85.429 50.9245 85.429ZM51.1035 84.375C51.5675 84.375 51.9586 84.2839 52.2768 84.1016C52.5983 83.9193 52.8403 83.6839 53.0027 83.3956C53.1684 83.1072 53.2512 82.804 53.2512 82.4858V81.4119C53.2015 81.4716 53.0922 81.5263 52.9231 81.576C52.7574 81.6224 52.5652 81.6638 52.3464 81.7003C52.131 81.7334 51.9205 81.7633 51.715 81.7898C51.5128 81.813 51.3488 81.8329 51.2228 81.8494C50.9179 81.8892 50.6329 81.9538 50.3677 82.0433C50.1059 82.1295 49.8938 82.2604 49.7314 82.4361C49.5723 82.6084 49.4927 82.8437 49.4927 83.142C49.4927 83.5497 49.6435 83.858 49.9451 84.0668C50.2501 84.2723 50.6362 84.375 51.1035 84.375ZM59.8871 77.6136V78.608H55.9297V77.6136H59.8871ZM57.0831 75.7841H58.2564V83.0625C58.2564 83.3939 58.3045 83.6425 58.4006 83.8082C58.5 83.9706 58.6259 84.08 58.7784 84.1364C58.9342 84.1894 59.0982 84.2159 59.2706 84.2159C59.3999 84.2159 59.5059 84.2093 59.5888 84.196C59.6716 84.1795 59.7379 84.1662 59.7876 84.1562L60.0263 85.2102C59.9467 85.2401 59.8357 85.2699 59.6932 85.2997C59.5507 85.3329 59.37 85.3494 59.1513 85.3494C58.8198 85.3494 58.495 85.2782 58.1768 85.1357C57.862 84.9931 57.6001 84.776 57.3913 84.4844C57.1858 84.1927 57.0831 83.8248 57.0831 83.3807V75.7841ZM64.7717 85.4091C64.0359 85.4091 63.4012 85.2467 62.8675 84.9219C62.3372 84.5938 61.9279 84.1364 61.6396 83.5497C61.3545 82.9598 61.212 82.2737 61.212 81.4915C61.212 80.7093 61.3545 80.0199 61.6396 79.4233C61.9279 78.8234 62.329 78.3561 62.8427 78.0213C63.3597 77.6832 63.9629 77.5142 64.6523 77.5142C65.0501 77.5142 65.4428 77.5805 65.8306 77.7131C66.2184 77.8456 66.5714 78.0611 66.8896 78.3594C67.2077 78.6544 67.4613 79.0455 67.6502 79.5327C67.8391 80.0199 67.9336 80.6198 67.9336 81.3324V81.8295H62.0472V80.8153H66.7404C66.7404 80.3845 66.6542 80 66.4819 79.6619C66.3129 79.3239 66.0709 79.0571 65.756 78.8615C65.4445 78.666 65.0766 78.5682 64.6523 78.5682C64.185 78.5682 63.7807 78.6842 63.4393 78.9162C63.1012 79.1449 62.841 79.4432 62.6587 79.8111C62.4764 80.179 62.3853 80.5734 62.3853 80.9943V81.6705C62.3853 82.2472 62.4847 82.736 62.6836 83.1371C62.8858 83.5348 63.1658 83.8381 63.5238 84.0469C63.8817 84.2524 64.2977 84.3551 64.7717 84.3551C65.0799 84.3551 65.3583 84.312 65.6069 84.2259C65.8588 84.1364 66.0759 84.0038 66.2582 83.8281C66.4405 83.6491 66.5813 83.4271 66.6808 83.1619L67.8143 83.4801C67.695 83.8646 67.4944 84.2027 67.2127 84.4943C66.931 84.7827 66.583 85.008 66.1687 85.1705C65.7544 85.3295 65.2887 85.4091 64.7717 85.4091ZM74.4116 88.1136C74.2127 88.1136 74.0354 88.0971 73.8796 88.0639C73.7238 88.0341 73.6161 88.0043 73.5565 87.9744L73.8548 86.9403C74.1398 87.0133 74.3917 87.0398 74.6104 87.0199C74.8292 87 75.0231 86.9022 75.1921 86.7266C75.3645 86.5542 75.5219 86.2741 75.6644 85.8864L75.8832 85.2898L73.0593 77.6136H74.332L76.44 83.6989H76.5195L78.6275 77.6136H79.9002L76.6587 86.3636C76.5129 86.758 76.3323 87.0845 76.1168 87.343C75.9014 87.6049 75.6512 87.7988 75.3661 87.9247C75.0844 88.0507 74.7662 88.1136 74.4116 88.1136ZM84.2777 85.4091C83.5883 85.4091 82.9834 85.245 82.4631 84.9169C81.946 84.5888 81.5417 84.1297 81.25 83.5398C80.9616 82.9498 80.8175 82.2604 80.8175 81.4716C80.8175 80.6761 80.9616 79.9818 81.25 79.3885C81.5417 78.7952 81.946 78.3345 82.4631 78.0064C82.9834 77.6783 83.5883 77.5142 84.2777 77.5142C84.9671 77.5142 85.5703 77.6783 86.0874 78.0064C86.6077 78.3345 87.0121 78.7952 87.3004 79.3885C87.5921 79.9818 87.7379 80.6761 87.7379 81.4716C87.7379 82.2604 87.5921 82.9498 87.3004 83.5398C87.0121 84.1297 86.6077 84.5888 86.0874 84.9169C85.5703 85.245 84.9671 85.4091 84.2777 85.4091ZM84.2777 84.3551C84.8014 84.3551 85.2322 84.2209 85.5703 83.9524C85.9084 83.6839 86.1586 83.331 86.321 82.8935C86.4834 82.456 86.5646 81.982 86.5646 81.4716C86.5646 80.9612 86.4834 80.4856 86.321 80.0447C86.1586 79.6039 85.9084 79.2476 85.5703 78.9759C85.2322 78.7041 84.8014 78.5682 84.2777 78.5682C83.754 78.5682 83.3232 78.7041 82.9851 78.9759C82.647 79.2476 82.3968 79.6039 82.2344 80.0447C82.072 80.4856 81.9908 80.9612 81.9908 81.4716C81.9908 81.982 82.072 82.456 82.2344 82.8935C82.3968 83.331 82.647 83.6839 82.9851 83.9524C83.3232 84.2209 83.754 84.3551 84.2777 84.3551ZM94.3414 82.1278V77.6136H95.5147V85.25H94.3414V83.9574H94.2619C94.0829 84.3452 93.8045 84.675 93.4267 84.9467C93.0488 85.2152 92.5716 85.3494 91.9949 85.3494C91.5176 85.3494 91.0933 85.245 90.7221 85.0362C90.3509 84.8241 90.0592 84.5059 89.8471 84.0817C89.635 83.6541 89.5289 83.1155 89.5289 82.4659V77.6136H90.7022V82.3864C90.7022 82.9432 90.858 83.3873 91.1696 83.7188C91.4844 84.0502 91.8855 84.2159 92.3727 84.2159C92.6644 84.2159 92.961 84.1413 93.2626 83.9922C93.5675 83.843 93.8227 83.6143 94.0282 83.3061C94.237 82.9979 94.3414 82.6051 94.3414 82.1278ZM97.6637 85.25V77.6136H98.7972V78.767H98.8768C99.016 78.3892 99.2679 78.0826 99.6325 77.8473C99.997 77.612 100.408 77.4943 100.865 77.4943C100.952 77.4943 101.059 77.496 101.189 77.4993C101.318 77.5026 101.416 77.5076 101.482 77.5142V78.7074C101.442 78.6974 101.351 78.6825 101.208 78.6626C101.069 78.6394 100.922 78.6278 100.766 78.6278C100.395 78.6278 100.063 78.7057 99.7717 78.8615C99.4833 79.014 99.2546 79.2261 99.0856 79.4979C98.9199 79.7663 98.837 80.0729 98.837 80.4176V85.25H97.6637ZM106.81 88.1136V77.6136H107.944V78.8267H108.083C108.169 78.6941 108.288 78.5251 108.441 78.3196C108.597 78.1108 108.819 77.9252 109.107 77.7628C109.399 77.5971 109.793 77.5142 110.29 77.5142C110.933 77.5142 111.5 77.675 111.991 77.9964C112.481 78.3179 112.864 78.7737 113.139 79.3636C113.414 79.9536 113.552 80.6496 113.552 81.4517C113.552 82.2604 113.414 82.9614 113.139 83.5547C112.864 84.1446 112.483 84.602 111.996 84.9268C111.508 85.2483 110.947 85.4091 110.31 85.4091C109.82 85.4091 109.427 85.3279 109.132 85.1655C108.837 84.9998 108.61 84.8125 108.451 84.6037C108.292 84.3916 108.169 84.2159 108.083 84.0767H107.983V88.1136H106.81ZM107.964 81.4318C107.964 82.0085 108.048 82.5173 108.217 82.9581C108.386 83.3956 108.633 83.7386 108.958 83.9872C109.283 84.2325 109.68 84.3551 110.151 84.3551C110.642 84.3551 111.051 84.2259 111.379 83.9673C111.711 83.7055 111.959 83.3542 112.125 82.9134C112.294 82.4692 112.378 81.9754 112.378 81.4318C112.378 80.8949 112.296 80.411 112.13 79.9801C111.967 79.5459 111.72 79.2029 111.389 78.951C111.061 78.6958 110.648 78.5682 110.151 78.5682C109.674 78.5682 109.273 78.6892 108.948 78.9311C108.623 79.1697 108.378 79.5045 108.212 79.9354C108.046 80.3629 107.964 80.8617 107.964 81.4318ZM118.543 85.4091C117.807 85.4091 117.173 85.2467 116.639 84.9219C116.109 84.5938 115.699 84.1364 115.411 83.5497C115.126 82.9598 114.983 82.2737 114.983 81.4915C114.983 80.7093 115.126 80.0199 115.411 79.4233C115.699 78.8234 116.1 78.3561 116.614 78.0213C117.131 77.6832 117.734 77.5142 118.424 77.5142C118.822 77.5142 119.214 77.5805 119.602 77.7131C119.99 77.8456 120.343 78.0611 120.661 78.3594C120.979 78.6544 121.233 79.0455 121.422 79.5327C121.611 80.0199 121.705 80.6198 121.705 81.3324V81.8295H115.819V80.8153H120.512C120.512 80.3845 120.426 80 120.253 79.6619C120.084 79.3239 119.842 79.0571 119.528 78.8615C119.216 78.666 118.848 78.5682 118.424 78.5682C117.956 78.5682 117.552 78.6842 117.211 78.9162C116.873 79.1449 116.613 79.4432 116.43 79.8111C116.248 80.179 116.157 80.5734 116.157 80.9943V81.6705C116.157 82.2472 116.256 82.736 116.455 83.1371C116.657 83.5348 116.937 83.8381 117.295 84.0469C117.653 84.2524 118.069 84.3551 118.543 84.3551C118.851 84.3551 119.13 84.312 119.378 84.2259C119.63 84.1364 119.847 84.0038 120.03 83.8281C120.212 83.6491 120.353 83.4271 120.452 83.1619L121.586 83.4801C121.466 83.8646 121.266 84.2027 120.984 84.4943C120.702 84.7827 120.354 85.008 119.94 85.1705C119.526 85.3295 119.06 85.4091 118.543 85.4091ZM123.49 85.25V77.6136H124.623V78.767H124.703C124.842 78.3892 125.094 78.0826 125.459 77.8473C125.823 77.612 126.234 77.4943 126.692 77.4943C126.778 77.4943 126.885 77.496 127.015 77.4993C127.144 77.5026 127.242 77.5076 127.308 77.5142V78.7074C127.268 78.6974 127.177 78.6825 127.035 78.6626C126.895 78.6394 126.748 78.6278 126.592 78.6278C126.221 78.6278 125.89 78.7057 125.598 78.8615C125.309 79.014 125.081 79.2261 124.912 79.4979C124.746 79.7663 124.663 80.0729 124.663 80.4176V85.25H123.49ZM134.108 79.3239L133.054 79.6222C132.988 79.4465 132.89 79.2758 132.761 79.1101C132.635 78.9411 132.462 78.8018 132.244 78.6925C132.025 78.5831 131.745 78.5284 131.403 78.5284C130.936 78.5284 130.547 78.6361 130.235 78.8516C129.927 79.0637 129.773 79.3338 129.773 79.6619C129.773 79.9536 129.879 80.1839 130.091 80.353C130.303 80.522 130.634 80.6629 131.085 80.7756L132.219 81.054C132.902 81.2197 133.41 81.4732 133.745 81.8146C134.08 82.1527 134.247 82.5885 134.247 83.1222C134.247 83.5597 134.121 83.9508 133.869 84.2955C133.621 84.6402 133.273 84.9119 132.825 85.1108C132.378 85.3097 131.857 85.4091 131.264 85.4091C130.485 85.4091 129.841 85.2401 129.33 84.902C128.82 84.5639 128.497 84.0701 128.361 83.4205L129.474 83.142C129.58 83.553 129.781 83.8613 130.076 84.0668C130.374 84.2723 130.764 84.375 131.244 84.375C131.791 84.375 132.225 84.259 132.547 84.027C132.872 83.7917 133.034 83.5099 133.034 83.1818C133.034 82.9167 132.941 82.6946 132.756 82.5156C132.57 82.3333 132.285 82.1974 131.901 82.108L130.628 81.8097C129.929 81.6439 129.415 81.3871 129.087 81.0391C128.762 80.6877 128.599 80.2486 128.599 79.7216C128.599 79.2907 128.72 78.9096 128.962 78.5781C129.208 78.2467 129.541 77.9865 129.962 77.7976C130.386 77.6087 130.866 77.5142 131.403 77.5142C132.159 77.5142 132.752 77.6799 133.183 78.0114C133.617 78.3428 133.926 78.7803 134.108 79.3239ZM139.116 85.4091C138.426 85.4091 137.821 85.245 137.301 84.9169C136.784 84.5888 136.38 84.1297 136.088 83.5398C135.8 82.9498 135.655 82.2604 135.655 81.4716C135.655 80.6761 135.8 79.9818 136.088 79.3885C136.38 78.7952 136.784 78.3345 137.301 78.0064C137.821 77.6783 138.426 77.5142 139.116 77.5142C139.805 77.5142 140.408 77.6783 140.925 78.0064C141.446 78.3345 141.85 78.7952 142.138 79.3885C142.43 79.9818 142.576 80.6761 142.576 81.4716C142.576 82.2604 142.43 82.9498 142.138 83.5398C141.85 84.1297 141.446 84.5888 140.925 84.9169C140.408 85.245 139.805 85.4091 139.116 85.4091ZM139.116 84.3551C139.639 84.3551 140.07 84.2209 140.408 83.9524C140.746 83.6839 140.997 83.331 141.159 82.8935C141.321 82.456 141.403 81.982 141.403 81.4716C141.403 80.9612 141.321 80.4856 141.159 80.0447C140.997 79.6039 140.746 79.2476 140.408 78.9759C140.07 78.7041 139.639 78.5682 139.116 78.5682C138.592 78.5682 138.161 78.7041 137.823 78.9759C137.485 79.2476 137.235 79.6039 137.072 80.0447C136.91 80.4856 136.829 80.9612 136.829 81.4716C136.829 81.982 136.91 82.456 137.072 82.8935C137.235 83.331 137.485 83.6839 137.823 83.9524C138.161 84.2209 138.592 84.3551 139.116 84.3551ZM145.54 80.6562V85.25H144.367V77.6136H145.5V78.8068H145.6C145.779 78.419 146.051 78.1075 146.415 77.8722C146.78 77.6335 147.25 77.5142 147.827 77.5142C148.344 77.5142 148.797 77.6203 149.184 77.8324C149.572 78.0412 149.874 78.3594 150.089 78.7869C150.305 79.2112 150.412 79.7481 150.412 80.3977V85.25H149.239V80.4773C149.239 79.8774 149.083 79.41 148.772 79.0753C148.46 78.7372 148.033 78.5682 147.489 78.5682C147.114 78.5682 146.78 78.6494 146.485 78.8118C146.193 78.9742 145.963 79.2112 145.794 79.5227C145.625 79.8343 145.54 80.2121 145.54 80.6562ZM154.803 85.429C154.32 85.429 153.88 85.3378 153.486 85.1555C153.092 84.9699 152.778 84.7031 152.546 84.3551C152.314 84.0038 152.198 83.5795 152.198 83.0824C152.198 82.6449 152.285 82.2902 152.457 82.0185C152.629 81.7434 152.86 81.5279 153.148 81.3722C153.436 81.2164 153.754 81.1004 154.102 81.0241C154.454 80.9446 154.807 80.8816 155.161 80.8352C155.625 80.7756 156.002 80.7308 156.29 80.701C156.582 80.6679 156.794 80.6132 156.926 80.5369C157.062 80.4607 157.13 80.3281 157.13 80.1392V80.0994C157.13 79.6089 156.996 79.2277 156.727 78.956C156.462 78.6842 156.06 78.5483 155.519 78.5483C154.959 78.5483 154.52 78.6709 154.202 78.9162C153.884 79.1615 153.66 79.4233 153.531 79.7017L152.417 79.304C152.616 78.84 152.881 78.4787 153.213 78.2202C153.547 77.9583 153.912 77.776 154.306 77.6733C154.704 77.5672 155.095 77.5142 155.48 77.5142C155.725 77.5142 156.007 77.544 156.325 77.6037C156.646 77.66 156.956 77.7777 157.254 77.9567C157.556 78.1357 157.806 78.4058 158.005 78.767C158.204 79.1283 158.303 79.6122 158.303 80.2188V85.25H157.13V84.2159H157.07C156.991 84.3816 156.858 84.5589 156.673 84.7479C156.487 84.9368 156.24 85.0975 155.932 85.2301C155.624 85.3627 155.248 85.429 154.803 85.429ZM154.982 84.375C155.446 84.375 155.838 84.2839 156.156 84.1016C156.477 83.9193 156.719 83.6839 156.882 83.3956C157.047 83.1072 157.13 82.804 157.13 82.4858V81.4119C157.08 81.4716 156.971 81.5263 156.802 81.576C156.636 81.6224 156.444 81.6638 156.225 81.7003C156.01 81.7334 155.799 81.7633 155.594 81.7898C155.392 81.813 155.228 81.8329 155.102 81.8494C154.797 81.8892 154.512 81.9538 154.247 82.0433C153.985 82.1295 153.773 82.2604 153.61 82.4361C153.451 82.6084 153.372 82.8437 153.372 83.142C153.372 83.5497 153.522 83.858 153.824 84.0668C154.129 84.2723 154.515 84.375 154.982 84.375ZM161.618 75.0682V85.25H160.445V75.0682H161.618ZM170.588 85.4091C169.952 85.4091 169.39 85.2483 168.903 84.9268C168.416 84.602 168.035 84.1446 167.759 83.5547C167.484 82.9614 167.347 82.2604 167.347 81.4517C167.347 80.6496 167.484 79.9536 167.759 79.3636C168.035 78.7737 168.417 78.3179 168.908 77.9964C169.398 77.675 169.965 77.5142 170.608 77.5142C171.105 77.5142 171.498 77.5971 171.786 77.7628C172.078 77.9252 172.3 78.1108 172.453 78.3196C172.608 78.5251 172.729 78.6941 172.816 78.8267H172.915V75.0682H174.088V85.25H172.955V84.0767H172.816C172.729 84.2159 172.607 84.3916 172.448 84.6037C172.289 84.8125 172.061 84.9998 171.767 85.1655C171.472 85.3279 171.079 85.4091 170.588 85.4091ZM170.747 84.3551C171.218 84.3551 171.616 84.2325 171.941 83.9872C172.265 83.7386 172.512 83.3956 172.681 82.9581C172.85 82.5173 172.935 82.0085 172.935 81.4318C172.935 80.8617 172.852 80.3629 172.686 79.9354C172.521 79.5045 172.275 79.1697 171.95 78.9311C171.626 78.6892 171.225 78.5682 170.747 78.5682C170.25 78.5682 169.836 78.6958 169.504 78.951C169.176 79.2029 168.929 79.5459 168.764 79.9801C168.601 80.411 168.52 80.8949 168.52 81.4318C168.52 81.9754 168.603 82.4692 168.769 82.9134C168.938 83.3542 169.186 83.7055 169.514 83.9673C169.846 84.2259 170.257 84.3551 170.747 84.3551ZM179.602 85.4091C178.866 85.4091 178.231 85.2467 177.698 84.9219C177.167 84.5938 176.758 84.1364 176.47 83.5497C176.185 82.9598 176.042 82.2737 176.042 81.4915C176.042 80.7093 176.185 80.0199 176.47 79.4233C176.758 78.8234 177.159 78.3561 177.673 78.0213C178.19 77.6832 178.793 77.5142 179.482 77.5142C179.88 77.5142 180.273 77.5805 180.661 77.7131C181.048 77.8456 181.401 78.0611 181.72 78.3594C182.038 78.6544 182.291 79.0455 182.48 79.5327C182.669 80.0199 182.764 80.6198 182.764 81.3324V81.8295H176.877V80.8153H181.57C181.57 80.3845 181.484 80 181.312 79.6619C181.143 79.3239 180.901 79.0571 180.586 78.8615C180.275 78.666 179.907 78.5682 179.482 78.5682C179.015 78.5682 178.611 78.6842 178.269 78.9162C177.931 79.1449 177.671 79.4432 177.489 79.8111C177.307 80.179 177.215 80.5734 177.215 80.9943V81.6705C177.215 82.2472 177.315 82.736 177.514 83.1371C177.716 83.5348 177.996 83.8381 178.354 84.0469C178.712 84.2524 179.128 84.3551 179.602 84.3551C179.91 84.3551 180.188 84.312 180.437 84.2259C180.689 84.1364 180.906 84.0038 181.088 83.8281C181.271 83.6491 181.411 83.4271 181.511 83.1619L182.644 83.4801C182.525 83.8646 182.325 84.2027 182.043 84.4943C181.761 84.7827 181.413 85.008 180.999 85.1705C180.584 85.3295 180.119 85.4091 179.602 85.4091ZM187.869 77.6136V78.608H183.912V77.6136H187.869ZM185.066 75.7841H186.239V83.0625C186.239 83.3939 186.287 83.6425 186.383 83.8082C186.482 83.9706 186.608 84.08 186.761 84.1364C186.917 84.1894 187.081 84.2159 187.253 84.2159C187.382 84.2159 187.488 84.2093 187.571 84.196C187.654 84.1795 187.72 84.1662 187.77 84.1562L188.009 85.2102C187.929 85.2401 187.818 85.2699 187.676 85.2997C187.533 85.3329 187.352 85.3494 187.134 85.3494C186.802 85.3494 186.477 85.2782 186.159 85.1357C185.844 84.9931 185.583 84.776 185.374 84.4844C185.168 84.1927 185.066 83.8248 185.066 83.3807V75.7841ZM191.882 85.429C191.398 85.429 190.959 85.3378 190.564 85.1555C190.17 84.9699 189.856 84.7031 189.624 84.3551C189.392 84.0038 189.276 83.5795 189.276 83.0824C189.276 82.6449 189.363 82.2902 189.535 82.0185C189.707 81.7434 189.938 81.5279 190.226 81.3722C190.514 81.2164 190.833 81.1004 191.181 81.0241C191.532 80.9446 191.885 80.8816 192.24 80.8352C192.704 80.7756 193.08 80.7308 193.368 80.701C193.66 80.6679 193.872 80.6132 194.004 80.5369C194.14 80.4607 194.208 80.3281 194.208 80.1392V80.0994C194.208 79.6089 194.074 79.2277 193.806 78.956C193.54 78.6842 193.138 78.5483 192.597 78.5483C192.037 78.5483 191.598 78.6709 191.28 78.9162C190.962 79.1615 190.738 79.4233 190.609 79.7017L189.495 79.304C189.694 78.84 189.959 78.4787 190.291 78.2202C190.625 77.9583 190.99 77.776 191.384 77.6733C191.782 77.5672 192.173 77.5142 192.558 77.5142C192.803 77.5142 193.085 77.544 193.403 77.6037C193.724 77.66 194.034 77.7777 194.333 77.9567C194.634 78.1357 194.884 78.4058 195.083 78.767C195.282 79.1283 195.382 79.6122 195.382 80.2188V85.25H194.208V84.2159H194.149C194.069 84.3816 193.936 84.5589 193.751 84.7479C193.565 84.9368 193.318 85.0975 193.01 85.2301C192.702 85.3627 192.326 85.429 191.882 85.429ZM192.061 84.375C192.525 84.375 192.916 84.2839 193.234 84.1016C193.555 83.9193 193.797 83.6839 193.96 83.3956C194.125 83.1072 194.208 82.804 194.208 82.4858V81.4119C194.159 81.4716 194.049 81.5263 193.88 81.576C193.714 81.6224 193.522 81.6638 193.303 81.7003C193.088 81.7334 192.878 81.7633 192.672 81.7898C192.47 81.813 192.306 81.8329 192.18 81.8494C191.875 81.8892 191.59 81.9538 191.325 82.0433C191.063 82.1295 190.851 82.2604 190.688 82.4361C190.529 82.6084 190.45 82.8437 190.45 83.142C190.45 83.5497 190.601 83.858 190.902 84.0668C191.207 84.2723 191.593 84.375 192.061 84.375ZM197.523 85.25V77.6136H198.696V85.25H197.523ZM198.12 76.3409C197.891 76.3409 197.694 76.263 197.528 76.1072C197.366 75.9515 197.284 75.7642 197.284 75.5455C197.284 75.3267 197.366 75.1394 197.528 74.9837C197.694 74.8279 197.891 74.75 198.12 74.75C198.348 74.75 198.544 74.8279 198.706 74.9837C198.872 75.1394 198.955 75.3267 198.955 75.5455C198.955 75.7642 198.872 75.9515 198.706 76.1072C198.544 76.263 198.348 76.3409 198.12 76.3409ZM202.019 75.0682V85.25H200.845V75.0682H202.019ZM209.577 79.3239L208.523 79.6222C208.456 79.4465 208.359 79.2758 208.229 79.1101C208.103 78.9411 207.931 78.8018 207.712 78.6925C207.494 78.5831 207.214 78.5284 206.872 78.5284C206.405 78.5284 206.015 78.6361 205.704 78.8516C205.396 79.0637 205.241 79.3338 205.241 79.6619C205.241 79.9536 205.348 80.1839 205.56 80.353C205.772 80.522 206.103 80.6629 206.554 80.7756L207.688 81.054C208.37 81.2197 208.879 81.4732 209.214 81.8146C209.549 82.1527 209.716 82.5885 209.716 83.1222C209.716 83.5597 209.59 83.9508 209.338 84.2955C209.089 84.6402 208.741 84.9119 208.294 85.1108C207.847 85.3097 207.326 85.4091 206.733 85.4091C205.954 85.4091 205.309 85.2401 204.799 84.902C204.289 84.5639 203.965 84.0701 203.83 83.4205L204.943 83.142C205.049 83.553 205.25 83.8613 205.545 84.0668C205.843 84.2723 206.232 84.375 206.713 84.375C207.26 84.375 207.694 84.259 208.016 84.027C208.34 83.7917 208.503 83.5099 208.503 83.1818C208.503 82.9167 208.41 82.6946 208.224 82.5156C208.039 82.3333 207.754 82.1974 207.369 82.108L206.097 81.8097C205.397 81.6439 204.884 81.3871 204.555 81.0391C204.231 80.6877 204.068 80.2486 204.068 79.7216C204.068 79.2907 204.189 78.9096 204.431 78.5781C204.676 78.2467 205.009 77.9865 205.43 77.7976C205.855 77.6087 206.335 77.5142 206.872 77.5142C207.628 77.5142 208.221 77.6799 208.652 78.0114C209.086 78.3428 209.394 78.7803 209.577 79.3239ZM213.232 83.858L213.153 84.3949C213.096 84.7727 213.01 85.1771 212.894 85.608C212.781 86.0388 212.664 86.4448 212.541 86.826C212.418 87.2071 212.317 87.5104 212.238 87.7358H211.343C211.386 87.5237 211.442 87.2436 211.512 86.8956C211.581 86.5476 211.651 86.1581 211.721 85.7273C211.794 85.2997 211.853 84.8622 211.9 84.4148L211.959 83.858H213.232ZM225.588 77.6136L222.764 85.25H221.571L218.747 77.6136H220.02L222.127 83.6989H222.207L224.315 77.6136H225.588ZM227.136 85.25V77.6136H228.31V85.25H227.136ZM227.733 76.3409C227.504 76.3409 227.307 76.263 227.141 76.1072C226.979 75.9515 226.898 75.7642 226.898 75.5455C226.898 75.3267 226.979 75.1394 227.141 74.9837C227.307 74.8279 227.504 74.75 227.733 74.75C227.962 74.75 228.157 74.8279 228.32 74.9837C228.485 75.1394 228.568 75.3267 228.568 75.5455C228.568 75.7642 228.485 75.9515 228.32 76.1072C228.157 76.263 227.962 76.3409 227.733 76.3409ZM233.66 85.4091C232.925 85.4091 232.29 85.2467 231.756 84.9219C231.226 84.5938 230.817 84.1364 230.528 83.5497C230.243 82.9598 230.101 82.2737 230.101 81.4915C230.101 80.7093 230.243 80.0199 230.528 79.4233C230.817 78.8234 231.218 78.3561 231.731 78.0213C232.248 77.6832 232.852 77.5142 233.541 77.5142C233.939 77.5142 234.331 77.5805 234.719 77.7131C235.107 77.8456 235.46 78.0611 235.778 78.3594C236.096 78.6544 236.35 79.0455 236.539 79.5327C236.728 80.0199 236.822 80.6198 236.822 81.3324V81.8295H230.936V80.8153H235.629C235.629 80.3845 235.543 80 235.371 79.6619C235.202 79.3239 234.96 79.0571 234.645 78.8615C234.333 78.666 233.965 78.5682 233.541 78.5682C233.074 78.5682 232.669 78.6842 232.328 78.9162C231.99 79.1449 231.73 79.4432 231.547 79.8111C231.365 80.179 231.274 80.5734 231.274 80.9943V81.6705C231.274 82.2472 231.373 82.736 231.572 83.1371C231.774 83.5348 232.055 83.8381 232.412 84.0469C232.77 84.2524 233.186 84.3551 233.66 84.3551C233.969 84.3551 234.247 84.312 234.496 84.2259C234.747 84.1364 234.965 84.0038 235.147 83.8281C235.329 83.6491 235.47 83.4271 235.569 83.1619L236.703 83.4801C236.584 83.8646 236.383 84.2027 236.101 84.4943C235.82 84.7827 235.472 85.008 235.057 85.1705C234.643 85.3295 234.177 85.4091 233.66 85.4091ZM240.337 85.25L238.01 77.6136H239.243L240.894 83.4602H240.974L242.604 77.6136H243.857L245.468 83.4403H245.547L247.198 77.6136H248.431L246.104 85.25H244.951L243.28 79.3835H243.161L241.491 85.25H240.337ZM255.093 75.0682V85.25H253.92V75.0682H255.093ZM260.444 85.4091C259.708 85.4091 259.073 85.2467 258.539 84.9219C258.009 84.5938 257.6 84.1364 257.311 83.5497C257.026 82.9598 256.884 82.2737 256.884 81.4915C256.884 80.7093 257.026 80.0199 257.311 79.4233C257.6 78.8234 258.001 78.3561 258.515 78.0213C259.032 77.6832 259.635 77.5142 260.324 77.5142C260.722 77.5142 261.115 77.5805 261.502 77.7131C261.89 77.8456 262.243 78.0611 262.561 78.3594C262.88 78.6544 263.133 79.0455 263.322 79.5327C263.511 80.0199 263.605 80.6198 263.605 81.3324V81.8295H257.719V80.8153H262.412C262.412 80.3845 262.326 80 262.154 79.6619C261.985 79.3239 261.743 79.0571 261.428 78.8615C261.116 78.666 260.748 78.5682 260.324 78.5682C259.857 78.5682 259.453 78.6842 259.111 78.9162C258.773 79.1449 258.513 79.4432 258.331 79.8111C258.148 80.179 258.057 80.5734 258.057 80.9943V81.6705C258.057 82.2472 258.157 82.736 258.355 83.1371C258.558 83.5348 258.838 83.8381 259.196 84.0469C259.554 84.2524 259.97 84.3551 260.444 84.3551C260.752 84.3551 261.03 84.312 261.279 84.2259C261.531 84.1364 261.748 84.0038 261.93 83.8281C262.112 83.6491 262.253 83.4271 262.353 83.1619L263.486 83.4801C263.367 83.8646 263.166 84.2027 262.885 84.4943C262.603 84.7827 262.255 85.008 261.841 85.1705C261.426 85.3295 260.961 85.4091 260.444 85.4091ZM267.637 85.429C267.154 85.429 266.714 85.3378 266.32 85.1555C265.926 84.9699 265.612 84.7031 265.38 84.3551C265.148 84.0038 265.032 83.5795 265.032 83.0824C265.032 82.6449 265.118 82.2902 265.291 82.0185C265.463 81.7434 265.694 81.5279 265.982 81.3722C266.27 81.2164 266.588 81.1004 266.936 81.0241C267.288 80.9446 267.641 80.8816 267.995 80.8352C268.459 80.7756 268.836 80.7308 269.124 80.701C269.416 80.6679 269.628 80.6132 269.76 80.5369C269.896 80.4607 269.964 80.3281 269.964 80.1392V80.0994C269.964 79.6089 269.83 79.2277 269.561 78.956C269.296 78.6842 268.894 78.5483 268.353 78.5483C267.793 78.5483 267.354 78.6709 267.036 78.9162C266.718 79.1615 266.494 79.4233 266.365 79.7017L265.251 79.304C265.45 78.84 265.715 78.4787 266.047 78.2202C266.381 77.9583 266.746 77.776 267.14 77.6733C267.538 77.5672 267.929 77.5142 268.314 77.5142C268.559 77.5142 268.841 77.544 269.159 77.6037C269.48 77.66 269.79 77.7777 270.088 77.9567C270.39 78.1357 270.64 78.4058 270.839 78.767C271.038 79.1283 271.137 79.6122 271.137 80.2188V85.25H269.964V84.2159H269.904C269.825 84.3816 269.692 84.5589 269.507 84.7479C269.321 84.9368 269.074 85.0975 268.766 85.2301C268.458 85.3627 268.082 85.429 267.637 85.429ZM267.816 84.375C268.28 84.375 268.672 84.2839 268.99 84.1016C269.311 83.9193 269.553 83.6839 269.716 83.3956C269.881 83.1072 269.964 82.804 269.964 82.4858V81.4119C269.914 81.4716 269.805 81.5263 269.636 81.576C269.47 81.6224 269.278 81.6638 269.059 81.7003C268.844 81.7334 268.633 81.7633 268.428 81.7898C268.226 81.813 268.062 81.8329 267.936 81.8494C267.631 81.8892 267.346 81.9538 267.081 82.0433C266.819 82.1295 266.607 82.2604 266.444 82.4361C266.285 82.6084 266.206 82.8437 266.206 83.142C266.206 83.5497 266.356 83.858 266.658 84.0668C266.963 84.2723 267.349 84.375 267.816 84.375ZM279.25 77.6136L276.426 85.25H275.233L272.409 77.6136H273.682L275.79 83.6989H275.869L277.977 77.6136H279.25ZM283.727 85.4091C282.991 85.4091 282.356 85.2467 281.823 84.9219C281.292 84.5938 280.883 84.1364 280.595 83.5497C280.31 82.9598 280.167 82.2737 280.167 81.4915C280.167 80.7093 280.31 80.0199 280.595 79.4233C280.883 78.8234 281.284 78.3561 281.798 78.0213C282.315 77.6832 282.918 77.5142 283.607 77.5142C284.005 77.5142 284.398 77.5805 284.786 77.7131C285.173 77.8456 285.526 78.0611 285.845 78.3594C286.163 78.6544 286.416 79.0455 286.605 79.5327C286.794 80.0199 286.889 80.6198 286.889 81.3324V81.8295H281.002V80.8153H285.695C285.695 80.3845 285.609 80 285.437 79.6619C285.268 79.3239 285.026 79.0571 284.711 78.8615C284.4 78.666 284.032 78.5682 283.607 78.5682C283.14 78.5682 282.736 78.6842 282.394 78.9162C282.056 79.1449 281.796 79.4432 281.614 79.8111C281.432 80.179 281.34 80.5734 281.34 80.9943V81.6705C281.34 82.2472 281.44 82.736 281.639 83.1371C281.841 83.5348 282.121 83.8381 282.479 84.0469C282.837 84.2524 283.253 84.3551 283.727 84.3551C284.035 84.3551 284.313 84.312 284.562 84.2259C284.814 84.1364 285.031 84.0038 285.213 83.8281C285.396 83.6491 285.536 83.4271 285.636 83.1619L286.769 83.4801C286.65 83.8646 286.45 84.2027 286.168 84.4943C285.886 84.7827 285.538 85.008 285.124 85.1705C284.709 85.3295 284.244 85.4091 283.727 85.4091ZM21.233 106.25V96.0682H22.4062V99.8267H22.5057C22.5919 99.6941 22.7112 99.5251 22.8636 99.3196C23.0194 99.1108 23.2415 98.9252 23.5298 98.7628C23.8215 98.5971 24.2159 98.5142 24.7131 98.5142C25.3561 98.5142 25.9228 98.675 26.4134 98.9964C26.9039 99.3179 27.2867 99.7737 27.5618 100.364C27.8369 100.954 27.9744 101.65 27.9744 102.452C27.9744 103.26 27.8369 103.961 27.5618 104.555C27.2867 105.145 26.9055 105.602 26.4183 105.927C25.9311 106.248 25.3693 106.409 24.733 106.409C24.2424 106.409 23.8497 106.328 23.5547 106.165C23.2597 106 23.0327 105.812 22.8736 105.604C22.7145 105.392 22.5919 105.216 22.5057 105.077H22.3665V106.25H21.233ZM22.3864 102.432C22.3864 103.009 22.4709 103.517 22.6399 103.958C22.8089 104.396 23.0559 104.739 23.3807 104.987C23.7055 105.232 24.1032 105.355 24.5739 105.355C25.0644 105.355 25.4737 105.226 25.8018 104.967C26.1333 104.705 26.3819 104.354 26.5476 103.913C26.7166 103.469 26.8011 102.975 26.8011 102.432C26.8011 101.895 26.7183 101.411 26.5526 100.98C26.3902 100.546 26.1432 100.203 25.8118 99.951C25.4837 99.6958 25.071 99.5682 24.5739 99.5682C24.0966 99.5682 23.6955 99.6892 23.3707 99.9311C23.0459 100.17 22.8007 100.504 22.6349 100.935C22.4692 101.363 22.3864 101.862 22.3864 102.432ZM32.0163 106.429C31.5324 106.429 31.0933 106.338 30.6989 106.156C30.3045 105.97 29.9912 105.703 29.7592 105.355C29.5272 105.004 29.4112 104.58 29.4112 104.082C29.4112 103.645 29.4974 103.29 29.6697 103.018C29.8421 102.743 30.0724 102.528 30.3608 102.372C30.6491 102.216 30.9673 102.1 31.3153 102.024C31.6667 101.945 32.0196 101.882 32.3743 101.835C32.8383 101.776 33.2145 101.731 33.5028 101.701C33.7945 101.668 34.0066 101.613 34.1392 101.537C34.2751 101.461 34.343 101.328 34.343 101.139V101.099C34.343 100.609 34.2088 100.228 33.9403 99.956C33.6752 99.6842 33.2725 99.5483 32.7322 99.5483C32.1721 99.5483 31.733 99.6709 31.4148 99.9162C31.0966 100.161 30.8729 100.423 30.7436 100.702L29.63 100.304C29.8288 99.84 30.094 99.4787 30.4254 99.2202C30.7602 98.9583 31.1248 98.776 31.5192 98.6733C31.9169 98.5672 32.308 98.5142 32.6925 98.5142C32.9377 98.5142 33.2195 98.544 33.5376 98.6037C33.8591 98.66 34.169 98.7777 34.4673 98.9567C34.7689 99.1357 35.0192 99.4058 35.218 99.767C35.4169 100.128 35.5163 100.612 35.5163 101.219V106.25H34.343V105.216H34.2834C34.2038 105.382 34.0713 105.559 33.8857 105.748C33.7 105.937 33.4531 106.098 33.1449 106.23C32.8366 106.363 32.4605 106.429 32.0163 106.429ZM32.1953 105.375C32.6593 105.375 33.0504 105.284 33.3686 105.102C33.6901 104.919 33.9321 104.684 34.0945 104.396C34.2602 104.107 34.343 103.804 34.343 103.486V102.412C34.2933 102.472 34.1839 102.526 34.0149 102.576C33.8492 102.622 33.657 102.664 33.4382 102.7C33.2228 102.733 33.0123 102.763 32.8068 102.79C32.6046 102.813 32.4406 102.833 32.3146 102.849C32.0097 102.889 31.7247 102.954 31.4595 103.043C31.1977 103.129 30.9856 103.26 30.8232 103.436C30.6641 103.608 30.5845 103.844 30.5845 104.142C30.5845 104.55 30.7353 104.858 31.0369 105.067C31.3419 105.272 31.728 105.375 32.1953 105.375ZM38.8311 96.0682V106.25H37.6578V96.0682H38.8311ZM43.2273 106.429C42.7434 106.429 42.3042 106.338 41.9098 106.156C41.5154 105.97 41.2022 105.703 40.9702 105.355C40.7382 105.004 40.6222 104.58 40.6222 104.082C40.6222 103.645 40.7083 103.29 40.8807 103.018C41.053 102.743 41.2834 102.528 41.5717 102.372C41.8601 102.216 42.1783 102.1 42.5263 102.024C42.8776 101.945 43.2306 101.882 43.5852 101.835C44.0492 101.776 44.4254 101.731 44.7138 101.701C45.0054 101.668 45.2176 101.613 45.3501 101.537C45.486 101.461 45.554 101.328 45.554 101.139V101.099C45.554 100.609 45.4197 100.228 45.1513 99.956C44.8861 99.6842 44.4834 99.5483 43.9432 99.5483C43.383 99.5483 42.9439 99.6709 42.6257 99.9162C42.3075 100.161 42.0838 100.423 41.9545 100.702L40.8409 100.304C41.0398 99.84 41.3049 99.4787 41.6364 99.2202C41.9711 98.9583 42.3357 98.776 42.7301 98.6733C43.1278 98.5672 43.5189 98.5142 43.9034 98.5142C44.1487 98.5142 44.4304 98.544 44.7486 98.6037C45.0701 98.66 45.38 98.7777 45.6783 98.9567C45.9799 99.1357 46.2301 99.4058 46.429 99.767C46.6278 100.128 46.7273 100.612 46.7273 101.219V106.25H45.554V105.216H45.4943C45.4148 105.382 45.2822 105.559 45.0966 105.748C44.911 105.937 44.6641 106.098 44.3558 106.23C44.0476 106.363 43.6714 106.429 43.2273 106.429ZM43.4062 105.375C43.8703 105.375 44.2614 105.284 44.5795 105.102C44.901 104.919 45.143 104.684 45.3054 104.396C45.4711 104.107 45.554 103.804 45.554 103.486V102.412C45.5043 102.472 45.3949 102.526 45.2259 102.576C45.0601 102.622 44.8679 102.664 44.6491 102.7C44.4337 102.733 44.2232 102.763 44.0178 102.79C43.8156 102.813 43.6515 102.833 43.5256 102.849C43.2206 102.889 42.9356 102.954 42.6705 103.043C42.4086 103.129 42.1965 103.26 42.0341 103.436C41.875 103.608 41.7955 103.844 41.7955 104.142C41.7955 104.55 41.9463 104.858 42.2479 105.067C42.5528 105.272 42.9389 105.375 43.4062 105.375ZM50.0421 101.656V106.25H48.8688V98.6136H50.0023V99.8068H50.1017C50.2807 99.419 50.5525 99.1075 50.9171 98.8722C51.2817 98.6335 51.7523 98.5142 52.329 98.5142C52.8461 98.5142 53.2985 98.6203 53.6863 98.8324C54.074 99.0412 54.3757 99.3594 54.5911 99.7869C54.8065 100.211 54.9142 100.748 54.9142 101.398V106.25H53.7409V101.477C53.7409 100.877 53.5852 100.41 53.2736 100.075C52.9621 99.7372 52.5345 99.5682 51.9909 99.5682C51.6164 99.5682 51.2817 99.6494 50.9867 99.8118C50.695 99.9742 50.4647 100.211 50.2956 100.523C50.1266 100.834 50.0421 101.212 50.0421 101.656ZM60.1605 106.409C59.4446 106.409 58.8281 106.24 58.3111 105.902C57.794 105.564 57.3963 105.098 57.1179 104.505C56.8395 103.912 56.7003 103.234 56.7003 102.472C56.7003 101.696 56.8428 101.012 57.1278 100.418C57.4162 99.8217 57.8172 99.3561 58.331 99.0213C58.848 98.6832 59.4512 98.5142 60.1406 98.5142C60.6776 98.5142 61.1615 98.6136 61.5923 98.8125C62.0232 99.0114 62.3762 99.2898 62.6513 99.6477C62.9264 100.006 63.0971 100.423 63.1634 100.901H61.9901C61.9006 100.553 61.7017 100.244 61.3935 99.9759C61.0885 99.7041 60.6776 99.5682 60.1605 99.5682C59.7031 99.5682 59.3021 99.6875 58.9574 99.9261C58.616 100.161 58.3492 100.495 58.157 100.925C57.968 101.353 57.8736 101.855 57.8736 102.432C57.8736 103.022 57.9664 103.536 58.152 103.973C58.3409 104.411 58.6061 104.75 58.9474 104.992C59.2921 105.234 59.6965 105.355 60.1605 105.355C60.4654 105.355 60.7422 105.302 60.9908 105.196C61.2393 105.09 61.4498 104.938 61.6222 104.739C61.7945 104.54 61.9171 104.301 61.9901 104.023H63.1634C63.0971 104.473 62.933 104.879 62.6712 105.241C62.4126 105.599 62.0696 105.884 61.642 106.096C61.2178 106.305 60.724 106.409 60.1605 106.409ZM68.0803 106.409C67.3445 106.409 66.7098 106.247 66.1761 105.922C65.6458 105.594 65.2365 105.136 64.9482 104.55C64.6631 103.96 64.5206 103.274 64.5206 102.491C64.5206 101.709 64.6631 101.02 64.9482 100.423C65.2365 99.8234 65.6375 99.3561 66.1513 99.0213C66.6683 98.6832 67.2715 98.5142 67.9609 98.5142C68.3587 98.5142 68.7514 98.5805 69.1392 98.7131C69.527 98.8456 69.88 99.0611 70.1982 99.3594C70.5163 99.6544 70.7699 100.045 70.9588 100.533C71.1477 101.02 71.2422 101.62 71.2422 102.332V102.83H65.3558V101.815H70.049C70.049 101.384 69.9628 101 69.7905 100.662C69.6214 100.324 69.3795 100.057 69.0646 99.8615C68.7531 99.666 68.3852 99.5682 67.9609 99.5682C67.4936 99.5682 67.0893 99.6842 66.7479 99.9162C66.4098 100.145 66.1496 100.443 65.9673 100.811C65.785 101.179 65.6939 101.573 65.6939 101.994V102.67C65.6939 103.247 65.7933 103.736 65.9922 104.137C66.1944 104.535 66.4744 104.838 66.8324 105.047C67.1903 105.252 67.6063 105.355 68.0803 105.355C68.3885 105.355 68.6669 105.312 68.9155 105.226C69.1674 105.136 69.3845 105.004 69.5668 104.828C69.7491 104.649 69.8899 104.427 69.9893 104.162L71.1229 104.48C71.0036 104.865 70.803 105.203 70.5213 105.494C70.2396 105.783 69.8916 106.008 69.4773 106.17C69.063 106.33 68.5973 106.409 68.0803 106.409ZM78.4361 100.324L77.3821 100.622C77.3158 100.446 77.218 100.276 77.0888 100.11C76.9628 99.9411 76.7905 99.8018 76.5717 99.6925C76.353 99.5831 76.0729 99.5284 75.7315 99.5284C75.2642 99.5284 74.8748 99.6361 74.5632 99.8516C74.255 100.064 74.1009 100.334 74.1009 100.662C74.1009 100.954 74.2069 101.184 74.419 101.353C74.6312 101.522 74.9626 101.663 75.4134 101.776L76.5469 102.054C77.2296 102.22 77.7384 102.473 78.0732 102.815C78.4079 103.153 78.5753 103.589 78.5753 104.122C78.5753 104.56 78.4493 104.951 78.1974 105.295C77.9489 105.64 77.6009 105.912 77.1534 106.111C76.706 106.31 76.1856 106.409 75.5923 106.409C74.8134 106.409 74.1688 106.24 73.6584 105.902C73.148 105.564 72.8248 105.07 72.6889 104.42L73.8026 104.142C73.9086 104.553 74.1091 104.861 74.4041 105.067C74.7024 105.272 75.0919 105.375 75.5724 105.375C76.1193 105.375 76.5535 105.259 76.875 105.027C77.1998 104.792 77.3622 104.51 77.3622 104.182C77.3622 103.917 77.2694 103.695 77.0838 103.516C76.8982 103.333 76.6132 103.197 76.2287 103.108L74.956 102.81C74.2566 102.644 73.7429 102.387 73.4148 102.039C73.09 101.688 72.9276 101.249 72.9276 100.722C72.9276 100.291 73.0485 99.9096 73.2905 99.5781C73.5357 99.2467 73.8688 98.9865 74.2898 98.7976C74.714 98.6087 75.1946 98.5142 75.7315 98.5142C76.4872 98.5142 77.0805 98.6799 77.5114 99.0114C77.9455 99.3428 78.2538 99.7803 78.4361 100.324ZM82.0914 104.858L82.0119 105.395C81.9556 105.773 81.8694 106.177 81.7534 106.608C81.6407 107.039 81.523 107.445 81.4004 107.826C81.2778 108.207 81.1767 108.51 81.0971 108.736H80.2022C80.2453 108.524 80.3017 108.244 80.3713 107.896C80.4409 107.548 80.5105 107.158 80.5801 106.727C80.653 106.3 80.7127 105.862 80.7591 105.415L80.8187 104.858H82.0914ZM90.4499 106.429C89.966 106.429 89.5269 106.338 89.1325 106.156C88.738 105.97 88.4248 105.703 88.1928 105.355C87.9608 105.004 87.8448 104.58 87.8448 104.082C87.8448 103.645 87.931 103.29 88.1033 103.018C88.2757 102.743 88.506 102.528 88.7944 102.372C89.0827 102.216 89.4009 102.1 89.7489 102.024C90.1003 101.945 90.4532 101.882 90.8079 101.835C91.2719 101.776 91.6481 101.731 91.9364 101.701C92.2281 101.668 92.4402 101.613 92.5728 101.537C92.7087 101.461 92.7766 101.328 92.7766 101.139V101.099C92.7766 100.609 92.6424 100.228 92.3739 99.956C92.1088 99.6842 91.7061 99.5483 91.1658 99.5483C90.6057 99.5483 90.1665 99.6709 89.8484 99.9162C89.5302 100.161 89.3065 100.423 89.1772 100.702L88.0636 100.304C88.2624 99.84 88.5276 99.4787 88.859 99.2202C89.1938 98.9583 89.5584 98.776 89.9528 98.6733C90.3505 98.5672 90.7416 98.5142 91.1261 98.5142C91.3713 98.5142 91.6531 98.544 91.9712 98.6037C92.2927 98.66 92.6026 98.7777 92.9009 98.9567C93.2025 99.1357 93.4528 99.4058 93.6516 99.767C93.8505 100.128 93.9499 100.612 93.9499 101.219V106.25H92.7766V105.216H92.717C92.6374 105.382 92.5049 105.559 92.3192 105.748C92.1336 105.937 91.8867 106.098 91.5785 106.23C91.2702 106.363 90.8941 106.429 90.4499 106.429ZM90.6289 105.375C91.0929 105.375 91.484 105.284 91.8022 105.102C92.1237 104.919 92.3656 104.684 92.5281 104.396C92.6938 104.107 92.7766 103.804 92.7766 103.486V102.412C92.7269 102.472 92.6175 102.526 92.4485 102.576C92.2828 102.622 92.0906 102.664 91.8718 102.7C91.6564 102.733 91.4459 102.763 91.2404 102.79C91.0382 102.813 90.8742 102.833 90.7482 102.849C90.4433 102.889 90.1583 102.954 89.8931 103.043C89.6313 103.129 89.4192 103.26 89.2567 103.436C89.0977 103.608 89.0181 103.844 89.0181 104.142C89.0181 104.55 89.1689 104.858 89.4705 105.067C89.7754 105.272 90.1616 105.375 90.6289 105.375ZM97.2647 101.656V106.25H96.0914V98.6136H97.225V99.8068H97.3244C97.5034 99.419 97.7752 99.1075 98.1397 98.8722C98.5043 98.6335 98.975 98.5142 99.5517 98.5142C100.069 98.5142 100.521 98.6203 100.909 98.8324C101.297 99.0412 101.598 99.3594 101.814 99.7869C102.029 100.211 102.137 100.748 102.137 101.398V106.25H100.964V101.477C100.964 100.877 100.808 100.41 100.496 100.075C100.185 99.7372 99.7572 99.5682 99.2136 99.5682C98.8391 99.5682 98.5043 99.6494 98.2093 99.8118C97.9177 99.9742 97.6873 100.211 97.5183 100.523C97.3493 100.834 97.2647 101.212 97.2647 101.656ZM107.164 106.409C106.528 106.409 105.966 106.248 105.479 105.927C104.992 105.602 104.611 105.145 104.336 104.555C104.06 103.961 103.923 103.26 103.923 102.452C103.923 101.65 104.06 100.954 104.336 100.364C104.611 99.7737 104.993 99.3179 105.484 98.9964C105.975 98.675 106.541 98.5142 107.184 98.5142C107.681 98.5142 108.074 98.5971 108.363 98.7628C108.654 98.9252 108.876 99.1108 109.029 99.3196C109.185 99.5251 109.306 99.6941 109.392 99.8267H109.491V96.0682H110.664V106.25H109.531V105.077H109.392C109.306 105.216 109.183 105.392 109.024 105.604C108.865 105.812 108.638 106 108.343 106.165C108.048 106.328 107.655 106.409 107.164 106.409ZM107.324 105.355C107.794 105.355 108.192 105.232 108.517 104.987C108.842 104.739 109.088 104.396 109.257 103.958C109.426 103.517 109.511 103.009 109.511 102.432C109.511 101.862 109.428 101.363 109.262 100.935C109.097 100.504 108.851 100.17 108.527 99.9311C108.202 99.6892 107.801 99.5682 107.324 99.5682C106.826 99.5682 106.412 99.6958 106.081 99.951C105.752 100.203 105.506 100.546 105.34 100.98C105.177 101.411 105.096 101.895 105.096 102.432C105.096 102.975 105.179 103.469 105.345 103.913C105.514 104.354 105.762 104.705 106.091 104.967C106.422 105.226 106.833 105.355 107.324 105.355ZM116.914 106.25V98.6136H118.047V99.8068H118.147C118.306 99.3991 118.563 99.0826 118.917 98.8572C119.272 98.6286 119.698 98.5142 120.195 98.5142C120.699 98.5142 121.118 98.6286 121.453 98.8572C121.791 99.0826 122.054 99.3991 122.243 99.8068H122.323C122.518 99.4124 122.812 99.0992 123.203 98.8672C123.594 98.6319 124.063 98.5142 124.61 98.5142C125.292 98.5142 125.851 98.728 126.285 99.1555C126.719 99.5798 126.936 100.241 126.936 101.139V106.25H125.763V101.139C125.763 100.576 125.609 100.173 125.301 99.9311C124.993 99.6892 124.63 99.5682 124.212 99.5682C123.675 99.5682 123.259 99.7306 122.964 100.055C122.669 100.377 122.522 100.785 122.522 101.278V106.25H121.328V101.02C121.328 100.586 121.188 100.236 120.906 99.9709C120.624 99.7024 120.261 99.5682 119.817 99.5682C119.512 99.5682 119.227 99.6494 118.962 99.8118C118.7 99.9742 118.488 100.2 118.326 100.488C118.167 100.773 118.087 101.103 118.087 101.477V106.25H116.914ZM131.329 106.429C130.845 106.429 130.406 106.338 130.011 106.156C129.617 105.97 129.304 105.703 129.072 105.355C128.84 105.004 128.724 104.58 128.724 104.082C128.724 103.645 128.81 103.29 128.982 103.018C129.155 102.743 129.385 102.528 129.673 102.372C129.962 102.216 130.28 102.1 130.628 102.024C130.979 101.945 131.332 101.882 131.687 101.835C132.151 101.776 132.527 101.731 132.815 101.701C133.107 101.668 133.319 101.613 133.452 101.537C133.588 101.461 133.656 101.328 133.656 101.139V101.099C133.656 100.609 133.521 100.228 133.253 99.956C132.988 99.6842 132.585 99.5483 132.045 99.5483C131.485 99.5483 131.045 99.6709 130.727 99.9162C130.409 100.161 130.185 100.423 130.056 100.702L128.942 100.304C129.141 99.84 129.406 99.4787 129.738 99.2202C130.073 98.9583 130.437 98.776 130.832 98.6733C131.229 98.5672 131.621 98.5142 132.005 98.5142C132.25 98.5142 132.532 98.544 132.85 98.6037C133.172 98.66 133.482 98.7777 133.78 98.9567C134.081 99.1357 134.332 99.4058 134.531 99.767C134.729 100.128 134.829 100.612 134.829 101.219V106.25H133.656V105.216H133.596C133.516 105.382 133.384 105.559 133.198 105.748C133.013 105.937 132.766 106.098 132.457 106.23C132.149 106.363 131.773 106.429 131.329 106.429ZM131.508 105.375C131.972 105.375 132.363 105.284 132.681 105.102C133.003 104.919 133.245 104.684 133.407 104.396C133.573 104.107 133.656 103.804 133.656 103.486V102.412C133.606 102.472 133.496 102.526 133.327 102.576C133.162 102.622 132.969 102.664 132.751 102.7C132.535 102.733 132.325 102.763 132.119 102.79C131.917 102.813 131.753 102.833 131.627 102.849C131.322 102.889 131.037 102.954 130.772 103.043C130.51 103.129 130.298 103.26 130.136 103.436C129.977 103.608 129.897 103.844 129.897 104.142C129.897 104.55 130.048 104.858 130.349 105.067C130.654 105.272 131.04 105.375 131.508 105.375ZM138.144 101.656V106.25H136.97V98.6136H138.104V99.8068H138.203C138.382 99.419 138.654 99.1075 139.019 98.8722C139.383 98.6335 139.854 98.5142 140.431 98.5142C140.948 98.5142 141.4 98.6203 141.788 98.8324C142.176 99.0412 142.477 99.3594 142.693 99.7869C142.908 100.211 143.016 100.748 143.016 101.398V106.25H141.843V101.477C141.843 100.877 141.687 100.41 141.375 100.075C141.064 99.7372 140.636 99.5682 140.093 99.5682C139.718 99.5682 139.383 99.6494 139.088 99.8118C138.797 99.9742 138.566 100.211 138.397 100.523C138.228 100.834 138.144 101.212 138.144 101.656ZM147.407 106.429C146.923 106.429 146.484 106.338 146.089 106.156C145.695 105.97 145.382 105.703 145.15 105.355C144.918 105.004 144.802 104.58 144.802 104.082C144.802 103.645 144.888 103.29 145.06 103.018C145.233 102.743 145.463 102.528 145.751 102.372C146.04 102.216 146.358 102.1 146.706 102.024C147.057 101.945 147.41 101.882 147.765 101.835C148.229 101.776 148.605 101.731 148.893 101.701C149.185 101.668 149.397 101.613 149.53 101.537C149.666 101.461 149.734 101.328 149.734 101.139V101.099C149.734 100.609 149.599 100.228 149.331 99.956C149.066 99.6842 148.663 99.5483 148.123 99.5483C147.563 99.5483 147.124 99.6709 146.805 99.9162C146.487 100.161 146.263 100.423 146.134 100.702L145.021 100.304C145.219 99.84 145.485 99.4787 145.816 99.2202C146.151 98.9583 146.515 98.776 146.91 98.6733C147.308 98.5672 147.699 98.5142 148.083 98.5142C148.328 98.5142 148.61 98.544 148.928 98.6037C149.25 98.66 149.56 98.7777 149.858 98.9567C150.16 99.1357 150.41 99.4058 150.609 99.767C150.808 100.128 150.907 100.612 150.907 101.219V106.25H149.734V105.216H149.674C149.594 105.382 149.462 105.559 149.276 105.748C149.091 105.937 148.844 106.098 148.536 106.23C148.227 106.363 147.851 106.429 147.407 106.429ZM147.586 105.375C148.05 105.375 148.441 105.284 148.759 105.102C149.081 104.919 149.323 104.684 149.485 104.396C149.651 104.107 149.734 103.804 149.734 103.486V102.412C149.684 102.472 149.575 102.526 149.406 102.576C149.24 102.622 149.048 102.664 148.829 102.7C148.613 102.733 148.403 102.763 148.197 102.79C147.995 102.813 147.831 102.833 147.705 102.849C147.4 102.889 147.115 102.954 146.85 103.043C146.588 103.129 146.376 103.26 146.214 103.436C146.055 103.608 145.975 103.844 145.975 104.142C145.975 104.55 146.126 104.858 146.428 105.067C146.732 105.272 147.119 105.375 147.586 105.375ZM156.131 109.273C155.564 109.273 155.077 109.2 154.669 109.054C154.262 108.911 153.922 108.723 153.65 108.487C153.382 108.255 153.168 108.007 153.009 107.741L153.943 107.085C154.049 107.224 154.184 107.384 154.346 107.562C154.508 107.745 154.731 107.902 155.012 108.035C155.297 108.171 155.67 108.239 156.131 108.239C156.747 108.239 157.256 108.089 157.657 107.791C158.058 107.493 158.259 107.026 158.259 106.389V104.838H158.159C158.073 104.977 157.95 105.15 157.791 105.355C157.636 105.557 157.41 105.738 157.115 105.897C156.824 106.053 156.429 106.131 155.932 106.131C155.316 106.131 154.762 105.985 154.271 105.693C153.784 105.402 153.398 104.977 153.113 104.42C152.831 103.864 152.691 103.187 152.691 102.392C152.691 101.61 152.828 100.929 153.103 100.349C153.378 99.7654 153.761 99.3146 154.252 98.9964C154.742 98.675 155.309 98.5142 155.952 98.5142C156.449 98.5142 156.843 98.5971 157.135 98.7628C157.43 98.9252 157.655 99.1108 157.811 99.3196C157.97 99.5251 158.093 99.6941 158.179 99.8267H158.298V98.6136H159.432V106.469C159.432 107.125 159.283 107.659 158.985 108.07C158.69 108.484 158.292 108.787 157.791 108.979C157.294 109.175 156.741 109.273 156.131 109.273ZM156.091 105.077C156.562 105.077 156.959 104.969 157.284 104.754C157.609 104.538 157.856 104.228 158.025 103.824C158.194 103.42 158.279 102.936 158.279 102.372C158.279 101.822 158.196 101.336 158.03 100.915C157.864 100.495 157.619 100.165 157.294 99.9261C156.969 99.6875 156.568 99.5682 156.091 99.5682C155.594 99.5682 155.18 99.6941 154.848 99.946C154.52 100.198 154.273 100.536 154.107 100.96C153.945 101.384 153.864 101.855 153.864 102.372C153.864 102.902 153.947 103.371 154.112 103.779C154.281 104.183 154.53 104.502 154.858 104.734C155.19 104.962 155.601 105.077 156.091 105.077ZM164.781 106.409C164.046 106.409 163.411 106.247 162.877 105.922C162.347 105.594 161.938 105.136 161.649 104.55C161.364 103.96 161.222 103.274 161.222 102.491C161.222 101.709 161.364 101.02 161.649 100.423C161.938 99.8234 162.339 99.3561 162.852 99.0213C163.369 98.6832 163.973 98.5142 164.662 98.5142C165.06 98.5142 165.453 98.5805 165.84 98.7131C166.228 98.8456 166.581 99.0611 166.899 99.3594C167.218 99.6544 167.471 100.045 167.66 100.533C167.849 101.02 167.943 101.62 167.943 102.332V102.83H162.057V101.815H166.75C166.75 101.384 166.664 101 166.492 100.662C166.323 100.324 166.081 100.057 165.766 99.8615C165.454 99.666 165.086 99.5682 164.662 99.5682C164.195 99.5682 163.79 99.6842 163.449 99.9162C163.111 100.145 162.851 100.443 162.669 100.811C162.486 101.179 162.395 101.573 162.395 101.994V102.67C162.395 103.247 162.494 103.736 162.693 104.137C162.896 104.535 163.176 104.838 163.534 105.047C163.892 105.252 164.307 105.355 164.781 105.355C165.09 105.355 165.368 105.312 165.617 105.226C165.869 105.136 166.086 105.004 166.268 104.828C166.45 104.649 166.591 104.427 166.691 104.162L167.824 104.48C167.705 104.865 167.504 105.203 167.222 105.494C166.941 105.783 166.593 106.008 166.178 106.17C165.764 106.33 165.298 106.409 164.781 106.409ZM173.666 106.25V98.6136H174.799V99.767H174.879C175.018 99.3892 175.27 99.0826 175.634 98.8473C175.999 98.612 176.41 98.4943 176.867 98.4943C176.954 98.4943 177.061 98.496 177.191 98.4993C177.32 98.5026 177.418 98.5076 177.484 98.5142V99.7074C177.444 99.6974 177.353 99.6825 177.21 99.6626C177.071 99.6394 176.924 99.6278 176.768 99.6278C176.397 99.6278 176.065 99.7057 175.774 99.8615C175.485 100.014 175.257 100.226 175.088 100.498C174.922 100.766 174.839 101.073 174.839 101.418V106.25H173.666ZM181.844 106.409C181.108 106.409 180.473 106.247 179.94 105.922C179.41 105.594 179 105.136 178.712 104.55C178.427 103.96 178.284 103.274 178.284 102.491C178.284 101.709 178.427 101.02 178.712 100.423C179 99.8234 179.401 99.3561 179.915 99.0213C180.432 98.6832 181.035 98.5142 181.725 98.5142C182.122 98.5142 182.515 98.5805 182.903 98.7131C183.291 98.8456 183.644 99.0611 183.962 99.3594C184.28 99.6544 184.534 100.045 184.722 100.533C184.911 101.02 185.006 101.62 185.006 102.332V102.83H179.119V101.815H183.813C183.813 101.384 183.727 101 183.554 100.662C183.385 100.324 183.143 100.057 182.828 99.8615C182.517 99.666 182.149 99.5682 181.725 99.5682C181.257 99.5682 180.853 99.6842 180.512 99.9162C180.173 100.145 179.913 100.443 179.731 100.811C179.549 101.179 179.458 101.573 179.458 101.994V102.67C179.458 103.247 179.557 103.736 179.756 104.137C179.958 104.535 180.238 104.838 180.596 105.047C180.954 105.252 181.37 105.355 181.844 105.355C182.152 105.355 182.431 105.312 182.679 105.226C182.931 105.136 183.148 105.004 183.33 104.828C183.513 104.649 183.654 104.427 183.753 104.162L184.887 104.48C184.767 104.865 184.567 105.203 184.285 105.494C184.003 105.783 183.655 106.008 183.241 106.17C182.827 106.33 182.361 106.409 181.844 106.409ZM192.001 109.114V105.077H191.901C191.815 105.216 191.693 105.392 191.534 105.604C191.374 105.812 191.147 106 190.852 106.165C190.557 106.328 190.165 106.409 189.674 106.409C189.038 106.409 188.476 106.248 187.989 105.927C187.502 105.602 187.12 105.145 186.845 104.555C186.57 103.961 186.433 103.26 186.433 102.452C186.433 101.65 186.57 100.954 186.845 100.364C187.12 99.7737 187.503 99.3179 187.994 98.9964C188.484 98.675 189.051 98.5142 189.694 98.5142C190.191 98.5142 190.584 98.5971 190.872 98.7628C191.164 98.9252 191.386 99.1108 191.539 99.3196C191.694 99.5251 191.815 99.6941 191.901 99.8267H192.041V98.6136H193.174V109.114H192.001ZM189.833 105.355C190.304 105.355 190.702 105.232 191.026 104.987C191.351 104.739 191.598 104.396 191.767 103.958C191.936 103.517 192.021 103.009 192.021 102.432C192.021 101.862 191.938 101.363 191.772 100.935C191.606 100.504 191.361 100.17 191.036 99.9311C190.712 99.6892 190.311 99.5682 189.833 99.5682C189.336 99.5682 188.922 99.6958 188.59 99.951C188.262 100.203 188.015 100.546 187.85 100.98C187.687 101.411 187.606 101.895 187.606 102.432C187.606 102.975 187.689 103.469 187.855 103.913C188.024 104.354 188.272 104.705 188.6 104.967C188.932 105.226 189.343 105.355 189.833 105.355ZM200.134 103.128V98.6136H201.308V106.25H200.134V104.957H200.055C199.876 105.345 199.597 105.675 199.22 105.947C198.842 106.215 198.365 106.349 197.788 106.349C197.311 106.349 196.886 106.245 196.515 106.036C196.144 105.824 195.852 105.506 195.64 105.082C195.428 104.654 195.322 104.116 195.322 103.466V98.6136H196.495V103.386C196.495 103.943 196.651 104.387 196.963 104.719C197.277 105.05 197.678 105.216 198.166 105.216C198.457 105.216 198.754 105.141 199.056 104.992C199.36 104.843 199.616 104.614 199.821 104.306C200.03 103.998 200.134 103.605 200.134 103.128ZM206.658 106.409C205.923 106.409 205.288 106.247 204.754 105.922C204.224 105.594 203.815 105.136 203.526 104.55C203.241 103.96 203.099 103.274 203.099 102.491C203.099 101.709 203.241 101.02 203.526 100.423C203.815 99.8234 204.216 99.3561 204.729 99.0213C205.246 98.6832 205.85 98.5142 206.539 98.5142C206.937 98.5142 207.33 98.5805 207.717 98.7131C208.105 98.8456 208.458 99.0611 208.776 99.3594C209.094 99.6544 209.348 100.045 209.537 100.533C209.726 101.02 209.82 101.62 209.82 102.332V102.83H203.934V101.815H208.627C208.627 101.384 208.541 101 208.369 100.662C208.2 100.324 207.958 100.057 207.643 99.8615C207.331 99.666 206.963 99.5682 206.539 99.5682C206.072 99.5682 205.667 99.6842 205.326 99.9162C204.988 100.145 204.728 100.443 204.545 100.811C204.363 101.179 204.272 101.573 204.272 101.994V102.67C204.272 103.247 204.371 103.736 204.57 104.137C204.772 104.535 205.053 104.838 205.411 105.047C205.768 105.252 206.184 105.355 206.658 105.355C206.967 105.355 207.245 105.312 207.494 105.226C207.746 105.136 207.963 105.004 208.145 104.828C208.327 104.649 208.468 104.427 208.567 104.162L209.701 104.48C209.582 104.865 209.381 105.203 209.099 105.494C208.818 105.783 208.47 106.008 208.055 106.17C207.641 106.33 207.175 106.409 206.658 106.409ZM217.014 100.324L215.96 100.622C215.894 100.446 215.796 100.276 215.667 100.11C215.541 99.9411 215.369 99.8018 215.15 99.6925C214.931 99.5831 214.651 99.5284 214.31 99.5284C213.842 99.5284 213.453 99.6361 213.141 99.8516C212.833 100.064 212.679 100.334 212.679 100.662C212.679 100.954 212.785 101.184 212.997 101.353C213.209 101.522 213.541 101.663 213.991 101.776L215.125 102.054C215.808 102.22 216.317 102.473 216.651 102.815C216.986 103.153 217.153 103.589 217.153 104.122C217.153 104.56 217.027 104.951 216.776 105.295C216.527 105.64 216.179 105.912 215.732 106.111C215.284 106.31 214.764 106.409 214.17 106.409C213.392 106.409 212.747 106.24 212.237 105.902C211.726 105.564 211.403 105.07 211.267 104.42L212.381 104.142C212.487 104.553 212.687 104.861 212.982 105.067C213.281 105.272 213.67 105.375 214.151 105.375C214.697 105.375 215.132 105.259 215.453 105.027C215.778 104.792 215.94 104.51 215.94 104.182C215.94 103.917 215.848 103.695 215.662 103.516C215.476 103.333 215.191 103.197 214.807 103.108L213.534 102.81C212.835 102.644 212.321 102.387 211.993 102.039C211.668 101.688 211.506 101.249 211.506 100.722C211.506 100.291 211.627 99.9096 211.869 99.5781C212.114 99.2467 212.447 98.9865 212.868 98.7976C213.292 98.6087 213.773 98.5142 214.31 98.5142C215.065 98.5142 215.659 98.6799 216.089 99.0114C216.524 99.3428 216.832 99.7803 217.014 100.324ZM222.241 98.6136V99.608H218.283V98.6136H222.241ZM219.437 96.7841H220.61V104.062C220.61 104.394 220.658 104.643 220.754 104.808C220.854 104.971 220.979 105.08 221.132 105.136C221.288 105.189 221.452 105.216 221.624 105.216C221.753 105.216 221.859 105.209 221.942 105.196C222.025 105.179 222.091 105.166 222.141 105.156L222.38 106.21C222.3 106.24 222.189 106.27 222.047 106.3C221.904 106.333 221.724 106.349 221.505 106.349C221.173 106.349 220.849 106.278 220.53 106.136C220.215 105.993 219.954 105.776 219.745 105.484C219.539 105.193 219.437 104.825 219.437 104.381V96.7841ZM229.278 100.324L228.224 100.622C228.158 100.446 228.06 100.276 227.931 100.11C227.805 99.9411 227.632 99.8018 227.414 99.6925C227.195 99.5831 226.915 99.5284 226.573 99.5284C226.106 99.5284 225.717 99.6361 225.405 99.8516C225.097 100.064 224.943 100.334 224.943 100.662C224.943 100.954 225.049 101.184 225.261 101.353C225.473 101.522 225.804 101.663 226.255 101.776L227.389 102.054C228.071 102.22 228.58 102.473 228.915 102.815C229.25 103.153 229.417 103.589 229.417 104.122C229.417 104.56 229.291 104.951 229.039 105.295C228.791 105.64 228.443 105.912 227.995 106.111C227.548 106.31 227.027 106.409 226.434 106.409C225.655 106.409 225.011 106.24 224.5 105.902C223.99 105.564 223.667 105.07 223.531 104.42L224.644 104.142C224.75 104.553 224.951 104.861 225.246 105.067C225.544 105.272 225.934 105.375 226.414 105.375C226.961 105.375 227.395 105.259 227.717 105.027C228.042 104.792 228.204 104.51 228.204 104.182C228.204 103.917 228.111 103.695 227.926 103.516C227.74 103.333 227.455 103.197 227.07 103.108L225.798 102.81C225.098 102.644 224.585 102.387 224.257 102.039C223.932 101.688 223.769 101.249 223.769 100.722C223.769 100.291 223.89 99.9096 224.132 99.5781C224.378 99.2467 224.711 98.9865 225.132 98.7976C225.556 98.6087 226.036 98.5142 226.573 98.5142C227.329 98.5142 227.922 98.6799 228.353 99.0114C228.787 99.3428 229.096 99.7803 229.278 100.324ZM237.368 106.429C236.884 106.429 236.445 106.338 236.05 106.156C235.656 105.97 235.343 105.703 235.111 105.355C234.879 105.004 234.763 104.58 234.763 104.082C234.763 103.645 234.849 103.29 235.021 103.018C235.194 102.743 235.424 102.528 235.712 102.372C236.001 102.216 236.319 102.1 236.667 102.024C237.018 101.945 237.371 101.882 237.726 101.835C238.19 101.776 238.566 101.731 238.854 101.701C239.146 101.668 239.358 101.613 239.491 101.537C239.627 101.461 239.695 101.328 239.695 101.139V101.099C239.695 100.609 239.56 100.228 239.292 99.956C239.027 99.6842 238.624 99.5483 238.084 99.5483C237.524 99.5483 237.085 99.6709 236.766 99.9162C236.448 100.161 236.224 100.423 236.095 100.702L234.982 100.304C235.18 99.84 235.446 99.4787 235.777 99.2202C236.112 98.9583 236.476 98.776 236.871 98.6733C237.268 98.5672 237.66 98.5142 238.044 98.5142C238.289 98.5142 238.571 98.544 238.889 98.6037C239.211 98.66 239.521 98.7777 239.819 98.9567C240.121 99.1357 240.371 99.4058 240.57 99.767C240.768 100.128 240.868 100.612 240.868 101.219V106.25H239.695V105.216H239.635C239.555 105.382 239.423 105.559 239.237 105.748C239.052 105.937 238.805 106.098 238.496 106.23C238.188 106.363 237.812 106.429 237.368 106.429ZM237.547 105.375C238.011 105.375 238.402 105.284 238.72 105.102C239.042 104.919 239.284 104.684 239.446 104.396C239.612 104.107 239.695 103.804 239.695 103.486V102.412C239.645 102.472 239.536 102.526 239.366 102.576C239.201 102.622 239.009 102.664 238.79 102.7C238.574 102.733 238.364 102.763 238.158 102.79C237.956 102.813 237.792 102.833 237.666 102.849C237.361 102.889 237.076 102.954 236.811 103.043C236.549 103.129 236.337 103.26 236.175 103.436C236.016 103.608 235.936 103.844 235.936 104.142C235.936 104.55 236.087 104.858 236.388 105.067C236.693 105.272 237.08 105.375 237.547 105.375ZM244.183 101.656V106.25H243.009V98.6136H244.143V99.8068H244.242C244.421 99.419 244.693 99.1075 245.058 98.8722C245.422 98.6335 245.893 98.5142 246.47 98.5142C246.987 98.5142 247.439 98.6203 247.827 98.8324C248.215 99.0412 248.516 99.3594 248.732 99.7869C248.947 100.211 249.055 100.748 249.055 101.398V106.25H247.882V101.477C247.882 100.877 247.726 100.41 247.414 100.075C247.103 99.7372 246.675 99.5682 246.132 99.5682C245.757 99.5682 245.422 99.6494 245.127 99.8118C244.836 99.9742 244.605 100.211 244.436 100.523C244.267 100.834 244.183 101.212 244.183 101.656ZM251.681 109.114C251.482 109.114 251.305 109.097 251.149 109.064C250.993 109.034 250.886 109.004 250.826 108.974L251.124 107.94C251.409 108.013 251.661 108.04 251.88 108.02C252.099 108 252.293 107.902 252.462 107.727C252.634 107.554 252.791 107.274 252.934 106.886L253.153 106.29L250.329 98.6136H251.602L253.71 104.699H253.789L255.897 98.6136H257.17L253.928 107.364C253.782 107.758 253.602 108.085 253.386 108.343C253.171 108.605 252.921 108.799 252.636 108.925C252.354 109.051 252.036 109.114 251.681 109.114ZM262.039 98.6136V99.608H258.082V98.6136H262.039ZM259.235 96.7841H260.409V104.062C260.409 104.394 260.457 104.643 260.553 104.808C260.652 104.971 260.778 105.08 260.931 105.136C261.087 105.189 261.251 105.216 261.423 105.216C261.552 105.216 261.658 105.209 261.741 105.196C261.824 105.179 261.89 105.166 261.94 105.156L262.179 106.21C262.099 106.24 261.988 106.27 261.846 106.3C261.703 106.333 261.522 106.349 261.304 106.349C260.972 106.349 260.647 106.278 260.329 106.136C260.014 105.993 259.752 105.776 259.544 105.484C259.338 105.193 259.235 104.825 259.235 104.381V96.7841ZM263.804 106.25V98.6136H264.978V106.25H263.804ZM264.401 97.3409C264.172 97.3409 263.975 97.263 263.809 97.1072C263.647 96.9515 263.566 96.7642 263.566 96.5455C263.566 96.3267 263.647 96.1394 263.809 95.9837C263.975 95.8279 264.172 95.75 264.401 95.75C264.63 95.75 264.825 95.8279 264.988 95.9837C265.153 96.1394 265.236 96.3267 265.236 96.5455C265.236 96.7642 265.153 96.9515 264.988 97.1072C264.825 97.263 264.63 97.3409 264.401 97.3409ZM267.127 106.25V98.6136H268.26V99.8068H268.36C268.519 99.3991 268.776 99.0826 269.13 98.8572C269.485 98.6286 269.911 98.5142 270.408 98.5142C270.912 98.5142 271.331 98.6286 271.666 98.8572C272.004 99.0826 272.267 99.3991 272.456 99.8068H272.536C272.731 99.4124 273.025 99.0992 273.416 98.8672C273.807 98.6319 274.276 98.5142 274.823 98.5142C275.505 98.5142 276.064 98.728 276.498 99.1555C276.932 99.5798 277.149 100.241 277.149 101.139V106.25H275.976V101.139C275.976 100.576 275.822 100.173 275.514 99.9311C275.205 99.6892 274.843 99.5682 274.425 99.5682C273.888 99.5682 273.472 99.7306 273.177 100.055C272.882 100.377 272.735 100.785 272.735 101.278V106.25H271.541V101.02C271.541 100.586 271.401 100.236 271.119 99.9709C270.837 99.7024 270.474 99.5682 270.03 99.5682C269.725 99.5682 269.44 99.6494 269.175 99.8118C268.913 99.9742 268.701 100.2 268.539 100.488C268.379 100.773 268.3 101.103 268.3 101.477V106.25H267.127ZM282.496 106.409C281.76 106.409 281.126 106.247 280.592 105.922C280.062 105.594 279.653 105.136 279.364 104.55C279.079 103.96 278.937 103.274 278.937 102.491C278.937 101.709 279.079 101.02 279.364 100.423C279.653 99.8234 280.054 99.3561 280.567 99.0213C281.084 98.6832 281.688 98.5142 282.377 98.5142C282.775 98.5142 283.167 98.5805 283.555 98.7131C283.943 98.8456 284.296 99.0611 284.614 99.3594C284.932 99.6544 285.186 100.045 285.375 100.533C285.564 101.02 285.658 101.62 285.658 102.332V102.83H279.772V101.815H284.465C284.465 101.384 284.379 101 284.206 100.662C284.037 100.324 283.796 100.057 283.481 99.8615C283.169 99.666 282.801 99.5682 282.377 99.5682C281.91 99.5682 281.505 99.6842 281.164 99.9162C280.826 100.145 280.566 100.443 280.383 100.811C280.201 101.179 280.11 101.573 280.11 101.994V102.67C280.11 103.247 280.209 103.736 280.408 104.137C280.61 104.535 280.89 104.838 281.248 105.047C281.606 105.252 282.022 105.355 282.496 105.355C282.805 105.355 283.083 105.312 283.331 105.226C283.583 105.136 283.8 105.004 283.983 104.828C284.165 104.649 284.306 104.427 284.405 104.162L285.539 104.48C285.42 104.865 285.219 105.203 284.937 105.494C284.656 105.783 284.308 106.008 283.893 106.17C283.479 106.33 283.013 106.409 282.496 106.409ZM288.298 106.33C288.053 106.33 287.842 106.242 287.667 106.066C287.491 105.89 287.403 105.68 287.403 105.435C287.403 105.189 287.491 104.979 287.667 104.803C287.842 104.628 288.053 104.54 288.298 104.54C288.543 104.54 288.754 104.628 288.93 104.803C289.105 104.979 289.193 105.189 289.193 105.435C289.193 105.597 289.152 105.746 289.069 105.882C288.989 106.018 288.881 106.127 288.746 106.21C288.613 106.29 288.464 106.33 288.298 106.33Z" fill="white"/>
<rect x="0.5" y="0.75" width="339" height="139" rx="15.5" stroke="#5554AB"/>
<defs>
<linearGradient id="paint0_linear_25_369" x1="0" y1="70.25" x2="340" y2="70.25" gradientUnits="userSpaceOnUse">
<stop stop-color="#211E6B" stop-opacity="0.5"/>
<stop offset="1" stop-color="#212161"/>
</linearGradient>
<clipPath id="clip0_25_369">
<rect width="208" height="24" fill="white" transform="translate(20 29.25)"/>
</clipPath>
<clipPath id="clip1_25_369">
<rect width="6" height="11" fill="white" transform="translate(31 35.75)"/>
</clipPath>
</defs>
</svg>
