<svg width="340" height="141" viewBox="0 0 340 141" fill="none" xmlns="http://www.w3.org/2000/svg">
<rect y="0.25" width="340" height="140" rx="16" fill="url(#paint0_linear_25_386)"/>
<g clip-path="url(#clip0_25_386)">
<rect x="22" y="29.25" width="24" height="24" rx="12" fill="#414787" fill-opacity="0.5"/>
<g clip-path="url(#clip1_25_386)">
<path d="M33.25 36H32.125C31.504 36 31 36.504 31 37.125V45.375C31 45.996 31.504 46.5 32.125 46.5H35.875C36.496 46.5 37 45.996 37 45.375V37.125C37 36.504 36.496 36 35.875 36H34.75M33.25 36V36.75H34.75V36M33.25 36H34.75M33.25 45.375H34.75" stroke="white" stroke-linecap="round" stroke-linejoin="round"/>
</g>
<path d="M55.2784 46.75V35.1136H59.4261C60.3314 35.1136 61.0814 35.2784 61.6761 35.608C62.2708 35.9375 62.7159 36.3883 63.0114 36.9602C63.3068 37.5284 63.4545 38.1686 63.4545 38.8807C63.4545 39.5966 63.3049 40.2405 63.0057 40.8125C62.7102 41.3807 62.2633 41.8314 61.6648 42.1648C61.0701 42.4943 60.322 42.6591 59.4205 42.6591H56.5682V41.1705H59.2614C59.8333 41.1705 60.2973 41.072 60.6534 40.875C61.0095 40.6742 61.2708 40.4015 61.4375 40.0568C61.6042 39.7121 61.6875 39.3201 61.6875 38.8807C61.6875 38.4413 61.6042 38.0511 61.4375 37.7102C61.2708 37.3693 61.0076 37.1023 60.6477 36.9091C60.2917 36.7159 59.822 36.6193 59.2386 36.6193H57.0341V46.75H55.2784ZM67.8381 46.9432C67.285 46.9432 66.785 46.8409 66.3381 46.6364C65.8911 46.428 65.5369 46.1269 65.2756 45.733C65.018 45.339 64.8892 44.8561 64.8892 44.2841C64.8892 43.7917 64.9839 43.3864 65.1733 43.0682C65.3627 42.75 65.6184 42.4981 65.9403 42.3125C66.2623 42.1269 66.6222 41.9867 67.0199 41.892C67.4176 41.7973 67.8229 41.7254 68.2358 41.6761C68.7585 41.6155 69.1828 41.5663 69.5085 41.5284C69.8343 41.4867 70.071 41.4205 70.2188 41.3295C70.3665 41.2386 70.4403 41.0909 70.4403 40.8864V40.8466C70.4403 40.3504 70.3002 39.9659 70.0199 39.6932C69.7434 39.4205 69.3305 39.2841 68.7812 39.2841C68.2093 39.2841 67.7585 39.411 67.429 39.6648C67.1032 39.9148 66.8778 40.1932 66.7528 40.5L65.1562 40.1364C65.3456 39.6061 65.6222 39.178 65.9858 38.8523C66.3532 38.5227 66.7756 38.2841 67.2528 38.1364C67.7301 37.9848 68.232 37.9091 68.7585 37.9091C69.107 37.9091 69.4763 37.9508 69.8665 38.0341C70.2604 38.1136 70.6278 38.2614 70.9688 38.4773C71.3134 38.6932 71.5956 39.0019 71.8153 39.4034C72.035 39.8011 72.1449 40.3182 72.1449 40.9545V46.75H70.4858V45.5568H70.4176C70.3078 45.7765 70.143 45.9924 69.9233 46.2045C69.7036 46.4167 69.4214 46.5928 69.0767 46.733C68.732 46.8731 68.3191 46.9432 67.8381 46.9432ZM68.2074 45.5795C68.6771 45.5795 69.0786 45.4867 69.4119 45.3011C69.7491 45.1155 70.0047 44.8731 70.179 44.5739C70.357 44.2708 70.446 43.947 70.446 43.6023V42.4773C70.3854 42.5379 70.268 42.5947 70.0938 42.6477C69.9233 42.697 69.7282 42.7405 69.5085 42.7784C69.2888 42.8125 69.0748 42.8447 68.8665 42.875C68.6581 42.9015 68.4839 42.9242 68.3438 42.9432C68.0142 42.9848 67.7131 43.0549 67.4403 43.1534C67.1714 43.2519 66.9555 43.3939 66.7926 43.5795C66.6335 43.7614 66.554 44.0038 66.554 44.3068C66.554 44.7273 66.7093 45.0455 67.0199 45.2614C67.3305 45.4735 67.7263 45.5795 68.2074 45.5795ZM75.169 50.0227C74.9152 50.0227 74.6842 50.0019 74.4759 49.9602C74.2675 49.9223 74.1122 49.8807 74.0099 49.8352L74.419 48.4432C74.7296 48.5265 75.0062 48.5625 75.2486 48.5511C75.491 48.5398 75.705 48.4489 75.8906 48.2784C76.08 48.108 76.2467 47.8295 76.3906 47.4432L76.6009 46.8636L73.4077 38.0227H75.2259L77.4361 44.7955H77.527L79.7372 38.0227H81.5611L77.9645 47.9148C77.7978 48.3693 77.5857 48.7538 77.3281 49.0682C77.0705 49.3864 76.7637 49.625 76.4077 49.7841C76.0516 49.9432 75.6387 50.0227 75.169 50.0227ZM93.875 38.1705C93.8144 37.6326 93.5644 37.2159 93.125 36.9205C92.6856 36.6212 92.1326 36.4716 91.4659 36.4716C90.9886 36.4716 90.5758 36.5473 90.2273 36.6989C89.8788 36.8466 89.608 37.0511 89.4148 37.3125C89.2254 37.5701 89.1307 37.8636 89.1307 38.1932C89.1307 38.4697 89.1951 38.7083 89.3239 38.9091C89.4564 39.1098 89.6288 39.2784 89.8409 39.4148C90.0568 39.5473 90.2879 39.6591 90.5341 39.75C90.7803 39.8371 91.017 39.9091 91.2443 39.9659L92.3807 40.2614C92.7519 40.3523 93.1326 40.4754 93.5227 40.6307C93.9129 40.786 94.2746 40.9905 94.608 41.2443C94.9413 41.4981 95.2102 41.8125 95.4148 42.1875C95.6231 42.5625 95.7273 43.0114 95.7273 43.5341C95.7273 44.1932 95.5568 44.7784 95.2159 45.2898C94.8788 45.8011 94.3883 46.2045 93.7443 46.5C93.1042 46.7955 92.3295 46.9432 91.4205 46.9432C90.5492 46.9432 89.7955 46.8049 89.1591 46.5284C88.5227 46.2519 88.0246 45.8598 87.6648 45.3523C87.3049 44.8409 87.1061 44.2348 87.0682 43.5341H88.8295C88.8636 43.9545 89 44.3049 89.2386 44.5852C89.4811 44.8617 89.7898 45.0682 90.1648 45.2045C90.5436 45.3371 90.9583 45.4034 91.4091 45.4034C91.9053 45.4034 92.3466 45.3258 92.733 45.1705C93.1231 45.0114 93.4299 44.7917 93.6534 44.5114C93.8769 44.2273 93.9886 43.8958 93.9886 43.517C93.9886 43.1723 93.8902 42.8902 93.6932 42.6705C93.5 42.4508 93.2367 42.2689 92.9034 42.125C92.5739 41.9811 92.2008 41.8542 91.7841 41.7443L90.4091 41.3693C89.4773 41.1155 88.7386 40.7424 88.1932 40.25C87.6515 39.7576 87.3807 39.1061 87.3807 38.2955C87.3807 37.625 87.5625 37.0398 87.9261 36.5398C88.2898 36.0398 88.7822 35.6515 89.4034 35.375C90.0246 35.0947 90.7254 34.9545 91.5057 34.9545C92.2936 34.9545 92.9886 35.0928 93.5909 35.3693C94.197 35.6458 94.6742 36.0265 95.0227 36.5114C95.3712 36.9924 95.553 37.5455 95.5682 38.1705H93.875ZM99.3878 35.1136V46.75H97.6889V35.1136H99.3878ZM101.673 46.75V38.0227H103.372V46.75H101.673ZM102.531 36.6761C102.236 36.6761 101.982 36.5777 101.77 36.3807C101.562 36.1799 101.457 35.9413 101.457 35.6648C101.457 35.3845 101.562 35.1458 101.77 34.9489C101.982 34.7481 102.236 34.6477 102.531 34.6477C102.827 34.6477 103.079 34.7481 103.287 34.9489C103.499 35.1458 103.605 35.3845 103.605 35.6648C103.605 35.9413 103.499 36.1799 103.287 36.3807C103.079 36.5777 102.827 36.6761 102.531 36.6761ZM105.658 50.0227V38.0227H107.317V39.4375H107.459C107.557 39.2557 107.699 39.0455 107.885 38.8068C108.071 38.5682 108.328 38.3598 108.658 38.1818C108.987 38 109.423 37.9091 109.964 37.9091C110.669 37.9091 111.298 38.0871 111.851 38.4432C112.404 38.7992 112.838 39.3125 113.152 39.983C113.47 40.6534 113.629 41.4602 113.629 42.4034C113.629 43.3466 113.472 44.1553 113.158 44.8295C112.843 45.5 112.411 46.017 111.862 46.3807C111.313 46.7405 110.686 46.9205 109.982 46.9205C109.451 46.9205 109.018 46.8314 108.68 46.6534C108.347 46.4754 108.086 46.267 107.896 46.0284C107.707 45.7898 107.561 45.5777 107.459 45.392H107.357V50.0227H105.658ZM107.322 42.3864C107.322 43 107.411 43.5379 107.589 44C107.768 44.4621 108.025 44.8239 108.362 45.0852C108.699 45.3428 109.112 45.4716 109.601 45.4716C110.108 45.4716 110.533 45.3371 110.874 45.0682C111.214 44.7955 111.472 44.4261 111.646 43.9602C111.824 43.4943 111.913 42.9697 111.913 42.3864C111.913 41.8106 111.826 41.2936 111.652 40.8352C111.482 40.3769 111.224 40.0152 110.879 39.75C110.538 39.4848 110.112 39.3523 109.601 39.3523C109.108 39.3523 108.692 39.4792 108.351 39.733C108.014 39.9867 107.758 40.3409 107.584 40.7955C107.41 41.25 107.322 41.7803 107.322 42.3864Z" fill="white"/>
</g>
<path d="M21.6506 85.25H20.358L24.0966 75.0682H25.3693L29.108 85.25H27.8153L24.7727 76.679H24.6932L21.6506 85.25ZM22.1278 81.2727H27.3381V82.3665H22.1278V81.2727ZM33.6371 85.4091C32.9212 85.4091 32.3047 85.2401 31.7876 84.902C31.2706 84.5639 30.8729 84.0982 30.5945 83.505C30.3161 82.9117 30.1768 82.2339 30.1768 81.4716C30.1768 80.696 30.3194 80.0116 30.6044 79.4183C30.8928 78.8217 31.2938 78.3561 31.8075 78.0213C32.3246 77.6832 32.9278 77.5142 33.6172 77.5142C34.1541 77.5142 34.638 77.6136 35.0689 77.8125C35.4998 78.0114 35.8527 78.2898 36.1278 78.6477C36.4029 79.0057 36.5736 79.4233 36.6399 79.9006H35.4666C35.3771 79.5526 35.1783 79.2443 34.87 78.9759C34.5651 78.7041 34.1541 78.5682 33.6371 78.5682C33.1797 78.5682 32.7786 78.6875 32.4339 78.9261C32.0926 79.1615 31.8258 79.4946 31.6335 79.9254C31.4446 80.353 31.3501 80.8551 31.3501 81.4318C31.3501 82.0218 31.4429 82.5355 31.6286 82.973C31.8175 83.4105 32.0826 83.7502 32.424 83.9922C32.7687 84.2341 33.1731 84.3551 33.6371 84.3551C33.942 84.3551 34.2188 84.3021 34.4673 84.196C34.7159 84.09 34.9264 83.9375 35.0987 83.7386C35.2711 83.5398 35.3937 83.3011 35.4666 83.0227H36.6399C36.5736 83.4735 36.4096 83.8795 36.1477 84.2408C35.8892 84.5987 35.5462 84.8838 35.1186 85.0959C34.6944 85.3047 34.2005 85.4091 33.6371 85.4091ZM41.4574 85.4091C40.7415 85.4091 40.125 85.2401 39.608 84.902C39.0909 84.5639 38.6932 84.0982 38.4148 83.505C38.1364 82.9117 37.9972 82.2339 37.9972 81.4716C37.9972 80.696 38.1397 80.0116 38.4247 79.4183C38.7131 78.8217 39.1141 78.3561 39.6278 78.0213C40.1449 77.6832 40.7481 77.5142 41.4375 77.5142C41.9744 77.5142 42.4583 77.6136 42.8892 77.8125C43.3201 78.0114 43.6731 78.2898 43.9482 78.6477C44.2232 79.0057 44.3939 79.4233 44.4602 79.9006H43.2869C43.1974 79.5526 42.9986 79.2443 42.6903 78.9759C42.3854 78.7041 41.9744 78.5682 41.4574 78.5682C41 78.5682 40.599 78.6875 40.2543 78.9261C39.9129 79.1615 39.6461 79.4946 39.4538 79.9254C39.2649 80.353 39.1705 80.8551 39.1705 81.4318C39.1705 82.0218 39.2633 82.5355 39.4489 82.973C39.6378 83.4105 39.9029 83.7502 40.2443 83.9922C40.589 84.2341 40.9934 84.3551 41.4574 84.3551C41.7623 84.3551 42.0391 84.3021 42.2876 84.196C42.5362 84.09 42.7467 83.9375 42.919 83.7386C43.0914 83.5398 43.214 83.3011 43.2869 83.0227H44.4602C44.3939 83.4735 44.2299 83.8795 43.968 84.2408C43.7095 84.5987 43.3665 84.8838 42.9389 85.0959C42.5147 85.3047 42.0208 85.4091 41.4574 85.4091ZM49.3771 85.4091C48.6413 85.4091 48.0066 85.2467 47.473 84.9219C46.9427 84.5938 46.5334 84.1364 46.245 83.5497C45.96 82.9598 45.8175 82.2737 45.8175 81.4915C45.8175 80.7093 45.96 80.0199 46.245 79.4233C46.5334 78.8234 46.9344 78.3561 47.4482 78.0213C47.9652 77.6832 48.5684 77.5142 49.2578 77.5142C49.6555 77.5142 50.0483 77.5805 50.4361 77.7131C50.8239 77.8456 51.1768 78.0611 51.495 78.3594C51.8132 78.6544 52.0668 79.0455 52.2557 79.5327C52.4446 80.0199 52.5391 80.6198 52.5391 81.3324V81.8295H46.6527V80.8153H51.3459C51.3459 80.3845 51.2597 80 51.0874 79.6619C50.9183 79.3239 50.6764 79.0571 50.3615 78.8615C50.05 78.666 49.6821 78.5682 49.2578 78.5682C48.7905 78.5682 48.3861 78.6842 48.0447 78.9162C47.7067 79.1449 47.4465 79.4432 47.2642 79.8111C47.0819 80.179 46.9908 80.5734 46.9908 80.9943V81.6705C46.9908 82.2472 47.0902 82.736 47.2891 83.1371C47.4912 83.5348 47.7713 83.8381 48.1293 84.0469C48.4872 84.2524 48.9032 84.3551 49.3771 84.3551C49.6854 84.3551 49.9638 84.312 50.2124 84.2259C50.4643 84.1364 50.6813 84.0038 50.8636 83.8281C51.0459 83.6491 51.1868 83.4271 51.2862 83.1619L52.4197 83.4801C52.3004 83.8646 52.0999 84.2027 51.8182 84.4943C51.5365 84.7827 51.1884 85.008 50.7741 85.1705C50.3598 85.3295 49.8942 85.4091 49.3771 85.4091ZM59.733 79.3239L58.679 79.6222C58.6127 79.4465 58.5149 79.2758 58.3857 79.1101C58.2597 78.9411 58.0874 78.8018 57.8686 78.6925C57.6499 78.5831 57.3698 78.5284 57.0284 78.5284C56.5611 78.5284 56.1716 78.6361 55.8601 78.8516C55.5518 79.0637 55.3977 79.3338 55.3977 79.6619C55.3977 79.9536 55.5038 80.1839 55.7159 80.353C55.928 80.522 56.2595 80.6629 56.7102 80.7756L57.8438 81.054C58.5265 81.2197 59.0353 81.4732 59.37 81.8146C59.7048 82.1527 59.8722 82.5885 59.8722 83.1222C59.8722 83.5597 59.7462 83.9508 59.4943 84.2955C59.2457 84.6402 58.8977 84.9119 58.4503 85.1108C58.0028 85.3097 57.4825 85.4091 56.8892 85.4091C56.1103 85.4091 55.4657 85.2401 54.9553 84.902C54.4448 84.5639 54.1217 84.0701 53.9858 83.4205L55.0994 83.142C55.2055 83.553 55.406 83.8613 55.701 84.0668C55.9993 84.2723 56.3887 84.375 56.8693 84.375C57.4162 84.375 57.8504 84.259 58.1719 84.027C58.4967 83.7917 58.6591 83.5099 58.6591 83.1818C58.6591 82.9167 58.5663 82.6946 58.3807 82.5156C58.1951 82.3333 57.91 82.1974 57.5256 82.108L56.2528 81.8097C55.5535 81.6439 55.0398 81.3871 54.7116 81.0391C54.3868 80.6877 54.2244 80.2486 54.2244 79.7216C54.2244 79.2907 54.3454 78.9096 54.5874 78.5781C54.8326 78.2467 55.1657 77.9865 55.5866 77.7976C56.0109 77.6087 56.4915 77.5142 57.0284 77.5142C57.7841 77.5142 58.3774 77.6799 58.8082 78.0114C59.2424 78.3428 59.5507 78.7803 59.733 79.3239ZM67.0474 79.3239L65.9934 79.6222C65.9271 79.4465 65.8294 79.2758 65.7001 79.1101C65.5742 78.9411 65.4018 78.8018 65.1831 78.6925C64.9643 78.5831 64.6842 78.5284 64.3429 78.5284C63.8755 78.5284 63.4861 78.6361 63.1745 78.8516C62.8663 79.0637 62.7122 79.3338 62.7122 79.6619C62.7122 79.9536 62.8182 80.1839 63.0304 80.353C63.2425 80.522 63.5739 80.6629 64.0247 80.7756L65.1582 81.054C65.841 81.2197 66.3497 81.4732 66.6845 81.8146C67.0192 82.1527 67.1866 82.5885 67.1866 83.1222C67.1866 83.5597 67.0607 83.9508 66.8088 84.2955C66.5602 84.6402 66.2122 84.9119 65.7647 85.1108C65.3173 85.3097 64.7969 85.4091 64.2037 85.4091C63.4248 85.4091 62.7801 85.2401 62.2697 84.902C61.7593 84.5639 61.4361 84.0701 61.3002 83.4205L62.4139 83.142C62.5199 83.553 62.7205 83.8613 63.0154 84.0668C63.3137 84.2723 63.7032 84.375 64.1838 84.375C64.7306 84.375 65.1648 84.259 65.4863 84.027C65.8111 83.7917 65.9735 83.5099 65.9735 83.1818C65.9735 82.9167 65.8807 82.6946 65.6951 82.5156C65.5095 82.3333 65.2245 82.1974 64.84 82.108L63.5673 81.8097C62.868 81.6439 62.3542 81.3871 62.0261 81.0391C61.7013 80.6877 61.5389 80.2486 61.5389 79.7216C61.5389 79.2907 61.6599 78.9096 61.9018 78.5781C62.1471 78.2467 62.4802 77.9865 62.9011 77.7976C63.3253 77.6087 63.8059 77.5142 64.3429 77.5142C65.0985 77.5142 65.6918 77.6799 66.1227 78.0114C66.5569 78.3428 66.8651 78.7803 67.0474 79.3239ZM75.1374 85.429C74.6535 85.429 74.2144 85.3378 73.82 85.1555C73.4255 84.9699 73.1123 84.7031 72.8803 84.3551C72.6483 84.0038 72.5323 83.5795 72.5323 83.0824C72.5323 82.6449 72.6185 82.2902 72.7908 82.0185C72.9632 81.7434 73.1935 81.5279 73.4819 81.3722C73.7702 81.2164 74.0884 81.1004 74.4364 81.0241C74.7878 80.9446 75.1407 80.8816 75.4954 80.8352C75.9594 80.7756 76.3356 80.7308 76.6239 80.701C76.9156 80.6679 77.1277 80.6132 77.2603 80.5369C77.3962 80.4607 77.4641 80.3281 77.4641 80.1392V80.0994C77.4641 79.6089 77.3299 79.2277 77.0614 78.956C76.7963 78.6842 76.3936 78.5483 75.8533 78.5483C75.2932 78.5483 74.854 78.6709 74.5359 78.9162C74.2177 79.1615 73.994 79.4233 73.8647 79.7017L72.7511 79.304C72.9499 78.84 73.2151 78.4787 73.5465 78.2202C73.8813 77.9583 74.2459 77.776 74.6403 77.6733C75.038 77.5672 75.4291 77.5142 75.8136 77.5142C76.0588 77.5142 76.3406 77.544 76.6587 77.6037C76.9802 77.66 77.2901 77.7777 77.5884 77.9567C77.89 78.1357 78.1403 78.4058 78.3391 78.767C78.538 79.1283 78.6374 79.6122 78.6374 80.2188V85.25H77.4641V84.2159H77.4045C77.3249 84.3816 77.1924 84.5589 77.0067 84.7479C76.8211 84.9368 76.5742 85.0975 76.266 85.2301C75.9577 85.3627 75.5816 85.429 75.1374 85.429ZM75.3164 84.375C75.7804 84.375 76.1715 84.2839 76.4897 84.1016C76.8112 83.9193 77.0531 83.6839 77.2156 83.3956C77.3813 83.1072 77.4641 82.804 77.4641 82.4858V81.4119C77.4144 81.4716 77.305 81.5263 77.136 81.576C76.9703 81.6224 76.7781 81.6638 76.5593 81.7003C76.3439 81.7334 76.1334 81.7633 75.9279 81.7898C75.7257 81.813 75.5617 81.8329 75.4357 81.8494C75.1308 81.8892 74.8458 81.9538 74.5806 82.0433C74.3188 82.1295 74.1067 82.2604 73.9442 82.4361C73.7852 82.6084 73.7056 82.8437 73.7056 83.142C73.7056 83.5497 73.8564 83.858 74.158 84.0668C74.4629 84.2723 74.8491 84.375 75.3164 84.375ZM81.9522 80.6562V85.25H80.7789V77.6136H81.9125V78.8068H82.0119C82.1909 78.419 82.4627 78.1075 82.8272 77.8722C83.1918 77.6335 83.6625 77.5142 84.2392 77.5142C84.7562 77.5142 85.2086 77.6203 85.5964 77.8324C85.9842 78.0412 86.2858 78.3594 86.5012 78.7869C86.7167 79.2112 86.8244 79.7481 86.8244 80.3977V85.25H85.6511V80.4773C85.6511 79.8774 85.4953 79.41 85.1838 79.0753C84.8722 78.7372 84.4447 78.5682 83.9011 78.5682C83.5266 78.5682 83.1918 78.6494 82.8968 78.8118C82.6052 78.9742 82.3748 79.2112 82.2058 79.5227C82.0368 79.8343 81.9522 80.2121 81.9522 80.6562ZM91.8519 85.4091C91.2156 85.4091 90.6538 85.2483 90.1665 84.9268C89.6793 84.602 89.2982 84.1446 89.0231 83.5547C88.748 82.9614 88.6104 82.2604 88.6104 81.4517C88.6104 80.6496 88.748 79.9536 89.0231 79.3636C89.2982 78.7737 89.681 78.3179 90.1715 77.9964C90.6621 77.675 91.2288 77.5142 91.8718 77.5142C92.369 77.5142 92.7617 77.5971 93.0501 77.7628C93.3417 77.9252 93.5638 78.1108 93.7163 78.3196C93.872 78.5251 93.993 78.6941 94.0792 78.8267H94.1786V75.0682H95.3519V85.25H94.2184V84.0767H94.0792C93.993 84.2159 93.8704 84.3916 93.7113 84.6037C93.5522 84.8125 93.3252 84.9998 93.0302 85.1655C92.7352 85.3279 92.3424 85.4091 91.8519 85.4091ZM92.011 84.3551C92.4817 84.3551 92.8794 84.2325 93.2042 83.9872C93.529 83.7386 93.7759 83.3956 93.945 82.9581C94.114 82.5173 94.1985 82.0085 94.1985 81.4318C94.1985 80.8617 94.1156 80.3629 93.9499 79.9354C93.7842 79.5045 93.5389 79.1697 93.2141 78.9311C92.8893 78.6892 92.4883 78.5682 92.011 78.5682C91.5138 78.5682 91.0996 78.6958 90.7681 78.951C90.44 79.2029 90.1931 79.5459 90.0273 79.9801C89.8649 80.411 89.7837 80.8949 89.7837 81.4318C89.7837 81.9754 89.8666 82.4692 90.0323 82.9134C90.2013 83.3542 90.4499 83.7055 90.7781 83.9673C91.1095 84.2259 91.5205 84.3551 92.011 84.3551ZM104.485 85.4091C103.848 85.4091 103.287 85.2483 102.799 84.9268C102.312 84.602 101.931 84.1446 101.656 83.5547C101.381 82.9614 101.243 82.2604 101.243 81.4517C101.243 80.6496 101.381 79.9536 101.656 79.3636C101.931 78.7737 102.314 78.3179 102.804 77.9964C103.295 77.675 103.862 77.5142 104.505 77.5142C105.002 77.5142 105.395 77.5971 105.683 77.7628C105.975 77.9252 106.197 78.1108 106.349 78.3196C106.505 78.5251 106.626 78.6941 106.712 78.8267H106.811V75.0682H107.985V85.25H106.851V84.0767H106.712C106.626 84.2159 106.503 84.3916 106.344 84.6037C106.185 84.8125 105.958 84.9998 105.663 85.1655C105.368 85.3279 104.975 85.4091 104.485 85.4091ZM104.644 84.3551C105.114 84.3551 105.512 84.2325 105.837 83.9872C106.162 83.7386 106.409 83.3956 106.578 82.9581C106.747 82.5173 106.831 82.0085 106.831 81.4318C106.831 80.8617 106.748 80.3629 106.583 79.9354C106.417 79.5045 106.172 79.1697 105.847 78.9311C105.522 78.6892 105.121 78.5682 104.644 78.5682C104.147 78.5682 103.732 78.6958 103.401 78.951C103.073 79.2029 102.826 79.5459 102.66 79.9801C102.498 80.411 102.417 80.8949 102.417 81.4318C102.417 81.9754 102.499 82.4692 102.665 82.9134C102.834 83.3542 103.083 83.7055 103.411 83.9673C103.742 84.2259 104.153 84.3551 104.644 84.3551ZM113.399 85.4091C112.709 85.4091 112.105 85.245 111.584 84.9169C111.067 84.5888 110.663 84.1297 110.371 83.5398C110.083 82.9498 109.939 82.2604 109.939 81.4716C109.939 80.6761 110.083 79.9818 110.371 79.3885C110.663 78.7952 111.067 78.3345 111.584 78.0064C112.105 77.6783 112.709 77.5142 113.399 77.5142C114.088 77.5142 114.691 77.6783 115.208 78.0064C115.729 78.3345 116.133 78.7952 116.422 79.3885C116.713 79.9818 116.859 80.6761 116.859 81.4716C116.859 82.2604 116.713 82.9498 116.422 83.5398C116.133 84.1297 115.729 84.5888 115.208 84.9169C114.691 85.245 114.088 85.4091 113.399 85.4091ZM113.399 84.3551C113.922 84.3551 114.353 84.2209 114.691 83.9524C115.029 83.6839 115.28 83.331 115.442 82.8935C115.605 82.456 115.686 81.982 115.686 81.4716C115.686 80.9612 115.605 80.4856 115.442 80.0447C115.28 79.6039 115.029 79.2476 114.691 78.9759C114.353 78.7041 113.922 78.5682 113.399 78.5682C112.875 78.5682 112.444 78.7041 112.106 78.9759C111.768 79.2476 111.518 79.6039 111.355 80.0447C111.193 80.4856 111.112 80.9612 111.112 81.4716C111.112 81.982 111.193 82.456 111.355 82.8935C111.518 83.331 111.768 83.6839 112.106 83.9524C112.444 84.2209 112.875 84.3551 113.399 84.3551ZM120.12 85.25L117.794 77.6136H119.027L120.677 83.4602H120.757L122.387 77.6136H123.64L125.251 83.4403H125.331L126.981 77.6136H128.214L125.887 85.25H124.734L123.064 79.3835H122.944L121.274 85.25H120.12ZM130.939 80.6562V85.25H129.765V77.6136H130.899V78.8068H130.998C131.177 78.419 131.449 78.1075 131.814 77.8722C132.178 77.6335 132.649 77.5142 133.225 77.5142C133.743 77.5142 134.195 77.6203 134.583 77.8324C134.971 78.0412 135.272 78.3594 135.488 78.7869C135.703 79.2112 135.811 79.7481 135.811 80.3977V85.25H134.637V80.4773C134.637 79.8774 134.482 79.41 134.17 79.0753C133.859 78.7372 133.431 78.5682 132.887 78.5682C132.513 78.5682 132.178 78.6494 131.883 78.8118C131.592 78.9742 131.361 79.2112 131.192 79.5227C131.023 79.8343 130.939 80.2121 130.939 80.6562ZM139.128 75.0682V85.25H137.955V75.0682H139.128ZM144.379 85.4091C143.69 85.4091 143.085 85.245 142.565 84.9169C142.048 84.5888 141.643 84.1297 141.352 83.5398C141.063 82.9498 140.919 82.2604 140.919 81.4716C140.919 80.6761 141.063 79.9818 141.352 79.3885C141.643 78.7952 142.048 78.3345 142.565 78.0064C143.085 77.6783 143.69 77.5142 144.379 77.5142C145.069 77.5142 145.672 77.6783 146.189 78.0064C146.709 78.3345 147.114 78.7952 147.402 79.3885C147.694 79.9818 147.839 80.6761 147.839 81.4716C147.839 82.2604 147.694 82.9498 147.402 83.5398C147.114 84.1297 146.709 84.5888 146.189 84.9169C145.672 85.245 145.069 85.4091 144.379 85.4091ZM144.379 84.3551C144.903 84.3551 145.334 84.2209 145.672 83.9524C146.01 83.6839 146.26 83.331 146.423 82.8935C146.585 82.456 146.666 81.982 146.666 81.4716C146.666 80.9612 146.585 80.4856 146.423 80.0447C146.26 79.6039 146.01 79.2476 145.672 78.9759C145.334 78.7041 144.903 78.5682 144.379 78.5682C143.856 78.5682 143.425 78.7041 143.087 78.9759C142.749 79.2476 142.498 79.6039 142.336 80.0447C142.174 80.4856 142.092 80.9612 142.092 81.4716C142.092 81.982 142.174 82.456 142.336 82.8935C142.498 83.331 142.749 83.6839 143.087 83.9524C143.425 84.2209 143.856 84.3551 144.379 84.3551ZM151.878 85.429C151.394 85.429 150.955 85.3378 150.56 85.1555C150.166 84.9699 149.853 84.7031 149.621 84.3551C149.389 84.0038 149.273 83.5795 149.273 83.0824C149.273 82.6449 149.359 82.2902 149.531 82.0185C149.703 81.7434 149.934 81.5279 150.222 81.3722C150.51 81.2164 150.829 81.1004 151.177 81.0241C151.528 80.9446 151.881 80.8816 152.236 80.8352C152.7 80.7756 153.076 80.7308 153.364 80.701C153.656 80.6679 153.868 80.6132 154.001 80.5369C154.136 80.4607 154.204 80.3281 154.204 80.1392V80.0994C154.204 79.6089 154.07 79.2277 153.802 78.956C153.537 78.6842 153.134 78.5483 152.594 78.5483C152.033 78.5483 151.594 78.6709 151.276 78.9162C150.958 79.1615 150.734 79.4233 150.605 79.7017L149.491 79.304C149.69 78.84 149.955 78.4787 150.287 78.2202C150.622 77.9583 150.986 77.776 151.381 77.6733C151.778 77.5672 152.169 77.5142 152.554 77.5142C152.799 77.5142 153.081 77.544 153.399 77.6037C153.72 77.66 154.03 77.7777 154.329 77.9567C154.63 78.1357 154.881 78.4058 155.079 78.767C155.278 79.1283 155.378 79.6122 155.378 80.2188V85.25H154.204V84.2159H154.145C154.065 84.3816 153.933 84.5589 153.747 84.7479C153.561 84.9368 153.314 85.0975 153.006 85.2301C152.698 85.3627 152.322 85.429 151.878 85.429ZM152.057 84.375C152.521 84.375 152.912 84.2839 153.23 84.1016C153.551 83.9193 153.793 83.6839 153.956 83.3956C154.122 83.1072 154.204 82.804 154.204 82.4858V81.4119C154.155 81.4716 154.045 81.5263 153.876 81.576C153.711 81.6224 153.518 81.6638 153.3 81.7003C153.084 81.7334 152.874 81.7633 152.668 81.7898C152.466 81.813 152.302 81.8329 152.176 81.8494C151.871 81.8892 151.586 81.9538 151.321 82.0433C151.059 82.1295 150.847 82.2604 150.684 82.4361C150.525 82.6084 150.446 82.8437 150.446 83.142C150.446 83.5497 150.597 83.858 150.898 84.0668C151.203 84.2723 151.589 84.375 152.057 84.375ZM160.403 85.4091C159.766 85.4091 159.205 85.2483 158.717 84.9268C158.23 84.602 157.849 84.1446 157.574 83.5547C157.299 82.9614 157.161 82.2604 157.161 81.4517C157.161 80.6496 157.299 79.9536 157.574 79.3636C157.849 78.7737 158.232 78.3179 158.722 77.9964C159.213 77.675 159.78 77.5142 160.423 77.5142C160.92 77.5142 161.313 77.5971 161.601 77.7628C161.893 77.9252 162.115 78.1108 162.267 78.3196C162.423 78.5251 162.544 78.6941 162.63 78.8267H162.729V75.0682H163.903V85.25H162.769V84.0767H162.63C162.544 84.2159 162.421 84.3916 162.262 84.6037C162.103 84.8125 161.876 84.9998 161.581 85.1655C161.286 85.3279 160.893 85.4091 160.403 85.4091ZM160.562 84.3551C161.032 84.3551 161.43 84.2325 161.755 83.9872C162.08 83.7386 162.327 83.3956 162.496 82.9581C162.665 82.5173 162.749 82.0085 162.749 81.4318C162.749 80.8617 162.666 80.3629 162.501 79.9354C162.335 79.5045 162.09 79.1697 161.765 78.9311C161.44 78.6892 161.039 78.5682 160.562 78.5682C160.065 78.5682 159.65 78.6958 159.319 78.951C158.991 79.2029 158.744 79.5459 158.578 79.9801C158.416 80.411 158.335 80.8949 158.335 81.4318C158.335 81.9754 158.417 82.4692 158.583 82.9134C158.752 83.3542 159.001 83.7055 159.329 83.9673C159.66 84.2259 160.071 84.3551 160.562 84.3551ZM170.908 88.1136C170.709 88.1136 170.531 88.0971 170.376 88.0639C170.22 88.0341 170.112 88.0043 170.053 87.9744L170.351 86.9403C170.636 87.0133 170.888 87.0398 171.107 87.0199C171.325 87 171.519 86.9022 171.688 86.7266C171.861 86.5542 172.018 86.2741 172.161 85.8864L172.379 85.2898L169.555 77.6136H170.828L172.936 83.6989H173.016L175.124 77.6136H176.396L173.155 86.3636C173.009 86.758 172.828 87.0845 172.613 87.343C172.397 87.6049 172.147 87.7988 171.862 87.9247C171.58 88.0507 171.262 88.1136 170.908 88.1136ZM180.774 85.4091C180.084 85.4091 179.48 85.245 178.959 84.9169C178.442 84.5888 178.038 84.1297 177.746 83.5398C177.458 82.9498 177.314 82.2604 177.314 81.4716C177.314 80.6761 177.458 79.9818 177.746 79.3885C178.038 78.7952 178.442 78.3345 178.959 78.0064C179.48 77.6783 180.084 77.5142 180.774 77.5142C181.463 77.5142 182.066 77.6783 182.583 78.0064C183.104 78.3345 183.508 78.7952 183.797 79.3885C184.088 79.9818 184.234 80.6761 184.234 81.4716C184.234 82.2604 184.088 82.9498 183.797 83.5398C183.508 84.1297 183.104 84.5888 182.583 84.9169C182.066 85.245 181.463 85.4091 180.774 85.4091ZM180.774 84.3551C181.297 84.3551 181.728 84.2209 182.066 83.9524C182.404 83.6839 182.655 83.331 182.817 82.8935C182.98 82.456 183.061 81.982 183.061 81.4716C183.061 80.9612 182.98 80.4856 182.817 80.0447C182.655 79.6039 182.404 79.2476 182.066 78.9759C181.728 78.7041 181.297 78.5682 180.774 78.5682C180.25 78.5682 179.819 78.7041 179.481 78.9759C179.143 79.2476 178.893 79.6039 178.73 80.0447C178.568 80.4856 178.487 80.9612 178.487 81.4716C178.487 81.982 178.568 82.456 178.73 82.8935C178.893 83.331 179.143 83.6839 179.481 83.9524C179.819 84.2209 180.25 84.3551 180.774 84.3551ZM190.838 82.1278V77.6136H192.011V85.25H190.838V83.9574H190.758C190.579 84.3452 190.301 84.675 189.923 84.9467C189.545 85.2152 189.068 85.3494 188.491 85.3494C188.014 85.3494 187.589 85.245 187.218 85.0362C186.847 84.8241 186.555 84.5059 186.343 84.0817C186.131 83.6541 186.025 83.1155 186.025 82.4659V77.6136H187.198V82.3864C187.198 82.9432 187.354 83.3873 187.666 83.7188C187.981 84.0502 188.382 84.2159 188.869 84.2159C189.16 84.2159 189.457 84.1413 189.759 83.9922C190.064 83.843 190.319 83.6143 190.524 83.3061C190.733 82.9979 190.838 82.6051 190.838 82.1278ZM194.16 85.25V77.6136H195.293V78.767H195.373C195.512 78.3892 195.764 78.0826 196.129 77.8473C196.493 77.612 196.904 77.4943 197.362 77.4943C197.448 77.4943 197.555 77.496 197.685 77.4993C197.814 77.5026 197.912 77.5076 197.978 77.5142V78.7074C197.938 78.6974 197.847 78.6825 197.705 78.6626C197.565 78.6394 197.418 78.6278 197.262 78.6278C196.891 78.6278 196.559 78.7057 196.268 78.8615C195.979 79.014 195.751 79.2261 195.582 79.4979C195.416 79.7663 195.333 80.0729 195.333 80.4176V85.25H194.16ZM203.306 88.1136V77.6136H204.44V78.8267H204.579C204.665 78.6941 204.785 78.5251 204.937 78.3196C205.093 78.1108 205.315 77.9252 205.603 77.7628C205.895 77.5971 206.289 77.5142 206.786 77.5142C207.429 77.5142 207.996 77.675 208.487 77.9964C208.977 78.3179 209.36 78.7737 209.635 79.3636C209.91 79.9536 210.048 80.6496 210.048 81.4517C210.048 82.2604 209.91 82.9614 209.635 83.5547C209.36 84.1446 208.979 84.602 208.492 84.9268C208.004 85.2483 207.443 85.4091 206.806 85.4091C206.316 85.4091 205.923 85.3279 205.628 85.1655C205.333 84.9998 205.106 84.8125 204.947 84.6037C204.788 84.3916 204.665 84.2159 204.579 84.0767H204.48V88.1136H203.306ZM204.46 81.4318C204.46 82.0085 204.544 82.5173 204.713 82.9581C204.882 83.3956 205.129 83.7386 205.454 83.9872C205.779 84.2325 206.177 84.3551 206.647 84.3551C207.138 84.3551 207.547 84.2259 207.875 83.9673C208.207 83.7055 208.455 83.3542 208.621 82.9134C208.79 82.4692 208.874 81.9754 208.874 81.4318C208.874 80.8949 208.792 80.411 208.626 79.9801C208.463 79.5459 208.217 79.2029 207.885 78.951C207.557 78.6958 207.144 78.5682 206.647 78.5682C206.17 78.5682 205.769 78.6892 205.444 78.9311C205.119 79.1697 204.874 79.5045 204.708 79.9354C204.543 80.3629 204.46 80.8617 204.46 81.4318ZM214.085 85.429C213.601 85.429 213.162 85.3378 212.767 85.1555C212.373 84.9699 212.06 84.7031 211.828 84.3551C211.596 84.0038 211.48 83.5795 211.48 83.0824C211.48 82.6449 211.566 82.2902 211.738 82.0185C211.91 81.7434 212.141 81.5279 212.429 81.3722C212.718 81.2164 213.036 81.1004 213.384 81.0241C213.735 80.9446 214.088 80.8816 214.443 80.8352C214.907 80.7756 215.283 80.7308 215.571 80.701C215.863 80.6679 216.075 80.6132 216.208 80.5369C216.343 80.4607 216.411 80.3281 216.411 80.1392V80.0994C216.411 79.6089 216.277 79.2277 216.009 78.956C215.744 78.6842 215.341 78.5483 214.801 78.5483C214.24 78.5483 213.801 78.6709 213.483 78.9162C213.165 79.1615 212.941 79.4233 212.812 79.7017L211.698 79.304C211.897 78.84 212.162 78.4787 212.494 78.2202C212.829 77.9583 213.193 77.776 213.588 77.6733C213.985 77.5672 214.376 77.5142 214.761 77.5142C215.006 77.5142 215.288 77.544 215.606 77.6037C215.927 77.66 216.237 77.7777 216.536 77.9567C216.837 78.1357 217.088 78.4058 217.286 78.767C217.485 79.1283 217.585 79.6122 217.585 80.2188V85.25H216.411V84.2159H216.352C216.272 84.3816 216.14 84.5589 215.954 84.7479C215.768 84.9368 215.521 85.0975 215.213 85.2301C214.905 85.3627 214.529 85.429 214.085 85.429ZM214.264 84.375C214.728 84.375 215.119 84.2839 215.437 84.1016C215.758 83.9193 216 83.6839 216.163 83.3956C216.329 83.1072 216.411 82.804 216.411 82.4858V81.4119C216.362 81.4716 216.252 81.5263 216.083 81.576C215.918 81.6224 215.725 81.6638 215.507 81.7003C215.291 81.7334 215.081 81.7633 214.875 81.7898C214.673 81.813 214.509 81.8329 214.383 81.8494C214.078 81.8892 213.793 81.9538 213.528 82.0433C213.266 82.1295 213.054 82.2604 212.892 82.4361C212.732 82.6084 212.653 82.8437 212.653 83.142C212.653 83.5497 212.804 83.858 213.105 84.0668C213.41 84.2723 213.796 84.375 214.264 84.375ZM220.208 88.1136C220.01 88.1136 219.832 88.0971 219.676 88.0639C219.521 88.0341 219.413 88.0043 219.353 87.9744L219.652 86.9403C219.937 87.0133 220.189 87.0398 220.407 87.0199C220.626 87 220.82 86.9022 220.989 86.7266C221.161 86.5542 221.319 86.2741 221.461 85.8864L221.68 85.2898L218.856 77.6136H220.129L222.237 83.6989H222.316L224.424 77.6136H225.697L222.456 86.3636C222.31 86.758 222.129 87.0845 221.914 87.343C221.698 87.6049 221.448 87.7988 221.163 87.9247C220.881 88.0507 220.563 88.1136 220.208 88.1136ZM232.655 79.3239L231.601 79.6222C231.535 79.4465 231.437 79.2758 231.308 79.1101C231.182 78.9411 231.009 78.8018 230.79 78.6925C230.572 78.5831 230.292 78.5284 229.95 78.5284C229.483 78.5284 229.094 78.6361 228.782 78.8516C228.474 79.0637 228.32 79.3338 228.32 79.6619C228.32 79.9536 228.426 80.1839 228.638 80.353C228.85 80.522 229.181 80.6629 229.632 80.7756L230.766 81.054C231.448 81.2197 231.957 81.4732 232.292 81.8146C232.627 82.1527 232.794 82.5885 232.794 83.1222C232.794 83.5597 232.668 83.9508 232.416 84.2955C232.168 84.6402 231.82 84.9119 231.372 85.1108C230.925 85.3097 230.404 85.4091 229.811 85.4091C229.032 85.4091 228.388 85.2401 227.877 84.902C227.367 84.5639 227.044 84.0701 226.908 83.4205L228.021 83.142C228.127 83.553 228.328 83.8613 228.623 84.0668C228.921 84.2723 229.311 84.375 229.791 84.375C230.338 84.375 230.772 84.259 231.094 84.027C231.419 83.7917 231.581 83.5099 231.581 83.1818C231.581 82.9167 231.488 82.6946 231.303 82.5156C231.117 82.3333 230.832 82.1974 230.447 82.108L229.175 81.8097C228.475 81.6439 227.962 81.3871 227.634 81.0391C227.309 80.6877 227.146 80.2486 227.146 79.7216C227.146 79.2907 227.267 78.9096 227.509 78.5781C227.754 78.2467 228.088 77.9865 228.509 77.7976C228.933 77.6087 229.413 77.5142 229.95 77.5142C230.706 77.5142 231.299 77.6799 231.73 78.0114C232.164 78.3428 232.473 78.7803 232.655 79.3239ZM235.733 75.0682V85.25H234.56V75.0682H235.733ZM237.882 85.25V77.6136H239.056V85.25H237.882ZM238.479 76.3409C238.25 76.3409 238.053 76.263 237.887 76.1072C237.725 75.9515 237.644 75.7642 237.644 75.5455C237.644 75.3267 237.725 75.1394 237.887 74.9837C238.053 74.8279 238.25 74.75 238.479 74.75C238.708 74.75 238.903 74.8279 239.066 74.9837C239.231 75.1394 239.314 75.3267 239.314 75.5455C239.314 75.7642 239.231 75.9515 239.066 76.1072C238.903 76.263 238.708 76.3409 238.479 76.3409ZM241.205 88.1136V77.6136H242.338V78.8267H242.477C242.564 78.6941 242.683 78.5251 242.835 78.3196C242.991 78.1108 243.213 77.9252 243.502 77.7628C243.793 77.5971 244.188 77.5142 244.685 77.5142C245.328 77.5142 245.895 77.675 246.385 77.9964C246.876 78.3179 247.258 78.7737 247.534 79.3636C247.809 79.9536 247.946 80.6496 247.946 81.4517C247.946 82.2604 247.809 82.9614 247.534 83.5547C247.258 84.1446 246.877 84.602 246.39 84.9268C245.903 85.2483 245.341 85.4091 244.705 85.4091C244.214 85.4091 243.821 85.3279 243.526 85.1655C243.231 84.9998 243.004 84.8125 242.845 84.6037C242.686 84.3916 242.564 84.2159 242.477 84.0767H242.378V88.1136H241.205ZM242.358 81.4318C242.358 82.0085 242.443 82.5173 242.612 82.9581C242.781 83.3956 243.028 83.7386 243.352 83.9872C243.677 84.2325 244.075 84.3551 244.546 84.3551C245.036 84.3551 245.445 84.2259 245.774 83.9673C246.105 83.7055 246.354 83.3542 246.519 82.9134C246.688 82.4692 246.773 81.9754 246.773 81.4318C246.773 80.8949 246.69 80.411 246.524 79.9801C246.362 79.5459 246.115 79.2029 245.784 78.951C245.455 78.6958 245.043 78.5682 244.546 78.5682C244.068 78.5682 243.667 78.6892 243.343 78.9311C243.018 79.1697 242.772 79.5045 242.607 79.9354C242.441 80.3629 242.358 80.8617 242.358 81.4318ZM255.145 79.3239L254.091 79.6222C254.025 79.4465 253.927 79.2758 253.798 79.1101C253.672 78.9411 253.499 78.8018 253.281 78.6925C253.062 78.5831 252.782 78.5284 252.441 78.5284C251.973 78.5284 251.584 78.6361 251.272 78.8516C250.964 79.0637 250.81 79.3338 250.81 79.6619C250.81 79.9536 250.916 80.1839 251.128 80.353C251.34 80.522 251.672 80.6629 252.122 80.7756L253.256 81.054C253.939 81.2197 254.447 81.4732 254.782 81.8146C255.117 82.1527 255.284 82.5885 255.284 83.1222C255.284 83.5597 255.158 83.9508 254.906 84.2955C254.658 84.6402 254.31 84.9119 253.862 85.1108C253.415 85.3097 252.895 85.4091 252.301 85.4091C251.522 85.4091 250.878 85.2401 250.367 84.902C249.857 84.5639 249.534 84.0701 249.398 83.4205L250.512 83.142C250.618 83.553 250.818 83.8613 251.113 84.0668C251.411 84.2723 251.801 84.375 252.281 84.375C252.828 84.375 253.262 84.259 253.584 84.027C253.909 83.7917 254.071 83.5099 254.071 83.1818C254.071 82.9167 253.978 82.6946 253.793 82.5156C253.607 82.3333 253.322 82.1974 252.938 82.108L251.665 81.8097C250.966 81.6439 250.452 81.3871 250.124 81.0391C249.799 80.6877 249.637 80.2486 249.637 79.7216C249.637 79.2907 249.758 78.9096 249.999 78.5781C250.245 78.2467 250.578 77.9865 250.999 77.7976C251.423 77.6087 251.904 77.5142 252.441 77.5142C253.196 77.5142 253.789 77.6799 254.22 78.0114C254.655 78.3428 254.963 78.7803 255.145 79.3239ZM266.198 88.1136V84.0767H266.099C266.013 84.2159 265.89 84.3916 265.731 84.6037C265.572 84.8125 265.345 84.9998 265.05 85.1655C264.755 85.3279 264.362 85.4091 263.871 85.4091C263.235 85.4091 262.673 85.2483 262.186 84.9268C261.699 84.602 261.318 84.1446 261.043 83.5547C260.768 82.9614 260.63 82.2604 260.63 81.4517C260.63 80.6496 260.768 79.9536 261.043 79.3636C261.318 78.7737 261.701 78.3179 262.191 77.9964C262.682 77.675 263.248 77.5142 263.891 77.5142C264.388 77.5142 264.781 77.5971 265.07 77.7628C265.361 77.9252 265.583 78.1108 265.736 78.3196C265.892 78.5251 266.013 78.6941 266.099 78.8267H266.238V77.6136H267.371V88.1136H266.198ZM264.031 84.3551C264.501 84.3551 264.899 84.2325 265.224 83.9872C265.549 83.7386 265.795 83.3956 265.964 82.9581C266.134 82.5173 266.218 82.0085 266.218 81.4318C266.218 80.8617 266.135 80.3629 265.969 79.9354C265.804 79.5045 265.558 79.1697 265.234 78.9311C264.909 78.6892 264.508 78.5682 264.031 78.5682C263.533 78.5682 263.119 78.6958 262.788 78.951C262.46 79.2029 262.213 79.5459 262.047 79.9801C261.884 80.411 261.803 80.8949 261.803 81.4318C261.803 81.9754 261.886 82.4692 262.052 82.9134C262.221 83.3542 262.469 83.7055 262.798 83.9673C263.129 84.2259 263.54 84.3551 264.031 84.3551ZM274.332 82.1278V77.6136H275.505V85.25H274.332V83.9574H274.252C274.073 84.3452 273.795 84.675 273.417 84.9467C273.039 85.2152 272.562 85.3494 271.985 85.3494C271.508 85.3494 271.084 85.245 270.712 85.0362C270.341 84.8241 270.049 84.5059 269.837 84.0817C269.625 83.6541 269.519 83.1155 269.519 82.4659V77.6136H270.692V82.3864C270.692 82.9432 270.848 83.3873 271.16 83.7188C271.475 84.0502 271.876 84.2159 272.363 84.2159C272.655 84.2159 272.951 84.1413 273.253 83.9922C273.558 83.843 273.813 83.6143 274.018 83.3061C274.227 82.9979 274.332 82.6051 274.332 82.1278ZM277.654 85.25V77.6136H278.827V85.25H277.654ZM278.251 76.3409C278.022 76.3409 277.825 76.263 277.659 76.1072C277.497 75.9515 277.415 75.7642 277.415 75.5455C277.415 75.3267 277.497 75.1394 277.659 74.9837C277.825 74.8279 278.022 74.75 278.251 74.75C278.479 74.75 278.675 74.8279 278.837 74.9837C279.003 75.1394 279.086 75.3267 279.086 75.5455C279.086 75.7642 279.003 75.9515 278.837 76.1072C278.675 76.263 278.479 76.3409 278.251 76.3409ZM284.078 85.4091C283.363 85.4091 282.746 85.2401 282.229 84.902C281.712 84.5639 281.314 84.0982 281.036 83.505C280.757 82.9117 280.618 82.2339 280.618 81.4716C280.618 80.696 280.761 80.0116 281.046 79.4183C281.334 78.8217 281.735 78.3561 282.249 78.0213C282.766 77.6832 283.369 77.5142 284.059 77.5142C284.596 77.5142 285.079 77.6136 285.51 77.8125C285.941 78.0114 286.294 78.2898 286.569 78.6477C286.844 79.0057 287.015 79.4233 287.081 79.9006H285.908C285.819 79.5526 285.62 79.2443 285.311 78.9759C285.007 78.7041 284.596 78.5682 284.078 78.5682C283.621 78.5682 283.22 78.6875 282.875 78.9261C282.534 79.1615 282.267 79.4946 282.075 79.9254C281.886 80.353 281.792 80.8551 281.792 81.4318C281.792 82.0218 281.884 82.5355 282.07 82.973C282.259 83.4105 282.524 83.7502 282.865 83.9922C283.21 84.2341 283.614 84.3551 284.078 84.3551C284.383 84.3551 284.66 84.3021 284.909 84.196C285.157 84.09 285.368 83.9375 285.54 83.7386C285.712 83.5398 285.835 83.3011 285.908 83.0227H287.081C287.015 83.4735 286.851 83.8795 286.589 84.2408C286.331 84.5987 285.988 84.8838 285.56 85.0959C285.136 85.3047 284.642 85.4091 284.078 85.4091ZM289.89 82.4659L289.87 81.0142H290.109L293.45 77.6136H294.902L291.342 81.2131H291.243L289.89 82.4659ZM288.797 85.25V75.0682H289.97V85.25H288.797ZM293.649 85.25L290.666 81.4716L291.501 80.6562L295.14 85.25H293.649ZM297.585 75.0682V85.25H296.412V75.0682H297.585ZM300.49 88.1136C300.291 88.1136 300.114 88.0971 299.958 88.0639C299.802 88.0341 299.694 88.0043 299.635 87.9744L299.933 86.9403C300.218 87.0133 300.47 87.0398 300.689 87.0199C300.907 87 301.101 86.9022 301.27 86.7266C301.443 86.5542 301.6 86.2741 301.743 85.8864L301.961 85.2898L299.137 77.6136H300.41L302.518 83.6989H302.598L304.706 77.6136H305.978L302.737 86.3636C302.591 86.758 302.41 87.0845 302.195 87.343C301.98 87.6049 301.729 87.7988 301.444 87.9247C301.163 88.0507 300.844 88.1136 300.49 88.1136ZM22.804 106.25L20.4773 98.6136H21.7102L23.3608 104.46H23.4403L25.071 98.6136H26.3239L27.9347 104.44H28.0142L29.6648 98.6136H30.8977L28.571 106.25H27.4176L25.7472 100.384H25.6278L23.9574 106.25H22.804ZM32.4489 106.25V98.6136H33.6222V106.25H32.4489ZM33.0455 97.3409C32.8168 97.3409 32.6196 97.263 32.4538 97.1072C32.2914 96.9515 32.2102 96.7642 32.2102 96.5455C32.2102 96.3267 32.2914 96.1394 32.4538 95.9837C32.6196 95.8279 32.8168 95.75 33.0455 95.75C33.2741 95.75 33.4697 95.8279 33.6321 95.9837C33.7978 96.1394 33.8807 96.3267 33.8807 96.5455C33.8807 96.7642 33.7978 96.9515 33.6321 97.1072C33.4697 97.263 33.2741 97.3409 33.0455 97.3409ZM39.0922 98.6136V99.608H35.1348V98.6136H39.0922ZM36.2882 96.7841H37.4615V104.062C37.4615 104.394 37.5095 104.643 37.6056 104.808C37.7051 104.971 37.831 105.08 37.9835 105.136C38.1393 105.189 38.3033 105.216 38.4757 105.216C38.6049 105.216 38.711 105.209 38.7939 105.196C38.8767 105.179 38.943 105.166 38.9927 105.156L39.2314 106.21C39.1518 106.24 39.0408 106.27 38.8983 106.3C38.7557 106.333 38.5751 106.349 38.3564 106.349C38.0249 106.349 37.7001 106.278 37.3819 106.136C37.0671 105.993 36.8052 105.776 36.5964 105.484C36.3909 105.193 36.2882 104.825 36.2882 104.381V96.7841ZM42.1944 101.656V106.25H41.0211V96.0682H42.1944V99.8068H42.2939C42.4728 99.4124 42.7413 99.0992 43.0993 98.8672C43.4605 98.6319 43.9411 98.5142 44.541 98.5142C45.0614 98.5142 45.5171 98.6186 45.9082 98.8274C46.2993 99.0329 46.6026 99.3494 46.818 99.777C47.0368 100.201 47.1461 100.741 47.1461 101.398V106.25H45.9728V101.477C45.9728 100.871 45.8154 100.402 45.5005 100.07C45.189 99.7356 44.7565 99.5682 44.2029 99.5682C43.8185 99.5682 43.4738 99.6494 43.1689 99.8118C42.8672 99.9742 42.6286 100.211 42.4529 100.523C42.2806 100.834 42.1944 101.212 42.1944 101.656ZM56.6307 98.6136V99.608H52.5142V98.6136H56.6307ZM53.7472 106.25V97.5597C53.7472 97.1222 53.8499 96.7576 54.0554 96.4659C54.2609 96.1742 54.5277 95.9555 54.8558 95.8097C55.1839 95.6638 55.5303 95.5909 55.8949 95.5909C56.1832 95.5909 56.4186 95.6141 56.6009 95.6605C56.7831 95.7069 56.919 95.75 57.0085 95.7898L56.6705 96.804C56.6108 96.7841 56.5279 96.7592 56.4219 96.7294C56.3191 96.6996 56.1832 96.6847 56.0142 96.6847C55.6264 96.6847 55.3464 96.7824 55.174 96.978C55.005 97.1735 54.9205 97.4602 54.9205 97.8381V106.25H53.7472ZM63.0875 103.128V98.6136H64.2608V106.25H63.0875V104.957H63.008C62.829 105.345 62.5506 105.675 62.1728 105.947C61.7949 106.215 61.3176 106.349 60.7409 106.349C60.2637 106.349 59.8394 106.245 59.4682 106.036C59.097 105.824 58.8053 105.506 58.5932 105.082C58.3811 104.654 58.275 104.116 58.275 103.466V98.6136H59.4483V103.386C59.4483 103.943 59.6041 104.387 59.9157 104.719C60.2305 105.05 60.6316 105.216 61.1188 105.216C61.4105 105.216 61.7071 105.141 62.0087 104.992C62.3136 104.843 62.5688 104.614 62.7743 104.306C62.9831 103.998 63.0875 103.605 63.0875 103.128ZM67.5831 96.0682V106.25H66.4098V96.0682H67.5831ZM70.9054 96.0682V106.25H69.7321V96.0682H70.9054ZM80.3129 98.6136V99.608H76.3555V98.6136H80.3129ZM77.5089 96.7841H78.6822V104.062C78.6822 104.394 78.7302 104.643 78.8263 104.808C78.9258 104.971 79.0517 105.08 79.2042 105.136C79.36 105.189 79.524 105.216 79.6964 105.216C79.8256 105.216 79.9317 105.209 80.0146 105.196C80.0974 105.179 80.1637 105.166 80.2134 105.156L80.4521 106.21C80.3725 106.24 80.2615 106.27 80.119 106.3C79.9764 106.333 79.7958 106.349 79.5771 106.349C79.2456 106.349 78.9208 106.278 78.6026 106.136C78.2878 105.993 78.0259 105.776 77.8171 105.484C77.6116 105.193 77.5089 104.825 77.5089 104.381V96.7841ZM82.0778 106.25V98.6136H83.2113V99.767H83.2908C83.43 99.3892 83.6819 99.0826 84.0465 98.8473C84.4111 98.612 84.8221 98.4943 85.2795 98.4943C85.3656 98.4943 85.4734 98.496 85.6026 98.4993C85.7319 98.5026 85.8297 98.5076 85.896 98.5142V99.7074C85.8562 99.6974 85.765 99.6825 85.6225 99.6626C85.4833 99.6394 85.3358 99.6278 85.18 99.6278C84.8088 99.6278 84.4774 99.7057 84.1857 99.8615C83.8974 100.014 83.6687 100.226 83.4996 100.498C83.3339 100.766 83.2511 101.073 83.2511 101.418V106.25H82.0778ZM89.5339 106.429C89.05 106.429 88.6109 106.338 88.2164 106.156C87.822 105.97 87.5088 105.703 87.2768 105.355C87.0448 105.004 86.9288 104.58 86.9288 104.082C86.9288 103.645 87.015 103.29 87.1873 103.018C87.3597 102.743 87.59 102.528 87.8784 102.372C88.1667 102.216 88.4849 102.1 88.8329 102.024C89.1842 101.945 89.5372 101.882 89.8919 101.835C90.3559 101.776 90.7321 101.731 91.0204 101.701C91.3121 101.668 91.5242 101.613 91.6568 101.537C91.7927 101.461 91.8606 101.328 91.8606 101.139V101.099C91.8606 100.609 91.7264 100.228 91.4579 99.956C91.1928 99.6842 90.7901 99.5483 90.2498 99.5483C89.6897 99.5483 89.2505 99.6709 88.9324 99.9162C88.6142 100.161 88.3904 100.423 88.2612 100.702L87.1475 100.304C87.3464 99.84 87.6116 99.4787 87.943 99.2202C88.2778 98.9583 88.6423 98.776 89.0368 98.6733C89.4345 98.5672 89.8256 98.5142 90.21 98.5142C90.4553 98.5142 90.737 98.544 91.0552 98.6037C91.3767 98.66 91.6866 98.7777 91.9849 98.9567C92.2865 99.1357 92.5368 99.4058 92.7356 99.767C92.9345 100.128 93.0339 100.612 93.0339 101.219V106.25H91.8606V105.216H91.801C91.7214 105.382 91.5888 105.559 91.4032 105.748C91.2176 105.937 90.9707 106.098 90.6625 106.23C90.3542 106.363 89.978 106.429 89.5339 106.429ZM89.7129 105.375C90.1769 105.375 90.568 105.284 90.8862 105.102C91.2077 104.919 91.4496 104.684 91.612 104.396C91.7778 104.107 91.8606 103.804 91.8606 103.486V102.412C91.8109 102.472 91.7015 102.526 91.5325 102.576C91.3668 102.622 91.1745 102.664 90.9558 102.7C90.7404 102.733 90.5299 102.763 90.3244 102.79C90.1222 102.813 89.9582 102.833 89.8322 102.849C89.5273 102.889 89.2422 102.954 88.9771 103.043C88.7153 103.129 88.5031 103.26 88.3407 103.436C88.1816 103.608 88.1021 103.844 88.1021 104.142C88.1021 104.55 88.2529 104.858 88.5545 105.067C88.8594 105.272 89.2456 105.375 89.7129 105.375ZM96.3487 101.656V106.25H95.1754V98.6136H96.3089V99.8068H96.4084C96.5874 99.419 96.8591 99.1075 97.2237 98.8722C97.5883 98.6335 98.0589 98.5142 98.6357 98.5142C99.1527 98.5142 99.6051 98.6203 99.9929 98.8324C100.381 99.0412 100.682 99.3594 100.898 99.7869C101.113 100.211 101.221 100.748 101.221 101.398V106.25H100.048V101.477C100.048 100.877 99.8918 100.41 99.5803 100.075C99.2687 99.7372 98.8411 99.5682 98.2976 99.5682C97.9231 99.5682 97.5883 99.6494 97.2933 99.8118C97.0017 99.9742 96.7713 100.211 96.6023 100.523C96.4332 100.834 96.3487 101.212 96.3487 101.656ZM108.774 100.324L107.72 100.622C107.654 100.446 107.556 100.276 107.427 100.11C107.301 99.9411 107.128 99.8018 106.91 99.6925C106.691 99.5831 106.411 99.5284 106.069 99.5284C105.602 99.5284 105.213 99.6361 104.901 99.8516C104.593 100.064 104.439 100.334 104.439 100.662C104.439 100.954 104.545 101.184 104.757 101.353C104.969 101.522 105.3 101.663 105.751 101.776L106.885 102.054C107.568 102.22 108.076 102.473 108.411 102.815C108.746 103.153 108.913 103.589 108.913 104.122C108.913 104.56 108.787 104.951 108.535 105.295C108.287 105.64 107.939 105.912 107.491 106.111C107.044 106.31 106.523 106.409 105.93 106.409C105.151 106.409 104.507 106.24 103.996 105.902C103.486 105.564 103.163 105.07 103.027 104.42L104.14 104.142C104.247 104.553 104.447 104.861 104.742 105.067C105.04 105.272 105.43 105.375 105.91 105.375C106.457 105.375 106.891 105.259 107.213 105.027C107.538 104.792 107.7 104.51 107.7 104.182C107.7 103.917 107.607 103.695 107.422 103.516C107.236 103.333 106.951 103.197 106.567 103.108L105.294 102.81C104.595 102.644 104.081 102.387 103.753 102.039C103.428 101.688 103.265 101.249 103.265 100.722C103.265 100.291 103.386 99.9096 103.628 99.5781C103.874 99.2467 104.207 98.9865 104.628 98.7976C105.052 98.6087 105.532 98.5142 106.069 98.5142C106.825 98.5142 107.418 98.6799 107.849 99.0114C108.283 99.3428 108.592 99.7803 108.774 100.324ZM110.679 109.114V98.6136H111.813V99.8267H111.952C112.038 99.6941 112.158 99.5251 112.31 99.3196C112.466 99.1108 112.688 98.9252 112.976 98.7628C113.268 98.5971 113.662 98.5142 114.159 98.5142C114.802 98.5142 115.369 98.675 115.86 98.9964C116.35 99.3179 116.733 99.7737 117.008 100.364C117.283 100.954 117.421 101.65 117.421 102.452C117.421 103.26 117.283 103.961 117.008 104.555C116.733 105.145 116.352 105.602 115.865 105.927C115.377 106.248 114.816 106.409 114.179 106.409C113.689 106.409 113.296 106.328 113.001 106.165C112.706 106 112.479 105.812 112.32 105.604C112.161 105.392 112.038 105.216 111.952 105.077H111.853V109.114H110.679ZM111.833 102.432C111.833 103.009 111.917 103.517 112.086 103.958C112.255 104.396 112.502 104.739 112.827 104.987C113.152 105.232 113.55 105.355 114.02 105.355C114.511 105.355 114.92 105.226 115.248 104.967C115.58 104.705 115.828 104.354 115.994 103.913C116.163 103.469 116.248 102.975 116.248 102.432C116.248 101.895 116.165 101.411 115.999 100.98C115.837 100.546 115.59 100.203 115.258 99.951C114.93 99.6958 114.517 99.5682 114.02 99.5682C113.543 99.5682 113.142 99.6892 112.817 99.9311C112.492 100.17 112.247 100.504 112.081 100.935C111.916 101.363 111.833 101.862 111.833 102.432ZM121.458 106.429C120.974 106.429 120.535 106.338 120.14 106.156C119.746 105.97 119.433 105.703 119.201 105.355C118.969 105.004 118.853 104.58 118.853 104.082C118.853 103.645 118.939 103.29 119.111 103.018C119.283 102.743 119.514 102.528 119.802 102.372C120.091 102.216 120.409 102.1 120.757 102.024C121.108 101.945 121.461 101.882 121.816 101.835C122.28 101.776 122.656 101.731 122.944 101.701C123.236 101.668 123.448 101.613 123.581 101.537C123.717 101.461 123.784 101.328 123.784 101.139V101.099C123.784 100.609 123.65 100.228 123.382 99.956C123.117 99.6842 122.714 99.5483 122.174 99.5483C121.614 99.5483 121.174 99.6709 120.856 99.9162C120.538 100.161 120.314 100.423 120.185 100.702L119.071 100.304C119.27 99.84 119.535 99.4787 119.867 99.2202C120.202 98.9583 120.566 98.776 120.961 98.6733C121.358 98.5672 121.749 98.5142 122.134 98.5142C122.379 98.5142 122.661 98.544 122.979 98.6037C123.301 98.66 123.61 98.7777 123.909 98.9567C124.21 99.1357 124.461 99.4058 124.659 99.767C124.858 100.128 124.958 100.612 124.958 101.219V106.25H123.784V105.216H123.725C123.645 105.382 123.513 105.559 123.327 105.748C123.141 105.937 122.895 106.098 122.586 106.23C122.278 106.363 121.902 106.429 121.458 106.429ZM121.637 105.375C122.101 105.375 122.492 105.284 122.81 105.102C123.132 104.919 123.373 104.684 123.536 104.396C123.702 104.107 123.784 103.804 123.784 103.486V102.412C123.735 102.472 123.625 102.526 123.456 102.576C123.291 102.622 123.098 102.664 122.88 102.7C122.664 102.733 122.454 102.763 122.248 102.79C122.046 102.813 121.882 102.833 121.756 102.849C121.451 102.889 121.166 102.954 120.901 103.043C120.639 103.129 120.427 103.26 120.265 103.436C120.105 103.608 120.026 103.844 120.026 104.142C120.026 104.55 120.177 104.858 120.478 105.067C120.783 105.272 121.169 105.375 121.637 105.375ZM127.099 106.25V98.6136H128.233V99.767H128.312C128.452 99.3892 128.703 99.0826 129.068 98.8473C129.433 98.612 129.844 98.4943 130.301 98.4943C130.387 98.4943 130.495 98.496 130.624 98.4993C130.753 98.5026 130.851 98.5076 130.917 98.5142V99.7074C130.878 99.6974 130.787 99.6825 130.644 99.6626C130.505 99.6394 130.357 99.6278 130.202 99.6278C129.83 99.6278 129.499 99.7057 129.207 99.8615C128.919 100.014 128.69 100.226 128.521 100.498C128.355 100.766 128.273 101.073 128.273 101.418V106.25H127.099ZM135.278 106.409C134.542 106.409 133.907 106.247 133.373 105.922C132.843 105.594 132.434 105.136 132.145 104.55C131.86 103.96 131.718 103.274 131.718 102.491C131.718 101.709 131.86 101.02 132.145 100.423C132.434 99.8234 132.835 99.3561 133.349 99.0213C133.866 98.6832 134.469 98.5142 135.158 98.5142C135.556 98.5142 135.949 98.5805 136.336 98.7131C136.724 98.8456 137.077 99.0611 137.395 99.3594C137.714 99.6544 137.967 100.045 138.156 100.533C138.345 101.02 138.439 101.62 138.439 102.332V102.83H132.553V101.815H137.246C137.246 101.384 137.16 101 136.988 100.662C136.819 100.324 136.577 100.057 136.262 99.8615C135.95 99.666 135.582 99.5682 135.158 99.5682C134.691 99.5682 134.287 99.6842 133.945 99.9162C133.607 100.145 133.347 100.443 133.165 100.811C132.982 101.179 132.891 101.573 132.891 101.994V102.67C132.891 103.247 132.991 103.736 133.189 104.137C133.392 104.535 133.672 104.838 134.03 105.047C134.388 105.252 134.804 105.355 135.278 105.355C135.586 105.355 135.864 105.312 136.113 105.226C136.365 105.136 136.582 105.004 136.764 104.828C136.946 104.649 137.087 104.427 137.187 104.162L138.32 104.48C138.201 104.865 138 105.203 137.719 105.494C137.437 105.783 137.089 106.008 136.675 106.17C136.26 106.33 135.795 106.409 135.278 106.409ZM141.398 101.656V106.25H140.224V98.6136H141.358V99.8068H141.457C141.636 99.419 141.908 99.1075 142.273 98.8722C142.637 98.6335 143.108 98.5142 143.684 98.5142C144.202 98.5142 144.654 98.6203 145.042 98.8324C145.43 99.0412 145.731 99.3594 145.947 99.7869C146.162 100.211 146.27 100.748 146.27 101.398V106.25H145.096V101.477C145.096 100.877 144.941 100.41 144.629 100.075C144.318 99.7372 143.89 99.5682 143.346 99.5682C142.972 99.5682 142.637 99.6494 142.342 99.8118C142.05 99.9742 141.82 100.211 141.651 100.523C141.482 100.834 141.398 101.212 141.398 101.656ZM151.516 106.409C150.8 106.409 150.184 106.24 149.667 105.902C149.15 105.564 148.752 105.098 148.473 104.505C148.195 103.912 148.056 103.234 148.056 102.472C148.056 101.696 148.198 101.012 148.483 100.418C148.772 99.8217 149.173 99.3561 149.686 99.0213C150.203 98.6832 150.807 98.5142 151.496 98.5142C152.033 98.5142 152.517 98.6136 152.948 98.8125C153.379 99.0114 153.732 99.2898 154.007 99.6477C154.282 100.006 154.453 100.423 154.519 100.901H153.346C153.256 100.553 153.057 100.244 152.749 99.9759C152.444 99.7041 152.033 99.5682 151.516 99.5682C151.059 99.5682 150.658 99.6875 150.313 99.9261C149.971 100.161 149.705 100.495 149.512 100.925C149.324 101.353 149.229 101.855 149.229 102.432C149.229 103.022 149.322 103.536 149.507 103.973C149.696 104.411 149.962 104.75 150.303 104.992C150.648 105.234 151.052 105.355 151.516 105.355C151.821 105.355 152.098 105.302 152.346 105.196C152.595 105.09 152.805 104.938 152.978 104.739C153.15 104.54 153.273 104.301 153.346 104.023H154.519C154.453 104.473 154.288 104.879 154.027 105.241C153.768 105.599 153.425 105.884 152.998 106.096C152.573 106.305 152.079 106.409 151.516 106.409ZM156.99 109.114C156.791 109.114 156.614 109.097 156.458 109.064C156.302 109.034 156.194 109.004 156.135 108.974L156.433 107.94C156.718 108.013 156.97 108.04 157.189 108.02C157.407 108 157.601 107.902 157.77 107.727C157.943 107.554 158.1 107.274 158.243 106.886L158.461 106.29L155.637 98.6136H156.91L159.018 104.699H159.098L161.206 98.6136H162.478L159.237 107.364C159.091 107.758 158.91 108.085 158.695 108.343C158.48 108.605 158.229 108.799 157.944 108.925C157.663 109.051 157.344 109.114 156.99 109.114ZM164.404 106.33C164.158 106.33 163.948 106.242 163.772 106.066C163.597 105.89 163.509 105.68 163.509 105.435C163.509 105.189 163.597 104.979 163.772 104.803C163.948 104.628 164.158 104.54 164.404 104.54C164.649 104.54 164.859 104.628 165.035 104.803C165.211 104.979 165.298 105.189 165.298 105.435C165.298 105.597 165.257 105.746 165.174 105.882C165.095 106.018 164.987 106.127 164.851 106.21C164.718 106.29 164.569 106.33 164.404 106.33Z" fill="white"/>
<rect x="0.5" y="0.75" width="339" height="139" rx="15.5" stroke="#5554AB"/>
<defs>
<linearGradient id="paint0_linear_25_386" x1="0" y1="70.25" x2="340" y2="70.25" gradientUnits="userSpaceOnUse">
<stop stop-color="#211E6B" stop-opacity="0.5"/>
<stop offset="1" stop-color="#212161"/>
</linearGradient>
<clipPath id="clip0_25_386">
<rect width="98" height="24" fill="white" transform="translate(20 29.25)"/>
</clipPath>
<clipPath id="clip1_25_386">
<rect width="6" height="11" fill="white" transform="translate(31 35.75)"/>
</clipPath>
</defs>
</svg>
