<svg width="340" height="141" viewBox="0 0 340 141" fill="none" xmlns="http://www.w3.org/2000/svg">
<rect y="0.25" width="340" height="140" rx="16" fill="url(#paint0_linear_25_403)"/>
<g clip-path="url(#clip0_25_403)">
<rect x="22" y="18.75" width="24" height="24" rx="12" fill="#414787" fill-opacity="0.5"/>
<g clip-path="url(#clip1_25_403)">
<path d="M33.25 25.5H32.125C31.504 25.5 31 26.004 31 26.625V34.875C31 35.496 31.504 36 32.125 36H35.875C36.496 36 37 35.496 37 34.875V26.625C37 26.004 36.496 25.5 35.875 25.5H34.75M33.25 25.5V26.25H34.75V25.5M33.25 25.5H34.75M33.25 34.875H34.75" stroke="white" stroke-linecap="round" stroke-linejoin="round"/>
</g>
<path d="M55.2784 36.25V24.6136H62.4943V26.125H57.0341V29.6705H61.9773V31.1761H57.0341V36.25H55.2784ZM67.6378 36.4261C66.7779 36.4261 66.0374 36.2424 65.4162 35.875C64.7988 35.5038 64.3215 34.983 63.9844 34.3125C63.651 33.6383 63.4844 32.8485 63.4844 31.9432C63.4844 31.0492 63.651 30.2614 63.9844 29.5795C64.3215 28.8977 64.7912 28.3655 65.3935 27.983C65.9995 27.6004 66.7079 27.4091 67.5185 27.4091C68.0109 27.4091 68.4882 27.4905 68.9503 27.6534C69.4124 27.8163 69.8272 28.072 70.1946 28.4205C70.562 28.7689 70.8518 29.2216 71.0639 29.7784C71.276 30.3314 71.3821 31.0038 71.3821 31.7955V32.3977H64.4446V31.125H69.7173C69.7173 30.678 69.6264 30.2822 69.4446 29.9375C69.2628 29.589 69.0071 29.3144 68.6776 29.1136C68.3518 28.9129 67.9692 28.8125 67.5298 28.8125C67.0526 28.8125 66.6359 28.9299 66.2798 29.1648C65.9276 29.3958 65.6548 29.6989 65.4616 30.0739C65.2723 30.4451 65.1776 30.8485 65.1776 31.2841V32.2784C65.1776 32.8617 65.2798 33.358 65.4844 33.767C65.6927 34.1761 65.9825 34.4886 66.3537 34.7045C66.7249 34.9167 67.1586 35.0227 67.6548 35.0227C67.9768 35.0227 68.2704 34.9773 68.5355 34.8864C68.8007 34.7917 69.0298 34.6515 69.223 34.4659C69.4162 34.2803 69.5639 34.0511 69.6662 33.7784L71.2741 34.0682C71.1454 34.5417 70.9143 34.9564 70.581 35.3125C70.2514 35.6648 69.8366 35.9394 69.3366 36.1364C68.8404 36.3295 68.2741 36.4261 67.6378 36.4261ZM77.0284 36.4261C76.1686 36.4261 75.428 36.2424 74.8068 35.875C74.1894 35.5038 73.7121 34.983 73.375 34.3125C73.0417 33.6383 72.875 32.8485 72.875 31.9432C72.875 31.0492 73.0417 30.2614 73.375 29.5795C73.7121 28.8977 74.1818 28.3655 74.7841 27.983C75.3902 27.6004 76.0985 27.4091 76.9091 27.4091C77.4015 27.4091 77.8788 27.4905 78.3409 27.6534C78.803 27.8163 79.2178 28.072 79.5852 28.4205C79.9527 28.7689 80.2424 29.2216 80.4545 29.7784C80.6667 30.3314 80.7727 31.0038 80.7727 31.7955V32.3977H73.8352V31.125H79.108C79.108 30.678 79.017 30.2822 78.8352 29.9375C78.6534 29.589 78.3977 29.3144 78.0682 29.1136C77.7424 28.9129 77.3598 28.8125 76.9205 28.8125C76.4432 28.8125 76.0265 28.9299 75.6705 29.1648C75.3182 29.3958 75.0455 29.6989 74.8523 30.0739C74.6629 30.4451 74.5682 30.8485 74.5682 31.2841V32.2784C74.5682 32.8617 74.6705 33.358 74.875 33.767C75.0833 34.1761 75.3731 34.4886 75.7443 34.7045C76.1155 34.9167 76.5492 35.0227 77.0455 35.0227C77.3674 35.0227 77.661 34.9773 77.9261 34.8864C78.1913 34.7917 78.4205 34.6515 78.6136 34.4659C78.8068 34.2803 78.9545 34.0511 79.0568 33.7784L80.6648 34.0682C80.536 34.5417 80.3049 34.9564 79.9716 35.3125C79.642 35.6648 79.2273 35.9394 78.7273 36.1364C78.2311 36.3295 77.6648 36.4261 77.0284 36.4261ZM85.9247 36.4205C85.2202 36.4205 84.5914 36.2405 84.0384 35.8807C83.4891 35.517 83.0573 35 82.7429 34.3295C82.4323 33.6553 82.277 32.8466 82.277 31.9034C82.277 30.9602 82.4342 30.1534 82.7486 29.483C83.0668 28.8125 83.5024 28.2992 84.0554 27.9432C84.6084 27.5871 85.2353 27.4091 85.9361 27.4091C86.4777 27.4091 86.9134 27.5 87.2429 27.6818C87.5762 27.8598 87.8338 28.0682 88.0156 28.3068C88.2012 28.5455 88.3452 28.7557 88.4474 28.9375H88.5497V24.6136H90.2486V36.25H88.5895V34.892H88.4474C88.3452 35.0777 88.1974 35.2898 88.0043 35.5284C87.8149 35.767 87.5535 35.9754 87.2202 36.1534C86.8868 36.3314 86.455 36.4205 85.9247 36.4205ZM86.2997 34.9716C86.7884 34.9716 87.2012 34.8428 87.5384 34.5852C87.8793 34.3239 88.1368 33.9621 88.3111 33.5C88.4891 33.0379 88.5781 32.5 88.5781 31.8864C88.5781 31.2803 88.491 30.75 88.3168 30.2955C88.1425 29.8409 87.8868 29.4867 87.5497 29.233C87.2126 28.9792 86.7959 28.8523 86.2997 28.8523C85.7884 28.8523 85.3622 28.9848 85.0213 29.25C84.6804 29.5152 84.4228 29.8769 84.2486 30.3352C84.0781 30.7936 83.9929 31.3106 83.9929 31.8864C83.9929 32.4697 84.08 32.9943 84.2543 33.4602C84.4285 33.9261 84.6861 34.2955 85.027 34.5682C85.3717 34.8371 85.7959 34.9716 86.2997 34.9716ZM92.8097 36.25V24.6136H94.5085V28.9375H94.6108C94.7093 28.7557 94.8513 28.5455 95.0369 28.3068C95.2225 28.0682 95.4801 27.8598 95.8097 27.6818C96.1392 27.5 96.5748 27.4091 97.1165 27.4091C97.821 27.4091 98.4498 27.5871 99.0028 27.9432C99.5559 28.2992 99.9896 28.8125 100.304 29.483C100.622 30.1534 100.781 30.9602 100.781 31.9034C100.781 32.8466 100.624 33.6553 100.31 34.3295C99.9953 35 99.5634 35.517 99.0142 35.8807C98.465 36.2405 97.8381 36.4205 97.1335 36.4205C96.6032 36.4205 96.1695 36.3314 95.8324 36.1534C95.4991 35.9754 95.2377 35.767 95.0483 35.5284C94.8589 35.2898 94.7131 35.0777 94.6108 34.892H94.4688V36.25H92.8097ZM94.4744 31.8864C94.4744 32.5 94.5634 33.0379 94.7415 33.5C94.9195 33.9621 95.1771 34.3239 95.5142 34.5852C95.8513 34.8428 96.2642 34.9716 96.7528 34.9716C97.2604 34.9716 97.6847 34.8371 98.0256 34.5682C98.3665 34.2955 98.6241 33.9261 98.7983 33.4602C98.9763 32.9943 99.0653 32.4697 99.0653 31.8864C99.0653 31.3106 98.9782 30.7936 98.804 30.3352C98.6335 29.8769 98.3759 29.5152 98.0312 29.25C97.6903 28.9848 97.2642 28.8523 96.7528 28.8523C96.2604 28.8523 95.8438 28.9792 95.5028 29.233C95.1657 29.4867 94.91 29.8409 94.7358 30.2955C94.5616 30.75 94.4744 31.2803 94.4744 31.8864ZM105.229 36.4432C104.676 36.4432 104.176 36.3409 103.729 36.1364C103.282 35.928 102.928 35.6269 102.666 35.233C102.409 34.839 102.28 34.3561 102.28 33.7841C102.28 33.2917 102.375 32.8864 102.564 32.5682C102.753 32.25 103.009 31.9981 103.331 31.8125C103.653 31.6269 104.013 31.4867 104.411 31.392C104.808 31.2973 105.214 31.2254 105.626 31.1761C106.149 31.1155 106.573 31.0663 106.899 31.0284C107.225 30.9867 107.462 30.9205 107.609 30.8295C107.757 30.7386 107.831 30.5909 107.831 30.3864V30.3466C107.831 29.8504 107.691 29.4659 107.411 29.1932C107.134 28.9205 106.721 28.7841 106.172 28.7841C105.6 28.7841 105.149 28.911 104.82 29.1648C104.494 29.4148 104.268 29.6932 104.143 30L102.547 29.6364C102.736 29.1061 103.013 28.678 103.376 28.3523C103.744 28.0227 104.166 27.7841 104.643 27.6364C105.121 27.4848 105.623 27.4091 106.149 27.4091C106.498 27.4091 106.867 27.4508 107.257 27.5341C107.651 27.6136 108.018 27.7614 108.359 27.9773C108.704 28.1932 108.986 28.5019 109.206 28.9034C109.426 29.3011 109.536 29.8182 109.536 30.4545V36.25H107.876V35.0568H107.808C107.698 35.2765 107.534 35.4924 107.314 35.7045C107.094 35.9167 106.812 36.0928 106.467 36.233C106.123 36.3731 105.71 36.4432 105.229 36.4432ZM105.598 35.0795C106.068 35.0795 106.469 34.9867 106.803 34.8011C107.14 34.6155 107.395 34.3731 107.57 34.0739C107.748 33.7708 107.837 33.447 107.837 33.1023V31.9773C107.776 32.0379 107.659 32.0947 107.484 32.1477C107.314 32.197 107.119 32.2405 106.899 32.2784C106.679 32.3125 106.465 32.3447 106.257 32.375C106.049 32.4015 105.875 32.4242 105.734 32.4432C105.405 32.4848 105.104 32.5549 104.831 32.6534C104.562 32.7519 104.346 32.8939 104.183 33.0795C104.024 33.2614 103.945 33.5038 103.945 33.8068C103.945 34.2273 104.1 34.5455 104.411 34.7614C104.721 34.9735 105.117 35.0795 105.598 35.0795ZM115.474 36.4261C114.63 36.4261 113.902 36.2348 113.293 35.8523C112.687 35.4659 112.221 34.9337 111.895 34.2557C111.569 33.5777 111.406 32.8011 111.406 31.9261C111.406 31.0398 111.573 30.2576 111.906 29.5795C112.24 28.8977 112.709 28.3655 113.315 27.983C113.921 27.6004 114.635 27.4091 115.457 27.4091C116.12 27.4091 116.711 27.5322 117.23 27.7784C117.749 28.0208 118.168 28.3617 118.486 28.8011C118.808 29.2405 118.999 29.7538 119.06 30.3409H117.406C117.315 29.9318 117.107 29.5795 116.781 29.2841C116.459 28.9886 116.027 28.8409 115.486 28.8409C115.012 28.8409 114.598 28.9659 114.241 29.2159C113.889 29.4621 113.615 29.8144 113.418 30.2727C113.221 30.7273 113.122 31.2652 113.122 31.8864C113.122 32.5227 113.219 33.072 113.412 33.5341C113.605 33.9962 113.878 34.3542 114.23 34.608C114.586 34.8617 115.005 34.9886 115.486 34.9886C115.808 34.9886 116.099 34.9299 116.361 34.8125C116.626 34.6913 116.848 34.5189 117.026 34.2955C117.207 34.072 117.334 33.803 117.406 33.4886H119.06C118.999 34.053 118.815 34.5568 118.509 35C118.202 35.4432 117.791 35.7917 117.276 36.0455C116.764 36.2992 116.164 36.4261 115.474 36.4261ZM122.439 33.2898L122.428 31.2159H122.723L126.2 27.5227H128.234L124.268 31.7273H124.001L122.439 33.2898ZM120.876 36.25V24.6136H122.575V36.25H120.876ZM126.388 36.25L123.263 32.1023L124.433 30.9148L128.473 36.25H126.388ZM134.153 24.6136H136.284L139.989 33.6591H140.125L143.83 24.6136H145.96V36.25H144.29V27.8295H144.182L140.75 36.233H139.364L135.932 27.8239H135.824V36.25H134.153V24.6136ZM150.916 36.4432C150.363 36.4432 149.863 36.3409 149.416 36.1364C148.969 35.928 148.615 35.6269 148.354 35.233C148.096 34.839 147.967 34.3561 147.967 33.7841C147.967 33.2917 148.062 32.8864 148.251 32.5682C148.441 32.25 148.696 31.9981 149.018 31.8125C149.34 31.6269 149.7 31.4867 150.098 31.392C150.496 31.2973 150.901 31.2254 151.314 31.1761C151.837 31.1155 152.261 31.0663 152.587 31.0284C152.912 30.9867 153.149 30.9205 153.297 30.8295C153.445 30.7386 153.518 30.5909 153.518 30.3864V30.3466C153.518 29.8504 153.378 29.4659 153.098 29.1932C152.821 28.9205 152.409 28.7841 151.859 28.7841C151.287 28.7841 150.837 28.911 150.507 29.1648C150.181 29.4148 149.956 29.6932 149.831 30L148.234 29.6364C148.424 29.1061 148.7 28.678 149.064 28.3523C149.431 28.0227 149.854 27.7841 150.331 27.6364C150.808 27.4848 151.31 27.4091 151.837 27.4091C152.185 27.4091 152.554 27.4508 152.945 27.5341C153.339 27.6136 153.706 27.7614 154.047 27.9773C154.392 28.1932 154.674 28.5019 154.893 28.9034C155.113 29.3011 155.223 29.8182 155.223 30.4545V36.25H153.564V35.0568H153.496C153.386 35.2765 153.221 35.4924 153.001 35.7045C152.782 35.9167 152.5 36.0928 152.155 36.233C151.81 36.3731 151.397 36.4432 150.916 36.4432ZM151.286 35.0795C151.755 35.0795 152.157 34.9867 152.49 34.8011C152.827 34.6155 153.083 34.3731 153.257 34.0739C153.435 33.7708 153.524 33.447 153.524 33.1023V31.9773C153.464 32.0379 153.346 32.0947 153.172 32.1477C153.001 32.197 152.806 32.2405 152.587 32.2784C152.367 32.3125 152.153 32.3447 151.945 32.375C151.736 32.4015 151.562 32.4242 151.422 32.4432C151.092 32.4848 150.791 32.5549 150.518 32.6534C150.25 32.7519 150.034 32.8939 149.871 33.0795C149.712 33.2614 149.632 33.5038 149.632 33.8068C149.632 34.2273 149.787 34.5455 150.098 34.7614C150.409 34.9735 150.804 35.0795 151.286 35.0795ZM159.185 31.0682V36.25H157.486V27.5227H159.116V28.9432H159.224C159.425 28.4811 159.74 28.1098 160.168 27.8295C160.599 27.5492 161.143 27.4091 161.798 27.4091C162.393 27.4091 162.914 27.5341 163.361 27.7841C163.808 28.0303 164.154 28.3977 164.401 28.8864C164.647 29.375 164.77 29.9792 164.77 30.6989V36.25H163.071V30.9034C163.071 30.2708 162.906 29.7765 162.577 29.4205C162.247 29.0606 161.795 28.8807 161.219 28.8807C160.825 28.8807 160.474 28.9659 160.168 29.1364C159.865 29.3068 159.624 29.5568 159.446 29.8864C159.272 30.2121 159.185 30.6061 159.185 31.0682ZM169.588 36.4432C169.035 36.4432 168.535 36.3409 168.088 36.1364C167.641 35.928 167.287 35.6269 167.026 35.233C166.768 34.839 166.639 34.3561 166.639 33.7841C166.639 33.2917 166.734 32.8864 166.923 32.5682C167.113 32.25 167.368 31.9981 167.69 31.8125C168.012 31.6269 168.372 31.4867 168.77 31.392C169.168 31.2973 169.573 31.2254 169.986 31.1761C170.509 31.1155 170.933 31.0663 171.259 31.0284C171.584 30.9867 171.821 30.9205 171.969 30.8295C172.116 30.7386 172.19 30.5909 172.19 30.3864V30.3466C172.19 29.8504 172.05 29.4659 171.77 29.1932C171.493 28.9205 171.08 28.7841 170.531 28.7841C169.959 28.7841 169.509 28.911 169.179 29.1648C168.853 29.4148 168.628 29.6932 168.503 30L166.906 29.6364C167.096 29.1061 167.372 28.678 167.736 28.3523C168.103 28.0227 168.526 27.7841 169.003 27.6364C169.48 27.4848 169.982 27.4091 170.509 27.4091C170.857 27.4091 171.226 27.4508 171.616 27.5341C172.01 27.6136 172.378 27.7614 172.719 27.9773C173.063 28.1932 173.346 28.5019 173.565 28.9034C173.785 29.3011 173.895 29.8182 173.895 30.4545V36.25H172.236V35.0568H172.168C172.058 35.2765 171.893 35.4924 171.673 35.7045C171.454 35.9167 171.171 36.0928 170.827 36.233C170.482 36.3731 170.069 36.4432 169.588 36.4432ZM169.957 35.0795C170.427 35.0795 170.829 34.9867 171.162 34.8011C171.499 34.6155 171.755 34.3731 171.929 34.0739C172.107 33.7708 172.196 33.447 172.196 33.1023V31.9773C172.135 32.0379 172.018 32.0947 171.844 32.1477C171.673 32.197 171.478 32.2405 171.259 32.2784C171.039 32.3125 170.825 32.3447 170.616 32.375C170.408 32.4015 170.234 32.4242 170.094 32.4432C169.764 32.4848 169.463 32.5549 169.19 32.6534C168.921 32.7519 168.705 32.8939 168.543 33.0795C168.384 33.2614 168.304 33.5038 168.304 33.8068C168.304 34.2273 168.459 34.5455 168.77 34.7614C169.08 34.9735 169.476 35.0795 169.957 35.0795ZM179.817 39.7045C179.124 39.7045 178.527 39.6136 178.027 39.4318C177.531 39.25 177.125 39.0095 176.811 38.7102C176.497 38.411 176.262 38.0833 176.107 37.7273L177.567 37.125C177.669 37.2917 177.805 37.4678 177.976 37.6534C178.15 37.8428 178.385 38.0038 178.68 38.1364C178.98 38.2689 179.364 38.3352 179.834 38.3352C180.478 38.3352 181.01 38.178 181.43 37.8636C181.851 37.553 182.061 37.0568 182.061 36.375V34.6591H181.953C181.851 34.8447 181.703 35.0511 181.51 35.2784C181.321 35.5057 181.059 35.7027 180.726 35.8693C180.393 36.036 179.959 36.1193 179.425 36.1193C178.735 36.1193 178.114 35.9583 177.561 35.6364C177.012 35.3106 176.576 34.8314 176.254 34.1989C175.936 33.5625 175.777 32.7803 175.777 31.8523C175.777 30.9242 175.934 30.1288 176.249 29.4659C176.567 28.803 177.002 28.2955 177.555 27.9432C178.108 27.5871 178.735 27.4091 179.436 27.4091C179.978 27.4091 180.415 27.5 180.749 27.6818C181.082 27.8598 181.341 28.0682 181.527 28.3068C181.716 28.5455 181.862 28.7557 181.964 28.9375H182.089V27.5227H183.754V36.4432C183.754 37.1932 183.58 37.8087 183.232 38.2898C182.883 38.7708 182.411 39.1269 181.817 39.358C181.226 39.589 180.559 39.7045 179.817 39.7045ZM179.8 34.7102C180.288 34.7102 180.701 34.5966 181.038 34.3693C181.379 34.1383 181.637 33.8087 181.811 33.3807C181.989 32.9489 182.078 32.4318 182.078 31.8295C182.078 31.2424 181.991 30.7254 181.817 30.2784C181.643 29.8314 181.387 29.483 181.05 29.233C180.713 28.9792 180.296 28.8523 179.8 28.8523C179.288 28.8523 178.862 28.9848 178.521 29.25C178.18 29.5114 177.923 29.8674 177.749 30.3182C177.578 30.7689 177.493 31.2727 177.493 31.8295C177.493 32.4015 177.58 32.9034 177.754 33.3352C177.929 33.767 178.186 34.1042 178.527 34.3466C178.872 34.589 179.296 34.7102 179.8 34.7102ZM189.794 36.4261C188.934 36.4261 188.194 36.2424 187.572 35.875C186.955 35.5038 186.478 34.983 186.141 34.3125C185.807 33.6383 185.641 32.8485 185.641 31.9432C185.641 31.0492 185.807 30.2614 186.141 29.5795C186.478 28.8977 186.947 28.3655 187.55 27.983C188.156 27.6004 188.864 27.4091 189.675 27.4091C190.167 27.4091 190.644 27.4905 191.107 27.6534C191.569 27.8163 191.983 28.072 192.351 28.4205C192.718 28.7689 193.008 29.2216 193.22 29.7784C193.432 30.3314 193.538 31.0038 193.538 31.7955V32.3977H186.601V31.125H191.874C191.874 30.678 191.783 30.2822 191.601 29.9375C191.419 29.589 191.163 29.3144 190.834 29.1136C190.508 28.9129 190.125 28.8125 189.686 28.8125C189.209 28.8125 188.792 28.9299 188.436 29.1648C188.084 29.3958 187.811 29.6989 187.618 30.0739C187.429 30.4451 187.334 30.8485 187.334 31.2841V32.2784C187.334 32.8617 187.436 33.358 187.641 33.767C187.849 34.1761 188.139 34.4886 188.51 34.7045C188.881 34.9167 189.315 35.0227 189.811 35.0227C190.133 35.0227 190.427 34.9773 190.692 34.8864C190.957 34.7917 191.186 34.6515 191.379 34.4659C191.572 34.2803 191.72 34.0511 191.822 33.7784L193.43 34.0682C193.302 34.5417 193.071 34.9564 192.737 35.3125C192.408 35.6648 191.993 35.9394 191.493 36.1364C190.997 36.3295 190.43 36.4261 189.794 36.4261ZM195.423 36.25V27.5227H197.054V28.9432H197.162C197.344 28.4621 197.641 28.0871 198.054 27.8182C198.467 27.5455 198.961 27.4091 199.537 27.4091C200.12 27.4091 200.609 27.5455 201.003 27.8182C201.401 28.0909 201.694 28.4659 201.884 28.9432H201.974C202.183 28.4773 202.514 28.1061 202.969 27.8295C203.423 27.5492 203.965 27.4091 204.594 27.4091C205.385 27.4091 206.031 27.6572 206.531 28.1534C207.035 28.6496 207.287 29.3977 207.287 30.3977V36.25H205.588V30.5568C205.588 29.9659 205.427 29.5379 205.105 29.2727C204.783 29.0076 204.399 28.875 203.952 28.875C203.399 28.875 202.969 29.0455 202.662 29.3864C202.355 29.7235 202.202 30.1572 202.202 30.6875V36.25H200.509V30.4489C200.509 29.9754 200.361 29.5947 200.065 29.3068C199.77 29.0189 199.385 28.875 198.912 28.875C198.59 28.875 198.293 28.9602 198.02 29.1307C197.751 29.2973 197.533 29.5303 197.366 29.8295C197.204 30.1288 197.122 30.4754 197.122 30.8693V36.25H195.423ZM213.325 36.4261C212.465 36.4261 211.725 36.2424 211.104 35.875C210.486 35.5038 210.009 34.983 209.672 34.3125C209.339 33.6383 209.172 32.8485 209.172 31.9432C209.172 31.0492 209.339 30.2614 209.672 29.5795C210.009 28.8977 210.479 28.3655 211.081 27.983C211.687 27.6004 212.395 27.4091 213.206 27.4091C213.698 27.4091 214.176 27.4905 214.638 27.6534C215.1 27.8163 215.515 28.072 215.882 28.4205C216.25 28.7689 216.539 29.2216 216.751 29.7784C216.964 30.3314 217.07 31.0038 217.07 31.7955V32.3977H210.132V31.125H215.405C215.405 30.678 215.314 30.2822 215.132 29.9375C214.95 29.589 214.695 29.3144 214.365 29.1136C214.039 28.9129 213.657 28.8125 213.217 28.8125C212.74 28.8125 212.323 28.9299 211.967 29.1648C211.615 29.3958 211.342 29.6989 211.149 30.0739C210.96 30.4451 210.865 30.8485 210.865 31.2841V32.2784C210.865 32.8617 210.967 33.358 211.172 33.767C211.38 34.1761 211.67 34.4886 212.041 34.7045C212.412 34.9167 212.846 35.0227 213.342 35.0227C213.664 35.0227 213.958 34.9773 214.223 34.8864C214.488 34.7917 214.717 34.6515 214.911 34.4659C215.104 34.2803 215.251 34.0511 215.354 33.7784L216.962 34.0682C216.833 34.5417 216.602 34.9564 216.268 35.3125C215.939 35.6648 215.524 35.9394 215.024 36.1364C214.528 36.3295 213.962 36.4261 213.325 36.4261ZM220.653 31.0682V36.25H218.955V27.5227H220.585V28.9432H220.693C220.894 28.4811 221.208 28.1098 221.636 27.8295C222.068 27.5492 222.612 27.4091 223.267 27.4091C223.862 27.4091 224.383 27.5341 224.83 27.7841C225.277 28.0303 225.623 28.3977 225.869 28.8864C226.116 29.375 226.239 29.9792 226.239 30.6989V36.25H224.54V30.9034C224.54 30.2708 224.375 29.7765 224.045 29.4205C223.716 29.0606 223.263 28.8807 222.688 28.8807C222.294 28.8807 221.943 28.9659 221.636 29.1364C221.333 29.3068 221.093 29.5568 220.915 29.8864C220.741 30.2121 220.653 30.6061 220.653 31.0682ZM232.591 27.5227V28.8864H227.824V27.5227H232.591ZM229.102 25.4318H230.801V33.6875C230.801 34.017 230.85 34.2652 230.949 34.4318C231.047 34.5947 231.174 34.7064 231.33 34.767C231.489 34.8239 231.661 34.8523 231.847 34.8523C231.983 34.8523 232.102 34.8428 232.205 34.8239C232.307 34.8049 232.386 34.7898 232.443 34.7784L232.75 36.1818C232.652 36.2197 232.511 36.2576 232.33 36.2955C232.148 36.3371 231.92 36.3598 231.648 36.3636C231.201 36.3712 230.784 36.2917 230.398 36.125C230.011 35.9583 229.699 35.7008 229.46 35.3523C229.222 35.0038 229.102 34.5663 229.102 34.0398V25.4318Z" fill="white"/>
</g>
<path d="M26.8011 67.1136C26.7415 66.6098 26.4995 66.2188 26.0753 65.9403C25.651 65.6619 25.1307 65.5227 24.5142 65.5227C24.0634 65.5227 23.669 65.5956 23.331 65.7415C22.9962 65.8873 22.7344 66.0878 22.5455 66.343C22.3598 66.5982 22.267 66.8883 22.267 67.2131C22.267 67.4848 22.3317 67.7185 22.4609 67.9141C22.5935 68.1063 22.7625 68.267 22.968 68.3963C23.1735 68.5223 23.389 68.6267 23.6143 68.7095C23.8397 68.7891 24.0469 68.8537 24.2358 68.9034L25.2699 69.1818C25.535 69.2514 25.83 69.3475 26.1548 69.4702C26.483 69.5928 26.7962 69.7602 27.0945 69.9723C27.3961 70.1811 27.6446 70.4496 27.8402 70.7777C28.0357 71.1058 28.1335 71.5085 28.1335 71.9858C28.1335 72.536 27.9893 73.0331 27.701 73.4773C27.416 73.9214 26.9983 74.2744 26.4482 74.5362C25.9013 74.7981 25.2367 74.929 24.4545 74.929C23.7254 74.929 23.094 74.8113 22.5604 74.576C22.0301 74.3407 21.6125 74.0125 21.3075 73.5916C21.0059 73.1707 20.8352 72.6818 20.7955 72.125H22.0682C22.1013 72.5095 22.2306 72.8277 22.456 73.0795C22.6847 73.3281 22.973 73.5137 23.321 73.6364C23.6723 73.7557 24.0502 73.8153 24.4545 73.8153C24.9252 73.8153 25.3478 73.7391 25.7223 73.5866C26.0968 73.4309 26.3935 73.2154 26.6122 72.9403C26.831 72.6619 26.9403 72.3371 26.9403 71.9659C26.9403 71.6278 26.8459 71.3527 26.657 71.1406C26.468 70.9285 26.2195 70.7562 25.9112 70.6236C25.603 70.491 25.2699 70.375 24.9119 70.2756L23.6591 69.9176C22.8636 69.6889 22.2339 69.3625 21.7699 68.9382C21.3059 68.514 21.0739 67.9588 21.0739 67.2727C21.0739 66.7027 21.228 66.2055 21.5362 65.7812C21.8478 65.3537 22.2654 65.0223 22.7891 64.7869C23.3161 64.5483 23.9044 64.429 24.554 64.429C25.2102 64.429 25.7936 64.5466 26.304 64.782C26.8144 65.014 27.2188 65.3321 27.517 65.7365C27.8187 66.1409 27.9777 66.5999 27.9943 67.1136H26.8011ZM31.1749 70.1562V74.75H30.0016V64.5682H31.1749V68.3068H31.2743C31.4533 67.9124 31.7218 67.5992 32.0797 67.3672C32.441 67.1319 32.9216 67.0142 33.5215 67.0142C34.0418 67.0142 34.4976 67.1186 34.8887 67.3274C35.2798 67.5329 35.583 67.8494 35.7985 68.277C36.0172 68.7012 36.1266 69.2415 36.1266 69.8977V74.75H34.9533V69.9773C34.9533 69.3707 34.7959 68.9018 34.481 68.5703C34.1694 68.2356 33.7369 68.0682 33.1834 68.0682C32.7989 68.0682 32.4542 68.1494 32.1493 68.3118C31.8477 68.4742 31.6091 68.7112 31.4334 69.0227C31.2611 69.3343 31.1749 69.7121 31.1749 70.1562ZM40.5202 74.929C40.0363 74.929 39.5972 74.8378 39.2028 74.6555C38.8084 74.4699 38.4951 74.2031 38.2631 73.8551C38.0311 73.5038 37.9151 73.0795 37.9151 72.5824C37.9151 72.1449 38.0013 71.7902 38.1737 71.5185C38.346 71.2434 38.5763 71.0279 38.8647 70.8722C39.1531 70.7164 39.4712 70.6004 39.8192 70.5241C40.1706 70.4446 40.5236 70.3816 40.8782 70.3352C41.3422 70.2756 41.7184 70.2308 42.0067 70.201C42.2984 70.1679 42.5105 70.1132 42.6431 70.0369C42.779 69.9607 42.8469 69.8281 42.8469 69.6392V69.5994C42.8469 69.1089 42.7127 68.7277 42.4442 68.456C42.1791 68.1842 41.7764 68.0483 41.2362 68.0483C40.676 68.0483 40.2369 68.1709 39.9187 68.4162C39.6005 68.6615 39.3768 68.9233 39.2475 69.2017L38.1339 68.804C38.3327 68.34 38.5979 67.9787 38.9293 67.7202C39.2641 67.4583 39.6287 67.276 40.0231 67.1733C40.4208 67.0672 40.8119 67.0142 41.1964 67.0142C41.4416 67.0142 41.7234 67.044 42.0415 67.1037C42.363 67.16 42.6729 67.2777 42.9712 67.4567C43.2728 67.6357 43.5231 67.9058 43.7219 68.267C43.9208 68.6283 44.0202 69.1122 44.0202 69.7188V74.75H42.8469V73.7159H42.7873C42.7077 73.8816 42.5752 74.0589 42.3896 74.2479C42.204 74.4368 41.957 74.5975 41.6488 74.7301C41.3406 74.8627 40.9644 74.929 40.5202 74.929ZM40.6992 73.875C41.1632 73.875 41.5543 73.7839 41.8725 73.6016C42.194 73.4193 42.436 73.1839 42.5984 72.8956C42.7641 72.6072 42.8469 72.304 42.8469 71.9858V70.9119C42.7972 70.9716 42.6879 71.0263 42.5188 71.076C42.3531 71.1224 42.1609 71.1638 41.9421 71.2003C41.7267 71.2334 41.5162 71.2633 41.3107 71.2898C41.1085 71.313 40.9445 71.3329 40.8185 71.3494C40.5136 71.3892 40.2286 71.4538 39.9634 71.5433C39.7016 71.6295 39.4895 71.7604 39.3271 71.9361C39.168 72.1084 39.0884 72.3437 39.0884 72.642C39.0884 73.0497 39.2392 73.358 39.5408 73.5668C39.8458 73.7723 40.2319 73.875 40.6992 73.875ZM46.1618 74.75V67.1136H47.2953V68.267H47.3748C47.514 67.8892 47.7659 67.5826 48.1305 67.3473C48.4951 67.112 48.9061 66.9943 49.3635 66.9943C49.4496 66.9943 49.5574 66.996 49.6866 66.9993C49.8159 67.0026 49.9136 67.0076 49.9799 67.0142V68.2074C49.9402 68.1974 49.849 68.1825 49.7065 68.1626C49.5673 68.1394 49.4198 68.1278 49.264 68.1278C48.8928 68.1278 48.5614 68.2057 48.2697 68.3615C47.9814 68.514 47.7527 68.7261 47.5836 68.9979C47.4179 69.2663 47.335 69.5729 47.335 69.9176V74.75H46.1618ZM54.34 74.9091C53.6042 74.9091 52.9695 74.7467 52.4359 74.4219C51.9056 74.0938 51.4963 73.6364 51.2079 73.0497C50.9229 72.4598 50.7804 71.7737 50.7804 70.9915C50.7804 70.2093 50.9229 69.5199 51.2079 68.9233C51.4963 68.3234 51.8973 67.8561 52.411 67.5213C52.9281 67.1832 53.5313 67.0142 54.2207 67.0142C54.6184 67.0142 55.0112 67.0805 55.399 67.2131C55.7868 67.3456 56.1397 67.5611 56.4579 67.8594C56.7761 68.1544 57.0297 68.5455 57.2186 69.0327C57.4075 69.5199 57.502 70.1198 57.502 70.8324V71.3295H51.6156V70.3153H56.3088C56.3088 69.8845 56.2226 69.5 56.0502 69.1619C55.8812 68.8239 55.6393 68.5571 55.3244 68.3615C55.0128 68.166 54.6449 68.0682 54.2207 68.0682C53.7534 68.0682 53.349 68.1842 53.0076 68.4162C52.6696 68.6449 52.4094 68.9432 52.2271 69.3111C52.0448 69.679 51.9537 70.0734 51.9537 70.4943V71.1705C51.9537 71.7472 52.0531 72.236 52.252 72.6371C52.4541 73.0348 52.7342 73.3381 53.0922 73.5469C53.4501 73.7524 53.8661 73.8551 54.34 73.8551C54.6483 73.8551 54.9267 73.812 55.1752 73.7259C55.4271 73.6364 55.6442 73.5038 55.8265 73.3281C56.0088 73.1491 56.1497 72.9271 56.2491 72.6619L57.3826 72.9801C57.2633 73.3646 57.0628 73.7027 56.7811 73.9943C56.4993 74.2827 56.1513 74.508 55.737 74.6705C55.3227 74.8295 54.8571 74.9091 54.34 74.9091ZM63.2243 74.75V67.1136H64.3975V74.75H63.2243ZM63.8208 65.8409C63.5922 65.8409 63.3949 65.763 63.2292 65.6072C63.0668 65.4515 62.9856 65.2642 62.9856 65.0455C62.9856 64.8267 63.0668 64.6394 63.2292 64.4837C63.3949 64.3279 63.5922 64.25 63.8208 64.25C64.0495 64.25 64.2451 64.3279 64.4075 64.4837C64.5732 64.6394 64.6561 64.8267 64.6561 65.0455C64.6561 65.2642 64.5732 65.4515 64.4075 65.6072C64.2451 65.763 64.0495 65.8409 63.8208 65.8409ZM67.7198 70.1562V74.75H66.5465V67.1136H67.68V68.3068H67.7795C67.9585 67.919 68.2302 67.6075 68.5948 67.3722C68.9594 67.1335 69.43 67.0142 70.0067 67.0142C70.5238 67.0142 70.9762 67.1203 71.364 67.3324C71.7518 67.5412 72.0534 67.8594 72.2688 68.2869C72.4843 68.7112 72.592 69.2481 72.592 69.8977V74.75H71.4187V69.9773C71.4187 69.3774 71.2629 68.91 70.9513 68.5753C70.6398 68.2372 70.2122 68.0682 69.6687 68.0682C69.2942 68.0682 68.9594 68.1494 68.6644 68.3118C68.3728 68.4742 68.1424 68.7112 67.9734 69.0227C67.8043 69.3343 67.7198 69.7121 67.7198 70.1562ZM80.1451 68.8239L79.0911 69.1222C79.0248 68.9465 78.927 68.7758 78.7978 68.6101C78.6718 68.4411 78.4995 68.3018 78.2807 68.1925C78.062 68.0831 77.7819 68.0284 77.4405 68.0284C76.9732 68.0284 76.5837 68.1361 76.2722 68.3516C75.964 68.5637 75.8098 68.8338 75.8098 69.1619C75.8098 69.4536 75.9159 69.6839 76.128 69.853C76.3401 70.022 76.6716 70.1629 77.1223 70.2756L78.2559 70.554C78.9386 70.7197 79.4474 70.9732 79.7821 71.3146C80.1169 71.6527 80.2843 72.0885 80.2843 72.6222C80.2843 73.0597 80.1583 73.4508 79.9064 73.7955C79.6578 74.1402 79.3098 74.4119 78.8624 74.6108C78.415 74.8097 77.8946 74.9091 77.3013 74.9091C76.5224 74.9091 75.8778 74.7401 75.3674 74.402C74.8569 74.0639 74.5338 73.5701 74.3979 72.9205L75.5115 72.642C75.6176 73.053 75.8181 73.3613 76.1131 73.5668C76.4114 73.7723 76.8008 73.875 77.2814 73.875C77.8283 73.875 78.2625 73.759 78.584 73.527C78.9088 73.2917 79.0712 73.0099 79.0712 72.6818C79.0712 72.4167 78.9784 72.1946 78.7928 72.0156C78.6072 71.8333 78.3221 71.6974 77.9377 71.608L76.665 71.3097C75.9656 71.1439 75.4519 70.8871 75.1238 70.5391C74.7989 70.1877 74.6365 69.7486 74.6365 69.2216C74.6365 68.7907 74.7575 68.4096 74.9995 68.0781C75.2447 67.7467 75.5778 67.4865 75.9988 67.2976C76.423 67.1087 76.9036 67.0142 77.4405 67.0142C78.1962 67.0142 78.7895 67.1799 79.2203 67.5114C79.6545 67.8428 79.9628 68.2803 80.1451 68.8239ZM82.0504 74.75V67.1136H83.2237V74.75H82.0504ZM82.647 65.8409C82.4183 65.8409 82.2211 65.763 82.0554 65.6072C81.893 65.4515 81.8118 65.2642 81.8118 65.0455C81.8118 64.8267 81.893 64.6394 82.0554 64.4837C82.2211 64.3279 82.4183 64.25 82.647 64.25C82.8757 64.25 83.0713 64.3279 83.2337 64.4837C83.3994 64.6394 83.4822 64.8267 83.4822 65.0455C83.4822 65.2642 83.3994 65.4515 83.2337 65.6072C83.0713 65.763 82.8757 65.8409 82.647 65.8409ZM88.4551 77.7727C87.8883 77.7727 87.4011 77.6998 86.9934 77.554C86.5858 77.4115 86.246 77.2225 85.9743 76.9872C85.7058 76.7552 85.492 76.5066 85.3329 76.2415L86.2676 75.5852C86.3736 75.7244 86.5079 75.8835 86.6703 76.0625C86.8327 76.2448 87.0547 76.4022 87.3365 76.5348C87.6215 76.6707 87.9944 76.7386 88.4551 76.7386C89.0716 76.7386 89.5803 76.5895 89.9814 76.2912C90.3824 75.9929 90.5829 75.5256 90.5829 74.8892V73.3381H90.4835C90.3973 73.4773 90.2747 73.6496 90.1156 73.8551C89.9598 74.0573 89.7344 74.2379 89.4395 74.397C89.1478 74.5528 88.7534 74.6307 88.2562 74.6307C87.6397 74.6307 87.0862 74.4848 86.5957 74.1932C86.1085 73.9015 85.7224 73.4773 85.4373 72.9205C85.1556 72.3636 85.0147 71.6875 85.0147 70.892C85.0147 70.1098 85.1523 69.4287 85.4274 68.8487C85.7025 68.2654 86.0853 67.8146 86.5758 67.4964C87.0663 67.175 87.6331 67.0142 88.2761 67.0142C88.7733 67.0142 89.1677 67.0971 89.4593 67.2628C89.7543 67.4252 89.9797 67.6108 90.1355 67.8196C90.2946 68.0251 90.4172 68.1941 90.5034 68.3267H90.6227V67.1136H91.7562V74.9688C91.7562 75.625 91.6071 76.1586 91.3088 76.5696C91.0138 76.9839 90.6161 77.2872 90.1156 77.4794C89.6184 77.675 89.0649 77.7727 88.4551 77.7727ZM88.4153 73.5767C88.8859 73.5767 89.2837 73.469 89.6085 73.2536C89.9333 73.0381 90.1802 72.7282 90.3493 72.3239C90.5183 71.9195 90.6028 71.4356 90.6028 70.8722C90.6028 70.322 90.5199 69.8364 90.3542 69.4155C90.1885 68.9946 89.9432 68.6648 89.6184 68.4261C89.2936 68.1875 88.8926 68.0682 88.4153 68.0682C87.9181 68.0682 87.5038 68.1941 87.1724 68.446C86.8443 68.6979 86.5974 69.036 86.4316 69.4602C86.2692 69.8845 86.188 70.3551 86.188 70.8722C86.188 71.4025 86.2709 71.8714 86.4366 72.2791C86.6056 72.6835 86.8542 73.0017 87.1824 73.2337C87.5138 73.4624 87.9248 73.5767 88.4153 73.5767ZM95.0772 70.1562V74.75H93.9039V64.5682H95.0772V68.3068H95.1767C95.3556 67.9124 95.6241 67.5992 95.9821 67.3672C96.3433 67.1319 96.8239 67.0142 97.4238 67.0142C97.9442 67.0142 98.3999 67.1186 98.791 67.3274C99.1821 67.5329 99.4854 67.8494 99.7008 68.277C99.9196 68.7012 100.029 69.2415 100.029 69.8977V74.75H98.8556V69.9773C98.8556 69.3707 98.6982 68.9018 98.3833 68.5703C98.0718 68.2356 97.6393 68.0682 97.0858 68.0682C96.7013 68.0682 96.3566 68.1494 96.0517 68.3118C95.7501 68.4742 95.5114 68.7112 95.3358 69.0227C95.1634 69.3343 95.0772 69.7121 95.0772 70.1562ZM105.496 67.1136V68.108H101.539V67.1136H105.496ZM102.692 65.2841H103.866V72.5625C103.866 72.8939 103.914 73.1425 104.01 73.3082C104.109 73.4706 104.235 73.58 104.388 73.6364C104.544 73.6894 104.708 73.7159 104.88 73.7159C105.009 73.7159 105.115 73.7093 105.198 73.696C105.281 73.6795 105.347 73.6662 105.397 73.6562L105.636 74.7102C105.556 74.7401 105.445 74.7699 105.303 74.7997C105.16 74.8329 104.979 74.8494 104.761 74.8494C104.429 74.8494 104.104 74.7782 103.786 74.6357C103.471 74.4931 103.21 74.276 103.001 73.9844C102.795 73.6927 102.692 73.3248 102.692 72.8807V65.2841ZM112.534 68.8239L111.48 69.1222C111.413 68.9465 111.316 68.7758 111.186 68.6101C111.06 68.4411 110.888 68.3018 110.669 68.1925C110.451 68.0831 110.171 68.0284 109.829 68.0284C109.362 68.0284 108.972 68.1361 108.661 68.3516C108.353 68.5637 108.199 68.8338 108.199 69.1619C108.199 69.4536 108.305 69.6839 108.517 69.853C108.729 70.022 109.06 70.1629 109.511 70.2756L110.645 70.554C111.327 70.7197 111.836 70.9732 112.171 71.3146C112.506 71.6527 112.673 72.0885 112.673 72.6222C112.673 73.0597 112.547 73.4508 112.295 73.7955C112.047 74.1402 111.699 74.4119 111.251 74.6108C110.804 74.8097 110.283 74.9091 109.69 74.9091C108.911 74.9091 108.266 74.7401 107.756 74.402C107.246 74.0639 106.922 73.5701 106.787 72.9205L107.9 72.642C108.006 73.053 108.207 73.3613 108.502 73.5668C108.8 73.7723 109.19 73.875 109.67 73.875C110.217 73.875 110.651 73.759 110.973 73.527C111.297 73.2917 111.46 73.0099 111.46 72.6818C111.46 72.4167 111.367 72.1946 111.181 72.0156C110.996 71.8333 110.711 71.6974 110.326 71.608L109.054 71.3097C108.354 71.1439 107.841 70.8871 107.512 70.5391C107.188 70.1877 107.025 69.7486 107.025 69.2216C107.025 68.7907 107.146 68.4096 107.388 68.0781C107.633 67.7467 107.967 67.4865 108.387 67.2976C108.812 67.1087 109.292 67.0142 109.829 67.0142C110.585 67.0142 111.178 67.1799 111.609 67.5114C112.043 67.8428 112.351 68.2803 112.534 68.8239ZM116.189 73.358L116.11 73.8949C116.053 74.2727 115.967 74.6771 115.851 75.108C115.738 75.5388 115.621 75.9448 115.498 76.326C115.375 76.7071 115.274 77.0104 115.195 77.2358H114.3C114.343 77.0237 114.399 76.7436 114.469 76.3956C114.539 76.0476 114.608 75.6581 114.678 75.2273C114.751 74.7997 114.81 74.3622 114.857 73.9148L114.916 73.358H116.189ZM125.383 77.7727C124.816 77.7727 124.329 77.6998 123.921 77.554C123.513 77.4115 123.174 77.2225 122.902 76.9872C122.634 76.7552 122.42 76.5066 122.261 76.2415L123.195 75.5852C123.301 75.7244 123.436 75.8835 123.598 76.0625C123.76 76.2448 123.982 76.4022 124.264 76.5348C124.549 76.6707 124.922 76.7386 125.383 76.7386C125.999 76.7386 126.508 76.5895 126.909 76.2912C127.31 75.9929 127.511 75.5256 127.511 74.8892V73.3381H127.411C127.325 73.4773 127.202 73.6496 127.043 73.8551C126.888 74.0573 126.662 74.2379 126.367 74.397C126.076 74.5528 125.681 74.6307 125.184 74.6307C124.567 74.6307 124.014 74.4848 123.523 74.1932C123.036 73.9015 122.65 73.4773 122.365 72.9205C122.083 72.3636 121.942 71.6875 121.942 70.892C121.942 70.1098 122.08 69.4287 122.355 68.8487C122.63 68.2654 123.013 67.8146 123.504 67.4964C123.994 67.175 124.561 67.0142 125.204 67.0142C125.701 67.0142 126.095 67.0971 126.387 67.2628C126.682 67.4252 126.907 67.6108 127.063 67.8196C127.222 68.0251 127.345 68.1941 127.431 68.3267H127.55V67.1136H128.684V74.9688C128.684 75.625 128.535 76.1586 128.237 76.5696C127.942 76.9839 127.544 77.2872 127.043 77.4794C126.546 77.675 125.993 77.7727 125.383 77.7727ZM125.343 73.5767C125.814 73.5767 126.211 73.469 126.536 73.2536C126.861 73.0381 127.108 72.7282 127.277 72.3239C127.446 71.9195 127.531 71.4356 127.531 70.8722C127.531 70.322 127.448 69.8364 127.282 69.4155C127.116 68.9946 126.871 68.6648 126.546 68.4261C126.221 68.1875 125.82 68.0682 125.343 68.0682C124.846 68.0682 124.432 68.1941 124.1 68.446C123.772 68.6979 123.525 69.036 123.359 69.4602C123.197 69.8845 123.116 70.3551 123.116 70.8722C123.116 71.4025 123.199 71.8714 123.364 72.2791C123.533 72.6835 123.782 73.0017 124.11 73.2337C124.442 73.4624 124.853 73.5767 125.343 73.5767ZM130.832 74.75V67.1136H132.005V74.75H130.832ZM131.428 65.8409C131.2 65.8409 131.002 65.763 130.837 65.6072C130.674 65.4515 130.593 65.2642 130.593 65.0455C130.593 64.8267 130.674 64.6394 130.837 64.4837C131.002 64.3279 131.2 64.25 131.428 64.25C131.657 64.25 131.853 64.3279 132.015 64.4837C132.181 64.6394 132.263 64.8267 132.263 65.0455C132.263 65.2642 132.181 65.4515 132.015 65.6072C131.853 65.763 131.657 65.8409 131.428 65.8409ZM140.398 67.1136L137.574 74.75H136.381L133.557 67.1136H134.83L136.938 73.1989H137.018L139.126 67.1136H140.398ZM144.875 74.9091C144.139 74.9091 143.505 74.7467 142.971 74.4219C142.441 74.0938 142.031 73.6364 141.743 73.0497C141.458 72.4598 141.316 71.7737 141.316 70.9915C141.316 70.2093 141.458 69.5199 141.743 68.9233C142.031 68.3234 142.432 67.8561 142.946 67.5213C143.463 67.1832 144.066 67.0142 144.756 67.0142C145.154 67.0142 145.546 67.0805 145.934 67.2131C146.322 67.3456 146.675 67.5611 146.993 67.8594C147.311 68.1544 147.565 68.5455 147.754 69.0327C147.943 69.5199 148.037 70.1198 148.037 70.8324V71.3295H142.151V70.3153H146.844C146.844 69.8845 146.758 69.5 146.585 69.1619C146.416 68.8239 146.174 68.5571 145.86 68.3615C145.548 68.166 145.18 68.0682 144.756 68.0682C144.289 68.0682 143.884 68.1842 143.543 68.4162C143.205 68.6449 142.945 68.9432 142.762 69.3111C142.58 69.679 142.489 70.0734 142.489 70.4943V71.1705C142.489 71.7472 142.588 72.236 142.787 72.6371C142.989 73.0348 143.269 73.3381 143.627 73.5469C143.985 73.7524 144.401 73.8551 144.875 73.8551C145.183 73.8551 145.462 73.812 145.71 73.7259C145.962 73.6364 146.179 73.5038 146.362 73.3281C146.544 73.1491 146.685 72.9271 146.784 72.6619L147.918 72.9801C147.798 73.3646 147.598 73.7027 147.316 73.9943C147.035 74.2827 146.686 74.508 146.272 74.6705C145.858 74.8295 145.392 74.9091 144.875 74.9091ZM157.16 67.1136V68.108H153.044V67.1136H157.16ZM154.276 74.75V66.0597C154.276 65.6222 154.379 65.2576 154.585 64.9659C154.79 64.6742 155.057 64.4555 155.385 64.3097C155.713 64.1638 156.06 64.0909 156.424 64.0909C156.713 64.0909 156.948 64.1141 157.13 64.1605C157.312 64.2069 157.448 64.25 157.538 64.2898L157.2 65.304C157.14 65.2841 157.057 65.2592 156.951 65.2294C156.848 65.1996 156.713 65.1847 156.544 65.1847C156.156 65.1847 155.876 65.2824 155.703 65.478C155.534 65.6735 155.45 65.9602 155.45 66.3381V74.75H154.276ZM161.692 74.9091C160.956 74.9091 160.321 74.7467 159.787 74.4219C159.257 74.0938 158.848 73.6364 158.559 73.0497C158.274 72.4598 158.132 71.7737 158.132 70.9915C158.132 70.2093 158.274 69.5199 158.559 68.9233C158.848 68.3234 159.249 67.8561 159.763 67.5213C160.28 67.1832 160.883 67.0142 161.572 67.0142C161.97 67.0142 162.363 67.0805 162.751 67.2131C163.138 67.3456 163.491 67.5611 163.809 67.8594C164.128 68.1544 164.381 68.5455 164.57 69.0327C164.759 69.5199 164.854 70.1198 164.854 70.8324V71.3295H158.967V70.3153H163.66C163.66 69.8845 163.574 69.5 163.402 69.1619C163.233 68.8239 162.991 68.5571 162.676 68.3615C162.364 68.166 161.997 68.0682 161.572 68.0682C161.105 68.0682 160.701 68.1842 160.359 68.4162C160.021 68.6449 159.761 68.9432 159.579 69.3111C159.396 69.679 159.305 70.0734 159.305 70.4943V71.1705C159.305 71.7472 159.405 72.236 159.604 72.6371C159.806 73.0348 160.086 73.3381 160.444 73.5469C160.802 73.7524 161.218 73.8551 161.692 73.8551C162 73.8551 162.278 73.812 162.527 73.7259C162.779 73.6364 162.996 73.5038 163.178 73.3281C163.36 73.1491 163.501 72.9271 163.601 72.6619L164.734 72.9801C164.615 73.3646 164.414 73.7027 164.133 73.9943C163.851 74.2827 163.503 74.508 163.089 74.6705C162.674 74.8295 162.209 74.9091 161.692 74.9091ZM169.84 74.9091C169.104 74.9091 168.47 74.7467 167.936 74.4219C167.406 74.0938 166.996 73.6364 166.708 73.0497C166.423 72.4598 166.28 71.7737 166.28 70.9915C166.28 70.2093 166.423 69.5199 166.708 68.9233C166.996 68.3234 167.397 67.8561 167.911 67.5213C168.428 67.1832 169.031 67.0142 169.721 67.0142C170.118 67.0142 170.511 67.0805 170.899 67.2131C171.287 67.3456 171.64 67.5611 171.958 67.8594C172.276 68.1544 172.53 68.5455 172.719 69.0327C172.907 69.5199 173.002 70.1198 173.002 70.8324V71.3295H167.116V70.3153H171.809C171.809 69.8845 171.723 69.5 171.55 69.1619C171.381 68.8239 171.139 68.5571 170.824 68.3615C170.513 68.166 170.145 68.0682 169.721 68.0682C169.253 68.0682 168.849 68.1842 168.508 68.4162C168.17 68.6449 167.909 68.9432 167.727 69.3111C167.545 69.679 167.454 70.0734 167.454 70.4943V71.1705C167.454 71.7472 167.553 72.236 167.752 72.6371C167.954 73.0348 168.234 73.3381 168.592 73.5469C168.95 73.7524 169.366 73.8551 169.84 73.8551C170.148 73.8551 170.427 73.812 170.675 73.7259C170.927 73.6364 171.144 73.5038 171.327 73.3281C171.509 73.1491 171.65 72.9271 171.749 72.6619L172.883 72.9801C172.763 73.3646 172.563 73.7027 172.281 73.9943C171.999 74.2827 171.651 74.508 171.237 74.6705C170.823 74.8295 170.357 74.9091 169.84 74.9091ZM177.67 74.9091C177.034 74.9091 176.472 74.7483 175.985 74.4268C175.498 74.102 175.117 73.6446 174.841 73.0547C174.566 72.4614 174.429 71.7604 174.429 70.9517C174.429 70.1496 174.566 69.4536 174.841 68.8636C175.117 68.2737 175.499 67.8179 175.99 67.4964C176.48 67.175 177.047 67.0142 177.69 67.0142C178.187 67.0142 178.58 67.0971 178.868 67.2628C179.16 67.4252 179.382 67.6108 179.535 67.8196C179.69 68.0251 179.811 68.1941 179.898 68.3267H179.997V64.5682H181.17V74.75H180.037V73.5767H179.898C179.811 73.7159 179.689 73.8916 179.53 74.1037C179.371 74.3125 179.144 74.4998 178.849 74.6655C178.554 74.8279 178.161 74.9091 177.67 74.9091ZM177.829 73.8551C178.3 73.8551 178.698 73.7325 179.023 73.4872C179.347 73.2386 179.594 72.8956 179.763 72.4581C179.932 72.0173 180.017 71.5085 180.017 70.9318C180.017 70.3617 179.934 69.8629 179.768 69.4354C179.603 69.0045 179.357 68.6697 179.032 68.4311C178.708 68.1892 178.307 68.0682 177.829 68.0682C177.332 68.0682 176.918 68.1958 176.586 68.451C176.258 68.7029 176.011 69.0459 175.846 69.4801C175.683 69.911 175.602 70.3949 175.602 70.9318C175.602 71.4754 175.685 71.9692 175.851 72.4134C176.02 72.8542 176.268 73.2055 176.596 73.4673C176.928 73.7259 177.339 73.8551 177.829 73.8551ZM183.641 74.75V64.5682H184.814V68.3267H184.914C185 68.1941 185.119 68.0251 185.272 67.8196C185.428 67.6108 185.65 67.4252 185.938 67.2628C186.23 67.0971 186.624 67.0142 187.121 67.0142C187.764 67.0142 188.331 67.175 188.822 67.4964C189.312 67.8179 189.695 68.2737 189.97 68.8636C190.245 69.4536 190.383 70.1496 190.383 70.9517C190.383 71.7604 190.245 72.4614 189.97 73.0547C189.695 73.6446 189.314 74.102 188.827 74.4268C188.339 74.7483 187.778 74.9091 187.141 74.9091C186.651 74.9091 186.258 74.8279 185.963 74.6655C185.668 74.4998 185.441 74.3125 185.282 74.1037C185.123 73.8916 185 73.7159 184.914 73.5767H184.775V74.75H183.641ZM184.795 70.9318C184.795 71.5085 184.879 72.0173 185.048 72.4581C185.217 72.8956 185.464 73.2386 185.789 73.4872C186.114 73.7325 186.511 73.8551 186.982 73.8551C187.473 73.8551 187.882 73.7259 188.21 73.4673C188.541 73.2055 188.79 72.8542 188.956 72.4134C189.125 71.9692 189.209 71.4754 189.209 70.9318C189.209 70.3949 189.126 69.911 188.961 69.4801C188.798 69.0459 188.551 68.7029 188.22 68.451C187.892 68.1958 187.479 68.0682 186.982 68.0682C186.505 68.0682 186.104 68.1892 185.779 68.4311C185.454 68.6697 185.209 69.0045 185.043 69.4354C184.877 69.8629 184.795 70.3617 184.795 70.9318ZM194.425 74.929C193.941 74.929 193.501 74.8378 193.107 74.6555C192.713 74.4699 192.399 74.2031 192.167 73.8551C191.935 73.5038 191.819 73.0795 191.819 72.5824C191.819 72.1449 191.906 71.7902 192.078 71.5185C192.25 71.2434 192.481 71.0279 192.769 70.8722C193.057 70.7164 193.376 70.6004 193.724 70.5241C194.075 70.4446 194.428 70.3816 194.782 70.3352C195.247 70.2756 195.623 70.2308 195.911 70.201C196.203 70.1679 196.415 70.1132 196.547 70.0369C196.683 69.9607 196.751 69.8281 196.751 69.6392V69.5994C196.751 69.1089 196.617 68.7277 196.349 68.456C196.083 68.1842 195.681 68.0483 195.14 68.0483C194.58 68.0483 194.141 68.1709 193.823 68.4162C193.505 68.6615 193.281 68.9233 193.152 69.2017L192.038 68.804C192.237 68.34 192.502 67.9787 192.834 67.7202C193.168 67.4583 193.533 67.276 193.927 67.1733C194.325 67.0672 194.716 67.0142 195.101 67.0142C195.346 67.0142 195.628 67.044 195.946 67.1037C196.267 67.16 196.577 67.2777 196.876 67.4567C197.177 67.6357 197.427 67.9058 197.626 68.267C197.825 68.6283 197.925 69.1122 197.925 69.7188V74.75H196.751V73.7159H196.692C196.612 73.8816 196.479 74.0589 196.294 74.2479C196.108 74.4368 195.861 74.5975 195.553 74.7301C195.245 74.8627 194.869 74.929 194.425 74.929ZM194.604 73.875C195.068 73.875 195.459 73.7839 195.777 73.6016C196.098 73.4193 196.34 73.1839 196.503 72.8956C196.668 72.6072 196.751 72.304 196.751 71.9858V70.9119C196.702 70.9716 196.592 71.0263 196.423 71.076C196.257 71.1224 196.065 71.1638 195.846 71.2003C195.631 71.2334 195.421 71.2633 195.215 71.2898C195.013 71.313 194.849 71.3329 194.723 71.3494C194.418 71.3892 194.133 71.4538 193.868 71.5433C193.606 71.6295 193.394 71.7604 193.231 71.9361C193.072 72.1084 192.993 72.3437 192.993 72.642C192.993 73.0497 193.144 73.358 193.445 73.5668C193.75 73.7723 194.136 73.875 194.604 73.875ZM203.168 74.9091C202.452 74.9091 201.836 74.7401 201.319 74.402C200.802 74.0639 200.404 73.5982 200.126 73.005C199.847 72.4117 199.708 71.7339 199.708 70.9716C199.708 70.196 199.851 69.5116 200.136 68.9183C200.424 68.3217 200.825 67.8561 201.339 67.5213C201.856 67.1832 202.459 67.0142 203.148 67.0142C203.685 67.0142 204.169 67.1136 204.6 67.3125C205.031 67.5114 205.384 67.7898 205.659 68.1477C205.934 68.5057 206.105 68.9233 206.171 69.4006H204.998C204.908 69.0526 204.71 68.7443 204.401 68.4759C204.096 68.2041 203.685 68.0682 203.168 68.0682C202.711 68.0682 202.31 68.1875 201.965 68.4261C201.624 68.6615 201.357 68.9946 201.165 69.4254C200.976 69.853 200.881 70.3551 200.881 70.9318C200.881 71.5218 200.974 72.0355 201.16 72.473C201.349 72.9105 201.614 73.2502 201.955 73.4922C202.3 73.7341 202.704 73.8551 203.168 73.8551C203.473 73.8551 203.75 73.8021 203.999 73.696C204.247 73.59 204.458 73.4375 204.63 73.2386C204.802 73.0398 204.925 72.8011 204.998 72.5227H206.171C206.105 72.9735 205.941 73.3795 205.679 73.7408C205.42 74.0987 205.077 74.3838 204.65 74.5959C204.226 74.8047 203.732 74.9091 203.168 74.9091ZM208.98 71.9659L208.96 70.5142H209.199L212.54 67.1136H213.991L210.432 70.7131H210.332L208.98 71.9659ZM207.886 74.75V64.5682H209.06V74.75H207.886ZM212.739 74.75L209.756 70.9716L210.591 70.1562L214.23 74.75H212.739ZM217.252 73.358L217.172 73.8949C217.116 74.2727 217.03 74.6771 216.914 75.108C216.801 75.5388 216.683 75.9448 216.561 76.326C216.438 76.7071 216.337 77.0104 216.257 77.2358H215.362C215.405 77.0237 215.462 76.7436 215.531 76.3956C215.601 76.0476 215.671 75.6581 215.74 75.2273C215.813 74.7997 215.873 74.3622 215.919 73.9148L215.979 73.358H217.252ZM225.61 74.929C225.126 74.929 224.687 74.8378 224.293 74.6555C223.898 74.4699 223.585 74.2031 223.353 73.8551C223.121 73.5038 223.005 73.0795 223.005 72.5824C223.005 72.1449 223.091 71.7902 223.263 71.5185C223.436 71.2434 223.666 71.0279 223.955 70.8722C224.243 70.7164 224.561 70.6004 224.909 70.5241C225.26 70.4446 225.613 70.3816 225.968 70.3352C226.432 70.2756 226.808 70.2308 227.097 70.201C227.388 70.1679 227.6 70.1132 227.733 70.0369C227.869 69.9607 227.937 69.8281 227.937 69.6392V69.5994C227.937 69.1089 227.803 68.7277 227.534 68.456C227.269 68.1842 226.866 68.0483 226.326 68.0483C225.766 68.0483 225.327 68.1709 225.009 68.4162C224.69 68.6615 224.467 68.9233 224.337 69.2017L223.224 68.804C223.423 68.34 223.688 67.9787 224.019 67.7202C224.354 67.4583 224.719 67.276 225.113 67.1733C225.511 67.0672 225.902 67.0142 226.286 67.0142C226.531 67.0142 226.813 67.044 227.131 67.1037C227.453 67.16 227.763 67.2777 228.061 67.4567C228.363 67.6357 228.613 67.9058 228.812 68.267C229.011 68.6283 229.11 69.1122 229.11 69.7188V74.75H227.937V73.7159H227.877C227.798 73.8816 227.665 74.0589 227.479 74.2479C227.294 74.4368 227.047 74.5975 226.739 74.7301C226.43 74.8627 226.054 74.929 225.61 74.929ZM225.789 73.875C226.253 73.875 226.644 73.7839 226.962 73.6016C227.284 73.4193 227.526 73.1839 227.688 72.8956C227.854 72.6072 227.937 72.304 227.937 71.9858V70.9119C227.887 70.9716 227.778 71.0263 227.609 71.076C227.443 71.1224 227.251 71.1638 227.032 71.2003C226.817 71.2334 226.606 71.2633 226.401 71.2898C226.198 71.313 226.034 71.3329 225.908 71.3494C225.603 71.3892 225.318 71.4538 225.053 71.5433C224.791 71.6295 224.579 71.7604 224.417 71.9361C224.258 72.1084 224.178 72.3437 224.178 72.642C224.178 73.0497 224.329 73.358 224.631 73.5668C224.936 73.7723 225.322 73.875 225.789 73.875ZM232.425 70.1562V74.75H231.252V67.1136H232.385V68.3068H232.485C232.664 67.919 232.935 67.6075 233.3 67.3722C233.664 67.1335 234.135 67.0142 234.712 67.0142C235.229 67.0142 235.681 67.1203 236.069 67.3324C236.457 67.5412 236.758 67.8594 236.974 68.2869C237.189 68.7112 237.297 69.2481 237.297 69.8977V74.75H236.124V69.9773C236.124 69.3774 235.968 68.91 235.656 68.5753C235.345 68.2372 234.917 68.0682 234.374 68.0682C233.999 68.0682 233.664 68.1494 233.369 68.3118C233.078 68.4742 232.847 68.7112 232.678 69.0227C232.509 69.3343 232.425 69.7121 232.425 70.1562ZM242.325 74.9091C241.688 74.9091 241.126 74.7483 240.639 74.4268C240.152 74.102 239.771 73.6446 239.496 73.0547C239.221 72.4614 239.083 71.7604 239.083 70.9517C239.083 70.1496 239.221 69.4536 239.496 68.8636C239.771 68.2737 240.154 67.8179 240.644 67.4964C241.135 67.175 241.701 67.0142 242.344 67.0142C242.842 67.0142 243.234 67.0971 243.523 67.2628C243.814 67.4252 244.036 67.6108 244.189 67.8196C244.345 68.0251 244.466 68.1941 244.552 68.3267H244.651V64.5682H245.825V74.75H244.691V73.5767H244.552C244.466 73.7159 244.343 73.8916 244.184 74.1037C244.025 74.3125 243.798 74.4998 243.503 74.6655C243.208 74.8279 242.815 74.9091 242.325 74.9091ZM242.484 73.8551C242.954 73.8551 243.352 73.7325 243.677 73.4872C244.002 73.2386 244.249 72.8956 244.418 72.4581C244.587 72.0173 244.671 71.5085 244.671 70.9318C244.671 70.3617 244.588 69.8629 244.423 69.4354C244.257 69.0045 244.012 68.6697 243.687 68.4311C243.362 68.1892 242.961 68.0682 242.484 68.0682C241.987 68.0682 241.572 68.1958 241.241 68.451C240.913 68.7029 240.666 69.0459 240.5 69.4801C240.338 69.911 240.256 70.3949 240.256 70.9318C240.256 71.4754 240.339 71.9692 240.505 72.4134C240.674 72.8542 240.923 73.2055 241.251 73.4673C241.582 73.7259 241.993 73.8551 242.484 73.8551ZM253.247 70.1562V74.75H252.074V64.5682H253.247V68.3068H253.347C253.526 67.9124 253.794 67.5992 254.152 67.3672C254.513 67.1319 254.994 67.0142 255.594 67.0142C256.114 67.0142 256.57 67.1186 256.961 67.3274C257.352 67.5329 257.655 67.8494 257.871 68.277C258.089 68.7012 258.199 69.2415 258.199 69.8977V74.75H257.026V69.9773C257.026 69.3707 256.868 68.9018 256.553 68.5703C256.242 68.2356 255.809 68.0682 255.256 68.0682C254.871 68.0682 254.527 68.1494 254.222 68.3118C253.92 68.4742 253.681 68.7112 253.506 69.0227C253.333 69.3343 253.247 69.7121 253.247 70.1562ZM263.547 74.9091C262.811 74.9091 262.177 74.7467 261.643 74.4219C261.113 74.0938 260.703 73.6364 260.415 73.0497C260.13 72.4598 259.987 71.7737 259.987 70.9915C259.987 70.2093 260.13 69.5199 260.415 68.9233C260.703 68.3234 261.104 67.8561 261.618 67.5213C262.135 67.1832 262.738 67.0142 263.428 67.0142C263.825 67.0142 264.218 67.0805 264.606 67.2131C264.994 67.3456 265.347 67.5611 265.665 67.8594C265.983 68.1544 266.237 68.5455 266.426 69.0327C266.615 69.5199 266.709 70.1198 266.709 70.8324V71.3295H260.823V70.3153H265.516C265.516 69.8845 265.43 69.5 265.257 69.1619C265.088 68.8239 264.846 68.5571 264.531 68.3615C264.22 68.166 263.852 68.0682 263.428 68.0682C262.96 68.0682 262.556 68.1842 262.215 68.4162C261.877 68.6449 261.616 68.9432 261.434 69.3111C261.252 69.679 261.161 70.0734 261.161 70.4943V71.1705C261.161 71.7472 261.26 72.236 261.459 72.6371C261.661 73.0348 261.941 73.3381 262.299 73.5469C262.657 73.7524 263.073 73.8551 263.547 73.8551C263.855 73.8551 264.134 73.812 264.382 73.7259C264.634 73.6364 264.851 73.5038 265.034 73.3281C265.216 73.1491 265.357 72.9271 265.456 72.6619L266.59 72.9801C266.47 73.3646 266.27 73.7027 265.988 73.9943C265.706 74.2827 265.358 74.508 264.944 74.6705C264.53 74.8295 264.064 74.9091 263.547 74.9091ZM269.667 64.5682V74.75H268.494V64.5682H269.667ZM271.816 77.6136V67.1136H272.95V68.3267H273.089C273.175 68.1941 273.294 68.0251 273.447 67.8196C273.603 67.6108 273.825 67.4252 274.113 67.2628C274.405 67.0971 274.799 67.0142 275.296 67.0142C275.939 67.0142 276.506 67.175 276.996 67.4964C277.487 67.8179 277.87 68.2737 278.145 68.8636C278.42 69.4536 278.558 70.1496 278.558 70.9517C278.558 71.7604 278.42 72.4614 278.145 73.0547C277.87 73.6446 277.489 74.102 277.001 74.4268C276.514 74.7483 275.952 74.9091 275.316 74.9091C274.826 74.9091 274.433 74.8279 274.138 74.6655C273.843 74.4998 273.616 74.3125 273.457 74.1037C273.298 73.8916 273.175 73.7159 273.089 73.5767H272.989V77.6136H271.816ZM272.969 70.9318C272.969 71.5085 273.054 72.0173 273.223 72.4581C273.392 72.8956 273.639 73.2386 273.964 73.4872C274.289 73.7325 274.686 73.8551 275.157 73.8551C275.647 73.8551 276.057 73.7259 276.385 73.4673C276.716 73.2055 276.965 72.8542 277.131 72.4134C277.3 71.9692 277.384 71.4754 277.384 70.9318C277.384 70.3949 277.301 69.911 277.136 69.4801C276.973 69.0459 276.726 68.7029 276.395 68.451C276.067 68.1958 275.654 68.0682 275.157 68.0682C274.68 68.0682 274.279 68.1892 273.954 68.4311C273.629 68.6697 273.384 69.0045 273.218 69.4354C273.052 69.8629 272.969 70.3617 272.969 70.9318ZM24.3949 88.1136V89.108H20.4375V88.1136H24.3949ZM21.5909 86.2841H22.7642V93.5625C22.7642 93.8939 22.8123 94.1425 22.9084 94.3082C23.0078 94.4706 23.1338 94.58 23.2862 94.6364C23.442 94.6894 23.6061 94.7159 23.7784 94.7159C23.9077 94.7159 24.0137 94.7093 24.0966 94.696C24.1795 94.6795 24.2457 94.6662 24.2955 94.6562L24.5341 95.7102C24.4545 95.7401 24.3435 95.7699 24.201 95.7997C24.0585 95.8329 23.8778 95.8494 23.6591 95.8494C23.3277 95.8494 23.0028 95.7782 22.6847 95.6357C22.3698 95.4931 22.108 95.276 21.8991 94.9844C21.6937 94.6927 21.5909 94.3248 21.5909 93.8807V86.2841ZM27.4972 91.1562V95.75H26.3239V85.5682H27.4972V89.3068H27.5966C27.7756 88.9124 28.044 88.5992 28.402 88.3672C28.7633 88.1319 29.2438 88.0142 29.8438 88.0142C30.3641 88.0142 30.8198 88.1186 31.2109 88.3274C31.602 88.5329 31.9053 88.8494 32.1207 89.277C32.3395 89.7012 32.4489 90.2415 32.4489 90.8977V95.75H31.2756V90.9773C31.2756 90.3707 31.1181 89.9018 30.8033 89.5703C30.4917 89.2356 30.0592 89.0682 29.5057 89.0682C29.1212 89.0682 28.7765 89.1494 28.4716 89.3118C28.17 89.4742 27.9313 89.7112 27.7557 90.0227C27.5833 90.3343 27.4972 90.7121 27.4972 91.1562ZM37.7971 95.9091C37.0613 95.9091 36.4266 95.7467 35.8929 95.4219C35.3626 95.0938 34.9533 94.6364 34.665 94.0497C34.3799 93.4598 34.2374 92.7737 34.2374 91.9915C34.2374 91.2093 34.3799 90.5199 34.665 89.9233C34.9533 89.3234 35.3543 88.8561 35.8681 88.5213C36.3851 88.1832 36.9883 88.0142 37.6777 88.0142C38.0755 88.0142 38.4682 88.0805 38.856 88.2131C39.2438 88.3456 39.5968 88.5611 39.915 88.8594C40.2331 89.1544 40.4867 89.5455 40.6756 90.0327C40.8645 90.5199 40.959 91.1198 40.959 91.8324V92.3295H35.0726V91.3153H39.7658C39.7658 90.8845 39.6796 90.5 39.5073 90.1619C39.3382 89.8239 39.0963 89.5571 38.7814 89.3615C38.4699 89.166 38.102 89.0682 37.6777 89.0682C37.2104 89.0682 36.806 89.1842 36.4647 89.4162C36.1266 89.6449 35.8664 89.9432 35.6841 90.3111C35.5018 90.679 35.4107 91.0734 35.4107 91.4943V92.1705C35.4107 92.7472 35.5101 93.236 35.709 93.6371C35.9112 94.0348 36.1912 94.3381 36.5492 94.5469C36.9071 94.7524 37.3231 94.8551 37.7971 94.8551C38.1053 94.8551 38.3837 94.812 38.6323 94.7259C38.8842 94.6364 39.1013 94.5038 39.2836 94.3281C39.4659 94.1491 39.6067 93.9271 39.7061 93.6619L40.8397 93.9801C40.7203 94.3646 40.5198 94.7027 40.2381 94.9943C39.9564 95.2827 39.6084 95.508 39.1941 95.6705C38.7798 95.8295 38.3141 95.9091 37.7971 95.9091ZM50.0023 88.1136V89.108H46.0449V88.1136H50.0023ZM47.1983 86.2841H48.3716V93.5625C48.3716 93.8939 48.4197 94.1425 48.5158 94.3082C48.6152 94.4706 48.7412 94.58 48.8936 94.6364C49.0494 94.6894 49.2135 94.7159 49.3858 94.7159C49.5151 94.7159 49.6212 94.7093 49.704 94.696C49.7869 94.6795 49.8532 94.6662 49.9029 94.6562L50.1415 95.7102C50.062 95.7401 49.9509 95.7699 49.8084 95.7997C49.6659 95.8329 49.4853 95.8494 49.2665 95.8494C48.9351 95.8494 48.6103 95.7782 48.2921 95.6357C47.9772 95.4931 47.7154 95.276 47.5066 94.9844C47.3011 94.6927 47.1983 94.3248 47.1983 93.8807V86.2841ZM54.8869 95.9091C54.1511 95.9091 53.5164 95.7467 52.9828 95.4219C52.4525 95.0938 52.0431 94.6364 51.7548 94.0497C51.4698 93.4598 51.3272 92.7737 51.3272 91.9915C51.3272 91.2093 51.4698 90.5199 51.7548 89.9233C52.0431 89.3234 52.4442 88.8561 52.9579 88.5213C53.475 88.1832 54.0782 88.0142 54.7676 88.0142C55.1653 88.0142 55.5581 88.0805 55.9458 88.2131C56.3336 88.3456 56.6866 88.5611 57.0048 88.8594C57.323 89.1544 57.5765 89.5455 57.7654 90.0327C57.9544 90.5199 58.0488 91.1198 58.0488 91.8324V92.3295H52.1625V91.3153H56.8556C56.8556 90.8845 56.7695 90.5 56.5971 90.1619C56.4281 89.8239 56.1861 89.5571 55.8713 89.3615C55.5597 89.166 55.1918 89.0682 54.7676 89.0682C54.3002 89.0682 53.8959 89.1842 53.5545 89.4162C53.2164 89.6449 52.9563 89.9432 52.774 90.3111C52.5917 90.679 52.5005 91.0734 52.5005 91.4943V92.1705C52.5005 92.7472 52.6 93.236 52.7988 93.6371C53.001 94.0348 53.2811 94.3381 53.639 94.5469C53.997 94.7524 54.4129 94.8551 54.8869 94.8551C55.1951 94.8551 55.4735 94.812 55.7221 94.7259C55.974 94.6364 56.1911 94.5038 56.3734 94.3281C56.5557 94.1491 56.6966 93.9271 56.796 93.6619L57.9295 93.9801C57.8102 94.3646 57.6097 94.7027 57.3279 94.9943C57.0462 95.2827 56.6982 95.508 56.2839 95.6705C55.8696 95.8295 55.4039 95.9091 54.8869 95.9091ZM62.0808 95.929C61.5969 95.929 61.1577 95.8378 60.7633 95.6555C60.3689 95.4699 60.0557 95.2031 59.8237 94.8551C59.5917 94.5038 59.4757 94.0795 59.4757 93.5824C59.4757 93.1449 59.5618 92.7902 59.7342 92.5185C59.9065 92.2434 60.1369 92.0279 60.4252 91.8722C60.7136 91.7164 61.0318 91.6004 61.3798 91.5241C61.7311 91.4446 62.0841 91.3816 62.4387 91.3352C62.9028 91.2756 63.2789 91.2308 63.5673 91.201C63.859 91.1679 64.0711 91.1132 64.2037 91.0369C64.3395 90.9607 64.4075 90.8281 64.4075 90.6392V90.5994C64.4075 90.1089 64.2733 89.7277 64.0048 89.456C63.7396 89.1842 63.3369 89.0483 62.7967 89.0483C62.2366 89.0483 61.7974 89.1709 61.4792 89.4162C61.161 89.6615 60.9373 89.9233 60.8081 90.2017L59.6944 89.804C59.8933 89.34 60.1584 88.9787 60.4899 88.7202C60.8246 88.4583 61.1892 88.276 61.5836 88.1733C61.9814 88.0672 62.3725 88.0142 62.7569 88.0142C63.0022 88.0142 63.2839 88.044 63.6021 88.1037C63.9236 88.16 64.2335 88.2777 64.5318 88.4567C64.8334 88.6357 65.0836 88.9058 65.2825 89.267C65.4814 89.6283 65.5808 90.1122 65.5808 90.7188V95.75H64.4075V94.7159H64.3478C64.2683 94.8816 64.1357 95.0589 63.9501 95.2479C63.7645 95.4368 63.5176 95.5975 63.2093 95.7301C62.9011 95.8627 62.5249 95.929 62.0808 95.929ZM62.2598 94.875C62.7238 94.875 63.1149 94.7839 63.4331 94.6016C63.7546 94.4193 63.9965 94.1839 64.1589 93.8956C64.3246 93.6072 64.4075 93.304 64.4075 92.9858V91.9119C64.3578 91.9716 64.2484 92.0263 64.0794 92.076C63.9136 92.1224 63.7214 92.1638 63.5027 92.2003C63.2872 92.2334 63.0768 92.2633 62.8713 92.2898C62.6691 92.313 62.505 92.3329 62.3791 92.3494C62.0742 92.3892 61.7891 92.4538 61.524 92.5433C61.2621 92.6295 61.05 92.7604 60.8876 92.9361C60.7285 93.1084 60.649 93.3437 60.649 93.642C60.649 94.0497 60.7998 94.358 61.1014 94.5668C61.4063 94.7723 61.7924 94.875 62.2598 94.875ZM67.7223 95.75V88.1136H68.8558V89.3068H68.9553C69.1143 88.8991 69.3712 88.5826 69.7259 88.3572C70.0805 88.1286 70.5064 88.0142 71.0036 88.0142C71.5073 88.0142 71.9266 88.1286 72.2614 88.3572C72.5994 88.5826 72.8629 88.8991 73.0518 89.3068H73.1314C73.3269 88.9124 73.6203 88.5992 74.0114 88.3672C74.4025 88.1319 74.8714 88.0142 75.4183 88.0142C76.1011 88.0142 76.6596 88.228 77.0938 88.6555C77.5279 89.0798 77.745 89.741 77.745 90.6392V95.75H76.5717V90.6392C76.5717 90.0758 76.4176 89.6731 76.1094 89.4311C75.8011 89.1892 75.4382 89.0682 75.0206 89.0682C74.4837 89.0682 74.0677 89.2306 73.7727 89.5554C73.4777 89.8769 73.3303 90.2846 73.3303 90.7784V95.75H72.1371V90.5199C72.1371 90.0857 71.9962 89.736 71.7145 89.4709C71.4328 89.2024 71.0698 89.0682 70.6257 89.0682C70.3208 89.0682 70.0357 89.1494 69.7706 89.3118C69.5088 89.4742 69.2966 89.6996 69.1342 89.9879C68.9751 90.273 68.8956 90.6027 68.8956 90.9773V95.75H67.7223ZM86.9102 98.7727C86.3434 98.7727 85.8562 98.6998 85.4485 98.554C85.0408 98.4115 84.7011 98.2225 84.4293 97.9872C84.1609 97.7552 83.9471 97.5066 83.788 97.2415L84.7227 96.5852C84.8287 96.7244 84.9629 96.8835 85.1254 97.0625C85.2878 97.2448 85.5098 97.4022 85.7915 97.5348C86.0766 97.6707 86.4495 97.7386 86.9102 97.7386C87.5266 97.7386 88.0354 97.5895 88.4364 97.2912C88.8375 96.9929 89.038 96.5256 89.038 95.8892V94.3381H88.9386C88.8524 94.4773 88.7298 94.6496 88.5707 94.8551C88.4149 95.0573 88.1895 95.2379 87.8945 95.397C87.6029 95.5528 87.2085 95.6307 86.7113 95.6307C86.0948 95.6307 85.5413 95.4848 85.0508 95.1932C84.5636 94.9015 84.1774 94.4773 83.8924 93.9205C83.6107 93.3636 83.4698 92.6875 83.4698 91.892C83.4698 91.1098 83.6074 90.4287 83.8825 89.8487C84.1576 89.2654 84.5404 88.8146 85.0309 88.4964C85.5214 88.175 86.0882 88.0142 86.7312 88.0142C87.2283 88.0142 87.6228 88.0971 87.9144 88.2628C88.2094 88.4252 88.4348 88.6108 88.5906 88.8196C88.7496 89.0251 88.8723 89.1941 88.9585 89.3267H89.0778V88.1136H90.2113V95.9688C90.2113 96.625 90.0621 97.1586 89.7638 97.5696C89.4689 97.9839 89.0711 98.2872 88.5707 98.4794C88.0735 98.675 87.52 98.7727 86.9102 98.7727ZM86.8704 94.5767C87.341 94.5767 87.7388 94.469 88.0636 94.2536C88.3884 94.0381 88.6353 93.7282 88.8043 93.3239C88.9734 92.9195 89.0579 92.4356 89.0579 91.8722C89.0579 91.322 88.975 90.8364 88.8093 90.4155C88.6436 89.9946 88.3983 89.6648 88.0735 89.4261C87.7487 89.1875 87.3477 89.0682 86.8704 89.0682C86.3732 89.0682 85.9589 89.1941 85.6275 89.446C85.2994 89.6979 85.0524 90.036 84.8867 90.4602C84.7243 90.8845 84.6431 91.3551 84.6431 91.8722C84.6431 92.4025 84.726 92.8714 84.8917 93.2791C85.0607 93.6835 85.3093 94.0017 85.6374 94.2337C85.9689 94.4624 86.3799 94.5767 86.8704 94.5767ZM92.359 95.75V88.1136H93.4925V89.267H93.5721C93.7113 88.8892 93.9632 88.5826 94.3278 88.3473C94.6924 88.112 95.1033 87.9943 95.5607 87.9943C95.6469 87.9943 95.7546 87.996 95.8839 87.9993C96.0131 88.0026 96.1109 88.0076 96.1772 88.0142V89.2074C96.1374 89.1974 96.0463 89.1825 95.9038 89.1626C95.7646 89.1394 95.6171 89.1278 95.4613 89.1278C95.0901 89.1278 94.7586 89.2057 94.467 89.3615C94.1786 89.514 93.9499 89.7261 93.7809 89.9979C93.6152 90.2663 93.5323 90.5729 93.5323 90.9176V95.75H92.359ZM100.438 95.9091C99.7485 95.9091 99.1436 95.745 98.6232 95.4169C98.1062 95.0888 97.7018 94.6297 97.4102 94.0398C97.1218 93.4498 96.9776 92.7604 96.9776 91.9716C96.9776 91.1761 97.1218 90.4818 97.4102 89.8885C97.7018 89.2952 98.1062 88.8345 98.6232 88.5064C99.1436 88.1783 99.7485 88.0142 100.438 88.0142C101.127 88.0142 101.73 88.1783 102.248 88.5064C102.768 88.8345 103.172 89.2952 103.461 89.8885C103.752 90.4818 103.898 91.1761 103.898 91.9716C103.898 92.7604 103.752 93.4498 103.461 94.0398C103.172 94.6297 102.768 95.0888 102.248 95.4169C101.73 95.745 101.127 95.9091 100.438 95.9091ZM100.438 94.8551C100.962 94.8551 101.392 94.7209 101.73 94.4524C102.069 94.1839 102.319 93.831 102.481 93.3935C102.644 92.956 102.725 92.482 102.725 91.9716C102.725 91.4612 102.644 90.9856 102.481 90.5447C102.319 90.1039 102.069 89.7476 101.73 89.4759C101.392 89.2041 100.962 89.0682 100.438 89.0682C99.9142 89.0682 99.4833 89.2041 99.1452 89.4759C98.8072 89.7476 98.5569 90.1039 98.3945 90.5447C98.2321 90.9856 98.1509 91.4612 98.1509 91.9716C98.1509 92.482 98.2321 92.956 98.3945 93.3935C98.5569 93.831 98.8072 94.1839 99.1452 94.4524C99.4833 94.7209 99.9142 94.8551 100.438 94.8551ZM107.159 95.75L104.833 88.1136H106.066L107.716 93.9602H107.796L109.426 88.1136H110.679L112.29 93.9403H112.37L114.02 88.1136H115.253L112.926 95.75H111.773L110.103 89.8835H109.983L108.313 95.75H107.159ZM124.063 88.1136V89.108H120.105V88.1136H124.063ZM121.259 86.2841H122.432V93.5625C122.432 93.8939 122.48 94.1425 122.576 94.3082C122.676 94.4706 122.802 94.58 122.954 94.6364C123.11 94.6894 123.274 94.7159 123.446 94.7159C123.576 94.7159 123.682 94.7093 123.765 94.696C123.847 94.6795 123.914 94.6662 123.963 94.6562L124.202 95.7102C124.123 95.7401 124.011 95.7699 123.869 95.7997C123.726 95.8329 123.546 95.8494 123.327 95.8494C122.996 95.8494 122.671 95.7782 122.353 95.6357C122.038 95.4931 121.776 95.276 121.567 94.9844C121.362 94.6927 121.259 94.3248 121.259 93.8807V86.2841ZM128.848 95.9091C128.159 95.9091 127.554 95.745 127.033 95.4169C126.516 95.0888 126.112 94.6297 125.82 94.0398C125.532 93.4498 125.388 92.7604 125.388 91.9716C125.388 91.1761 125.532 90.4818 125.82 89.8885C126.112 89.2952 126.516 88.8345 127.033 88.5064C127.554 88.1783 128.159 88.0142 128.848 88.0142C129.537 88.0142 130.141 88.1783 130.658 88.5064C131.178 88.8345 131.582 89.2952 131.871 89.8885C132.162 90.4818 132.308 91.1761 132.308 91.9716C132.308 92.7604 132.162 93.4498 131.871 94.0398C131.582 94.6297 131.178 95.0888 130.658 95.4169C130.141 95.745 129.537 95.9091 128.848 95.9091ZM128.848 94.8551C129.372 94.8551 129.803 94.7209 130.141 94.4524C130.479 94.1839 130.729 93.831 130.891 93.3935C131.054 92.956 131.135 92.482 131.135 91.9716C131.135 91.4612 131.054 90.9856 130.891 90.5447C130.729 90.1039 130.479 89.7476 130.141 89.4759C129.803 89.2041 129.372 89.0682 128.848 89.0682C128.324 89.0682 127.893 89.2041 127.555 89.4759C127.217 89.7476 126.967 90.1039 126.805 90.5447C126.642 90.9856 126.561 91.4612 126.561 91.9716C126.561 92.482 126.642 92.956 126.805 93.3935C126.967 93.831 127.217 94.1839 127.555 94.4524C127.893 94.7209 128.324 94.8551 128.848 94.8551ZM137.182 98.7727C136.615 98.7727 136.128 98.6998 135.72 98.554C135.312 98.4115 134.973 98.2225 134.701 97.9872C134.432 97.7552 134.219 97.5066 134.059 97.2415L134.994 96.5852C135.1 96.7244 135.234 96.8835 135.397 97.0625C135.559 97.2448 135.781 97.4022 136.063 97.5348C136.348 97.6707 136.721 97.7386 137.182 97.7386C137.798 97.7386 138.307 97.5895 138.708 97.2912C139.109 96.9929 139.309 96.5256 139.309 95.8892V94.3381H139.21C139.124 94.4773 139.001 94.6496 138.842 94.8551C138.686 95.0573 138.461 95.2379 138.166 95.397C137.874 95.5528 137.48 95.6307 136.983 95.6307C136.366 95.6307 135.813 95.4848 135.322 95.1932C134.835 94.9015 134.449 94.4773 134.164 93.9205C133.882 93.3636 133.741 92.6875 133.741 91.892C133.741 91.1098 133.879 90.4287 134.154 89.8487C134.429 89.2654 134.812 88.8146 135.302 88.4964C135.793 88.175 136.36 88.0142 137.003 88.0142C137.5 88.0142 137.894 88.0971 138.186 88.2628C138.481 88.4252 138.706 88.6108 138.862 88.8196C139.021 89.0251 139.144 89.1941 139.23 89.3267H139.349V88.1136H140.483V95.9688C140.483 96.625 140.334 97.1586 140.035 97.5696C139.74 97.9839 139.343 98.2872 138.842 98.4794C138.345 98.675 137.791 98.7727 137.182 98.7727ZM137.142 94.5767C137.613 94.5767 138.01 94.469 138.335 94.2536C138.66 94.0381 138.907 93.7282 139.076 93.3239C139.245 92.9195 139.329 92.4356 139.329 91.8722C139.329 91.322 139.247 90.8364 139.081 90.4155C138.915 89.9946 138.67 89.6648 138.345 89.4261C138.02 89.1875 137.619 89.0682 137.142 89.0682C136.645 89.0682 136.23 89.1941 135.899 89.446C135.571 89.6979 135.324 90.036 135.158 90.4602C134.996 90.8845 134.915 91.3551 134.915 91.8722C134.915 92.4025 134.997 92.8714 135.163 93.2791C135.332 93.6835 135.581 94.0017 135.909 94.2337C136.24 94.4624 136.651 94.5767 137.142 94.5767ZM145.832 95.9091C145.096 95.9091 144.462 95.7467 143.928 95.4219C143.398 95.0938 142.988 94.6364 142.7 94.0497C142.415 93.4598 142.273 92.7737 142.273 91.9915C142.273 91.2093 142.415 90.5199 142.7 89.9233C142.988 89.3234 143.39 88.8561 143.903 88.5213C144.42 88.1832 145.023 88.0142 145.713 88.0142C146.111 88.0142 146.503 88.0805 146.891 88.2131C147.279 88.3456 147.632 88.5611 147.95 88.8594C148.268 89.1544 148.522 89.5455 148.711 90.0327C148.9 90.5199 148.994 91.1198 148.994 91.8324V92.3295H143.108V91.3153H147.801C147.801 90.8845 147.715 90.5 147.542 90.1619C147.373 89.8239 147.131 89.5571 146.817 89.3615C146.505 89.166 146.137 89.0682 145.713 89.0682C145.246 89.0682 144.841 89.1842 144.5 89.4162C144.162 89.6449 143.902 89.9432 143.719 90.3111C143.537 90.679 143.446 91.0734 143.446 91.4943V92.1705C143.446 92.7472 143.545 93.236 143.744 93.6371C143.946 94.0348 144.226 94.3381 144.584 94.5469C144.942 94.7524 145.358 94.8551 145.832 94.8551C146.14 94.8551 146.419 94.812 146.667 94.7259C146.919 94.6364 147.136 94.5038 147.319 94.3281C147.501 94.1491 147.642 93.9271 147.741 93.6619L148.875 93.9801C148.756 94.3646 148.555 94.7027 148.273 94.9943C147.992 95.2827 147.644 95.508 147.229 95.6705C146.815 95.8295 146.349 95.9091 145.832 95.9091ZM154.1 88.1136V89.108H150.143V88.1136H154.1ZM151.296 86.2841H152.469V93.5625C152.469 93.8939 152.517 94.1425 152.613 94.3082C152.713 94.4706 152.839 94.58 152.991 94.6364C153.147 94.6894 153.311 94.7159 153.483 94.7159C153.613 94.7159 153.719 94.7093 153.802 94.696C153.885 94.6795 153.951 94.6662 154.001 94.6562L154.239 95.7102C154.16 95.7401 154.049 95.7699 153.906 95.7997C153.764 95.8329 153.583 95.8494 153.364 95.8494C153.033 95.8494 152.708 95.7782 152.39 95.6357C152.075 95.4931 151.813 95.276 151.604 94.9844C151.399 94.6927 151.296 94.3248 151.296 93.8807V86.2841ZM157.202 91.1562V95.75H156.029V85.5682H157.202V89.3068H157.302C157.481 88.9124 157.749 88.5992 158.107 88.3672C158.468 88.1319 158.949 88.0142 159.549 88.0142C160.069 88.0142 160.525 88.1186 160.916 88.3274C161.307 88.5329 161.61 88.8494 161.826 89.277C162.045 89.7012 162.154 90.2415 162.154 90.8977V95.75H160.981V90.9773C160.981 90.3707 160.823 89.9018 160.508 89.5703C160.197 89.2356 159.764 89.0682 159.211 89.0682C158.826 89.0682 158.482 89.1494 158.177 89.3118C157.875 89.4742 157.636 89.7112 157.461 90.0227C157.288 90.3343 157.202 90.7121 157.202 91.1562ZM167.502 95.9091C166.766 95.9091 166.132 95.7467 165.598 95.4219C165.068 95.0938 164.658 94.6364 164.37 94.0497C164.085 93.4598 163.942 92.7737 163.942 91.9915C163.942 91.2093 164.085 90.5199 164.37 89.9233C164.658 89.3234 165.059 88.8561 165.573 88.5213C166.09 88.1832 166.693 88.0142 167.383 88.0142C167.781 88.0142 168.173 88.0805 168.561 88.2131C168.949 88.3456 169.302 88.5611 169.62 88.8594C169.938 89.1544 170.192 89.5455 170.381 90.0327C170.57 90.5199 170.664 91.1198 170.664 91.8324V92.3295H164.778V91.3153H169.471C169.471 90.8845 169.385 90.5 169.212 90.1619C169.043 89.8239 168.801 89.5571 168.487 89.3615C168.175 89.166 167.807 89.0682 167.383 89.0682C166.915 89.0682 166.511 89.1842 166.17 89.4162C165.832 89.6449 165.571 89.9432 165.389 90.3111C165.207 90.679 165.116 91.0734 165.116 91.4943V92.1705C165.116 92.7472 165.215 93.236 165.414 93.6371C165.616 94.0348 165.896 94.3381 166.254 94.5469C166.612 94.7524 167.028 94.8551 167.502 94.8551C167.81 94.8551 168.089 94.812 168.337 94.7259C168.589 94.6364 168.806 94.5038 168.989 94.3281C169.171 94.1491 169.312 93.9271 169.411 93.6619L170.545 93.9801C170.425 94.3646 170.225 94.7027 169.943 94.9943C169.661 95.2827 169.313 95.508 168.899 95.6705C168.485 95.8295 168.019 95.9091 167.502 95.9091ZM172.449 95.75V88.1136H173.582V89.267H173.662C173.801 88.8892 174.053 88.5826 174.418 88.3473C174.782 88.112 175.193 87.9943 175.651 87.9943C175.737 87.9943 175.844 87.996 175.974 87.9993C176.103 88.0026 176.201 88.0076 176.267 88.0142V89.2074C176.227 89.1974 176.136 89.1825 175.994 89.1626C175.854 89.1394 175.707 89.1278 175.551 89.1278C175.18 89.1278 174.848 89.2057 174.557 89.3615C174.268 89.514 174.04 89.7261 173.871 89.9979C173.705 90.2663 173.622 90.5729 173.622 90.9176V95.75H172.449ZM178.533 94.358L178.453 94.8949C178.397 95.2727 178.311 95.6771 178.195 96.108C178.082 96.5388 177.964 96.9448 177.842 97.326C177.719 97.7071 177.618 98.0104 177.539 98.2358H176.644C176.687 98.0237 176.743 97.7436 176.813 97.3956C176.882 97.0476 176.952 96.6581 177.021 96.2273C177.094 95.7997 177.154 95.3622 177.2 94.9148L177.26 94.358H178.533ZM184.803 95.75V85.5682H185.977V89.3267H186.076C186.162 89.1941 186.281 89.0251 186.434 88.8196C186.59 88.6108 186.812 88.4252 187.1 88.2628C187.392 88.0971 187.786 88.0142 188.283 88.0142C188.926 88.0142 189.493 88.175 189.984 88.4964C190.474 88.8179 190.857 89.2737 191.132 89.8636C191.407 90.4536 191.545 91.1496 191.545 91.9517C191.545 92.7604 191.407 93.4614 191.132 94.0547C190.857 94.6446 190.476 95.102 189.989 95.4268C189.501 95.7483 188.94 95.9091 188.303 95.9091C187.813 95.9091 187.42 95.8279 187.125 95.6655C186.83 95.4998 186.603 95.3125 186.444 95.1037C186.285 94.8916 186.162 94.7159 186.076 94.5767H185.937V95.75H184.803ZM185.957 91.9318C185.957 92.5085 186.041 93.0173 186.21 93.4581C186.379 93.8956 186.626 94.2386 186.951 94.4872C187.276 94.7325 187.674 94.8551 188.144 94.8551C188.635 94.8551 189.044 94.7259 189.372 94.4673C189.704 94.2055 189.952 93.8542 190.118 93.4134C190.287 92.9692 190.371 92.4754 190.371 91.9318C190.371 91.3949 190.289 90.911 190.123 90.4801C189.96 90.0459 189.714 89.7029 189.382 89.451C189.054 89.1958 188.641 89.0682 188.144 89.0682C187.667 89.0682 187.266 89.1892 186.941 89.4311C186.616 89.6697 186.371 90.0045 186.205 90.4354C186.04 90.8629 185.957 91.3617 185.957 91.9318ZM196.541 95.9091C195.805 95.9091 195.171 95.7467 194.637 95.4219C194.107 95.0938 193.697 94.6364 193.409 94.0497C193.124 93.4598 192.982 92.7737 192.982 91.9915C192.982 91.2093 193.124 90.5199 193.409 89.9233C193.697 89.3234 194.098 88.8561 194.612 88.5213C195.129 88.1832 195.732 88.0142 196.422 88.0142C196.82 88.0142 197.212 88.0805 197.6 88.2131C197.988 88.3456 198.341 88.5611 198.659 88.8594C198.977 89.1544 199.231 89.5455 199.42 90.0327C199.609 90.5199 199.703 91.1198 199.703 91.8324V92.3295H193.817V91.3153H198.51C198.51 90.8845 198.424 90.5 198.251 90.1619C198.082 89.8239 197.84 89.5571 197.526 89.3615C197.214 89.166 196.846 89.0682 196.422 89.0682C195.955 89.0682 195.55 89.1842 195.209 89.4162C194.871 89.6449 194.611 89.9432 194.428 90.3111C194.246 90.679 194.155 91.0734 194.155 91.4943V92.1705C194.155 92.7472 194.254 93.236 194.453 93.6371C194.655 94.0348 194.935 94.3381 195.293 94.5469C195.651 94.7524 196.067 94.8551 196.541 94.8551C196.849 94.8551 197.128 94.812 197.376 94.7259C197.628 94.6364 197.845 94.5038 198.028 94.3281C198.21 94.1491 198.351 93.9271 198.45 93.6619L199.584 93.9801C199.464 94.3646 199.264 94.7027 198.982 94.9943C198.701 95.2827 198.353 95.508 197.938 95.6705C197.524 95.8295 197.058 95.9091 196.541 95.9091ZM204.59 95.9091C203.874 95.9091 203.258 95.7401 202.741 95.402C202.224 95.0639 201.826 94.5982 201.548 94.005C201.269 93.4117 201.13 92.7339 201.13 91.9716C201.13 91.196 201.272 90.5116 201.558 89.9183C201.846 89.3217 202.247 88.8561 202.761 88.5213C203.278 88.1832 203.881 88.0142 204.57 88.0142C205.107 88.0142 205.591 88.1136 206.022 88.3125C206.453 88.5114 206.806 88.7898 207.081 89.1477C207.356 89.5057 207.527 89.9233 207.593 90.4006H206.42C206.33 90.0526 206.131 89.7443 205.823 89.4759C205.518 89.2041 205.107 89.0682 204.59 89.0682C204.133 89.0682 203.732 89.1875 203.387 89.4261C203.046 89.6615 202.779 89.9946 202.587 90.4254C202.398 90.853 202.303 91.3551 202.303 91.9318C202.303 92.5218 202.396 93.0355 202.582 93.473C202.771 93.9105 203.036 94.2502 203.377 94.4922C203.722 94.7341 204.126 94.8551 204.59 94.8551C204.895 94.8551 205.172 94.8021 205.42 94.696C205.669 94.59 205.879 94.4375 206.052 94.2386C206.224 94.0398 206.347 93.8011 206.42 93.5227H207.593C207.527 93.9735 207.363 94.3795 207.101 94.7408C206.842 95.0987 206.499 95.3838 206.072 95.5959C205.647 95.8047 205.154 95.9091 204.59 95.9091ZM211.555 95.929C211.071 95.929 210.632 95.8378 210.238 95.6555C209.844 95.4699 209.53 95.2031 209.298 94.8551C209.066 94.5038 208.95 94.0795 208.95 93.5824C208.95 93.1449 209.036 92.7902 209.209 92.5185C209.381 92.2434 209.612 92.0279 209.9 91.8722C210.188 91.7164 210.506 91.6004 210.854 91.5241C211.206 91.4446 211.559 91.3816 211.913 91.3352C212.377 91.2756 212.754 91.2308 213.042 91.201C213.334 91.1679 213.546 91.1132 213.678 91.0369C213.814 90.9607 213.882 90.8281 213.882 90.6392V90.5994C213.882 90.1089 213.748 89.7277 213.479 89.456C213.214 89.1842 212.812 89.0483 212.271 89.0483C211.711 89.0483 211.272 89.1709 210.954 89.4162C210.636 89.6615 210.412 89.9233 210.283 90.2017L209.169 89.804C209.368 89.34 209.633 88.9787 209.964 88.7202C210.299 88.4583 210.664 88.276 211.058 88.1733C211.456 88.0672 211.847 88.0142 212.232 88.0142C212.477 88.0142 212.759 88.044 213.077 88.1037C213.398 88.16 213.708 88.2777 214.006 88.4567C214.308 88.6357 214.558 88.9058 214.757 89.267C214.956 89.6283 215.055 90.1122 215.055 90.7188V95.75H213.882V94.7159H213.822C213.743 94.8816 213.61 95.0589 213.425 95.2479C213.239 95.4368 212.992 95.5975 212.684 95.7301C212.376 95.8627 212 95.929 211.555 95.929ZM211.734 94.875C212.198 94.875 212.589 94.7839 212.908 94.6016C213.229 94.4193 213.471 94.1839 213.634 93.8956C213.799 93.6072 213.882 93.304 213.882 92.9858V91.9119C213.832 91.9716 213.723 92.0263 213.554 92.076C213.388 92.1224 213.196 92.1638 212.977 92.2003C212.762 92.2334 212.551 92.2633 212.346 92.2898C212.144 92.313 211.98 92.3329 211.854 92.3494C211.549 92.3892 211.264 92.4538 210.999 92.5433C210.737 92.6295 210.525 92.7604 210.362 92.9361C210.203 93.1084 210.124 93.3437 210.124 93.642C210.124 94.0497 210.274 94.358 210.576 94.5668C210.881 94.7723 211.267 94.875 211.734 94.875ZM222.009 92.6278V88.1136H223.183V95.75H222.009V94.4574H221.93C221.751 94.8452 221.472 95.175 221.095 95.4467C220.717 95.7152 220.24 95.8494 219.663 95.8494C219.186 95.8494 218.761 95.745 218.39 95.5362C218.019 95.3241 217.727 95.0059 217.515 94.5817C217.303 94.1541 217.197 93.6155 217.197 92.9659V88.1136H218.37V92.8864C218.37 93.4432 218.526 93.8873 218.838 94.2188C219.152 94.5502 219.553 94.7159 220.041 94.7159C220.332 94.7159 220.629 94.6413 220.931 94.4922C221.235 94.343 221.491 94.1143 221.696 93.8061C221.905 93.4979 222.009 93.1051 222.009 92.6278ZM230.741 89.8239L229.687 90.1222C229.621 89.9465 229.523 89.7758 229.393 89.6101C229.268 89.4411 229.095 89.3018 228.876 89.1925C228.658 89.0831 228.378 89.0284 228.036 89.0284C227.569 89.0284 227.179 89.1361 226.868 89.3516C226.56 89.5637 226.406 89.8338 226.406 90.1619C226.406 90.4536 226.512 90.6839 226.724 90.853C226.936 91.022 227.267 91.1629 227.718 91.2756L228.852 91.554C229.534 91.7197 230.043 91.9732 230.378 92.3146C230.713 92.6527 230.88 93.0885 230.88 93.6222C230.88 94.0597 230.754 94.4508 230.502 94.7955C230.254 95.1402 229.906 95.4119 229.458 95.6108C229.011 95.8097 228.49 95.9091 227.897 95.9091C227.118 95.9091 226.473 95.7401 225.963 95.402C225.453 95.0639 225.129 94.5701 224.994 93.9205L226.107 93.642C226.213 94.053 226.414 94.3613 226.709 94.5668C227.007 94.7723 227.397 94.875 227.877 94.875C228.424 94.875 228.858 94.759 229.18 94.527C229.504 94.2917 229.667 94.0099 229.667 93.6818C229.667 93.4167 229.574 93.1946 229.388 93.0156C229.203 92.8333 228.918 92.6974 228.533 92.608L227.261 92.3097C226.561 92.1439 226.048 91.8871 225.719 91.5391C225.395 91.1877 225.232 90.7486 225.232 90.2216C225.232 89.7907 225.353 89.4096 225.595 89.0781C225.84 88.7467 226.174 88.4865 226.594 88.2976C227.019 88.1087 227.499 88.0142 228.036 88.0142C228.792 88.0142 229.385 88.1799 229.816 88.5114C230.25 88.8428 230.558 89.2803 230.741 89.8239ZM235.848 95.9091C235.112 95.9091 234.477 95.7467 233.944 95.4219C233.413 95.0938 233.004 94.6364 232.716 94.0497C232.431 93.4598 232.288 92.7737 232.288 91.9915C232.288 91.2093 232.431 90.5199 232.716 89.9233C233.004 89.3234 233.405 88.8561 233.919 88.5213C234.436 88.1832 235.039 88.0142 235.729 88.0142C236.126 88.0142 236.519 88.0805 236.907 88.2131C237.295 88.3456 237.648 88.5611 237.966 88.8594C238.284 89.1544 238.537 89.5455 238.726 90.0327C238.915 90.5199 239.01 91.1198 239.01 91.8324V92.3295H233.123V91.3153H237.817C237.817 90.8845 237.73 90.5 237.558 90.1619C237.389 89.8239 237.147 89.5571 236.832 89.3615C236.521 89.166 236.153 89.0682 235.729 89.0682C235.261 89.0682 234.857 89.1842 234.515 89.4162C234.177 89.6449 233.917 89.9432 233.735 90.3111C233.553 90.679 233.461 91.0734 233.461 91.4943V92.1705C233.461 92.7472 233.561 93.236 233.76 93.6371C233.962 94.0348 234.242 94.3381 234.6 94.5469C234.958 94.7524 235.374 94.8551 235.848 94.8551C236.156 94.8551 236.434 94.812 236.683 94.7259C236.935 94.6364 237.152 94.5038 237.334 94.3281C237.517 94.1491 237.657 93.9271 237.757 93.6619L238.89 93.9801C238.771 94.3646 238.571 94.7027 238.289 94.9943C238.007 95.2827 237.659 95.508 237.245 95.6705C236.831 95.8295 236.365 95.9091 235.848 95.9091ZM247.934 95.9091C247.198 95.9091 246.563 95.7467 246.03 95.4219C245.499 95.0938 245.09 94.6364 244.802 94.0497C244.517 93.4598 244.374 92.7737 244.374 91.9915C244.374 91.2093 244.517 90.5199 244.802 89.9233C245.09 89.3234 245.491 88.8561 246.005 88.5213C246.522 88.1832 247.125 88.0142 247.814 88.0142C248.212 88.0142 248.605 88.0805 248.993 88.2131C249.381 88.3456 249.733 88.5611 250.052 88.8594C250.37 89.1544 250.623 89.5455 250.812 90.0327C251.001 90.5199 251.096 91.1198 251.096 91.8324V92.3295H245.209V91.3153H249.903C249.903 90.8845 249.816 90.5 249.644 90.1619C249.475 89.8239 249.233 89.5571 248.918 89.3615C248.607 89.166 248.239 89.0682 247.814 89.0682C247.347 89.0682 246.943 89.1842 246.601 89.4162C246.263 89.6449 246.003 89.9432 245.821 90.3111C245.639 90.679 245.547 91.0734 245.547 91.4943V92.1705C245.547 92.7472 245.647 93.236 245.846 93.6371C246.048 94.0348 246.328 94.3381 246.686 94.5469C247.044 94.7524 247.46 94.8551 247.934 94.8551C248.242 94.8551 248.52 94.812 248.769 94.7259C249.021 94.6364 249.238 94.5038 249.42 94.3281C249.603 94.1491 249.743 93.9271 249.843 93.6619L250.976 93.9801C250.857 94.3646 250.657 94.7027 250.375 94.9943C250.093 95.2827 249.745 95.508 249.331 95.6705C248.916 95.8295 248.451 95.9091 247.934 95.9091ZM258.892 88.1136L256.069 95.75H254.875L252.051 88.1136H253.324L255.432 94.1989H255.512L257.62 88.1136H258.892ZM263.369 95.9091C262.634 95.9091 261.999 95.7467 261.465 95.4219C260.935 95.0938 260.526 94.6364 260.237 94.0497C259.952 93.4598 259.81 92.7737 259.81 91.9915C259.81 91.2093 259.952 90.5199 260.237 89.9233C260.526 89.3234 260.927 88.8561 261.44 88.5213C261.957 88.1832 262.561 88.0142 263.25 88.0142C263.648 88.0142 264.04 88.0805 264.428 88.2131C264.816 88.3456 265.169 88.5611 265.487 88.8594C265.805 89.1544 266.059 89.5455 266.248 90.0327C266.437 90.5199 266.531 91.1198 266.531 91.8324V92.3295H260.645V91.3153H265.338C265.338 90.8845 265.252 90.5 265.08 90.1619C264.911 89.8239 264.669 89.5571 264.354 89.3615C264.042 89.166 263.674 89.0682 263.25 89.0682C262.783 89.0682 262.378 89.1842 262.037 89.4162C261.699 89.6449 261.439 89.9432 261.256 90.3111C261.074 90.679 260.983 91.0734 260.983 91.4943V92.1705C260.983 92.7472 261.082 93.236 261.281 93.6371C261.483 94.0348 261.763 94.3381 262.121 94.5469C262.479 94.7524 262.895 94.8551 263.369 94.8551C263.678 94.8551 263.956 94.812 264.205 94.7259C264.456 94.6364 264.674 94.5038 264.856 94.3281C265.038 94.1491 265.179 93.9271 265.278 93.6619L266.412 93.9801C266.293 94.3646 266.092 94.7027 265.81 94.9943C265.529 95.2827 265.181 95.508 264.766 95.6705C264.352 95.8295 263.886 95.9091 263.369 95.9091ZM268.316 95.75V88.1136H269.45V89.267H269.529C269.668 88.8892 269.92 88.5826 270.285 88.3473C270.649 88.112 271.06 87.9943 271.518 87.9943C271.604 87.9943 271.712 87.996 271.841 87.9993C271.97 88.0026 272.068 88.0076 272.134 88.0142V89.2074C272.094 89.1974 272.003 89.1825 271.861 89.1626C271.722 89.1394 271.574 89.1278 271.418 89.1278C271.047 89.1278 270.716 89.2057 270.424 89.3615C270.136 89.514 269.907 89.7261 269.738 89.9979C269.572 90.2663 269.489 90.5729 269.489 90.9176V95.75H268.316ZM274.513 98.6136C274.314 98.6136 274.137 98.5971 273.981 98.5639C273.825 98.5341 273.718 98.5043 273.658 98.4744L273.956 97.4403C274.241 97.5133 274.493 97.5398 274.712 97.5199C274.931 97.5 275.125 97.4022 275.294 97.2266C275.466 97.0542 275.623 96.7741 275.766 96.3864L275.985 95.7898L273.161 88.1136H274.434L276.542 94.1989H276.621L278.729 88.1136H280.002L276.76 96.8636C276.614 97.258 276.434 97.5845 276.218 97.843C276.003 98.1049 275.753 98.2988 275.468 98.4247C275.186 98.5507 274.868 98.6136 274.513 98.6136ZM24.1761 116.909C23.4867 116.909 22.8819 116.745 22.3615 116.417C21.8445 116.089 21.4401 115.63 21.1484 115.04C20.8601 114.45 20.7159 113.76 20.7159 112.972C20.7159 112.176 20.8601 111.482 21.1484 110.888C21.4401 110.295 21.8445 109.835 22.3615 109.506C22.8819 109.178 23.4867 109.014 24.1761 109.014C24.8655 109.014 25.4688 109.178 25.9858 109.506C26.5062 109.835 26.9105 110.295 27.1989 110.888C27.4905 111.482 27.6364 112.176 27.6364 112.972C27.6364 113.76 27.4905 114.45 27.1989 115.04C26.9105 115.63 26.5062 116.089 25.9858 116.417C25.4688 116.745 24.8655 116.909 24.1761 116.909ZM24.1761 115.855C24.6998 115.855 25.1307 115.721 25.4688 115.452C25.8068 115.184 26.0571 114.831 26.2195 114.393C26.3819 113.956 26.4631 113.482 26.4631 112.972C26.4631 112.461 26.3819 111.986 26.2195 111.545C26.0571 111.104 25.8068 110.748 25.4688 110.476C25.1307 110.204 24.6998 110.068 24.1761 110.068C23.6525 110.068 23.2216 110.204 22.8835 110.476C22.5455 110.748 22.2952 111.104 22.1328 111.545C21.9704 111.986 21.8892 112.461 21.8892 112.972C21.8892 113.482 21.9704 113.956 22.1328 114.393C22.2952 114.831 22.5455 115.184 22.8835 115.452C23.2216 115.721 23.6525 115.855 24.1761 115.855ZM29.4274 119.614V109.114H30.5609V110.327H30.7001C30.7863 110.194 30.9056 110.025 31.0581 109.82C31.2138 109.611 31.4359 109.425 31.7243 109.263C32.0159 109.097 32.4103 109.014 32.9075 109.014C33.5505 109.014 34.1172 109.175 34.6078 109.496C35.0983 109.818 35.4811 110.274 35.7562 110.864C36.0313 111.454 36.1689 112.15 36.1689 112.952C36.1689 113.76 36.0313 114.461 35.7562 115.055C35.4811 115.645 35.1 116.102 34.6127 116.427C34.1255 116.748 33.5637 116.909 32.9274 116.909C32.4368 116.909 32.0441 116.828 31.7491 116.665C31.4541 116.5 31.2271 116.312 31.068 116.104C30.9089 115.892 30.7863 115.716 30.7001 115.577H30.6007V119.614H29.4274ZM30.5808 112.932C30.5808 113.509 30.6653 114.017 30.8343 114.458C31.0034 114.896 31.2503 115.239 31.5751 115.487C31.8999 115.732 32.2976 115.855 32.7683 115.855C33.2588 115.855 33.6681 115.726 33.9963 115.467C34.3277 115.205 34.5763 114.854 34.742 114.413C34.911 113.969 34.9956 113.475 34.9956 112.932C34.9956 112.395 34.9127 111.911 34.747 111.48C34.5846 111.046 34.3377 110.703 34.0062 110.451C33.6781 110.196 33.2654 110.068 32.7683 110.068C32.291 110.068 31.89 110.189 31.5652 110.431C31.2404 110.67 30.9951 111.004 30.8294 111.435C30.6636 111.863 30.5808 112.362 30.5808 112.932ZM37.9586 116.75V109.114H39.1319V116.75H37.9586ZM38.5552 107.841C38.3265 107.841 38.1293 107.763 37.9636 107.607C37.8012 107.451 37.72 107.264 37.72 107.045C37.72 106.827 37.8012 106.639 37.9636 106.484C38.1293 106.328 38.3265 106.25 38.5552 106.25C38.7839 106.25 38.9795 106.328 39.1419 106.484C39.3076 106.639 39.3904 106.827 39.3904 107.045C39.3904 107.264 39.3076 107.451 39.1419 107.607C38.9795 107.763 38.7839 107.841 38.5552 107.841ZM42.4542 112.156V116.75H41.2809V109.114H42.4144V110.307H42.5138C42.6928 109.919 42.9646 109.607 43.3292 109.372C43.6938 109.134 44.1644 109.014 44.7411 109.014C45.2582 109.014 45.7106 109.12 46.0984 109.332C46.4862 109.541 46.7878 109.859 47.0032 110.287C47.2186 110.711 47.3263 111.248 47.3263 111.898V116.75H46.1531V111.977C46.1531 111.377 45.9973 110.91 45.6857 110.575C45.3742 110.237 44.9466 110.068 44.4031 110.068C44.0285 110.068 43.6938 110.149 43.3988 110.312C43.1071 110.474 42.8768 110.711 42.7077 111.023C42.5387 111.334 42.4542 111.712 42.4542 112.156ZM49.4703 116.75V109.114H50.6436V116.75H49.4703ZM50.0669 107.841C49.8382 107.841 49.641 107.763 49.4753 107.607C49.3129 107.451 49.2317 107.264 49.2317 107.045C49.2317 106.827 49.3129 106.639 49.4753 106.484C49.641 106.328 49.8382 106.25 50.0669 106.25C50.2956 106.25 50.4912 106.328 50.6536 106.484C50.8193 106.639 50.9022 106.827 50.9022 107.045C50.9022 107.264 50.8193 107.451 50.6536 107.607C50.4912 107.763 50.2956 107.841 50.0669 107.841ZM55.8949 116.909C55.2055 116.909 54.6006 116.745 54.0803 116.417C53.5632 116.089 53.1589 115.63 52.8672 115.04C52.5788 114.45 52.4347 113.76 52.4347 112.972C52.4347 112.176 52.5788 111.482 52.8672 110.888C53.1589 110.295 53.5632 109.835 54.0803 109.506C54.6006 109.178 55.2055 109.014 55.8949 109.014C56.5843 109.014 57.1875 109.178 57.7045 109.506C58.2249 109.835 58.6293 110.295 58.9176 110.888C59.2093 111.482 59.3551 112.176 59.3551 112.972C59.3551 113.76 59.2093 114.45 58.9176 115.04C58.6293 115.63 58.2249 116.089 57.7045 116.417C57.1875 116.745 56.5843 116.909 55.8949 116.909ZM55.8949 115.855C56.4186 115.855 56.8494 115.721 57.1875 115.452C57.5256 115.184 57.7758 114.831 57.9382 114.393C58.1006 113.956 58.1818 113.482 58.1818 112.972C58.1818 112.461 58.1006 111.986 57.9382 111.545C57.7758 111.104 57.5256 110.748 57.1875 110.476C56.8494 110.204 56.4186 110.068 55.8949 110.068C55.3712 110.068 54.9403 110.204 54.6023 110.476C54.2642 110.748 54.014 111.104 53.8516 111.545C53.6892 111.986 53.608 112.461 53.608 112.972C53.608 113.482 53.6892 113.956 53.8516 114.393C54.014 114.831 54.2642 115.184 54.6023 115.452C54.9403 115.721 55.3712 115.855 55.8949 115.855ZM62.3194 112.156V116.75H61.1461V109.114H62.2797V110.307H62.3791C62.5581 109.919 62.8298 109.607 63.1944 109.372C63.559 109.134 64.0297 109.014 64.6064 109.014C65.1234 109.014 65.5758 109.12 65.9636 109.332C66.3514 109.541 66.653 109.859 66.8684 110.287C67.0839 110.711 67.1916 111.248 67.1916 111.898V116.75H66.0183V111.977C66.0183 111.377 65.8625 110.91 65.551 110.575C65.2394 110.237 64.8118 110.068 64.2683 110.068C63.8938 110.068 63.559 110.149 63.264 110.312C62.9724 110.474 62.742 110.711 62.573 111.023C62.4039 111.334 62.3194 111.712 62.3194 112.156ZM73.2731 116.75V109.114H74.4066V110.307H74.506C74.6651 109.899 74.922 109.583 75.2766 109.357C75.6313 109.129 76.0572 109.014 76.5543 109.014C77.0581 109.014 77.4774 109.129 77.8121 109.357C78.1502 109.583 78.4137 109.899 78.6026 110.307H78.6822C78.8777 109.912 79.171 109.599 79.5621 109.367C79.9532 109.132 80.4222 109.014 80.9691 109.014C81.6519 109.014 82.2103 109.228 82.6445 109.656C83.0787 110.08 83.2958 110.741 83.2958 111.639V116.75H82.1225V111.639C82.1225 111.076 81.9684 110.673 81.6602 110.431C81.3519 110.189 80.989 110.068 80.5714 110.068C80.0344 110.068 79.6185 110.231 79.3235 110.555C79.0285 110.877 78.881 111.285 78.881 111.778V116.75H77.6879V111.52C77.6879 111.086 77.547 110.736 77.2653 110.471C76.9835 110.202 76.6206 110.068 76.1765 110.068C75.8716 110.068 75.5865 110.149 75.3214 110.312C75.0595 110.474 74.8474 110.7 74.685 110.988C74.5259 111.273 74.4464 111.603 74.4464 111.977V116.75H73.2731ZM87.6882 116.929C87.2043 116.929 86.7652 116.838 86.3707 116.656C85.9763 116.47 85.6631 116.203 85.4311 115.855C85.1991 115.504 85.0831 115.08 85.0831 114.582C85.0831 114.145 85.1693 113.79 85.3416 113.518C85.514 113.243 85.7443 113.028 86.0327 112.872C86.321 112.716 86.6392 112.6 86.9872 112.524C87.3385 112.445 87.6915 112.382 88.0462 112.335C88.5102 112.276 88.8864 112.231 89.1747 112.201C89.4664 112.168 89.6785 112.113 89.8111 112.037C89.947 111.961 90.0149 111.828 90.0149 111.639V111.599C90.0149 111.109 89.8807 110.728 89.6122 110.456C89.3471 110.184 88.9444 110.048 88.4041 110.048C87.844 110.048 87.4048 110.171 87.0866 110.416C86.7685 110.661 86.5447 110.923 86.4155 111.202L85.3018 110.804C85.5007 110.34 85.7659 109.979 86.0973 109.72C86.4321 109.458 86.7966 109.276 87.1911 109.173C87.5888 109.067 87.9799 109.014 88.3643 109.014C88.6096 109.014 88.8913 109.044 89.2095 109.104C89.531 109.16 89.8409 109.278 90.1392 109.457C90.4408 109.636 90.6911 109.906 90.8899 110.267C91.0888 110.628 91.1882 111.112 91.1882 111.719V116.75H90.0149V115.716H89.9553C89.8757 115.882 89.7431 116.059 89.5575 116.248C89.3719 116.437 89.125 116.598 88.8168 116.73C88.5085 116.863 88.1323 116.929 87.6882 116.929ZM87.8672 115.875C88.3312 115.875 88.7223 115.784 89.0405 115.602C89.362 115.419 89.6039 115.184 89.7663 114.896C89.9321 114.607 90.0149 114.304 90.0149 113.986V112.912C89.9652 112.972 89.8558 113.026 89.6868 113.076C89.5211 113.122 89.3288 113.164 89.1101 113.2C88.8946 113.233 88.6842 113.263 88.4787 113.29C88.2765 113.313 88.1125 113.333 87.9865 113.349C87.6816 113.389 87.3965 113.454 87.1314 113.543C86.8696 113.629 86.6574 113.76 86.495 113.936C86.3359 114.108 86.2564 114.344 86.2564 114.642C86.2564 115.05 86.4072 115.358 86.7088 115.567C87.0137 115.772 87.3999 115.875 87.8672 115.875ZM96.6507 109.114V110.108H92.6934V109.114H96.6507ZM93.8468 107.284H95.0201V114.562C95.0201 114.894 95.0681 115.143 95.1642 115.308C95.2637 115.471 95.3896 115.58 95.5421 115.636C95.6979 115.689 95.8619 115.716 96.0343 115.716C96.1635 115.716 96.2696 115.709 96.3525 115.696C96.4353 115.679 96.5016 115.666 96.5513 115.656L96.79 116.71C96.7104 116.74 96.5994 116.77 96.4569 116.8C96.3143 116.833 96.1337 116.849 95.915 116.849C95.5835 116.849 95.2587 116.778 94.9405 116.636C94.6257 116.493 94.3638 116.276 94.155 115.984C93.9495 115.693 93.8468 115.325 93.8468 114.881V107.284ZM101.737 109.114V110.108H97.7793V109.114H101.737ZM98.9327 107.284H100.106V114.562C100.106 114.894 100.154 115.143 100.25 115.308C100.35 115.471 100.476 115.58 100.628 115.636C100.784 115.689 100.948 115.716 101.12 115.716C101.249 115.716 101.356 115.709 101.438 115.696C101.521 115.679 101.588 115.666 101.637 115.656L101.876 116.71C101.796 116.74 101.685 116.77 101.543 116.8C101.4 116.833 101.22 116.849 101.001 116.849C100.669 116.849 100.345 116.778 100.026 116.636C99.7116 116.493 99.4498 116.276 99.2409 115.984C99.0355 115.693 98.9327 115.325 98.9327 114.881V107.284ZM106.621 116.909C105.885 116.909 105.251 116.747 104.717 116.422C104.187 116.094 103.778 115.636 103.489 115.05C103.204 114.46 103.062 113.774 103.062 112.991C103.062 112.209 103.204 111.52 103.489 110.923C103.778 110.323 104.179 109.856 104.692 109.521C105.209 109.183 105.813 109.014 106.502 109.014C106.9 109.014 107.292 109.08 107.68 109.213C108.068 109.346 108.421 109.561 108.739 109.859C109.057 110.154 109.311 110.545 109.5 111.033C109.689 111.52 109.783 112.12 109.783 112.832V113.33H103.897V112.315H108.59C108.59 111.884 108.504 111.5 108.331 111.162C108.162 110.824 107.921 110.557 107.606 110.362C107.294 110.166 106.926 110.068 106.502 110.068C106.035 110.068 105.63 110.184 105.289 110.416C104.951 110.645 104.691 110.943 104.508 111.311C104.326 111.679 104.235 112.073 104.235 112.494V113.17C104.235 113.747 104.334 114.236 104.533 114.637C104.735 115.035 105.015 115.338 105.373 115.547C105.731 115.752 106.147 115.855 106.621 115.855C106.93 115.855 107.208 115.812 107.456 115.726C107.708 115.636 107.925 115.504 108.108 115.328C108.29 115.149 108.431 114.927 108.53 114.662L109.664 114.98C109.545 115.365 109.344 115.703 109.062 115.994C108.781 116.283 108.433 116.508 108.018 116.67C107.604 116.83 107.138 116.909 106.621 116.909ZM111.568 116.75V109.114H112.702V110.267H112.781C112.92 109.889 113.172 109.583 113.537 109.347C113.901 109.112 114.312 108.994 114.77 108.994C114.856 108.994 114.964 108.996 115.093 108.999C115.222 109.003 115.32 109.008 115.386 109.014V110.207C115.346 110.197 115.255 110.183 115.113 110.163C114.974 110.139 114.826 110.128 114.67 110.128C114.299 110.128 113.968 110.206 113.676 110.362C113.388 110.514 113.159 110.726 112.99 110.998C112.824 111.266 112.741 111.573 112.741 111.918V116.75H111.568ZM122.186 110.824L121.132 111.122C121.066 110.946 120.968 110.776 120.839 110.61C120.713 110.441 120.54 110.302 120.322 110.192C120.103 110.083 119.823 110.028 119.482 110.028C119.014 110.028 118.625 110.136 118.313 110.352C118.005 110.564 117.851 110.834 117.851 111.162C117.851 111.454 117.957 111.684 118.169 111.853C118.381 112.022 118.713 112.163 119.163 112.276L120.297 112.554C120.98 112.72 121.488 112.973 121.823 113.315C122.158 113.653 122.325 114.089 122.325 114.622C122.325 115.06 122.199 115.451 121.947 115.795C121.699 116.14 121.351 116.412 120.903 116.611C120.456 116.81 119.936 116.909 119.342 116.909C118.563 116.909 117.919 116.74 117.408 116.402C116.898 116.064 116.575 115.57 116.439 114.92L117.553 114.642C117.659 115.053 117.859 115.361 118.154 115.567C118.452 115.772 118.842 115.875 119.322 115.875C119.869 115.875 120.304 115.759 120.625 115.527C120.95 115.292 121.112 115.01 121.112 114.682C121.112 114.417 121.019 114.195 120.834 114.016C120.648 113.833 120.363 113.697 119.979 113.608L118.706 113.31C118.007 113.144 117.493 112.887 117.165 112.539C116.84 112.188 116.678 111.749 116.678 111.222C116.678 110.791 116.799 110.41 117.04 110.078C117.286 109.747 117.619 109.487 118.04 109.298C118.464 109.109 118.945 109.014 119.482 109.014C120.237 109.014 120.83 109.18 121.261 109.511C121.696 109.843 122.004 110.28 122.186 110.824ZM124.947 116.83C124.701 116.83 124.491 116.742 124.315 116.566C124.14 116.39 124.052 116.18 124.052 115.935C124.052 115.689 124.14 115.479 124.315 115.303C124.491 115.128 124.701 115.04 124.947 115.04C125.192 115.04 125.402 115.128 125.578 115.303C125.754 115.479 125.841 115.689 125.841 115.935C125.841 116.097 125.8 116.246 125.717 116.382C125.638 116.518 125.53 116.627 125.394 116.71C125.261 116.79 125.112 116.83 124.947 116.83Z" fill="white"/>
<rect x="0.5" y="0.75" width="339" height="139" rx="15.5" stroke="#5554AB"/>
<defs>
<linearGradient id="paint0_linear_25_403" x1="0" y1="70.25" x2="340" y2="70.25" gradientUnits="userSpaceOnUse">
<stop stop-color="#211E6B" stop-opacity="0.5"/>
<stop offset="1" stop-color="#212161"/>
</linearGradient>
<clipPath id="clip0_25_403">
<rect width="217" height="24" fill="white" transform="translate(20 18.75)"/>
</clipPath>
<clipPath id="clip1_25_403">
<rect width="6" height="11" fill="white" transform="translate(31 25.25)"/>
</clipPath>
</defs>
</svg>
