<svg width="340" height="141" viewBox="0 0 340 141" fill="none" xmlns="http://www.w3.org/2000/svg">
<rect y="0.25" width="340" height="140" rx="16" fill="url(#paint0_linear_25_424)"/>
<g clip-path="url(#clip0_25_424)">
<rect x="22" y="29.25" width="24" height="24" rx="12" fill="#414787" fill-opacity="0.5"/>
<g clip-path="url(#clip1_25_424)">
<path d="M33.25 36H32.125C31.504 36 31 36.504 31 37.125V45.375C31 45.996 31.504 46.5 32.125 46.5H35.875C36.496 46.5 37 45.996 37 45.375V37.125C37 36.504 36.496 36 35.875 36H34.75M33.25 36V36.75H34.75V36M33.25 36H34.75M33.25 45.375H34.75" stroke="white" stroke-linecap="round" stroke-linejoin="round"/>
</g>
<path d="M63.1534 38.7898C63.0436 38.4451 62.8958 38.1364 62.7102 37.8636C62.5284 37.5871 62.3106 37.3523 62.0568 37.1591C61.803 36.9621 61.5133 36.8125 61.1875 36.7102C60.8655 36.608 60.5114 36.5568 60.125 36.5568C59.4697 36.5568 58.8788 36.7254 58.3523 37.0625C57.8258 37.3996 57.4091 37.8939 57.1023 38.5455C56.7992 39.1932 56.6477 39.9867 56.6477 40.9261C56.6477 41.8693 56.8011 42.6667 57.108 43.3182C57.4148 43.9697 57.8352 44.464 58.3693 44.8011C58.9034 45.1383 59.5114 45.3068 60.1932 45.3068C60.8258 45.3068 61.3769 45.178 61.8466 44.9205C62.3201 44.6629 62.6856 44.2992 62.9432 43.8295C63.2045 43.3561 63.3352 42.7992 63.3352 42.1591L63.7898 42.2443H60.4602V40.7955H65.0341V42.1193C65.0341 43.0966 64.8258 43.9451 64.4091 44.6648C63.9962 45.3807 63.4242 45.9337 62.6932 46.3239C61.9659 46.714 61.1326 46.9091 60.1932 46.9091C59.1402 46.9091 58.2159 46.6667 57.4205 46.1818C56.6288 45.697 56.0114 45.0095 55.5682 44.1193C55.125 43.2254 54.9034 42.1648 54.9034 40.9375C54.9034 40.0095 55.0322 39.1761 55.2898 38.4375C55.5473 37.6989 55.9091 37.072 56.375 36.5568C56.8447 36.0379 57.3958 35.642 58.0284 35.3693C58.6648 35.0928 59.3598 34.9545 60.1136 34.9545C60.7424 34.9545 61.3277 35.0473 61.8693 35.233C62.4148 35.4186 62.8996 35.6818 63.3239 36.0227C63.7519 36.3636 64.1061 36.7689 64.3864 37.2386C64.6667 37.7045 64.8561 38.2216 64.9545 38.7898H63.1534ZM70.8878 46.9261C70.0279 46.9261 69.2874 46.7424 68.6662 46.375C68.0488 46.0038 67.5715 45.483 67.2344 44.8125C66.901 44.1383 66.7344 43.3485 66.7344 42.4432C66.7344 41.5492 66.901 40.7614 67.2344 40.0795C67.5715 39.3977 68.0412 38.8655 68.6435 38.483C69.2495 38.1004 69.9579 37.9091 70.7685 37.9091C71.2609 37.9091 71.7382 37.9905 72.2003 38.1534C72.6624 38.3163 73.0772 38.572 73.4446 38.9205C73.812 39.2689 74.1018 39.7216 74.3139 40.2784C74.526 40.8314 74.6321 41.5038 74.6321 42.2955V42.8977H67.6946V41.625H72.9673C72.9673 41.178 72.8764 40.7822 72.6946 40.4375C72.5128 40.089 72.2571 39.8144 71.9276 39.6136C71.6018 39.4129 71.2192 39.3125 70.7798 39.3125C70.3026 39.3125 69.8859 39.4299 69.5298 39.6648C69.1776 39.8958 68.9048 40.1989 68.7116 40.5739C68.5223 40.9451 68.4276 41.3485 68.4276 41.7841V42.7784C68.4276 43.3617 68.5298 43.858 68.7344 44.267C68.9427 44.6761 69.2325 44.9886 69.6037 45.2045C69.9749 45.4167 70.4086 45.5227 70.9048 45.5227C71.2268 45.5227 71.5204 45.4773 71.7855 45.3864C72.0507 45.2917 72.2798 45.1515 72.473 44.9659C72.6662 44.7803 72.8139 44.5511 72.9162 44.2784L74.5241 44.5682C74.3954 45.0417 74.1643 45.4564 73.831 45.8125C73.5014 46.1648 73.0866 46.4394 72.5866 46.6364C72.0904 46.8295 71.5241 46.9261 70.8878 46.9261ZM80.1932 46.9261C79.375 46.9261 78.661 46.7386 78.0511 46.3636C77.4413 45.9886 76.9678 45.464 76.6307 44.7898C76.2936 44.1155 76.125 43.3277 76.125 42.4261C76.125 41.5208 76.2936 40.7292 76.6307 40.0511C76.9678 39.3731 77.4413 38.8466 78.0511 38.4716C78.661 38.0966 79.375 37.9091 80.1932 37.9091C81.0114 37.9091 81.7254 38.0966 82.3352 38.4716C82.9451 38.8466 83.4186 39.3731 83.7557 40.0511C84.0928 40.7292 84.2614 41.5208 84.2614 42.4261C84.2614 43.3277 84.0928 44.1155 83.7557 44.7898C83.4186 45.464 82.9451 45.9886 82.3352 46.3636C81.7254 46.7386 81.0114 46.9261 80.1932 46.9261ZM80.1989 45.5C80.7292 45.5 81.1686 45.3598 81.517 45.0795C81.8655 44.7992 82.1231 44.4261 82.2898 43.9602C82.4602 43.4943 82.5455 42.9811 82.5455 42.4205C82.5455 41.8636 82.4602 41.3523 82.2898 40.8864C82.1231 40.4167 81.8655 40.0398 81.517 39.7557C81.1686 39.4716 80.7292 39.3295 80.1989 39.3295C79.6648 39.3295 79.2216 39.4716 78.8693 39.7557C78.5208 40.0398 78.2614 40.4167 78.0909 40.8864C77.9242 41.3523 77.8409 41.8636 77.8409 42.4205C77.8409 42.9811 77.9242 43.4943 78.0909 43.9602C78.2614 44.4261 78.5208 44.7992 78.8693 45.0795C79.2216 45.3598 79.6648 45.5 80.1989 45.5ZM90.5284 46.75V35.1136H97.7443V36.625H92.2841V40.1705H97.2273V41.6761H92.2841V46.75H90.5284ZM102.888 46.9261C102.028 46.9261 101.287 46.7424 100.666 46.375C100.049 46.0038 99.5715 45.483 99.2344 44.8125C98.901 44.1383 98.7344 43.3485 98.7344 42.4432C98.7344 41.5492 98.901 40.7614 99.2344 40.0795C99.5715 39.3977 100.041 38.8655 100.643 38.483C101.25 38.1004 101.958 37.9091 102.768 37.9091C103.261 37.9091 103.738 37.9905 104.2 38.1534C104.662 38.3163 105.077 38.572 105.445 38.9205C105.812 39.2689 106.102 39.7216 106.314 40.2784C106.526 40.8314 106.632 41.5038 106.632 42.2955V42.8977H99.6946V41.625H104.967C104.967 41.178 104.876 40.7822 104.695 40.4375C104.513 40.089 104.257 39.8144 103.928 39.6136C103.602 39.4129 103.219 39.3125 102.78 39.3125C102.303 39.3125 101.886 39.4299 101.53 39.6648C101.178 39.8958 100.905 40.1989 100.712 40.5739C100.522 40.9451 100.428 41.3485 100.428 41.7841V42.7784C100.428 43.3617 100.53 43.858 100.734 44.267C100.943 44.6761 101.232 44.9886 101.604 45.2045C101.975 45.4167 102.409 45.5227 102.905 45.5227C103.227 45.5227 103.52 45.4773 103.786 45.3864C104.051 45.2917 104.28 45.1515 104.473 44.9659C104.666 44.7803 104.814 44.5511 104.916 44.2784L106.524 44.5682C106.395 45.0417 106.164 45.4564 105.831 45.8125C105.501 46.1648 105.087 46.4394 104.587 46.6364C104.09 46.8295 103.524 46.9261 102.888 46.9261ZM110.216 41.5682V46.75H108.517V38.0227H110.148V39.4432H110.256C110.456 38.9811 110.771 38.6098 111.199 38.3295C111.631 38.0492 112.174 37.9091 112.83 37.9091C113.424 37.9091 113.945 38.0341 114.392 38.2841C114.839 38.5303 115.186 38.8977 115.432 39.3864C115.678 39.875 115.801 40.4792 115.801 41.1989V46.75H114.102V41.4034C114.102 40.7708 113.938 40.2765 113.608 39.9205C113.278 39.5606 112.826 39.3807 112.25 39.3807C111.856 39.3807 111.506 39.4659 111.199 39.6364C110.896 39.8068 110.655 40.0568 110.477 40.3864C110.303 40.7121 110.216 41.1061 110.216 41.5682ZM121.756 46.9261C120.911 46.9261 120.184 46.7348 119.574 46.3523C118.968 45.9659 118.502 45.4337 118.176 44.7557C117.85 44.0777 117.688 43.3011 117.688 42.4261C117.688 41.5398 117.854 40.7576 118.188 40.0795C118.521 39.3977 118.991 38.8655 119.597 38.483C120.203 38.1004 120.917 37.9091 121.739 37.9091C122.402 37.9091 122.992 38.0322 123.511 38.2784C124.03 38.5208 124.449 38.8617 124.767 39.3011C125.089 39.7405 125.28 40.2538 125.341 40.8409H123.688C123.597 40.4318 123.388 40.0795 123.062 39.7841C122.741 39.4886 122.309 39.3409 121.767 39.3409C121.294 39.3409 120.879 39.4659 120.523 39.7159C120.17 39.9621 119.896 40.3144 119.699 40.7727C119.502 41.2273 119.403 41.7652 119.403 42.3864C119.403 43.0227 119.5 43.572 119.693 44.0341C119.886 44.4962 120.159 44.8542 120.511 45.108C120.867 45.3617 121.286 45.4886 121.767 45.4886C122.089 45.4886 122.381 45.4299 122.642 45.3125C122.907 45.1913 123.129 45.0189 123.307 44.7955C123.489 44.572 123.616 44.303 123.688 43.9886H125.341C125.28 44.553 125.097 45.0568 124.79 45.5C124.483 45.9432 124.072 46.2917 123.557 46.5455C123.045 46.7992 122.445 46.9261 121.756 46.9261ZM127.158 46.75V38.0227H128.857V46.75H127.158ZM128.016 36.6761C127.72 36.6761 127.466 36.5777 127.254 36.3807C127.046 36.1799 126.942 35.9413 126.942 35.6648C126.942 35.3845 127.046 35.1458 127.254 34.9489C127.466 34.7481 127.72 34.6477 128.016 34.6477C128.311 34.6477 128.563 34.7481 128.771 34.9489C128.983 35.1458 129.089 35.3845 129.089 35.6648C129.089 35.9413 128.983 36.1799 128.771 36.3807C128.563 36.5777 128.311 36.6761 128.016 36.6761ZM132.841 41.5682V46.75H131.142V38.0227H132.773V39.4432H132.881C133.081 38.9811 133.396 38.6098 133.824 38.3295C134.256 38.0492 134.799 37.9091 135.455 37.9091C136.049 37.9091 136.57 38.0341 137.017 38.2841C137.464 38.5303 137.811 38.8977 138.057 39.3864C138.303 39.875 138.426 40.4792 138.426 41.1989V46.75H136.727V41.4034C136.727 40.7708 136.563 40.2765 136.233 39.9205C135.903 39.5606 135.451 39.3807 134.875 39.3807C134.481 39.3807 134.131 39.4659 133.824 39.6364C133.521 39.8068 133.28 40.0568 133.102 40.3864C132.928 40.7121 132.841 41.1061 132.841 41.5682ZM144.364 50.2045C143.67 50.2045 143.074 50.1136 142.574 49.9318C142.078 49.75 141.672 49.5095 141.358 49.2102C141.044 48.911 140.809 48.5833 140.653 48.2273L142.114 47.625C142.216 47.7917 142.352 47.9678 142.523 48.1534C142.697 48.3428 142.932 48.5038 143.227 48.6364C143.527 48.7689 143.911 48.8352 144.381 48.8352C145.025 48.8352 145.557 48.678 145.977 48.3636C146.398 48.053 146.608 47.5568 146.608 46.875V45.1591H146.5C146.398 45.3447 146.25 45.5511 146.057 45.7784C145.867 46.0057 145.606 46.2027 145.273 46.3693C144.939 46.536 144.506 46.6193 143.972 46.6193C143.282 46.6193 142.661 46.4583 142.108 46.1364C141.559 45.8106 141.123 45.3314 140.801 44.6989C140.483 44.0625 140.324 43.2803 140.324 42.3523C140.324 41.4242 140.481 40.6288 140.795 39.9659C141.114 39.303 141.549 38.7955 142.102 38.4432C142.655 38.0871 143.282 37.9091 143.983 37.9091C144.525 37.9091 144.962 38 145.295 38.1818C145.629 38.3598 145.888 38.5682 146.074 38.8068C146.263 39.0455 146.409 39.2557 146.511 39.4375H146.636V38.0227H148.301V46.9432C148.301 47.6932 148.127 48.3087 147.778 48.7898C147.43 49.2708 146.958 49.6269 146.364 49.858C145.773 50.089 145.106 50.2045 144.364 50.2045ZM144.347 45.2102C144.835 45.2102 145.248 45.0966 145.585 44.8693C145.926 44.6383 146.184 44.3087 146.358 43.8807C146.536 43.4489 146.625 42.9318 146.625 42.3295C146.625 41.7424 146.538 41.2254 146.364 40.7784C146.189 40.3314 145.934 39.983 145.597 39.733C145.259 39.4792 144.843 39.3523 144.347 39.3523C143.835 39.3523 143.409 39.4848 143.068 39.75C142.727 40.0114 142.47 40.3674 142.295 40.8182C142.125 41.2689 142.04 41.7727 142.04 42.3295C142.04 42.9015 142.127 43.4034 142.301 43.8352C142.475 44.267 142.733 44.6042 143.074 44.8466C143.419 45.089 143.843 45.2102 144.347 45.2102Z" fill="white"/>
</g>
<path d="M21.233 75.0682H22.7045L26.1648 83.5199H26.2841L29.7443 75.0682H31.2159V85.25H30.0625V77.5142H29.9631L26.7812 85.25H25.6676L22.4858 77.5142H22.3864V85.25H21.233V75.0682ZM35.7761 85.429C35.2922 85.429 34.853 85.3378 34.4586 85.1555C34.0642 84.9699 33.751 84.7031 33.519 84.3551C33.287 84.0038 33.171 83.5795 33.171 83.0824C33.171 82.6449 33.2572 82.2902 33.4295 82.0185C33.6019 81.7434 33.8322 81.5279 34.1206 81.3722C34.4089 81.2164 34.7271 81.1004 35.0751 81.0241C35.4264 80.9446 35.7794 80.8816 36.1341 80.8352C36.5981 80.7756 36.9743 80.7308 37.2626 80.701C37.5543 80.6679 37.7664 80.6132 37.899 80.5369C38.0349 80.4607 38.1028 80.3281 38.1028 80.1392V80.0994C38.1028 79.6089 37.9686 79.2277 37.7001 78.956C37.435 78.6842 37.0323 78.5483 36.492 78.5483C35.9319 78.5483 35.4927 78.6709 35.1745 78.9162C34.8564 79.1615 34.6326 79.4233 34.5034 79.7017L33.3897 79.304C33.5886 78.84 33.8538 78.4787 34.1852 78.2202C34.5199 77.9583 34.8845 77.776 35.2789 77.6733C35.6767 77.5672 36.0678 77.5142 36.4522 77.5142C36.6975 77.5142 36.9792 77.544 37.2974 77.6037C37.6189 77.66 37.9288 77.7777 38.2271 77.9567C38.5287 78.1357 38.7789 78.4058 38.9778 78.767C39.1767 79.1283 39.2761 79.6122 39.2761 80.2188V85.25H38.1028V84.2159H38.0431C37.9636 84.3816 37.831 84.5589 37.6454 84.7479C37.4598 84.9368 37.2129 85.0975 36.9047 85.2301C36.5964 85.3627 36.2202 85.429 35.7761 85.429ZM35.9551 84.375C36.4191 84.375 36.8102 84.2839 37.1284 84.1016C37.4499 83.9193 37.6918 83.6839 37.8542 83.3956C38.0199 83.1072 38.1028 82.804 38.1028 82.4858V81.4119C38.0531 81.4716 37.9437 81.5263 37.7747 81.576C37.609 81.6224 37.4167 81.6638 37.198 81.7003C36.9825 81.7334 36.7721 81.7633 36.5666 81.7898C36.3644 81.813 36.2003 81.8329 36.0744 81.8494C35.7695 81.8892 35.4844 81.9538 35.2193 82.0433C34.9574 82.1295 34.7453 82.2604 34.5829 82.4361C34.4238 82.6084 34.3443 82.8437 34.3443 83.142C34.3443 83.5497 34.4951 83.858 34.7967 84.0668C35.1016 84.2723 35.4877 84.375 35.9551 84.375ZM41.4176 85.25V77.6136H42.5511V78.767H42.6307C42.7699 78.3892 43.0218 78.0826 43.3864 77.8473C43.7509 77.612 44.1619 77.4943 44.6193 77.4943C44.7055 77.4943 44.8132 77.496 44.9425 77.4993C45.0717 77.5026 45.1695 77.5076 45.2358 77.5142V78.7074C45.196 78.6974 45.1049 78.6825 44.9624 78.6626C44.8232 78.6394 44.6757 78.6278 44.5199 78.6278C44.1487 78.6278 43.8172 78.7057 43.5256 78.8615C43.2372 79.014 43.0085 79.2261 42.8395 79.4979C42.6738 79.7663 42.5909 80.0729 42.5909 80.4176V85.25H41.4176ZM47.7203 82.4659L47.7005 81.0142H47.9391L51.28 77.6136H52.7317L49.1721 81.2131H49.0726L47.7203 82.4659ZM46.6266 85.25V75.0682H47.7999V85.25H46.6266ZM51.4789 85.25L48.4959 81.4716L49.3311 80.6562L52.9703 85.25H51.4789ZM60.4265 85.429C59.9426 85.429 59.5034 85.3378 59.109 85.1555C58.7146 84.9699 58.4014 84.7031 58.1694 84.3551C57.9374 84.0038 57.8214 83.5795 57.8214 83.0824C57.8214 82.6449 57.9076 82.2902 58.0799 82.0185C58.2522 81.7434 58.4826 81.5279 58.771 81.3722C59.0593 81.2164 59.3775 81.1004 59.7255 81.0241C60.0768 80.9446 60.4298 80.8816 60.7844 80.8352C61.2485 80.7756 61.6246 80.7308 61.913 80.701C62.2047 80.6679 62.4168 80.6132 62.5494 80.5369C62.6853 80.4607 62.7532 80.3281 62.7532 80.1392V80.0994C62.7532 79.6089 62.619 79.2277 62.3505 78.956C62.0853 78.6842 61.6826 78.5483 61.1424 78.5483C60.5823 78.5483 60.1431 78.6709 59.8249 78.9162C59.5067 79.1615 59.283 79.4233 59.1538 79.7017L58.0401 79.304C58.239 78.84 58.5041 78.4787 58.8356 78.2202C59.1703 77.9583 59.5349 77.776 59.9293 77.6733C60.3271 77.5672 60.7182 77.5142 61.1026 77.5142C61.3479 77.5142 61.6296 77.544 61.9478 77.6037C62.2693 77.66 62.5792 77.7777 62.8775 77.9567C63.1791 78.1357 63.4293 78.4058 63.6282 78.767C63.8271 79.1283 63.9265 79.6122 63.9265 80.2188V85.25H62.7532V84.2159H62.6935C62.614 84.3816 62.4814 84.5589 62.2958 84.7479C62.1102 84.9368 61.8633 85.0975 61.555 85.2301C61.2468 85.3627 60.8706 85.429 60.4265 85.429ZM60.6055 84.375C61.0695 84.375 61.4606 84.2839 61.7788 84.1016C62.1003 83.9193 62.3422 83.6839 62.5046 83.3956C62.6703 83.1072 62.7532 82.804 62.7532 82.4858V81.4119C62.7035 81.4716 62.5941 81.5263 62.4251 81.576C62.2594 81.6224 62.0671 81.6638 61.8484 81.7003C61.6329 81.7334 61.4225 81.7633 61.217 81.7898C61.0148 81.813 60.8507 81.8329 60.7248 81.8494C60.4199 81.8892 60.1348 81.9538 59.8697 82.0433C59.6078 82.1295 59.3957 82.2604 59.2333 82.4361C59.0742 82.6084 58.9947 82.8437 58.9947 83.142C58.9947 83.5497 59.1455 83.858 59.4471 84.0668C59.752 84.2723 60.1381 84.375 60.6055 84.375ZM69.389 77.6136V78.608H65.4316V77.6136H69.389ZM66.585 75.7841H67.7583V83.0625C67.7583 83.3939 67.8064 83.6425 67.9025 83.8082C68.002 83.9706 68.1279 84.08 68.2804 84.1364C68.4361 84.1894 68.6002 84.2159 68.7725 84.2159C68.9018 84.2159 69.0079 84.2093 69.0907 84.196C69.1736 84.1795 69.2399 84.1662 69.2896 84.1562L69.5282 85.2102C69.4487 85.2401 69.3377 85.2699 69.1951 85.2997C69.0526 85.3329 68.872 85.3494 68.6532 85.3494C68.3218 85.3494 67.997 85.2782 67.6788 85.1357C67.3639 84.9931 67.1021 84.776 66.8933 84.4844C66.6878 84.1927 66.585 83.8248 66.585 83.3807V75.7841ZM74.475 77.6136V78.608H70.5176V77.6136H74.475ZM71.671 75.7841H72.8443V83.0625C72.8443 83.3939 72.8923 83.6425 72.9885 83.8082C73.0879 83.9706 73.2138 84.08 73.3663 84.1364C73.5221 84.1894 73.6861 84.2159 73.8585 84.2159C73.9877 84.2159 74.0938 84.2093 74.1767 84.196C74.2595 84.1795 74.3258 84.1662 74.3755 84.1562L74.6142 85.2102C74.5346 85.2401 74.4236 85.2699 74.2811 85.2997C74.1386 85.3329 73.9579 85.3494 73.7392 85.3494C73.4077 85.3494 73.0829 85.2782 72.7647 85.1357C72.4499 84.9931 72.188 84.776 71.9792 84.4844C71.7737 84.1927 71.671 83.8248 71.671 83.3807V75.7841ZM79.3596 85.4091C78.6238 85.4091 77.9891 85.2467 77.4554 84.9219C76.9251 84.5938 76.5158 84.1364 76.2275 83.5497C75.9424 82.9598 75.7999 82.2737 75.7999 81.4915C75.7999 80.7093 75.9424 80.0199 76.2275 79.4233C76.5158 78.8234 76.9168 78.3561 77.4306 78.0213C77.9476 77.6832 78.5508 77.5142 79.2402 77.5142C79.638 77.5142 80.0307 77.5805 80.4185 77.7131C80.8063 77.8456 81.1593 78.0611 81.4775 78.3594C81.7956 78.6544 82.0492 79.0455 82.2381 79.5327C82.427 80.0199 82.5215 80.6198 82.5215 81.3324V81.8295H76.6351V80.8153H81.3283C81.3283 80.3845 81.2421 80 81.0698 79.6619C80.9007 79.3239 80.6588 79.0571 80.3439 78.8615C80.0324 78.666 79.6645 78.5682 79.2402 78.5682C78.7729 78.5682 78.3685 78.6842 78.0272 78.9162C77.6891 79.1449 77.4289 79.4432 77.2466 79.8111C77.0643 80.179 76.9732 80.5734 76.9732 80.9943V81.6705C76.9732 82.2472 77.0726 82.736 77.2715 83.1371C77.4737 83.5348 77.7537 83.8381 78.1117 84.0469C78.4696 84.2524 78.8856 84.3551 79.3596 84.3551C79.6678 84.3551 79.9462 84.312 80.1948 84.2259C80.4467 84.1364 80.6638 84.0038 80.8461 83.8281C81.0284 83.6491 81.1692 83.4271 81.2686 83.1619L82.4022 83.4801C82.2828 83.8646 82.0823 84.2027 81.8006 84.4943C81.5189 84.7827 81.1709 85.008 80.7566 85.1705C80.3423 85.3295 79.8766 85.4091 79.3596 85.4091ZM85.4796 80.6562V85.25H84.3063V77.6136H85.4398V78.8068H85.5392C85.7182 78.419 85.99 78.1075 86.3546 77.8722C86.7192 77.6335 87.1898 77.5142 87.7665 77.5142C88.2836 77.5142 88.736 77.6203 89.1238 77.8324C89.5115 78.0412 89.8132 78.3594 90.0286 78.7869C90.244 79.2112 90.3517 79.7481 90.3517 80.3977V85.25H89.1784V80.4773C89.1784 79.8774 89.0227 79.41 88.7111 79.0753C88.3996 78.7372 87.972 78.5682 87.4284 78.5682C87.0539 78.5682 86.7192 78.6494 86.4242 78.8118C86.1325 78.9742 85.9022 79.2112 85.7331 79.5227C85.5641 79.8343 85.4796 80.2121 85.4796 80.6562ZM95.3793 85.4091C94.7429 85.4091 94.1811 85.2483 93.6939 84.9268C93.2067 84.602 92.8255 84.1446 92.5504 83.5547C92.2753 82.9614 92.1378 82.2604 92.1378 81.4517C92.1378 80.6496 92.2753 79.9536 92.5504 79.3636C92.8255 78.7737 93.2083 78.3179 93.6989 77.9964C94.1894 77.675 94.7562 77.5142 95.3991 77.5142C95.8963 77.5142 96.2891 77.5971 96.5774 77.7628C96.8691 77.9252 97.0911 78.1108 97.2436 78.3196C97.3994 78.5251 97.5204 78.6941 97.6065 78.8267H97.706V75.0682H98.8793V85.25H97.7457V84.0767H97.6065C97.5204 84.2159 97.3977 84.3916 97.2386 84.6037C97.0795 84.8125 96.8525 84.9998 96.5575 85.1655C96.2625 85.3279 95.8698 85.4091 95.3793 85.4091ZM95.5384 84.3551C96.009 84.3551 96.4067 84.2325 96.7315 83.9872C97.0563 83.7386 97.3033 83.3956 97.4723 82.9581C97.6413 82.5173 97.7259 82.0085 97.7259 81.4318C97.7259 80.8617 97.643 80.3629 97.4773 79.9354C97.3116 79.5045 97.0663 79.1697 96.7415 78.9311C96.4167 78.6892 96.0156 78.5682 95.5384 78.5682C95.0412 78.5682 94.6269 78.6958 94.2955 78.951C93.9673 79.2029 93.7204 79.5459 93.5547 79.9801C93.3923 80.411 93.3111 80.8949 93.3111 81.4318C93.3111 81.9754 93.3939 82.4692 93.5597 82.9134C93.7287 83.3542 93.9773 83.7055 94.3054 83.9673C94.6368 84.2259 95.0478 84.3551 95.5384 84.3551ZM103.438 85.429C102.954 85.429 102.515 85.3378 102.121 85.1555C101.726 84.9699 101.413 84.7031 101.181 84.3551C100.949 84.0038 100.833 83.5795 100.833 83.0824C100.833 82.6449 100.919 82.2902 101.092 82.0185C101.264 81.7434 101.494 81.5279 101.783 81.3722C102.071 81.2164 102.389 81.1004 102.737 81.0241C103.089 80.9446 103.442 80.8816 103.796 80.8352C104.26 80.7756 104.636 80.7308 104.925 80.701C105.216 80.6679 105.429 80.6132 105.561 80.5369C105.697 80.4607 105.765 80.3281 105.765 80.1392V80.0994C105.765 79.6089 105.631 79.2277 105.362 78.956C105.097 78.6842 104.694 78.5483 104.154 78.5483C103.594 78.5483 103.155 78.6709 102.837 78.9162C102.518 79.1615 102.295 79.4233 102.165 79.7017L101.052 79.304C101.251 78.84 101.516 78.4787 101.847 78.2202C102.182 77.9583 102.547 77.776 102.941 77.6733C103.339 77.5672 103.73 77.5142 104.114 77.5142C104.36 77.5142 104.641 77.544 104.96 77.6037C105.281 77.66 105.591 77.7777 105.889 77.9567C106.191 78.1357 106.441 78.4058 106.64 78.767C106.839 79.1283 106.938 79.6122 106.938 80.2188V85.25H105.765V84.2159H105.705C105.626 84.3816 105.493 84.5589 105.308 84.7479C105.122 84.9368 104.875 85.0975 104.567 85.2301C104.259 85.3627 103.882 85.429 103.438 85.429ZM103.617 84.375C104.081 84.375 104.472 84.2839 104.79 84.1016C105.112 83.9193 105.354 83.6839 105.516 83.3956C105.682 83.1072 105.765 82.804 105.765 82.4858V81.4119C105.715 81.4716 105.606 81.5263 105.437 81.576C105.271 81.6224 105.079 81.6638 104.86 81.7003C104.645 81.7334 104.434 81.7633 104.229 81.7898C104.027 81.813 103.862 81.8329 103.737 81.8494C103.432 81.8892 103.147 81.9538 102.881 82.0433C102.62 82.1295 102.407 82.2604 102.245 82.4361C102.086 82.6084 102.006 82.8437 102.006 83.142C102.006 83.5497 102.157 83.858 102.459 84.0668C102.764 84.2723 103.15 84.375 103.617 84.375ZM110.253 80.6562V85.25H109.08V77.6136H110.213V78.8068H110.313C110.492 78.419 110.763 78.1075 111.128 77.8722C111.493 77.6335 111.963 77.5142 112.54 77.5142C113.057 77.5142 113.509 77.6203 113.897 77.8324C114.285 78.0412 114.587 78.3594 114.802 78.7869C115.017 79.2112 115.125 79.7481 115.125 80.3977V85.25H113.952V80.4773C113.952 79.8774 113.796 79.41 113.485 79.0753C113.173 78.7372 112.745 78.5682 112.202 78.5682C111.827 78.5682 111.493 78.6494 111.198 78.8118C110.906 78.9742 110.676 79.2112 110.507 79.5227C110.338 79.8343 110.253 80.2121 110.253 80.6562ZM120.371 85.4091C119.656 85.4091 119.039 85.2401 118.522 84.902C118.005 84.5639 117.607 84.0982 117.329 83.505C117.05 82.9117 116.911 82.2339 116.911 81.4716C116.911 80.696 117.054 80.0116 117.339 79.4183C117.627 78.8217 118.028 78.3561 118.542 78.0213C119.059 77.6832 119.662 77.5142 120.352 77.5142C120.888 77.5142 121.372 77.6136 121.803 77.8125C122.234 78.0114 122.587 78.2898 122.862 78.6477C123.137 79.0057 123.308 79.4233 123.374 79.9006H122.201C122.112 79.5526 121.913 79.2443 121.604 78.9759C121.299 78.7041 120.888 78.5682 120.371 78.5682C119.914 78.5682 119.513 78.6875 119.168 78.9261C118.827 79.1615 118.56 79.4946 118.368 79.9254C118.179 80.353 118.085 80.8551 118.085 81.4318C118.085 82.0218 118.177 82.5355 118.363 82.973C118.552 83.4105 118.817 83.7502 119.158 83.9922C119.503 84.2341 119.907 84.3551 120.371 84.3551C120.676 84.3551 120.953 84.3021 121.202 84.196C121.45 84.09 121.661 83.9375 121.833 83.7386C122.005 83.5398 122.128 83.3011 122.201 83.0227H123.374C123.308 83.4735 123.144 83.8795 122.882 84.2408C122.624 84.5987 122.281 84.8838 121.853 85.0959C121.429 85.3047 120.935 85.4091 120.371 85.4091ZM128.291 85.4091C127.555 85.4091 126.921 85.2467 126.387 84.9219C125.857 84.5938 125.447 84.1364 125.159 83.5497C124.874 82.9598 124.732 82.2737 124.732 81.4915C124.732 80.7093 124.874 80.0199 125.159 79.4233C125.447 78.8234 125.848 78.3561 126.362 78.0213C126.879 77.6832 127.482 77.5142 128.172 77.5142C128.57 77.5142 128.962 77.5805 129.35 77.7131C129.738 77.8456 130.091 78.0611 130.409 78.3594C130.727 78.6544 130.981 79.0455 131.17 79.5327C131.359 80.0199 131.453 80.6198 131.453 81.3324V81.8295H125.567V80.8153H130.26C130.26 80.3845 130.174 80 130.001 79.6619C129.832 79.3239 129.59 79.0571 129.276 78.8615C128.964 78.666 128.596 78.5682 128.172 78.5682C127.705 78.5682 127.3 78.6842 126.959 78.9162C126.621 79.1449 126.361 79.4432 126.178 79.8111C125.996 80.179 125.905 80.5734 125.905 80.9943V81.6705C125.905 82.2472 126.004 82.736 126.203 83.1371C126.405 83.5348 126.685 83.8381 127.043 84.0469C127.401 84.2524 127.817 84.3551 128.291 84.3551C128.599 84.3551 128.878 84.312 129.126 84.2259C129.378 84.1364 129.595 84.0038 129.778 83.8281C129.96 83.6491 130.101 83.4271 130.2 83.1619L131.334 83.4801C131.214 83.8646 131.014 84.2027 130.732 84.4943C130.451 84.7827 130.103 85.008 129.688 85.1705C129.274 85.3295 128.808 85.4091 128.291 85.4091ZM140.377 85.4091C139.641 85.4091 139.007 85.2467 138.473 84.9219C137.943 84.5938 137.533 84.1364 137.245 83.5497C136.96 82.9598 136.817 82.2737 136.817 81.4915C136.817 80.7093 136.96 80.0199 137.245 79.4233C137.533 78.8234 137.934 78.3561 138.448 78.0213C138.965 77.6832 139.568 77.5142 140.258 77.5142C140.656 77.5142 141.048 77.5805 141.436 77.7131C141.824 77.8456 142.177 78.0611 142.495 78.3594C142.813 78.6544 143.067 79.0455 143.256 79.5327C143.445 80.0199 143.539 80.6198 143.539 81.3324V81.8295H137.653V80.8153H142.346C142.346 80.3845 142.26 80 142.087 79.6619C141.918 79.3239 141.676 79.0571 141.362 78.8615C141.05 78.666 140.682 78.5682 140.258 78.5682C139.79 78.5682 139.386 78.6842 139.045 78.9162C138.707 79.1449 138.446 79.4432 138.264 79.8111C138.082 80.179 137.991 80.5734 137.991 80.9943V81.6705C137.991 82.2472 138.09 82.736 138.289 83.1371C138.491 83.5348 138.771 83.8381 139.129 84.0469C139.487 84.2524 139.903 84.3551 140.377 84.3551C140.685 84.3551 140.964 84.312 141.212 84.2259C141.464 84.1364 141.681 84.0038 141.864 83.8281C142.046 83.6491 142.187 83.4271 142.286 83.1619L143.42 83.4801C143.3 83.8646 143.1 84.2027 142.818 84.4943C142.536 84.7827 142.188 85.008 141.774 85.1705C141.36 85.3295 140.894 85.4091 140.377 85.4091ZM148.724 77.6136V78.608H144.608V77.6136H148.724ZM145.841 85.25V76.5597C145.841 76.1222 145.944 75.7576 146.149 75.4659C146.355 75.1742 146.621 74.9555 146.95 74.8097C147.278 74.6638 147.624 74.5909 147.989 74.5909C148.277 74.5909 148.512 74.6141 148.695 74.6605C148.877 74.7069 149.013 74.75 149.102 74.7898L148.764 75.804C148.705 75.7841 148.622 75.7592 148.516 75.7294C148.413 75.6996 148.277 75.6847 148.108 75.6847C147.72 75.6847 147.44 75.7824 147.268 75.978C147.099 76.1735 147.014 76.4602 147.014 76.8381V85.25H145.841ZM153.769 77.6136V78.608H149.653V77.6136H153.769ZM150.886 85.25V76.5597C150.886 76.1222 150.989 75.7576 151.194 75.4659C151.4 75.1742 151.666 74.9555 151.994 74.8097C152.323 74.6638 152.669 74.5909 153.034 74.5909C153.322 74.5909 153.557 74.6141 153.74 74.6605C153.922 74.7069 154.058 74.75 154.147 74.7898L153.809 75.804C153.749 75.7841 153.667 75.7592 153.561 75.7294C153.458 75.6996 153.322 75.6847 153.153 75.6847C152.765 75.6847 152.485 75.7824 152.313 75.978C152.144 76.1735 152.059 76.4602 152.059 76.8381V85.25H150.886ZM158.202 85.4091C157.512 85.4091 156.907 85.245 156.387 84.9169C155.87 84.5888 155.465 84.1297 155.174 83.5398C154.885 82.9498 154.741 82.2604 154.741 81.4716C154.741 80.6761 154.885 79.9818 155.174 79.3885C155.465 78.7952 155.87 78.3345 156.387 78.0064C156.907 77.6783 157.512 77.5142 158.202 77.5142C158.891 77.5142 159.494 77.6783 160.011 78.0064C160.532 78.3345 160.936 78.7952 161.224 79.3885C161.516 79.9818 161.662 80.6761 161.662 81.4716C161.662 82.2604 161.516 82.9498 161.224 83.5398C160.936 84.1297 160.532 84.5888 160.011 84.9169C159.494 85.245 158.891 85.4091 158.202 85.4091ZM158.202 84.3551C158.725 84.3551 159.156 84.2209 159.494 83.9524C159.832 83.6839 160.082 83.331 160.245 82.8935C160.407 82.456 160.488 81.982 160.488 81.4716C160.488 80.9612 160.407 80.4856 160.245 80.0447C160.082 79.6039 159.832 79.2476 159.494 78.9759C159.156 78.7041 158.725 78.5682 158.202 78.5682C157.678 78.5682 157.247 78.7041 156.909 78.9759C156.571 79.2476 156.321 79.6039 156.158 80.0447C155.996 80.4856 155.915 80.9612 155.915 81.4716C155.915 81.982 155.996 82.456 156.158 82.8935C156.321 83.331 156.571 83.6839 156.909 83.9524C157.247 84.2209 157.678 84.3551 158.202 84.3551ZM163.453 85.25V77.6136H164.586V78.767H164.666C164.805 78.3892 165.057 78.0826 165.422 77.8473C165.786 77.612 166.197 77.4943 166.654 77.4943C166.741 77.4943 166.848 77.496 166.978 77.4993C167.107 77.5026 167.205 77.5076 167.271 77.5142V78.7074C167.231 78.6974 167.14 78.6825 166.998 78.6626C166.858 78.6394 166.711 78.6278 166.555 78.6278C166.184 78.6278 165.852 78.7057 165.561 78.8615C165.272 79.014 165.044 79.2261 164.875 79.4979C164.709 79.7663 164.626 80.0729 164.626 80.4176V85.25H163.453ZM172.461 77.6136V78.608H168.504V77.6136H172.461ZM169.657 75.7841H170.831V83.0625C170.831 83.3939 170.879 83.6425 170.975 83.8082C171.074 83.9706 171.2 84.08 171.353 84.1364C171.508 84.1894 171.672 84.2159 171.845 84.2159C171.974 84.2159 172.08 84.2093 172.163 84.196C172.246 84.1795 172.312 84.1662 172.362 84.1562L172.6 85.2102C172.521 85.2401 172.41 85.2699 172.267 85.2997C172.125 85.3329 171.944 85.3494 171.725 85.3494C171.394 85.3494 171.069 85.2782 170.751 85.1357C170.436 84.9931 170.174 84.776 169.966 84.4844C169.76 84.1927 169.657 83.8248 169.657 83.3807V75.7841ZM175.564 75.0682V85.25H174.39V75.0682H175.564ZM180.914 85.4091C180.178 85.4091 179.544 85.2467 179.01 84.9219C178.48 84.5938 178.07 84.1364 177.782 83.5497C177.497 82.9598 177.355 82.2737 177.355 81.4915C177.355 80.7093 177.497 80.0199 177.782 79.4233C178.07 78.8234 178.472 78.3561 178.985 78.0213C179.502 77.6832 180.106 77.5142 180.795 77.5142C181.193 77.5142 181.585 77.5805 181.973 77.7131C182.361 77.8456 182.714 78.0611 183.032 78.3594C183.35 78.6544 183.604 79.0455 183.793 79.5327C183.982 80.0199 184.076 80.6198 184.076 81.3324V81.8295H178.19V80.8153H182.883C182.883 80.3845 182.797 80 182.624 79.6619C182.455 79.3239 182.213 79.0571 181.899 78.8615C181.587 78.666 181.219 78.5682 180.795 78.5682C180.328 78.5682 179.923 78.6842 179.582 78.9162C179.244 79.1449 178.984 79.4432 178.801 79.8111C178.619 80.179 178.528 80.5734 178.528 80.9943V81.6705C178.528 82.2472 178.627 82.736 178.826 83.1371C179.028 83.5348 179.308 83.8381 179.666 84.0469C180.024 84.2524 180.44 84.3551 180.914 84.3551C181.222 84.3551 181.501 84.312 181.749 84.2259C182.001 84.1364 182.218 84.0038 182.401 83.8281C182.583 83.6491 182.724 83.4271 182.823 83.1619L183.957 83.4801C183.838 83.8646 183.637 84.2027 183.355 84.4943C183.074 84.7827 182.726 85.008 182.311 85.1705C181.897 85.3295 181.431 85.4091 180.914 85.4091ZM191.27 79.3239L190.216 79.6222C190.15 79.4465 190.052 79.2758 189.923 79.1101C189.797 78.9411 189.624 78.8018 189.406 78.6925C189.187 78.5831 188.907 78.5284 188.566 78.5284C188.098 78.5284 187.709 78.6361 187.397 78.8516C187.089 79.0637 186.935 79.3338 186.935 79.6619C186.935 79.9536 187.041 80.1839 187.253 80.353C187.465 80.522 187.797 80.6629 188.247 80.7756L189.381 81.054C190.064 81.2197 190.572 81.4732 190.907 81.8146C191.242 82.1527 191.409 82.5885 191.409 83.1222C191.409 83.5597 191.283 83.9508 191.031 84.2955C190.783 84.6402 190.435 84.9119 189.987 85.1108C189.54 85.3097 189.02 85.4091 188.426 85.4091C187.647 85.4091 187.003 85.2401 186.492 84.902C185.982 84.5639 185.659 84.0701 185.523 83.4205L186.637 83.142C186.743 83.553 186.943 83.8613 187.238 84.0668C187.536 84.2723 187.926 84.375 188.406 84.375C188.953 84.375 189.387 84.259 189.709 84.027C190.034 83.7917 190.196 83.5099 190.196 83.1818C190.196 82.9167 190.103 82.6946 189.918 82.5156C189.732 82.3333 189.447 82.1974 189.063 82.108L187.79 81.8097C187.091 81.6439 186.577 81.3871 186.249 81.0391C185.924 80.6877 185.762 80.2486 185.762 79.7216C185.762 79.2907 185.883 78.9096 186.124 78.5781C186.37 78.2467 186.703 77.9865 187.124 77.7976C187.548 77.6087 188.029 77.5142 188.566 77.5142C189.321 77.5142 189.914 77.6799 190.345 78.0114C190.78 78.3428 191.088 78.7803 191.27 79.3239ZM198.585 79.3239L197.531 79.6222C197.464 79.4465 197.366 79.2758 197.237 79.1101C197.111 78.9411 196.939 78.8018 196.72 78.6925C196.501 78.5831 196.221 78.5284 195.88 78.5284C195.413 78.5284 195.023 78.6361 194.712 78.8516C194.403 79.0637 194.249 79.3338 194.249 79.6619C194.249 79.9536 194.355 80.1839 194.567 80.353C194.78 80.522 195.111 80.6629 195.562 80.7756L196.695 81.054C197.378 81.2197 197.887 81.4732 198.222 81.8146C198.556 82.1527 198.724 82.5885 198.724 83.1222C198.724 83.5597 198.598 83.9508 198.346 84.2955C198.097 84.6402 197.749 84.9119 197.302 85.1108C196.854 85.3097 196.334 85.4091 195.741 85.4091C194.962 85.4091 194.317 85.2401 193.807 84.902C193.296 84.5639 192.973 84.0701 192.837 83.4205L193.951 83.142C194.057 83.553 194.258 83.8613 194.553 84.0668C194.851 84.2723 195.24 84.375 195.721 84.375C196.268 84.375 196.702 84.259 197.023 84.027C197.348 83.7917 197.511 83.5099 197.511 83.1818C197.511 82.9167 197.418 82.6946 197.232 82.5156C197.047 82.3333 196.762 82.1974 196.377 82.108L195.104 81.8097C194.405 81.6439 193.891 81.3871 193.563 81.0391C193.238 80.6877 193.076 80.2486 193.076 79.7216C193.076 79.2907 193.197 78.9096 193.439 78.5781C193.684 78.2467 194.017 77.9865 194.438 77.7976C194.862 77.6087 195.343 77.5142 195.88 77.5142C196.636 77.5142 197.229 77.6799 197.66 78.0114C198.094 78.3428 198.402 78.7803 198.585 79.3239ZM201.663 75.0682V85.25H200.49V75.0682H201.663ZM204.568 88.1136C204.369 88.1136 204.192 88.0971 204.036 88.0639C203.88 88.0341 203.772 88.0043 203.713 87.9744L204.011 86.9403C204.296 87.0133 204.548 87.0398 204.767 87.0199C204.985 87 205.179 86.9022 205.348 86.7266C205.521 86.5542 205.678 86.2741 205.821 85.8864L206.039 85.2898L203.216 77.6136H204.488L206.596 83.6989H206.676L208.784 77.6136H210.056L206.815 86.3636C206.669 86.758 206.489 87.0845 206.273 87.343C206.058 87.6049 205.807 87.7988 205.522 87.9247C205.241 88.0507 204.922 88.1136 204.568 88.1136ZM217.273 85.25L214.946 77.6136H216.179L217.83 83.4602H217.909L219.54 77.6136H220.793L222.403 83.4403H222.483L224.134 77.6136H225.366L223.04 85.25H221.886L220.216 79.3835H220.097L218.426 85.25H217.273ZM228.091 80.6562V85.25H226.918V75.0682H228.091V78.8068H228.19C228.369 78.4124 228.638 78.0992 228.996 77.8672C229.357 77.6319 229.838 77.5142 230.438 77.5142C230.958 77.5142 231.414 77.6186 231.805 77.8274C232.196 78.0329 232.499 78.3494 232.714 78.777C232.933 79.2012 233.043 79.7415 233.043 80.3977V85.25H231.869V80.4773C231.869 79.8707 231.712 79.4018 231.397 79.0703C231.085 78.7356 230.653 78.5682 230.099 78.5682C229.715 78.5682 229.37 78.6494 229.065 78.8118C228.764 78.9742 228.525 79.2112 228.349 79.5227C228.177 79.8343 228.091 80.2121 228.091 80.6562ZM235.189 85.25V77.6136H236.362V85.25H235.189ZM235.786 76.3409C235.557 76.3409 235.36 76.263 235.194 76.1072C235.032 75.9515 234.95 75.7642 234.95 75.5455C234.95 75.3267 235.032 75.1394 235.194 74.9837C235.36 74.8279 235.557 74.75 235.786 74.75C236.014 74.75 236.21 74.8279 236.372 74.9837C236.538 75.1394 236.621 75.3267 236.621 75.5455C236.621 75.7642 236.538 75.9515 236.372 76.1072C236.21 76.263 236.014 76.3409 235.786 76.3409ZM239.685 75.0682V85.25H238.511V75.0682H239.685ZM245.035 85.4091C244.3 85.4091 243.665 85.2467 243.131 84.9219C242.601 84.5938 242.192 84.1364 241.903 83.5497C241.618 82.9598 241.476 82.2737 241.476 81.4915C241.476 80.7093 241.618 80.0199 241.903 79.4233C242.192 78.8234 242.593 78.3561 243.106 78.0213C243.623 77.6832 244.227 77.5142 244.916 77.5142C245.314 77.5142 245.706 77.5805 246.094 77.7131C246.482 77.8456 246.835 78.0611 247.153 78.3594C247.471 78.6544 247.725 79.0455 247.914 79.5327C248.103 80.0199 248.197 80.6198 248.197 81.3324V81.8295H242.311V80.8153H247.004C247.004 80.3845 246.918 80 246.746 79.6619C246.577 79.3239 246.335 79.0571 246.02 78.8615C245.708 78.666 245.34 78.5682 244.916 78.5682C244.449 78.5682 244.044 78.6842 243.703 78.9162C243.365 79.1449 243.105 79.4432 242.922 79.8111C242.74 80.179 242.649 80.5734 242.649 80.9943V81.6705C242.649 82.2472 242.748 82.736 242.947 83.1371C243.149 83.5348 243.43 83.8381 243.787 84.0469C244.145 84.2524 244.561 84.3551 245.035 84.3551C245.344 84.3551 245.622 84.312 245.871 84.2259C246.122 84.1364 246.34 84.0038 246.522 83.8281C246.704 83.6491 246.845 83.4271 246.944 83.1619L248.078 83.4801C247.959 83.8646 247.758 84.2027 247.476 84.4943C247.195 84.7827 246.847 85.008 246.432 85.1705C246.018 85.3295 245.552 85.4091 245.035 85.4091ZM259.329 79.3239L258.275 79.6222C258.208 79.4465 258.111 79.2758 257.981 79.1101C257.855 78.9411 257.683 78.8018 257.464 78.6925C257.246 78.5831 256.965 78.5284 256.624 78.5284C256.157 78.5284 255.767 78.6361 255.456 78.8516C255.148 79.0637 254.993 79.3338 254.993 79.6619C254.993 79.9536 255.099 80.1839 255.312 80.353C255.524 80.522 255.855 80.6629 256.306 80.7756L257.439 81.054C258.122 81.2197 258.631 81.4732 258.966 81.8146C259.3 82.1527 259.468 82.5885 259.468 83.1222C259.468 83.5597 259.342 83.9508 259.09 84.2955C258.841 84.6402 258.493 84.9119 258.046 85.1108C257.599 85.3097 257.078 85.4091 256.485 85.4091C255.706 85.4091 255.061 85.2401 254.551 84.902C254.041 84.5639 253.717 84.0701 253.581 83.4205L254.695 83.142C254.801 83.553 255.002 83.8613 255.297 84.0668C255.595 84.2723 255.984 84.375 256.465 84.375C257.012 84.375 257.446 84.259 257.768 84.027C258.092 83.7917 258.255 83.5099 258.255 83.1818C258.255 82.9167 258.162 82.6946 257.976 82.5156C257.791 82.3333 257.506 82.1974 257.121 82.108L255.849 81.8097C255.149 81.6439 254.635 81.3871 254.307 81.0391C253.983 80.6877 253.82 80.2486 253.82 79.7216C253.82 79.2907 253.941 78.9096 254.183 78.5781C254.428 78.2467 254.761 77.9865 255.182 77.7976C255.607 77.6087 256.087 77.5142 256.624 77.5142C257.38 77.5142 257.973 77.6799 258.404 78.0114C258.838 78.3428 259.146 78.7803 259.329 79.3239ZM264.555 77.6136V78.608H260.598V77.6136H264.555ZM261.751 75.7841H262.924V83.0625C262.924 83.3939 262.972 83.6425 263.069 83.8082C263.168 83.9706 263.294 84.08 263.446 84.1364C263.602 84.1894 263.766 84.2159 263.939 84.2159C264.068 84.2159 264.174 84.2093 264.257 84.196C264.34 84.1795 264.406 84.1662 264.456 84.1562L264.694 85.2102C264.615 85.2401 264.504 85.2699 264.361 85.2997C264.219 85.3329 264.038 85.3494 263.819 85.3494C263.488 85.3494 263.163 85.2782 262.845 85.1357C262.53 84.9931 262.268 84.776 262.059 84.4844C261.854 84.1927 261.751 83.8248 261.751 83.3807V75.7841ZM268.567 85.429C268.083 85.429 267.644 85.3378 267.25 85.1555C266.855 84.9699 266.542 84.7031 266.31 84.3551C266.078 84.0038 265.962 83.5795 265.962 83.0824C265.962 82.6449 266.048 82.2902 266.221 82.0185C266.393 81.7434 266.623 81.5279 266.912 81.3722C267.2 81.2164 267.518 81.1004 267.866 81.0241C268.217 80.9446 268.57 80.8816 268.925 80.8352C269.389 80.7756 269.765 80.7308 270.054 80.701C270.345 80.6679 270.557 80.6132 270.69 80.5369C270.826 80.4607 270.894 80.3281 270.894 80.1392V80.0994C270.894 79.6089 270.76 79.2277 270.491 78.956C270.226 78.6842 269.823 78.5483 269.283 78.5483C268.723 78.5483 268.284 78.6709 267.966 78.9162C267.647 79.1615 267.424 79.4233 267.294 79.7017L266.181 79.304C266.38 78.84 266.645 78.4787 266.976 78.2202C267.311 77.9583 267.676 77.776 268.07 77.6733C268.468 77.5672 268.859 77.5142 269.243 77.5142C269.489 77.5142 269.77 77.544 270.088 77.6037C270.41 77.66 270.72 77.7777 271.018 77.9567C271.32 78.1357 271.57 78.4058 271.769 78.767C271.968 79.1283 272.067 79.6122 272.067 80.2188V85.25H270.894V84.2159H270.834C270.755 84.3816 270.622 84.5589 270.436 84.7479C270.251 84.9368 270.004 85.0975 269.696 85.2301C269.387 85.3627 269.011 85.429 268.567 85.429ZM268.746 84.375C269.21 84.375 269.601 84.2839 269.919 84.1016C270.241 83.9193 270.483 83.6839 270.645 83.3956C270.811 83.1072 270.894 82.804 270.894 82.4858V81.4119C270.844 81.4716 270.735 81.5263 270.566 81.576C270.4 81.6224 270.208 81.6638 269.989 81.7003C269.774 81.7334 269.563 81.7633 269.358 81.7898C269.155 81.813 268.991 81.8329 268.865 81.8494C268.56 81.8892 268.275 81.9538 268.01 82.0433C267.748 82.1295 267.536 82.2604 267.374 82.4361C267.215 82.6084 267.135 82.8437 267.135 83.142C267.135 83.5497 267.286 83.858 267.588 84.0668C267.893 84.2723 268.279 84.375 268.746 84.375ZM274.691 88.1136C274.492 88.1136 274.315 88.0971 274.159 88.0639C274.003 88.0341 273.895 88.0043 273.836 87.9744L274.134 86.9403C274.419 87.0133 274.671 87.0398 274.89 87.0199C275.108 87 275.302 86.9022 275.471 86.7266C275.644 86.5542 275.801 86.2741 275.944 85.8864L276.162 85.2898L273.339 77.6136H274.611L276.719 83.6989H276.799L278.907 77.6136H280.18L276.938 86.3636C276.792 86.758 276.612 87.0845 276.396 87.343C276.181 87.6049 275.93 87.7988 275.645 87.9247C275.364 88.0507 275.046 88.1136 274.691 88.1136ZM281.728 85.25V77.6136H282.901V85.25H281.728ZM282.325 76.3409C282.096 76.3409 281.899 76.263 281.733 76.1072C281.571 75.9515 281.49 75.7642 281.49 75.5455C281.49 75.3267 281.571 75.1394 281.733 74.9837C281.899 74.8279 282.096 74.75 282.325 74.75C282.553 74.75 282.749 74.8279 282.911 74.9837C283.077 75.1394 283.16 75.3267 283.16 75.5455C283.16 75.7642 283.077 75.9515 282.911 76.1072C282.749 76.263 282.553 76.3409 282.325 76.3409ZM286.224 80.6562V85.25H285.05V77.6136H286.184V78.8068H286.283C286.462 78.419 286.734 78.1075 287.099 77.8722C287.463 77.6335 287.934 77.5142 288.511 77.5142C289.028 77.5142 289.48 77.6203 289.868 77.8324C290.256 78.0412 290.557 78.3594 290.773 78.7869C290.988 79.2112 291.096 79.7481 291.096 80.3977V85.25H289.923V80.4773C289.923 79.8774 289.767 79.41 289.455 79.0753C289.144 78.7372 288.716 78.5682 288.173 78.5682C287.798 78.5682 287.463 78.6494 287.168 78.8118C286.877 78.9742 286.646 79.2112 286.477 79.5227C286.308 79.8343 286.224 80.2121 286.224 80.6562ZM296.322 88.2727C295.756 88.2727 295.268 88.1998 294.861 88.054C294.453 87.9115 294.113 87.7225 293.841 87.4872C293.573 87.2552 293.359 87.0066 293.2 86.7415L294.135 86.0852C294.241 86.2244 294.375 86.3835 294.537 86.5625C294.7 86.7448 294.922 86.9022 295.204 87.0348C295.489 87.1707 295.862 87.2386 296.322 87.2386C296.939 87.2386 297.448 87.0895 297.849 86.7912C298.25 86.4929 298.45 86.0256 298.45 85.3892V83.8381H298.351C298.265 83.9773 298.142 84.1496 297.983 84.3551C297.827 84.5573 297.602 84.7379 297.307 84.897C297.015 85.0528 296.621 85.1307 296.123 85.1307C295.507 85.1307 294.953 84.9848 294.463 84.6932C293.976 84.4015 293.59 83.9773 293.305 83.4205C293.023 82.8636 292.882 82.1875 292.882 81.392C292.882 80.6098 293.019 79.9287 293.295 79.3487C293.57 78.7654 293.952 78.3146 294.443 77.9964C294.934 77.675 295.5 77.5142 296.143 77.5142C296.64 77.5142 297.035 77.5971 297.327 77.7628C297.622 77.9252 297.847 78.1108 298.003 78.3196C298.162 78.5251 298.284 78.6941 298.371 78.8267H298.49V77.6136H299.623V85.4688C299.623 86.125 299.474 86.6586 299.176 87.0696C298.881 87.4839 298.483 87.7872 297.983 87.9794C297.486 88.175 296.932 88.2727 296.322 88.2727ZM296.282 84.0767C296.753 84.0767 297.151 83.969 297.476 83.7536C297.8 83.5381 298.047 83.2282 298.216 82.8239C298.385 82.4195 298.47 81.9356 298.47 81.3722C298.47 80.822 298.387 80.3364 298.221 79.9155C298.056 79.4946 297.81 79.1648 297.486 78.9261C297.161 78.6875 296.76 78.5682 296.282 78.5682C295.785 78.5682 295.371 78.6941 295.04 78.946C294.711 79.1979 294.465 79.536 294.299 79.9602C294.136 80.3845 294.055 80.8551 294.055 81.3722C294.055 81.9025 294.138 82.3714 294.304 82.7791C294.473 83.1835 294.721 83.5017 295.05 83.7337C295.381 83.9624 295.792 84.0767 296.282 84.0767ZM26.483 100.324L25.429 100.622C25.3627 100.446 25.2649 100.276 25.1357 100.11C25.0097 99.9411 24.8374 99.8018 24.6186 99.6925C24.3999 99.5831 24.1198 99.5284 23.7784 99.5284C23.3111 99.5284 22.9216 99.6361 22.6101 99.8516C22.3018 100.064 22.1477 100.334 22.1477 100.662C22.1477 100.954 22.2538 101.184 22.4659 101.353C22.678 101.522 23.0095 101.663 23.4602 101.776L24.5938 102.054C25.2765 102.22 25.7853 102.473 26.12 102.815C26.4548 103.153 26.6222 103.589 26.6222 104.122C26.6222 104.56 26.4962 104.951 26.2443 105.295C25.9957 105.64 25.6477 105.912 25.2003 106.111C24.7528 106.31 24.2325 106.409 23.6392 106.409C22.8603 106.409 22.2157 106.24 21.7053 105.902C21.1948 105.564 20.8717 105.07 20.7358 104.42L21.8494 104.142C21.9555 104.553 22.156 104.861 22.451 105.067C22.7493 105.272 23.1387 105.375 23.6193 105.375C24.1662 105.375 24.6004 105.259 24.9219 105.027C25.2467 104.792 25.4091 104.51 25.4091 104.182C25.4091 103.917 25.3163 103.695 25.1307 103.516C24.9451 103.333 24.66 103.197 24.2756 103.108L23.0028 102.81C22.3035 102.644 21.7898 102.387 21.4616 102.039C21.1368 101.688 20.9744 101.249 20.9744 100.722C20.9744 100.291 21.0954 99.9096 21.3374 99.5781C21.5826 99.2467 21.9157 98.9865 22.3366 98.7976C22.7609 98.6087 23.2415 98.5142 23.7784 98.5142C24.5341 98.5142 25.1274 98.6799 25.5582 99.0114C25.9924 99.3428 26.3007 99.7803 26.483 100.324ZM31.59 106.409C30.8542 106.409 30.2195 106.247 29.6859 105.922C29.1556 105.594 28.7463 105.136 28.4579 104.55C28.1729 103.96 28.0304 103.274 28.0304 102.491C28.0304 101.709 28.1729 101.02 28.4579 100.423C28.7463 99.8234 29.1473 99.3561 29.661 99.0213C30.1781 98.6832 30.7813 98.5142 31.4707 98.5142C31.8684 98.5142 32.2612 98.5805 32.649 98.7131C33.0368 98.8456 33.3897 99.0611 33.7079 99.3594C34.0261 99.6544 34.2797 100.045 34.4686 100.533C34.6575 101.02 34.752 101.62 34.752 102.332V102.83H28.8656V101.815H33.5588C33.5588 101.384 33.4726 101 33.3002 100.662C33.1312 100.324 32.8893 100.057 32.5744 99.8615C32.2628 99.666 31.8949 99.5682 31.4707 99.5682C31.0034 99.5682 30.599 99.6842 30.2576 99.9162C29.9196 100.145 29.6594 100.443 29.4771 100.811C29.2948 101.179 29.2037 101.573 29.2037 101.994V102.67C29.2037 103.247 29.3031 103.736 29.502 104.137C29.7041 104.535 29.9842 104.838 30.3422 105.047C30.7001 105.252 31.1161 105.355 31.59 105.355C31.8983 105.355 32.1767 105.312 32.4252 105.226C32.6771 105.136 32.8942 105.004 33.0765 104.828C33.2588 104.649 33.3997 104.427 33.4991 104.162L34.6326 104.48C34.5133 104.865 34.3128 105.203 34.0311 105.494C33.7493 105.783 33.4013 106.008 32.987 106.17C32.5727 106.33 32.1071 106.409 31.59 106.409ZM39.639 106.409C38.9231 106.409 38.3066 106.24 37.7896 105.902C37.2725 105.564 36.8748 105.098 36.5964 104.505C36.318 103.912 36.1788 103.234 36.1788 102.472C36.1788 101.696 36.3213 101.012 36.6064 100.418C36.8947 99.8217 37.2958 99.3561 37.8095 99.0213C38.3265 98.6832 38.9297 98.5142 39.6191 98.5142C40.1561 98.5142 40.64 98.6136 41.0708 98.8125C41.5017 99.0114 41.8547 99.2898 42.1298 99.6477C42.4049 100.006 42.5756 100.423 42.6419 100.901H41.4686C41.3791 100.553 41.1802 100.244 40.872 99.9759C40.5671 99.7041 40.1561 99.5682 39.639 99.5682C39.1816 99.5682 38.7806 99.6875 38.4359 99.9261C38.0945 100.161 37.8277 100.495 37.6355 100.925C37.4466 101.353 37.3521 101.855 37.3521 102.432C37.3521 103.022 37.4449 103.536 37.6305 103.973C37.8194 104.411 38.0846 104.75 38.426 104.992C38.7707 105.234 39.175 105.355 39.639 105.355C39.944 105.355 40.2207 105.302 40.4693 105.196C40.7179 105.09 40.9283 104.938 41.1007 104.739C41.273 104.54 41.3957 104.301 41.4686 104.023H42.6419C42.5756 104.473 42.4115 104.879 42.1497 105.241C41.8912 105.599 41.5481 105.884 41.1206 106.096C40.6963 106.305 40.2025 106.409 39.639 106.409ZM49.1696 103.128V98.6136H50.3429V106.25H49.1696V104.957H49.09C48.911 105.345 48.6326 105.675 48.2548 105.947C47.877 106.215 47.3997 106.349 46.823 106.349C46.3457 106.349 45.9215 106.245 45.5502 106.036C45.179 105.824 44.8874 105.506 44.6752 105.082C44.4631 104.654 44.3571 104.116 44.3571 103.466V98.6136H45.5304V103.386C45.5304 103.943 45.6861 104.387 45.9977 104.719C46.3126 105.05 46.7136 105.216 47.2008 105.216C47.4925 105.216 47.7891 105.141 48.0907 104.992C48.3957 104.843 48.6509 104.614 48.8564 104.306C49.0652 103.998 49.1696 103.605 49.1696 103.128ZM52.4918 106.25V98.6136H53.6254V99.767H53.7049C53.8441 99.3892 54.096 99.0826 54.4606 98.8473C54.8252 98.612 55.2362 98.4943 55.6935 98.4943C55.7797 98.4943 55.8874 98.496 56.0167 98.4993C56.146 98.5026 56.2437 98.5076 56.31 98.5142V99.7074C56.2702 99.6974 56.1791 99.6825 56.0366 99.6626C55.8974 99.6394 55.7499 99.6278 55.5941 99.6278C55.2229 99.6278 54.8915 99.7057 54.5998 99.8615C54.3114 100.014 54.0827 100.226 53.9137 100.498C53.748 100.766 53.6651 101.073 53.6651 101.418V106.25H52.4918ZM60.6701 106.409C59.9343 106.409 59.2996 106.247 58.766 105.922C58.2357 105.594 57.8263 105.136 57.538 104.55C57.253 103.96 57.1104 103.274 57.1104 102.491C57.1104 101.709 57.253 101.02 57.538 100.423C57.8263 99.8234 58.2274 99.3561 58.7411 99.0213C59.2582 98.6832 59.8614 98.5142 60.5508 98.5142C60.9485 98.5142 61.3413 98.5805 61.729 98.7131C62.1168 98.8456 62.4698 99.0611 62.788 99.3594C63.1062 99.6544 63.3597 100.045 63.5487 100.533C63.7376 101.02 63.832 101.62 63.832 102.332V102.83H57.9457V101.815H62.6388C62.6388 101.384 62.5527 101 62.3803 100.662C62.2113 100.324 61.9693 100.057 61.6545 99.8615C61.3429 99.666 60.975 99.5682 60.5508 99.5682C60.0835 99.5682 59.6791 99.6842 59.3377 99.9162C58.9996 100.145 58.7395 100.443 58.5572 100.811C58.3749 101.179 58.2837 101.573 58.2837 101.994V102.67C58.2837 103.247 58.3832 103.736 58.582 104.137C58.7842 104.535 59.0643 104.838 59.4222 105.047C59.7802 105.252 60.1961 105.355 60.6701 105.355C60.9783 105.355 61.2567 105.312 61.5053 105.226C61.7572 105.136 61.9743 105.004 62.1566 104.828C62.3389 104.649 62.4798 104.427 62.5792 104.162L63.7127 104.48C63.5934 104.865 63.3929 105.203 63.1112 105.494C62.8294 105.783 62.4814 106.008 62.0671 106.17C61.6528 106.33 61.1871 106.409 60.6701 106.409ZM71.8015 106.429C71.3176 106.429 70.8784 106.338 70.484 106.156C70.0896 105.97 69.7764 105.703 69.5444 105.355C69.3124 105.004 69.1964 104.58 69.1964 104.082C69.1964 103.645 69.2826 103.29 69.4549 103.018C69.6272 102.743 69.8576 102.528 70.146 102.372C70.4343 102.216 70.7525 102.1 71.1005 102.024C71.4518 101.945 71.8048 101.882 72.1594 101.835C72.6235 101.776 72.9996 101.731 73.288 101.701C73.5797 101.668 73.7918 101.613 73.9244 101.537C74.0603 101.461 74.1282 101.328 74.1282 101.139V101.099C74.1282 100.609 73.994 100.228 73.7255 99.956C73.4603 99.6842 73.0576 99.5483 72.5174 99.5483C71.9573 99.5483 71.5181 99.6709 71.1999 99.9162C70.8817 100.161 70.658 100.423 70.5288 100.702L69.4151 100.304C69.614 99.84 69.8791 99.4787 70.2106 99.2202C70.5453 98.9583 70.9099 98.776 71.3043 98.6733C71.7021 98.5672 72.0932 98.5142 72.4776 98.5142C72.7229 98.5142 73.0046 98.544 73.3228 98.6037C73.6443 98.66 73.9542 98.7777 74.2525 98.9567C74.5541 99.1357 74.8043 99.4058 75.0032 99.767C75.2021 100.128 75.3015 100.612 75.3015 101.219V106.25H74.1282V105.216H74.0685C73.989 105.382 73.8564 105.559 73.6708 105.748C73.4852 105.937 73.2383 106.098 72.93 106.23C72.6218 106.363 72.2456 106.429 71.8015 106.429ZM71.9805 105.375C72.4445 105.375 72.8356 105.284 73.1538 105.102C73.4753 104.919 73.7172 104.684 73.8796 104.396C74.0453 104.107 74.1282 103.804 74.1282 103.486V102.412C74.0785 102.472 73.9691 102.526 73.8001 102.576C73.6344 102.622 73.4421 102.664 73.2234 102.7C73.0079 102.733 72.7975 102.763 72.592 102.79C72.3898 102.813 72.2257 102.833 72.0998 102.849C71.7949 102.889 71.5098 102.954 71.2447 103.043C70.9828 103.129 70.7707 103.26 70.6083 103.436C70.4492 103.608 70.3697 103.844 70.3697 104.142C70.3697 104.55 70.5205 104.858 70.8221 105.067C71.127 105.272 71.5131 105.375 71.9805 105.375ZM78.6163 101.656V106.25H77.443V98.6136H78.5765V99.8068H78.676C78.8549 99.419 79.1267 99.1075 79.4913 98.8722C79.8559 98.6335 80.3265 98.5142 80.9032 98.5142C81.4203 98.5142 81.8727 98.6203 82.2605 98.8324C82.6483 99.0412 82.9499 99.3594 83.1653 99.7869C83.3807 100.211 83.4885 100.748 83.4885 101.398V106.25H82.3152V101.477C82.3152 100.877 82.1594 100.41 81.8478 100.075C81.5363 99.7372 81.1087 99.5682 80.5652 99.5682C80.1906 99.5682 79.8559 99.6494 79.5609 99.8118C79.2692 99.9742 79.0389 100.211 78.8699 100.523C78.7008 100.834 78.6163 101.212 78.6163 101.656ZM88.516 106.409C87.8796 106.409 87.3178 106.248 86.8306 105.927C86.3434 105.602 85.9622 105.145 85.6871 104.555C85.4121 103.961 85.2745 103.26 85.2745 102.452C85.2745 101.65 85.4121 100.954 85.6871 100.364C85.9622 99.7737 86.3451 99.3179 86.8356 98.9964C87.3261 98.675 87.8929 98.5142 88.5359 98.5142C89.033 98.5142 89.4258 98.5971 89.7141 98.7628C90.0058 98.9252 90.2279 99.1108 90.3803 99.3196C90.5361 99.5251 90.6571 99.6941 90.7433 99.8267H90.8427V96.0682H92.016V106.25H90.8825V105.077H90.7433C90.6571 105.216 90.5344 105.392 90.3754 105.604C90.2163 105.812 89.9892 106 89.6942 106.165C89.3993 106.328 89.0065 106.409 88.516 106.409ZM88.6751 105.355C89.1457 105.355 89.5434 105.232 89.8683 104.987C90.1931 104.739 90.44 104.396 90.609 103.958C90.7781 103.517 90.8626 103.009 90.8626 102.432C90.8626 101.862 90.7797 101.363 90.614 100.935C90.4483 100.504 90.203 100.17 89.8782 99.9311C89.5534 99.6892 89.1523 99.5682 88.6751 99.5682C88.1779 99.5682 87.7636 99.6958 87.4322 99.951C87.104 100.203 86.8571 100.546 86.6914 100.98C86.529 101.411 86.4478 101.895 86.4478 102.432C86.4478 102.975 86.5307 103.469 86.6964 103.913C86.8654 104.354 87.114 104.705 87.4421 104.967C87.7736 105.226 88.1845 105.355 88.6751 105.355ZM101.368 106.409C100.652 106.409 100.035 106.24 99.5181 105.902C99.0011 105.564 98.6033 105.098 98.3249 104.505C98.0465 103.912 97.9073 103.234 97.9073 102.472C97.9073 101.696 98.0498 101.012 98.3349 100.418C98.6232 99.8217 99.0243 99.3561 99.538 99.0213C100.055 98.6832 100.658 98.5142 101.348 98.5142C101.885 98.5142 102.368 98.6136 102.799 98.8125C103.23 99.0114 103.583 99.2898 103.858 99.6477C104.133 100.006 104.304 100.423 104.37 100.901H103.197C103.108 100.553 102.909 100.244 102.6 99.9759C102.296 99.7041 101.885 99.5682 101.368 99.5682C100.91 99.5682 100.509 99.6875 100.164 99.9261C99.823 100.161 99.5562 100.495 99.364 100.925C99.1751 101.353 99.0806 101.855 99.0806 102.432C99.0806 103.022 99.1734 103.536 99.359 103.973C99.5479 104.411 99.8131 104.75 100.154 104.992C100.499 105.234 100.904 105.355 101.368 105.355C101.672 105.355 101.949 105.302 102.198 105.196C102.446 105.09 102.657 104.938 102.829 104.739C103.002 104.54 103.124 104.301 103.197 104.023H104.37C104.304 104.473 104.14 104.879 103.878 105.241C103.62 105.599 103.277 105.884 102.849 106.096C102.425 106.305 101.931 106.409 101.368 106.409ZM109.188 106.409C108.498 106.409 107.894 106.245 107.373 105.917C106.856 105.589 106.452 105.13 106.16 104.54C105.872 103.95 105.728 103.26 105.728 102.472C105.728 101.676 105.872 100.982 106.16 100.388C106.452 99.7952 106.856 99.3345 107.373 99.0064C107.894 98.6783 108.498 98.5142 109.188 98.5142C109.877 98.5142 110.48 98.6783 110.998 99.0064C111.518 99.3345 111.922 99.7952 112.211 100.388C112.502 100.982 112.648 101.676 112.648 102.472C112.648 103.26 112.502 103.95 112.211 104.54C111.922 105.13 111.518 105.589 110.998 105.917C110.48 106.245 109.877 106.409 109.188 106.409ZM109.188 105.355C109.712 105.355 110.142 105.221 110.48 104.952C110.819 104.684 111.069 104.331 111.231 103.893C111.394 103.456 111.475 102.982 111.475 102.472C111.475 101.961 111.394 101.486 111.231 101.045C111.069 100.604 110.819 100.248 110.48 99.9759C110.142 99.7041 109.712 99.5682 109.188 99.5682C108.664 99.5682 108.233 99.7041 107.895 99.9759C107.557 100.248 107.307 100.604 107.145 101.045C106.982 101.486 106.901 101.961 106.901 102.472C106.901 102.982 106.982 103.456 107.145 103.893C107.307 104.331 107.557 104.684 107.895 104.952C108.233 105.221 108.664 105.355 109.188 105.355ZM115.612 101.656V106.25H114.439V98.6136H115.573V99.8068H115.672C115.851 99.419 116.123 99.1075 116.487 98.8722C116.852 98.6335 117.323 98.5142 117.899 98.5142C118.416 98.5142 118.869 98.6203 119.257 98.8324C119.644 99.0412 119.946 99.3594 120.161 99.7869C120.377 100.211 120.485 100.748 120.485 101.398V106.25H119.311V101.477C119.311 100.877 119.155 100.41 118.844 100.075C118.532 99.7372 118.105 99.5682 117.561 99.5682C117.187 99.5682 116.852 99.6494 116.557 99.8118C116.265 99.9742 116.035 100.211 115.866 100.523C115.697 100.834 115.612 101.212 115.612 101.656ZM123.802 101.656V106.25H122.629V98.6136H123.762V99.8068H123.862C124.04 99.419 124.312 99.1075 124.677 98.8722C125.041 98.6335 125.512 98.5142 126.089 98.5142C126.606 98.5142 127.058 98.6203 127.446 98.8324C127.834 99.0412 128.135 99.3594 128.351 99.7869C128.566 100.211 128.674 100.748 128.674 101.398V106.25H127.501V101.477C127.501 100.877 127.345 100.41 127.033 100.075C126.722 99.7372 126.294 99.5682 125.751 99.5682C125.376 99.5682 125.041 99.6494 124.746 99.8118C124.455 99.9742 124.224 100.211 124.055 100.523C123.886 100.834 123.802 101.212 123.802 101.656ZM134.02 106.409C133.284 106.409 132.649 106.247 132.116 105.922C131.585 105.594 131.176 105.136 130.888 104.55C130.603 103.96 130.46 103.274 130.46 102.491C130.46 101.709 130.603 101.02 130.888 100.423C131.176 99.8234 131.577 99.3561 132.091 99.0213C132.608 98.6832 133.211 98.5142 133.9 98.5142C134.298 98.5142 134.691 98.5805 135.079 98.7131C135.466 98.8456 135.819 99.0611 136.138 99.3594C136.456 99.6544 136.709 100.045 136.898 100.533C137.087 101.02 137.182 101.62 137.182 102.332V102.83H131.295V101.815H135.988C135.988 101.384 135.902 101 135.73 100.662C135.561 100.324 135.319 100.057 135.004 99.8615C134.693 99.666 134.325 99.5682 133.9 99.5682C133.433 99.5682 133.029 99.6842 132.687 99.9162C132.349 100.145 132.089 100.443 131.907 100.811C131.724 101.179 131.633 101.573 131.633 101.994V102.67C131.633 103.247 131.733 103.736 131.932 104.137C132.134 104.535 132.414 104.838 132.772 105.047C133.13 105.252 133.546 105.355 134.02 105.355C134.328 105.355 134.606 105.312 134.855 105.226C135.107 105.136 135.324 105.004 135.506 104.828C135.689 104.649 135.829 104.427 135.929 104.162L137.062 104.48C136.943 104.865 136.742 105.203 136.461 105.494C136.179 105.783 135.831 106.008 135.417 106.17C135.002 106.33 134.537 106.409 134.02 106.409ZM142.069 106.409C141.353 106.409 140.736 106.24 140.219 105.902C139.702 105.564 139.305 105.098 139.026 104.505C138.748 103.912 138.608 103.234 138.608 102.472C138.608 101.696 138.751 101.012 139.036 100.418C139.324 99.8217 139.725 99.3561 140.239 99.0213C140.756 98.6832 141.359 98.5142 142.049 98.5142C142.586 98.5142 143.07 98.6136 143.501 98.8125C143.931 99.0114 144.284 99.2898 144.559 99.6477C144.835 100.006 145.005 100.423 145.072 100.901H143.898C143.809 100.553 143.61 100.244 143.302 99.9759C142.997 99.7041 142.586 99.5682 142.069 99.5682C141.611 99.5682 141.21 99.6875 140.866 99.9261C140.524 100.161 140.257 100.495 140.065 100.925C139.876 101.353 139.782 101.855 139.782 102.432C139.782 103.022 139.875 103.536 140.06 103.973C140.249 104.411 140.514 104.75 140.856 104.992C141.2 105.234 141.605 105.355 142.069 105.355C142.374 105.355 142.65 105.302 142.899 105.196C143.148 105.09 143.358 104.938 143.53 104.739C143.703 104.54 143.825 104.301 143.898 104.023H145.072C145.005 104.473 144.841 104.879 144.579 105.241C144.321 105.599 143.978 105.884 143.55 106.096C143.126 106.305 142.632 106.409 142.069 106.409ZM150.108 98.6136V99.608H146.15V98.6136H150.108ZM147.304 96.7841H148.477V104.062C148.477 104.394 148.525 104.643 148.621 104.808C148.721 104.971 148.847 105.08 148.999 105.136C149.155 105.189 149.319 105.216 149.491 105.216C149.621 105.216 149.727 105.209 149.809 105.196C149.892 105.179 149.959 105.166 150.008 105.156L150.247 106.21C150.167 106.24 150.056 106.27 149.914 106.3C149.771 106.333 149.591 106.349 149.372 106.349C149.041 106.349 148.716 106.278 148.398 106.136C148.083 105.993 147.821 105.776 147.612 105.484C147.407 105.193 147.304 104.825 147.304 104.381V96.7841ZM154.992 106.409C154.257 106.409 153.622 106.247 153.088 105.922C152.558 105.594 152.149 105.136 151.86 104.55C151.575 103.96 151.433 103.274 151.433 102.491C151.433 101.709 151.575 101.02 151.86 100.423C152.149 99.8234 152.55 99.3561 153.063 99.0213C153.58 98.6832 154.184 98.5142 154.873 98.5142C155.271 98.5142 155.664 98.5805 156.051 98.7131C156.439 98.8456 156.792 99.0611 157.11 99.3594C157.428 99.6544 157.682 100.045 157.871 100.533C158.06 101.02 158.154 101.62 158.154 102.332V102.83H152.268V101.815H156.961C156.961 101.384 156.875 101 156.703 100.662C156.534 100.324 156.292 100.057 155.977 99.8615C155.665 99.666 155.297 99.5682 154.873 99.5682C154.406 99.5682 154.001 99.6842 153.66 99.9162C153.322 100.145 153.062 100.443 152.879 100.811C152.697 101.179 152.606 101.573 152.606 101.994V102.67C152.606 103.247 152.705 103.736 152.904 104.137C153.106 104.535 153.387 104.838 153.744 105.047C154.102 105.252 154.518 105.355 154.992 105.355C155.301 105.355 155.579 105.312 155.828 105.226C156.079 105.136 156.297 105.004 156.479 104.828C156.661 104.649 156.802 104.427 156.901 104.162L158.035 104.48C157.916 104.865 157.715 105.203 157.433 105.494C157.152 105.783 156.804 106.008 156.389 106.17C155.975 106.33 155.509 106.409 154.992 106.409ZM162.823 106.409C162.186 106.409 161.624 106.248 161.137 105.927C160.65 105.602 160.269 105.145 159.994 104.555C159.719 103.961 159.581 103.26 159.581 102.452C159.581 101.65 159.719 100.954 159.994 100.364C160.269 99.7737 160.652 99.3179 161.142 98.9964C161.633 98.675 162.2 98.5142 162.843 98.5142C163.34 98.5142 163.732 98.5971 164.021 98.7628C164.312 98.9252 164.535 99.1108 164.687 99.3196C164.843 99.5251 164.964 99.6941 165.05 99.8267H165.149V96.0682H166.323V106.25H165.189V105.077H165.05C164.964 105.216 164.841 105.392 164.682 105.604C164.523 105.812 164.296 106 164.001 106.165C163.706 106.328 163.313 106.409 162.823 106.409ZM162.982 105.355C163.452 105.355 163.85 105.232 164.175 104.987C164.5 104.739 164.747 104.396 164.916 103.958C165.085 103.517 165.169 103.009 165.169 102.432C165.169 101.862 165.086 101.363 164.921 100.935C164.755 100.504 164.51 100.17 164.185 99.9311C163.86 99.6892 163.459 99.5682 162.982 99.5682C162.485 99.5682 162.07 99.6958 161.739 99.951C161.411 100.203 161.164 100.546 160.998 100.98C160.836 101.411 160.754 101.895 160.754 102.432C160.754 102.975 160.837 103.469 161.003 103.913C161.172 104.354 161.421 104.705 161.749 104.967C162.08 105.226 162.491 105.355 162.982 105.355ZM169.49 106.33C169.244 106.33 169.034 106.242 168.858 106.066C168.682 105.89 168.595 105.68 168.595 105.435C168.595 105.189 168.682 104.979 168.858 104.803C169.034 104.628 169.244 104.54 169.49 104.54C169.735 104.54 169.945 104.628 170.121 104.803C170.297 104.979 170.384 105.189 170.384 105.435C170.384 105.597 170.343 105.746 170.26 105.882C170.181 106.018 170.073 106.127 169.937 106.21C169.804 106.29 169.655 106.33 169.49 106.33Z" fill="white"/>
<rect x="0.5" y="0.75" width="339" height="139" rx="15.5" stroke="#5554AB"/>
<defs>
<linearGradient id="paint0_linear_25_424" x1="0" y1="70.25" x2="340" y2="70.25" gradientUnits="userSpaceOnUse">
<stop stop-color="#212161"/>
<stop offset="1" stop-color="#211E6B" stop-opacity="0.5"/>
</linearGradient>
<clipPath id="clip0_25_424">
<rect width="133" height="24" fill="white" transform="translate(20 29.25)"/>
</clipPath>
<clipPath id="clip1_25_424">
<rect width="6" height="11" fill="white" transform="translate(31 35.75)"/>
</clipPath>
</defs>
</svg>
