<svg width="340" height="141" viewBox="0 0 340 141" fill="none" xmlns="http://www.w3.org/2000/svg">
<rect y="0.25" width="340" height="140" rx="16" fill="url(#paint0_linear_25_441)"/>
<g clip-path="url(#clip0_25_441)">
<rect x="22" y="29.25" width="24" height="24" rx="12" fill="#414787" fill-opacity="0.5"/>
<g clip-path="url(#clip1_25_441)">
<path d="M33.25 36H32.125C31.504 36 31 36.504 31 37.125V45.375C31 45.996 31.504 46.5 32.125 46.5H35.875C36.496 46.5 37 45.996 37 45.375V37.125C37 36.504 36.496 36 35.875 36H34.75M33.25 36V36.75H34.75V36M33.25 36H34.75M33.25 45.375H34.75" stroke="white" stroke-linecap="round" stroke-linejoin="round"/>
</g>
<path d="M64.6705 35.1136V46.75H63.0568L57.142 38.2159H57.0341V46.75H55.2784V35.1136H56.9034L62.8239 43.6591H62.9318V35.1136H64.6705ZM70.8565 46.9261C69.9967 46.9261 69.2562 46.7424 68.6349 46.375C68.0175 46.0038 67.5402 45.483 67.2031 44.8125C66.8698 44.1383 66.7031 43.3485 66.7031 42.4432C66.7031 41.5492 66.8698 40.7614 67.2031 40.0795C67.5402 39.3977 68.0099 38.8655 68.6122 38.483C69.2183 38.1004 69.9266 37.9091 70.7372 37.9091C71.2296 37.9091 71.7069 37.9905 72.169 38.1534C72.6312 38.3163 73.0459 38.572 73.4134 38.9205C73.7808 39.2689 74.0705 39.7216 74.2827 40.2784C74.4948 40.8314 74.6009 41.5038 74.6009 42.2955V42.8977H67.6634V41.625H72.9361C72.9361 41.178 72.8452 40.7822 72.6634 40.4375C72.4815 40.089 72.2259 39.8144 71.8963 39.6136C71.5705 39.4129 71.188 39.3125 70.7486 39.3125C70.2713 39.3125 69.8546 39.4299 69.4986 39.6648C69.1463 39.8958 68.8736 40.1989 68.6804 40.5739C68.491 40.9451 68.3963 41.3485 68.3963 41.7841V42.7784C68.3963 43.3617 68.4986 43.858 68.7031 44.267C68.9115 44.6761 69.2012 44.9886 69.5724 45.2045C69.9437 45.4167 70.3774 45.5227 70.8736 45.5227C71.1955 45.5227 71.4891 45.4773 71.7543 45.3864C72.0194 45.2917 72.2486 45.1515 72.4418 44.9659C72.6349 44.7803 72.7827 44.5511 72.8849 44.2784L74.4929 44.5682C74.3641 45.0417 74.133 45.4564 73.7997 45.8125C73.4702 46.1648 73.0554 46.4394 72.5554 46.6364C72.0592 46.8295 71.4929 46.9261 70.8565 46.9261ZM78.3622 46.75L75.794 38.0227H77.5497L79.2599 44.4318H79.3452L81.0611 38.0227H82.8168L84.5213 44.4034H84.6065L86.3054 38.0227H88.0611L85.4986 46.75H83.7656L81.9929 40.4489H81.8622L80.0895 46.75H78.3622ZM96.2131 40.1534L94.6733 40.4261C94.6089 40.2292 94.5066 40.0417 94.3665 39.8636C94.2301 39.6856 94.0445 39.5398 93.8097 39.4261C93.5748 39.3125 93.2813 39.2557 92.929 39.2557C92.4479 39.2557 92.0464 39.3636 91.7244 39.5795C91.4025 39.7917 91.2415 40.0663 91.2415 40.4034C91.2415 40.6951 91.3494 40.9299 91.5653 41.108C91.7813 41.286 92.1297 41.4318 92.6108 41.5455L93.9972 41.8636C94.8002 42.0492 95.3987 42.3352 95.7926 42.7216C96.1866 43.108 96.3835 43.6098 96.3835 44.2273C96.3835 44.75 96.232 45.2159 95.929 45.625C95.6297 46.0303 95.2112 46.3485 94.6733 46.5795C94.1392 46.8106 93.5199 46.9261 92.8153 46.9261C91.8381 46.9261 91.0407 46.7178 90.4233 46.3011C89.8059 45.8807 89.4271 45.2841 89.2869 44.5114L90.929 44.2614C91.0313 44.6894 91.2415 45.0133 91.5597 45.233C91.8778 45.4489 92.2926 45.5568 92.804 45.5568C93.3608 45.5568 93.8059 45.4413 94.1392 45.2102C94.4725 44.9754 94.6392 44.6894 94.6392 44.3523C94.6392 44.0795 94.5369 43.8504 94.3324 43.6648C94.1316 43.4792 93.8229 43.339 93.4062 43.2443L91.929 42.9205C91.1146 42.7348 90.5123 42.4394 90.1222 42.0341C89.7358 41.6288 89.5426 41.1155 89.5426 40.4943C89.5426 39.9792 89.6866 39.5284 89.9744 39.142C90.2623 38.7557 90.66 38.4545 91.1676 38.2386C91.6752 38.0189 92.2566 37.9091 92.9119 37.9091C93.8551 37.9091 94.5975 38.1136 95.1392 38.5227C95.6809 38.928 96.0388 39.4716 96.2131 40.1534ZM102.622 46.75V35.1136H109.838V36.625H104.378V40.1705H109.321V41.6761H104.378V46.75H102.622ZM114.982 46.9261C114.122 46.9261 113.381 46.7424 112.76 46.375C112.143 46.0038 111.665 45.483 111.328 44.8125C110.995 44.1383 110.828 43.3485 110.828 42.4432C110.828 41.5492 110.995 40.7614 111.328 40.0795C111.665 39.3977 112.135 38.8655 112.737 38.483C113.343 38.1004 114.052 37.9091 114.862 37.9091C115.355 37.9091 115.832 37.9905 116.294 38.1534C116.756 38.3163 117.171 38.572 117.538 38.9205C117.906 39.2689 118.196 39.7216 118.408 40.2784C118.62 40.8314 118.726 41.5038 118.726 42.2955V42.8977H111.788V41.625H117.061C117.061 41.178 116.97 40.7822 116.788 40.4375C116.607 40.089 116.351 39.8144 116.021 39.6136C115.696 39.4129 115.313 39.3125 114.874 39.3125C114.396 39.3125 113.98 39.4299 113.624 39.6648C113.271 39.8958 112.999 40.1989 112.805 40.5739C112.616 40.9451 112.521 41.3485 112.521 41.7841V42.7784C112.521 43.3617 112.624 43.858 112.828 44.267C113.036 44.6761 113.326 44.9886 113.697 45.2045C114.069 45.4167 114.502 45.5227 114.999 45.5227C115.321 45.5227 115.614 45.4773 115.879 45.3864C116.144 45.2917 116.374 45.1515 116.567 44.9659C116.76 44.7803 116.908 44.5511 117.01 44.2784L118.618 44.5682C118.489 45.0417 118.258 45.4564 117.925 45.8125C117.595 46.1648 117.18 46.4394 116.68 46.6364C116.184 46.8295 115.618 46.9261 114.982 46.9261ZM124.372 46.9261C123.512 46.9261 122.772 46.7424 122.151 46.375C121.533 46.0038 121.056 45.483 120.719 44.8125C120.385 44.1383 120.219 43.3485 120.219 42.4432C120.219 41.5492 120.385 40.7614 120.719 40.0795C121.056 39.3977 121.526 38.8655 122.128 38.483C122.734 38.1004 123.442 37.9091 124.253 37.9091C124.745 37.9091 125.223 37.9905 125.685 38.1534C126.147 38.3163 126.562 38.572 126.929 38.9205C127.296 39.2689 127.586 39.7216 127.798 40.2784C128.01 40.8314 128.116 41.5038 128.116 42.2955V42.8977H121.179V41.625H126.452C126.452 41.178 126.361 40.7822 126.179 40.4375C125.997 40.089 125.741 39.8144 125.412 39.6136C125.086 39.4129 124.704 39.3125 124.264 39.3125C123.787 39.3125 123.37 39.4299 123.014 39.6648C122.662 39.8958 122.389 40.1989 122.196 40.5739C122.007 40.9451 121.912 41.3485 121.912 41.7841V42.7784C121.912 43.3617 122.014 43.858 122.219 44.267C122.427 44.6761 122.717 44.9886 123.088 45.2045C123.459 45.4167 123.893 45.5227 124.389 45.5227C124.711 45.5227 125.005 45.4773 125.27 45.3864C125.535 45.2917 125.764 45.1515 125.957 44.9659C126.151 44.7803 126.298 44.5511 126.401 44.2784L128.009 44.5682C127.88 45.0417 127.649 45.4564 127.315 45.8125C126.986 46.1648 126.571 46.4394 126.071 46.6364C125.575 46.8295 125.009 46.9261 124.372 46.9261ZM133.268 46.9205C132.564 46.9205 131.935 46.7405 131.382 46.3807C130.833 46.017 130.401 45.5 130.087 44.8295C129.776 44.1553 129.621 43.3466 129.621 42.4034C129.621 41.4602 129.778 40.6534 130.092 39.983C130.411 39.3125 130.846 38.7992 131.399 38.4432C131.952 38.0871 132.579 37.9091 133.28 37.9091C133.821 37.9091 134.257 38 134.587 38.1818C134.92 38.3598 135.178 38.5682 135.359 38.8068C135.545 39.0455 135.689 39.2557 135.791 39.4375H135.893V35.1136H137.592V46.75H135.933V45.392H135.791C135.689 45.5777 135.541 45.7898 135.348 46.0284C135.159 46.267 134.897 46.4754 134.564 46.6534C134.231 46.8314 133.799 46.9205 133.268 46.9205ZM133.643 45.4716C134.132 45.4716 134.545 45.3428 134.882 45.0852C135.223 44.8239 135.481 44.4621 135.655 44C135.833 43.5379 135.922 43 135.922 42.3864C135.922 41.7803 135.835 41.25 135.661 40.7955C135.486 40.3409 135.231 39.9867 134.893 39.733C134.556 39.4792 134.14 39.3523 133.643 39.3523C133.132 39.3523 132.706 39.4848 132.365 39.75C132.024 40.0152 131.767 40.3769 131.592 40.8352C131.422 41.2936 131.337 41.8106 131.337 42.3864C131.337 42.9697 131.424 43.4943 131.598 43.9602C131.772 44.4261 132.03 44.7955 132.371 45.0682C132.715 45.3371 133.14 45.4716 133.643 45.4716Z" fill="white"/>
</g>
<path d="M29.4261 78.25H28.1932C28.1203 77.8954 27.9927 77.5838 27.8104 77.3153C27.6314 77.0469 27.4126 76.8215 27.1541 76.6392C26.8989 76.4536 26.6155 76.3144 26.304 76.2216C25.9924 76.1288 25.6676 76.0824 25.3295 76.0824C24.7131 76.0824 24.1546 76.2382 23.6541 76.5497C23.157 76.8613 22.7609 77.3203 22.4659 77.9268C22.1742 78.5334 22.0284 79.2775 22.0284 80.1591C22.0284 81.0407 22.1742 81.7848 22.4659 82.3913C22.7609 82.9979 23.157 83.4569 23.6541 83.7685C24.1546 84.08 24.7131 84.2358 25.3295 84.2358C25.6676 84.2358 25.9924 84.1894 26.304 84.0966C26.6155 84.0038 26.8989 83.8662 27.1541 83.6839C27.4126 83.4983 27.6314 83.2713 27.8104 83.0028C27.9927 82.7311 28.1203 82.4195 28.1932 82.0682H29.4261C29.3333 82.5885 29.1643 83.0542 28.919 83.4652C28.6738 83.8762 28.3688 84.2259 28.0043 84.5142C27.6397 84.7992 27.2304 85.0163 26.7763 85.1655C26.3255 85.3146 25.8433 85.3892 25.3295 85.3892C24.4612 85.3892 23.6889 85.1771 23.0128 84.7528C22.3366 84.3286 21.8047 83.7254 21.4169 82.9432C21.0291 82.161 20.8352 81.233 20.8352 80.1591C20.8352 79.0852 21.0291 78.1572 21.4169 77.375C21.8047 76.5928 22.3366 75.9896 23.0128 75.5653C23.6889 75.1411 24.4612 74.929 25.3295 74.929C25.8433 74.929 26.3255 75.0036 26.7763 75.1527C27.2304 75.3018 27.6397 75.5206 28.0043 75.8089C28.3688 76.094 28.6738 76.442 28.919 76.853C29.1643 77.2607 29.3333 77.7263 29.4261 78.25ZM33.5066 85.429C33.0227 85.429 32.5835 85.3378 32.1891 85.1555C31.7947 84.9699 31.4815 84.7031 31.2495 84.3551C31.0175 84.0038 30.9015 83.5795 30.9015 83.0824C30.9015 82.6449 30.9876 82.2902 31.16 82.0185C31.3323 81.7434 31.5627 81.5279 31.851 81.3722C32.1394 81.2164 32.4576 81.1004 32.8056 81.0241C33.1569 80.9446 33.5099 80.8816 33.8645 80.8352C34.3285 80.7756 34.7047 80.7308 34.9931 80.701C35.2847 80.6679 35.4969 80.6132 35.6294 80.5369C35.7653 80.4607 35.8333 80.3281 35.8333 80.1392V80.0994C35.8333 79.6089 35.699 79.2277 35.4306 78.956C35.1654 78.6842 34.7627 78.5483 34.2225 78.5483C33.6623 78.5483 33.2232 78.6709 32.905 78.9162C32.5868 79.1615 32.3631 79.4233 32.2338 79.7017L31.1202 79.304C31.3191 78.84 31.5842 78.4787 31.9157 78.2202C32.2504 77.9583 32.615 77.776 33.0094 77.6733C33.4071 77.5672 33.7982 77.5142 34.1827 77.5142C34.428 77.5142 34.7097 77.544 35.0279 77.6037C35.3494 77.66 35.6593 77.7777 35.9576 77.9567C36.2592 78.1357 36.5094 78.4058 36.7083 78.767C36.9071 79.1283 37.0066 79.6122 37.0066 80.2188V85.25H35.8333V84.2159H35.7736C35.6941 84.3816 35.5615 84.5589 35.3759 84.7479C35.1903 84.9368 34.9434 85.0975 34.6351 85.2301C34.3269 85.3627 33.9507 85.429 33.5066 85.429ZM33.6855 84.375C34.1496 84.375 34.5407 84.2839 34.8588 84.1016C35.1803 83.9193 35.4223 83.6839 35.5847 83.3956C35.7504 83.1072 35.8333 82.804 35.8333 82.4858V81.4119C35.7836 81.4716 35.6742 81.5263 35.5051 81.576C35.3394 81.6224 35.1472 81.6638 34.9284 81.7003C34.713 81.7334 34.5025 81.7633 34.2971 81.7898C34.0949 81.813 33.9308 81.8329 33.8049 81.8494C33.4999 81.8892 33.2149 81.9538 32.9498 82.0433C32.6879 82.1295 32.4758 82.2604 32.3134 82.4361C32.1543 82.6084 32.0748 82.8437 32.0748 83.142C32.0748 83.5497 32.2256 83.858 32.5272 84.0668C32.8321 84.2723 33.2182 84.375 33.6855 84.375ZM42.4691 77.6136V78.608H38.5117V77.6136H42.4691ZM39.6651 75.7841H40.8384V83.0625C40.8384 83.3939 40.8865 83.6425 40.9826 83.8082C41.082 83.9706 41.208 84.08 41.3604 84.1364C41.5162 84.1894 41.6803 84.2159 41.8526 84.2159C41.9819 84.2159 42.088 84.2093 42.1708 84.196C42.2537 84.1795 42.32 84.1662 42.3697 84.1562L42.6083 85.2102C42.5288 85.2401 42.4177 85.2699 42.2752 85.2997C42.1327 85.3329 41.9521 85.3494 41.7333 85.3494C41.4019 85.3494 41.0771 85.2782 40.7589 85.1357C40.444 84.9931 40.1822 84.776 39.9734 84.4844C39.7679 84.1927 39.6651 83.8248 39.6651 83.3807V75.7841ZM47.2543 85.4091C46.5384 85.4091 45.9219 85.2401 45.4048 84.902C44.8878 84.5639 44.4901 84.0982 44.2116 83.505C43.9332 82.9117 43.794 82.2339 43.794 81.4716C43.794 80.696 43.9366 80.0116 44.2216 79.4183C44.5099 78.8217 44.911 78.3561 45.4247 78.0213C45.9418 77.6832 46.545 77.5142 47.2344 77.5142C47.7713 77.5142 48.2552 77.6136 48.6861 77.8125C49.117 78.0114 49.4699 78.2898 49.745 78.6477C50.0201 79.0057 50.1908 79.4233 50.2571 79.9006H49.0838C48.9943 79.5526 48.7955 79.2443 48.4872 78.9759C48.1823 78.7041 47.7713 78.5682 47.2543 78.5682C46.7969 78.5682 46.3958 78.6875 46.0511 78.9261C45.7098 79.1615 45.4429 79.4946 45.2507 79.9254C45.0618 80.353 44.9673 80.8551 44.9673 81.4318C44.9673 82.0218 45.0601 82.5355 45.2457 82.973C45.4347 83.4105 45.6998 83.7502 46.0412 83.9922C46.3859 84.2341 46.7902 84.3551 47.2543 84.3551C47.5592 84.3551 47.8359 84.3021 48.0845 84.196C48.3331 84.09 48.5436 83.9375 48.7159 83.7386C48.8883 83.5398 49.0109 83.3011 49.0838 83.0227H50.2571C50.1908 83.4735 50.0268 83.8795 49.7649 84.2408C49.5064 84.5987 49.1634 84.8838 48.7358 85.0959C48.3116 85.3047 47.8177 85.4091 47.2543 85.4091ZM53.1456 80.6562V85.25H51.9723V75.0682H53.1456V78.8068H53.245C53.424 78.4124 53.6925 78.0992 54.0504 77.8672C54.4117 77.6319 54.8923 77.5142 55.4922 77.5142C56.0125 77.5142 56.4683 77.6186 56.8594 77.8274C57.2505 78.0329 57.5537 78.3494 57.7692 78.777C57.9879 79.2012 58.0973 79.7415 58.0973 80.3977V85.25H56.924V80.4773C56.924 79.8707 56.7666 79.4018 56.4517 79.0703C56.1402 78.7356 55.7076 78.5682 55.1541 78.5682C54.7696 78.5682 54.425 78.6494 54.12 78.8118C53.8184 78.9742 53.5798 79.2112 53.4041 79.5227C53.2318 79.8343 53.1456 80.2121 53.1456 80.6562ZM68.9938 82.1278V77.6136H70.1671V85.25H68.9938V83.9574H68.9142C68.7353 84.3452 68.4569 84.675 68.079 84.9467C67.7012 85.2152 67.2239 85.3494 66.6472 85.3494C66.1699 85.3494 65.7457 85.245 65.3745 85.0362C65.0033 84.8241 64.7116 84.5059 64.4995 84.0817C64.2873 83.6541 64.1813 83.1155 64.1813 82.4659V77.6136H65.3546V82.3864C65.3546 82.9432 65.5104 83.3873 65.8219 83.7188C66.1368 84.0502 66.5378 84.2159 67.025 84.2159C67.3167 84.2159 67.6133 84.1413 67.915 83.9922C68.2199 83.843 68.4751 83.6143 68.6806 83.3061C68.8894 82.9979 68.9938 82.6051 68.9938 82.1278ZM72.3161 88.1136V77.6136H73.4496V78.8267H73.5888C73.675 78.6941 73.7943 78.5251 73.9467 78.3196C74.1025 78.1108 74.3246 77.9252 74.6129 77.7628C74.9046 77.5971 75.299 77.5142 75.7962 77.5142C76.4392 77.5142 77.0059 77.675 77.4964 77.9964C77.987 78.3179 78.3698 78.7737 78.6449 79.3636C78.92 79.9536 79.0575 80.6496 79.0575 81.4517C79.0575 82.2604 78.92 82.9614 78.6449 83.5547C78.3698 84.1446 77.9886 84.602 77.5014 84.9268C77.0142 85.2483 76.4524 85.4091 75.8161 85.4091C75.3255 85.4091 74.9328 85.3279 74.6378 85.1655C74.3428 84.9998 74.1158 84.8125 73.9567 84.6037C73.7976 84.3916 73.675 84.2159 73.5888 84.0767H73.4893V88.1136H72.3161ZM73.4695 81.4318C73.4695 82.0085 73.554 82.5173 73.723 82.9581C73.892 83.3956 74.139 83.7386 74.4638 83.9872C74.7886 84.2325 75.1863 84.3551 75.657 84.3551C76.1475 84.3551 76.5568 84.2259 76.8849 83.9673C77.2164 83.7055 77.465 83.3542 77.6307 82.9134C77.7997 82.4692 77.8842 81.9754 77.8842 81.4318C77.8842 80.8949 77.8014 80.411 77.6357 79.9801C77.4732 79.5459 77.2263 79.2029 76.8949 78.951C76.5668 78.6958 76.1541 78.5682 75.657 78.5682C75.1797 78.5682 74.7786 78.6892 74.4538 78.9311C74.129 79.1697 73.8838 79.5045 73.718 79.9354C73.5523 80.3629 73.4695 80.8617 73.4695 81.4318ZM87.8871 85.4091C87.1977 85.4091 86.5928 85.245 86.0724 84.9169C85.5554 84.5888 85.151 84.1297 84.8594 83.5398C84.571 82.9498 84.4268 82.2604 84.4268 81.4716C84.4268 80.6761 84.571 79.9818 84.8594 79.3885C85.151 78.7952 85.5554 78.3345 86.0724 78.0064C86.5928 77.6783 87.1977 77.5142 87.8871 77.5142C88.5765 77.5142 89.1797 77.6783 89.6967 78.0064C90.2171 78.3345 90.6214 78.7952 90.9098 79.3885C91.2015 79.9818 91.3473 80.6761 91.3473 81.4716C91.3473 82.2604 91.2015 82.9498 90.9098 83.5398C90.6214 84.1297 90.2171 84.5888 89.6967 84.9169C89.1797 85.245 88.5765 85.4091 87.8871 85.4091ZM87.8871 84.3551C88.4107 84.3551 88.8416 84.2209 89.1797 83.9524C89.5178 83.6839 89.768 83.331 89.9304 82.8935C90.0928 82.456 90.174 81.982 90.174 81.4716C90.174 80.9612 90.0928 80.4856 89.9304 80.0447C89.768 79.6039 89.5178 79.2476 89.1797 78.9759C88.8416 78.7041 88.4107 78.5682 87.8871 78.5682C87.3634 78.5682 86.9325 78.7041 86.5945 78.9759C86.2564 79.2476 86.0062 79.6039 85.8438 80.0447C85.6813 80.4856 85.6001 80.9612 85.6001 81.4716C85.6001 81.982 85.6813 82.456 85.8438 82.8935C86.0062 83.331 86.2564 83.6839 86.5945 83.9524C86.9325 84.2209 87.3634 84.3551 87.8871 84.3551ZM94.3116 80.6562V85.25H93.1383V77.6136H94.2718V78.8068H94.3713C94.5502 78.419 94.822 78.1075 95.1866 77.8722C95.5512 77.6335 96.0218 77.5142 96.5985 77.5142C97.1156 77.5142 97.568 77.6203 97.9558 77.8324C98.3436 78.0412 98.6452 78.3594 98.8606 78.7869C99.0761 79.2112 99.1838 79.7481 99.1838 80.3977V85.25H98.0105V80.4773C98.0105 79.8774 97.8547 79.41 97.5431 79.0753C97.2316 78.7372 96.804 78.5682 96.2605 78.5682C95.8859 78.5682 95.5512 78.6494 95.2562 78.8118C94.9645 78.9742 94.7342 79.2112 94.5652 79.5227C94.3961 79.8343 94.3116 80.2121 94.3116 80.6562ZM108.586 77.6136V78.608H104.629V77.6136H108.586ZM105.782 75.7841H106.956V83.0625C106.956 83.3939 107.004 83.6425 107.1 83.8082C107.199 83.9706 107.325 84.08 107.478 84.1364C107.633 84.1894 107.797 84.2159 107.97 84.2159C108.099 84.2159 108.205 84.2093 108.288 84.196C108.371 84.1795 108.437 84.1662 108.487 84.1562L108.725 85.2102C108.646 85.2401 108.535 85.2699 108.392 85.2997C108.25 85.3329 108.069 85.3494 107.85 85.3494C107.519 85.3494 107.194 85.2782 106.876 85.1357C106.561 84.9931 106.299 84.776 106.091 84.4844C105.885 84.1927 105.782 83.8248 105.782 83.3807V75.7841ZM111.689 80.6562V85.25H110.515V75.0682H111.689V78.8068H111.788C111.967 78.4124 112.235 78.0992 112.593 77.8672C112.955 77.6319 113.435 77.5142 114.035 77.5142C114.556 77.5142 115.011 77.6186 115.402 77.8274C115.793 78.0329 116.097 78.3494 116.312 78.777C116.531 79.2012 116.64 79.7415 116.64 80.3977V85.25H115.467V80.4773C115.467 79.8707 115.31 79.4018 114.995 79.0703C114.683 78.7356 114.251 78.5682 113.697 78.5682C113.313 78.5682 112.968 78.6494 112.663 78.8118C112.361 78.9742 112.123 79.2112 111.947 79.5227C111.775 79.8343 111.689 80.2121 111.689 80.6562ZM121.988 85.4091C121.253 85.4091 120.618 85.2467 120.084 84.9219C119.554 84.5938 119.145 84.1364 118.856 83.5497C118.571 82.9598 118.429 82.2737 118.429 81.4915C118.429 80.7093 118.571 80.0199 118.856 79.4233C119.145 78.8234 119.546 78.3561 120.059 78.0213C120.577 77.6832 121.18 77.5142 121.869 77.5142C122.267 77.5142 122.66 77.5805 123.047 77.7131C123.435 77.8456 123.788 78.0611 124.106 78.3594C124.425 78.6544 124.678 79.0455 124.867 79.5327C125.056 80.0199 125.15 80.6198 125.15 81.3324V81.8295H119.264V80.8153H123.957C123.957 80.3845 123.871 80 123.699 79.6619C123.53 79.3239 123.288 79.0571 122.973 78.8615C122.661 78.666 122.293 78.5682 121.869 78.5682C121.402 78.5682 120.997 78.6842 120.656 78.9162C120.318 79.1449 120.058 79.4432 119.876 79.8111C119.693 80.179 119.602 80.5734 119.602 80.9943V81.6705C119.602 82.2472 119.702 82.736 119.9 83.1371C120.103 83.5348 120.383 83.8381 120.741 84.0469C121.099 84.2524 121.515 84.3551 121.988 84.3551C122.297 84.3551 122.575 84.312 122.824 84.2259C123.076 84.1364 123.293 84.0038 123.475 83.8281C123.657 83.6491 123.798 83.4271 123.898 83.1619L125.031 83.4801C124.912 83.8646 124.711 84.2027 124.43 84.4943C124.148 84.7827 123.8 85.008 123.385 85.1705C122.971 85.3295 122.506 85.4091 121.988 85.4091ZM132.046 75.0682V85.25H130.873V75.0682H132.046ZM136.442 85.429C135.958 85.429 135.519 85.3378 135.125 85.1555C134.73 84.9699 134.417 84.7031 134.185 84.3551C133.953 84.0038 133.837 83.5795 133.837 83.0824C133.837 82.6449 133.923 82.2902 134.096 82.0185C134.268 81.7434 134.498 81.5279 134.787 81.3722C135.075 81.2164 135.393 81.1004 135.741 81.0241C136.092 80.9446 136.445 80.8816 136.8 80.8352C137.264 80.7756 137.64 80.7308 137.929 80.701C138.22 80.6679 138.432 80.6132 138.565 80.5369C138.701 80.4607 138.769 80.3281 138.769 80.1392V80.0994C138.769 79.6089 138.635 79.2277 138.366 78.956C138.101 78.6842 137.698 78.5483 137.158 78.5483C136.598 78.5483 136.159 78.6709 135.841 78.9162C135.522 79.1615 135.299 79.4233 135.169 79.7017L134.056 79.304C134.255 78.84 134.52 78.4787 134.851 78.2202C135.186 77.9583 135.551 77.776 135.945 77.6733C136.343 77.5672 136.734 77.5142 137.118 77.5142C137.364 77.5142 137.645 77.544 137.963 77.6037C138.285 77.66 138.595 77.7777 138.893 77.9567C139.195 78.1357 139.445 78.4058 139.644 78.767C139.843 79.1283 139.942 79.6122 139.942 80.2188V85.25H138.769V84.2159H138.709C138.63 84.3816 138.497 84.5589 138.311 84.7479C138.126 84.9368 137.879 85.0975 137.571 85.2301C137.262 85.3627 136.886 85.429 136.442 85.429ZM136.621 84.375C137.085 84.375 137.476 84.2839 137.794 84.1016C138.116 83.9193 138.358 83.6839 138.52 83.3956C138.686 83.1072 138.769 82.804 138.769 82.4858V81.4119C138.719 81.4716 138.61 81.5263 138.441 81.576C138.275 81.6224 138.083 81.6638 137.864 81.7003C137.649 81.7334 137.438 81.7633 137.233 81.7898C137.03 81.813 136.866 81.8329 136.74 81.8494C136.435 81.8892 136.15 81.9538 135.885 82.0433C135.623 82.1295 135.411 82.2604 135.249 82.4361C135.09 82.6084 135.01 82.8437 135.01 83.142C135.01 83.5497 135.161 83.858 135.463 84.0668C135.768 84.2723 136.154 84.375 136.621 84.375ZM145.405 77.6136V78.608H141.447V77.6136H145.405ZM142.601 75.7841H143.774V83.0625C143.774 83.3939 143.822 83.6425 143.918 83.8082C144.018 83.9706 144.144 84.08 144.296 84.1364C144.452 84.1894 144.616 84.2159 144.788 84.2159C144.917 84.2159 145.023 84.2093 145.106 84.196C145.189 84.1795 145.256 84.1662 145.305 84.1562L145.544 85.2102C145.464 85.2401 145.353 85.2699 145.211 85.2997C145.068 85.3329 144.888 85.3494 144.669 85.3494C144.337 85.3494 144.013 85.2782 143.694 85.1357C143.38 84.9931 143.118 84.776 142.909 84.4844C142.703 84.1927 142.601 83.8248 142.601 83.3807V75.7841ZM150.289 85.4091C149.553 85.4091 148.919 85.2467 148.385 84.9219C147.855 84.5938 147.445 84.1364 147.157 83.5497C146.872 82.9598 146.73 82.2737 146.73 81.4915C146.73 80.7093 146.872 80.0199 147.157 79.4233C147.445 78.8234 147.847 78.3561 148.36 78.0213C148.877 77.6832 149.481 77.5142 150.17 77.5142C150.568 77.5142 150.96 77.5805 151.348 77.7131C151.736 77.8456 152.089 78.0611 152.407 78.3594C152.725 78.6544 152.979 79.0455 153.168 79.5327C153.357 80.0199 153.451 80.6198 153.451 81.3324V81.8295H147.565V80.8153H152.258C152.258 80.3845 152.172 80 151.999 79.6619C151.83 79.3239 151.588 79.0571 151.274 78.8615C150.962 78.666 150.594 78.5682 150.17 78.5682C149.703 78.5682 149.298 78.6842 148.957 78.9162C148.619 79.1449 148.359 79.4432 148.176 79.8111C147.994 80.179 147.903 80.5734 147.903 80.9943V81.6705C147.903 82.2472 148.002 82.736 148.201 83.1371C148.403 83.5348 148.683 83.8381 149.041 84.0469C149.399 84.2524 149.815 84.3551 150.289 84.3551C150.597 84.3551 150.876 84.312 151.124 84.2259C151.376 84.1364 151.593 84.0038 151.776 83.8281C151.958 83.6491 152.099 83.4271 152.198 83.1619L153.332 83.4801C153.213 83.8646 153.012 84.2027 152.73 84.4943C152.449 84.7827 152.101 85.008 151.686 85.1705C151.272 85.3295 150.806 85.4091 150.289 85.4091ZM160.645 79.3239L159.591 79.6222C159.525 79.4465 159.427 79.2758 159.298 79.1101C159.172 78.9411 158.999 78.8018 158.781 78.6925C158.562 78.5831 158.282 78.5284 157.941 78.5284C157.473 78.5284 157.084 78.6361 156.772 78.8516C156.464 79.0637 156.31 79.3338 156.31 79.6619C156.31 79.9536 156.416 80.1839 156.628 80.353C156.84 80.522 157.172 80.6629 157.622 80.7756L158.756 81.054C159.439 81.2197 159.947 81.4732 160.282 81.8146C160.617 82.1527 160.784 82.5885 160.784 83.1222C160.784 83.5597 160.658 83.9508 160.406 84.2955C160.158 84.6402 159.81 84.9119 159.362 85.1108C158.915 85.3097 158.395 85.4091 157.801 85.4091C157.022 85.4091 156.378 85.2401 155.867 84.902C155.357 84.5639 155.034 84.0701 154.898 83.4205L156.012 83.142C156.118 83.553 156.318 83.8613 156.613 84.0668C156.911 84.2723 157.301 84.375 157.781 84.375C158.328 84.375 158.762 84.259 159.084 84.027C159.409 83.7917 159.571 83.5099 159.571 83.1818C159.571 82.9167 159.478 82.6946 159.293 82.5156C159.107 82.3333 158.822 82.1974 158.438 82.108L157.165 81.8097C156.466 81.6439 155.952 81.3871 155.624 81.0391C155.299 80.6877 155.137 80.2486 155.137 79.7216C155.137 79.2907 155.258 78.9096 155.499 78.5781C155.745 78.2467 156.078 77.9865 156.499 77.7976C156.923 77.6087 157.404 77.5142 157.941 77.5142C158.696 77.5142 159.289 77.6799 159.72 78.0114C160.155 78.3428 160.463 78.7803 160.645 79.3239ZM165.871 77.6136V78.608H161.914V77.6136H165.871ZM163.067 75.7841H164.241V83.0625C164.241 83.3939 164.289 83.6425 164.385 83.8082C164.484 83.9706 164.61 84.08 164.763 84.1364C164.919 84.1894 165.083 84.2159 165.255 84.2159C165.384 84.2159 165.49 84.2093 165.573 84.196C165.656 84.1795 165.722 84.1662 165.772 84.1562L166.011 85.2102C165.931 85.2401 165.82 85.2699 165.678 85.2997C165.535 85.3329 165.354 85.3494 165.136 85.3494C164.804 85.3494 164.479 85.2782 164.161 85.1357C163.846 84.9931 163.585 84.776 163.376 84.4844C163.17 84.1927 163.067 83.8248 163.067 83.3807V75.7841ZM174.676 85.4091C173.96 85.4091 173.344 85.2401 172.827 84.902C172.31 84.5639 171.912 84.0982 171.634 83.505C171.355 82.9117 171.216 82.2339 171.216 81.4716C171.216 80.696 171.358 80.0116 171.643 79.4183C171.932 78.8217 172.333 78.3561 172.847 78.0213C173.364 77.6832 173.967 77.5142 174.656 77.5142C175.193 77.5142 175.677 77.6136 176.108 77.8125C176.539 78.0114 176.892 78.2898 177.167 78.6477C177.442 79.0057 177.613 79.4233 177.679 79.9006H176.506C176.416 79.5526 176.217 79.2443 175.909 78.9759C175.604 78.7041 175.193 78.5682 174.676 78.5682C174.219 78.5682 173.818 78.6875 173.473 78.9261C173.132 79.1615 172.865 79.4946 172.673 79.9254C172.484 80.353 172.389 80.8551 172.389 81.4318C172.389 82.0218 172.482 82.5355 172.668 82.973C172.857 83.4105 173.122 83.7502 173.463 83.9922C173.808 84.2341 174.212 84.3551 174.676 84.3551C174.981 84.3551 175.258 84.3021 175.506 84.196C175.755 84.09 175.965 83.9375 176.138 83.7386C176.31 83.5398 176.433 83.3011 176.506 83.0227H177.679C177.613 83.4735 177.449 83.8795 177.187 84.2408C176.928 84.5987 176.585 84.8838 176.158 85.0959C175.733 85.3047 175.24 85.4091 174.676 85.4091ZM182.496 85.4091C181.807 85.4091 181.202 85.245 180.682 84.9169C180.165 84.5888 179.76 84.1297 179.469 83.5398C179.18 82.9498 179.036 82.2604 179.036 81.4716C179.036 80.6761 179.18 79.9818 179.469 79.3885C179.76 78.7952 180.165 78.3345 180.682 78.0064C181.202 77.6783 181.807 77.5142 182.496 77.5142C183.186 77.5142 183.789 77.6783 184.306 78.0064C184.826 78.3345 185.231 78.7952 185.519 79.3885C185.811 79.9818 185.957 80.6761 185.957 81.4716C185.957 82.2604 185.811 82.9498 185.519 83.5398C185.231 84.1297 184.826 84.5888 184.306 84.9169C183.789 85.245 183.186 85.4091 182.496 85.4091ZM182.496 84.3551C183.02 84.3551 183.451 84.2209 183.789 83.9524C184.127 83.6839 184.377 83.331 184.54 82.8935C184.702 82.456 184.783 81.982 184.783 81.4716C184.783 80.9612 184.702 80.4856 184.54 80.0447C184.377 79.6039 184.127 79.2476 183.789 78.9759C183.451 78.7041 183.02 78.5682 182.496 78.5682C181.973 78.5682 181.542 78.7041 181.204 78.9759C180.866 79.2476 180.616 79.6039 180.453 80.0447C180.291 80.4856 180.21 80.9612 180.21 81.4716C180.21 81.982 180.291 82.456 180.453 82.8935C180.616 83.331 180.866 83.6839 181.204 83.9524C181.542 84.2209 181.973 84.3551 182.496 84.3551ZM187.748 85.25V77.6136H188.881V78.8068H188.981C189.14 78.3991 189.397 78.0826 189.751 77.8572C190.106 77.6286 190.532 77.5142 191.029 77.5142C191.533 77.5142 191.952 77.6286 192.287 77.8572C192.625 78.0826 192.888 78.3991 193.077 78.8068H193.157C193.352 78.4124 193.646 78.0992 194.037 77.8672C194.428 77.6319 194.897 77.5142 195.444 77.5142C196.126 77.5142 196.685 77.728 197.119 78.1555C197.553 78.5798 197.77 79.241 197.77 80.1392V85.25H196.597V80.1392C196.597 79.5758 196.443 79.1731 196.135 78.9311C195.827 78.6892 195.464 78.5682 195.046 78.5682C194.509 78.5682 194.093 78.7306 193.798 79.0554C193.503 79.3769 193.356 79.7846 193.356 80.2784V85.25H192.162V80.0199C192.162 79.5857 192.022 79.236 191.74 78.9709C191.458 78.7024 191.095 78.5682 190.651 78.5682C190.346 78.5682 190.061 78.6494 189.796 78.8118C189.534 78.9742 189.322 79.1996 189.16 79.4879C189.001 79.773 188.921 80.1027 188.921 80.4773V85.25H187.748ZM199.916 88.1136V77.6136H201.049V78.8267H201.188C201.275 78.6941 201.394 78.5251 201.546 78.3196C201.702 78.1108 201.924 77.9252 202.213 77.7628C202.504 77.5971 202.899 77.5142 203.396 77.5142C204.039 77.5142 204.606 77.675 205.096 77.9964C205.587 78.3179 205.969 78.7737 206.244 79.3636C206.52 79.9536 206.657 80.6496 206.657 81.4517C206.657 82.2604 206.52 82.9614 206.244 83.5547C205.969 84.1446 205.588 84.602 205.101 84.9268C204.614 85.2483 204.052 85.4091 203.416 85.4091C202.925 85.4091 202.532 85.3279 202.237 85.1655C201.942 84.9998 201.715 84.8125 201.556 84.6037C201.397 84.3916 201.275 84.2159 201.188 84.0767H201.089V88.1136H199.916ZM201.069 81.4318C201.069 82.0085 201.154 82.5173 201.323 82.9581C201.492 83.3956 201.739 83.7386 202.063 83.9872C202.388 84.2325 202.786 84.3551 203.257 84.3551C203.747 84.3551 204.156 84.2259 204.485 83.9673C204.816 83.7055 205.065 83.3542 205.23 82.9134C205.399 82.4692 205.484 81.9754 205.484 81.4318C205.484 80.8949 205.401 80.411 205.235 79.9801C205.073 79.5459 204.826 79.2029 204.494 78.951C204.166 78.6958 203.754 78.5682 203.257 78.5682C202.779 78.5682 202.378 78.6892 202.053 78.9311C201.729 79.1697 201.483 79.5045 201.318 79.9354C201.152 80.3629 201.069 80.8617 201.069 81.4318ZM210.694 85.429C210.21 85.429 209.771 85.3378 209.377 85.1555C208.982 84.9699 208.669 84.7031 208.437 84.3551C208.205 84.0038 208.089 83.5795 208.089 83.0824C208.089 82.6449 208.175 82.2902 208.347 82.0185C208.52 81.7434 208.75 81.5279 209.039 81.3722C209.327 81.2164 209.645 81.1004 209.993 81.0241C210.344 80.9446 210.697 80.8816 211.052 80.8352C211.516 80.7756 211.892 80.7308 212.181 80.701C212.472 80.6679 212.684 80.6132 212.817 80.5369C212.953 80.4607 213.021 80.3281 213.021 80.1392V80.0994C213.021 79.6089 212.887 79.2277 212.618 78.956C212.353 78.6842 211.95 78.5483 211.41 78.5483C210.85 78.5483 210.411 78.6709 210.093 78.9162C209.774 79.1615 209.551 79.4233 209.421 79.7017L208.308 79.304C208.507 78.84 208.772 78.4787 209.103 78.2202C209.438 77.9583 209.802 77.776 210.197 77.6733C210.595 77.5672 210.986 77.5142 211.37 77.5142C211.615 77.5142 211.897 77.544 212.215 77.6037C212.537 77.66 212.847 77.7777 213.145 77.9567C213.447 78.1357 213.697 78.4058 213.896 78.767C214.095 79.1283 214.194 79.6122 214.194 80.2188V85.25H213.021V84.2159H212.961C212.882 84.3816 212.749 84.5589 212.563 84.7479C212.378 84.9368 212.131 85.0975 211.823 85.2301C211.514 85.3627 211.138 85.429 210.694 85.429ZM210.873 84.375C211.337 84.375 211.728 84.2839 212.046 84.1016C212.368 83.9193 212.61 83.6839 212.772 83.3956C212.938 83.1072 213.021 82.804 213.021 82.4858V81.4119C212.971 81.4716 212.862 81.5263 212.693 81.576C212.527 81.6224 212.335 81.6638 212.116 81.7003C211.901 81.7334 211.69 81.7633 211.485 81.7898C211.282 81.813 211.118 81.8329 210.992 81.8494C210.687 81.8892 210.402 81.9538 210.137 82.0433C209.875 82.1295 209.663 82.2604 209.501 82.4361C209.342 82.6084 209.262 82.8437 209.262 83.142C209.262 83.5497 209.413 83.858 209.715 84.0668C210.02 84.2723 210.406 84.375 210.873 84.375ZM217.509 80.6562V85.25H216.336V77.6136H217.469V78.8068H217.569C217.748 78.419 218.019 78.1075 218.384 77.8722C218.748 77.6335 219.219 77.5142 219.796 77.5142C220.313 77.5142 220.765 77.6203 221.153 77.8324C221.541 78.0412 221.842 78.3594 222.058 78.7869C222.273 79.2112 222.381 79.7481 222.381 80.3977V85.25H221.208V80.4773C221.208 79.8774 221.052 79.41 220.74 79.0753C220.429 78.7372 220.001 78.5682 219.458 78.5682C219.083 78.5682 218.748 78.6494 218.453 78.8118C218.162 78.9742 217.931 79.2112 217.762 79.5227C217.593 79.8343 217.509 80.2121 217.509 80.6562ZM225.007 88.1136C224.808 88.1136 224.631 88.0971 224.475 88.0639C224.32 88.0341 224.212 88.0043 224.152 87.9744L224.45 86.9403C224.735 87.0133 224.987 87.0398 225.206 87.0199C225.425 87 225.619 86.9022 225.788 86.7266C225.96 86.5542 226.118 86.2741 226.26 85.8864L226.479 85.2898L223.655 77.6136H224.928L227.036 83.6989H227.115L229.223 77.6136H230.496L227.254 86.3636C227.109 86.758 226.928 87.0845 226.713 87.343C226.497 87.6049 226.247 87.7988 225.962 87.9247C225.68 88.0507 225.362 88.1136 225.007 88.1136ZM240.795 82.1278V77.6136H241.968V85.25H240.795V83.9574H240.715C240.536 84.3452 240.258 84.675 239.88 84.9467C239.502 85.2152 239.025 85.3494 238.448 85.3494C237.971 85.3494 237.546 85.245 237.175 85.0362C236.804 84.8241 236.512 84.5059 236.3 84.0817C236.088 83.6541 235.982 83.1155 235.982 82.4659V77.6136H237.155V82.3864C237.155 82.9432 237.311 83.3873 237.623 83.7188C237.938 84.0502 238.339 84.2159 238.826 84.2159C239.117 84.2159 239.414 84.1413 239.716 83.9922C240.021 83.843 240.276 83.6143 240.481 83.3061C240.69 82.9979 240.795 82.6051 240.795 82.1278ZM244.117 88.1136V77.6136H245.25V78.8267H245.39C245.476 78.6941 245.595 78.5251 245.748 78.3196C245.903 78.1108 246.125 77.9252 246.414 77.7628C246.705 77.5971 247.1 77.5142 247.597 77.5142C248.24 77.5142 248.807 77.675 249.297 77.9964C249.788 78.3179 250.171 78.7737 250.446 79.3636C250.721 79.9536 250.858 80.6496 250.858 81.4517C250.858 82.2604 250.721 82.9614 250.446 83.5547C250.171 84.1446 249.789 84.602 249.302 84.9268C248.815 85.2483 248.253 85.4091 247.617 85.4091C247.126 85.4091 246.734 85.3279 246.439 85.1655C246.144 84.9998 245.917 84.8125 245.757 84.6037C245.598 84.3916 245.476 84.2159 245.39 84.0767H245.29V88.1136H244.117ZM245.27 81.4318C245.27 82.0085 245.355 82.5173 245.524 82.9581C245.693 83.3956 245.94 83.7386 246.265 83.9872C246.589 84.2325 246.987 84.3551 247.458 84.3551C247.948 84.3551 248.358 84.2259 248.686 83.9673C249.017 83.7055 249.266 83.3542 249.431 82.9134C249.6 82.4692 249.685 81.9754 249.685 81.4318C249.685 80.8949 249.602 80.411 249.436 79.9801C249.274 79.5459 249.027 79.2029 248.696 78.951C248.368 78.6958 247.955 78.5682 247.458 78.5682C246.98 78.5682 246.579 78.6892 246.255 78.9311C245.93 79.1697 245.685 79.5045 245.519 79.9354C245.353 80.3629 245.27 80.8617 245.27 81.4318ZM255.532 85.4091C254.895 85.4091 254.333 85.2483 253.846 84.9268C253.359 84.602 252.978 84.1446 252.703 83.5547C252.428 82.9614 252.29 82.2604 252.29 81.4517C252.29 80.6496 252.428 79.9536 252.703 79.3636C252.978 78.7737 253.361 78.3179 253.851 77.9964C254.342 77.675 254.908 77.5142 255.551 77.5142C256.049 77.5142 256.441 77.5971 256.73 77.7628C257.021 77.9252 257.243 78.1108 257.396 78.3196C257.552 78.5251 257.673 78.6941 257.759 78.8267H257.858V75.0682H259.032V85.25H257.898V84.0767H257.759C257.673 84.2159 257.55 84.3916 257.391 84.6037C257.232 84.8125 257.005 84.9998 256.71 85.1655C256.415 85.3279 256.022 85.4091 255.532 85.4091ZM255.691 84.3551C256.161 84.3551 256.559 84.2325 256.884 83.9872C257.209 83.7386 257.456 83.3956 257.625 82.9581C257.794 82.5173 257.878 82.0085 257.878 81.4318C257.878 80.8617 257.795 80.3629 257.63 79.9354C257.464 79.5045 257.219 79.1697 256.894 78.9311C256.569 78.6892 256.168 78.5682 255.691 78.5682C255.194 78.5682 254.779 78.6958 254.448 78.951C254.12 79.2029 253.873 79.5459 253.707 79.9801C253.545 80.411 253.463 80.8949 253.463 81.4318C253.463 81.9754 253.546 82.4692 253.712 82.9134C253.881 83.3542 254.13 83.7055 254.458 83.9673C254.789 84.2259 255.2 84.3551 255.691 84.3551ZM263.591 85.429C263.107 85.429 262.667 85.3378 262.273 85.1555C261.879 84.9699 261.565 84.7031 261.333 84.3551C261.101 84.0038 260.985 83.5795 260.985 83.0824C260.985 82.6449 261.072 82.2902 261.244 82.0185C261.416 81.7434 261.647 81.5279 261.935 81.3722C262.223 81.2164 262.542 81.1004 262.89 81.0241C263.241 80.9446 263.594 80.8816 263.949 80.8352C264.413 80.7756 264.789 80.7308 265.077 80.701C265.369 80.6679 265.581 80.6132 265.713 80.5369C265.849 80.4607 265.917 80.3281 265.917 80.1392V80.0994C265.917 79.6089 265.783 79.2277 265.515 78.956C265.249 78.6842 264.847 78.5483 264.306 78.5483C263.746 78.5483 263.307 78.6709 262.989 78.9162C262.671 79.1615 262.447 79.4233 262.318 79.7017L261.204 79.304C261.403 78.84 261.668 78.4787 262 78.2202C262.334 77.9583 262.699 77.776 263.093 77.6733C263.491 77.5672 263.882 77.5142 264.267 77.5142C264.512 77.5142 264.794 77.544 265.112 77.6037C265.433 77.66 265.743 77.7777 266.042 77.9567C266.343 78.1357 266.593 78.4058 266.792 78.767C266.991 79.1283 267.091 79.6122 267.091 80.2188V85.25H265.917V84.2159H265.858C265.778 84.3816 265.645 84.5589 265.46 84.7479C265.274 84.9368 265.027 85.0975 264.719 85.2301C264.411 85.3627 264.035 85.429 263.591 85.429ZM263.77 84.375C264.234 84.375 264.625 84.2839 264.943 84.1016C265.264 83.9193 265.506 83.6839 265.669 83.3956C265.834 83.1072 265.917 82.804 265.917 82.4858V81.4119C265.868 81.4716 265.758 81.5263 265.589 81.576C265.423 81.6224 265.231 81.6638 265.012 81.7003C264.797 81.7334 264.587 81.7633 264.381 81.7898C264.179 81.813 264.015 81.8329 263.889 81.8494C263.584 81.8892 263.299 81.9538 263.034 82.0433C262.772 82.1295 262.56 82.2604 262.397 82.4361C262.238 82.6084 262.159 82.8437 262.159 83.142C262.159 83.5497 262.31 83.858 262.611 84.0668C262.916 84.2723 263.302 84.375 263.77 84.375ZM272.553 77.6136V78.608H268.596V77.6136H272.553ZM269.749 75.7841H270.922V83.0625C270.922 83.3939 270.97 83.6425 271.067 83.8082C271.166 83.9706 271.292 84.08 271.444 84.1364C271.6 84.1894 271.764 84.2159 271.937 84.2159C272.066 84.2159 272.172 84.2093 272.255 84.196C272.338 84.1795 272.404 84.1662 272.454 84.1562L272.692 85.2102C272.613 85.2401 272.502 85.2699 272.359 85.2997C272.217 85.3329 272.036 85.3494 271.817 85.3494C271.486 85.3494 271.161 85.2782 270.843 85.1357C270.528 84.9931 270.266 84.776 270.057 84.4844C269.852 84.1927 269.749 83.8248 269.749 83.3807V75.7841ZM277.438 85.4091C276.702 85.4091 276.067 85.2467 275.534 84.9219C275.003 84.5938 274.594 84.1364 274.306 83.5497C274.021 82.9598 273.878 82.2737 273.878 81.4915C273.878 80.7093 274.021 80.0199 274.306 79.4233C274.594 78.8234 274.995 78.3561 275.509 78.0213C276.026 77.6832 276.629 77.5142 277.318 77.5142C277.716 77.5142 278.109 77.5805 278.497 77.7131C278.884 77.8456 279.237 78.0611 279.556 78.3594C279.874 78.6544 280.127 79.0455 280.316 79.5327C280.505 80.0199 280.6 80.6198 280.6 81.3324V81.8295H274.713V80.8153H279.406C279.406 80.3845 279.32 80 279.148 79.6619C278.979 79.3239 278.737 79.0571 278.422 78.8615C278.11 78.666 277.743 78.5682 277.318 78.5682C276.851 78.5682 276.447 78.6842 276.105 78.9162C275.767 79.1449 275.507 79.4432 275.325 79.8111C275.142 80.179 275.051 80.5734 275.051 80.9943V81.6705C275.051 82.2472 275.151 82.736 275.35 83.1371C275.552 83.5348 275.832 83.8381 276.19 84.0469C276.548 84.2524 276.964 84.3551 277.438 84.3551C277.746 84.3551 278.024 84.312 278.273 84.2259C278.525 84.1364 278.742 84.0038 278.924 83.8281C279.106 83.6491 279.247 83.4271 279.347 83.1619L280.48 83.4801C280.361 83.8646 280.16 84.2027 279.879 84.4943C279.597 84.7827 279.249 85.008 278.835 85.1705C278.42 85.3295 277.955 85.4091 277.438 85.4091ZM287.794 79.3239L286.74 79.6222C286.673 79.4465 286.575 79.2758 286.446 79.1101C286.32 78.9411 286.148 78.8018 285.929 78.6925C285.71 78.5831 285.43 78.5284 285.089 78.5284C284.622 78.5284 284.232 78.6361 283.921 78.8516C283.612 79.0637 283.458 79.3338 283.458 79.6619C283.458 79.9536 283.564 80.1839 283.776 80.353C283.989 80.522 284.32 80.6629 284.771 80.7756L285.904 81.054C286.587 81.2197 287.096 81.4732 287.431 81.8146C287.765 82.1527 287.933 82.5885 287.933 83.1222C287.933 83.5597 287.807 83.9508 287.555 84.2955C287.306 84.6402 286.958 84.9119 286.511 85.1108C286.063 85.3097 285.543 85.4091 284.95 85.4091C284.171 85.4091 283.526 85.2401 283.016 84.902C282.505 84.5639 282.182 84.0701 282.046 83.4205L283.16 83.142C283.266 83.553 283.467 83.8613 283.762 84.0668C284.06 84.2723 284.449 84.375 284.93 84.375C285.477 84.375 285.911 84.259 286.232 84.027C286.557 83.7917 286.72 83.5099 286.72 83.1818C286.72 82.9167 286.627 82.6946 286.441 82.5156C286.256 82.3333 285.971 82.1974 285.586 82.108L284.313 81.8097C283.614 81.6439 283.1 81.3871 282.772 81.0391C282.447 80.6877 282.285 80.2486 282.285 79.7216C282.285 79.2907 282.406 78.9096 282.648 78.5781C282.893 78.2467 283.226 77.9865 283.647 77.7976C284.071 77.6087 284.552 77.5142 285.089 77.5142C285.845 77.5142 286.438 77.6799 286.869 78.0114C287.303 78.3428 287.611 78.7803 287.794 79.3239ZM295.884 85.429C295.4 85.429 294.96 85.3378 294.566 85.1555C294.172 84.9699 293.858 84.7031 293.626 84.3551C293.394 84.0038 293.278 83.5795 293.278 83.0824C293.278 82.6449 293.365 82.2902 293.537 82.0185C293.709 81.7434 293.94 81.5279 294.228 81.3722C294.516 81.2164 294.835 81.1004 295.183 81.0241C295.534 80.9446 295.887 80.8816 296.241 80.8352C296.705 80.7756 297.082 80.7308 297.37 80.701C297.662 80.6679 297.874 80.6132 298.006 80.5369C298.142 80.4607 298.21 80.3281 298.21 80.1392V80.0994C298.21 79.6089 298.076 79.2277 297.808 78.956C297.542 78.6842 297.14 78.5483 296.599 78.5483C296.039 78.5483 295.6 78.6709 295.282 78.9162C294.964 79.1615 294.74 79.4233 294.611 79.7017L293.497 79.304C293.696 78.84 293.961 78.4787 294.293 78.2202C294.627 77.9583 294.992 77.776 295.386 77.6733C295.784 77.5672 296.175 77.5142 296.56 77.5142C296.805 77.5142 297.087 77.544 297.405 77.6037C297.726 77.66 298.036 77.7777 298.335 77.9567C298.636 78.1357 298.886 78.4058 299.085 78.767C299.284 79.1283 299.384 79.6122 299.384 80.2188V85.25H298.21V84.2159H298.151C298.071 84.3816 297.938 84.5589 297.753 84.7479C297.567 84.9368 297.32 85.0975 297.012 85.2301C296.704 85.3627 296.328 85.429 295.884 85.429ZM296.062 84.375C296.527 84.375 296.918 84.2839 297.236 84.1016C297.557 83.9193 297.799 83.6839 297.962 83.3956C298.127 83.1072 298.21 82.804 298.21 82.4858V81.4119C298.161 81.4716 298.051 81.5263 297.882 81.576C297.716 81.6224 297.524 81.6638 297.305 81.7003C297.09 81.7334 296.879 81.7633 296.674 81.7898C296.472 81.813 296.308 81.8329 296.182 81.8494C295.877 81.8892 295.592 81.9538 295.327 82.0433C295.065 82.1295 294.853 82.2604 294.69 82.4361C294.531 82.6084 294.452 82.8437 294.452 83.142C294.452 83.5497 294.603 83.858 294.904 84.0668C295.209 84.2723 295.595 84.375 296.062 84.375ZM302.698 80.6562V85.25H301.525V77.6136H302.659V78.8068H302.758C302.937 78.419 303.209 78.1075 303.573 77.8722C303.938 77.6335 304.409 77.5142 304.985 77.5142C305.502 77.5142 305.955 77.6203 306.343 77.8324C306.73 78.0412 307.032 78.3594 307.247 78.7869C307.463 79.2112 307.57 79.7481 307.57 80.3977V85.25H306.397V80.4773C306.397 79.8774 306.241 79.41 305.93 79.0753C305.618 78.7372 305.191 78.5682 304.647 78.5682C304.273 78.5682 303.938 78.6494 303.643 78.8118C303.351 78.9742 303.121 79.2112 302.952 79.5227C302.783 79.8343 302.698 80.2121 302.698 80.6562ZM312.598 85.4091C311.962 85.4091 311.4 85.2483 310.913 84.9268C310.425 84.602 310.044 84.1446 309.769 83.5547C309.494 82.9614 309.357 82.2604 309.357 81.4517C309.357 80.6496 309.494 79.9536 309.769 79.3636C310.044 78.7737 310.427 78.3179 310.918 77.9964C311.408 77.675 311.975 77.5142 312.618 77.5142C313.115 77.5142 313.508 77.5971 313.796 77.7628C314.088 77.9252 314.31 78.1108 314.462 78.3196C314.618 78.5251 314.739 78.6941 314.825 78.8267H314.925V75.0682H316.098V85.25H314.964V84.0767H314.825C314.739 84.2159 314.616 84.3916 314.457 84.6037C314.298 84.8125 314.071 84.9998 313.776 85.1655C313.481 85.3279 313.089 85.4091 312.598 85.4091ZM312.757 84.3551C313.228 84.3551 313.625 84.2325 313.95 83.9872C314.275 83.7386 314.522 83.3956 314.691 82.9581C314.86 82.5173 314.945 82.0085 314.945 81.4318C314.945 80.8617 314.862 80.3629 314.696 79.9354C314.53 79.5045 314.285 79.1697 313.96 78.9311C313.635 78.6892 313.234 78.5682 312.757 78.5682C312.26 78.5682 311.846 78.6958 311.514 78.951C311.186 79.2029 310.939 79.5459 310.773 79.9801C310.611 80.411 310.53 80.8949 310.53 81.4318C310.53 81.9754 310.613 82.4692 310.778 82.9134C310.947 83.3542 311.196 83.7055 311.524 83.9673C311.856 84.2259 312.267 84.3551 312.757 84.3551ZM26.483 100.324L25.429 100.622C25.3627 100.446 25.2649 100.276 25.1357 100.11C25.0097 99.9411 24.8374 99.8018 24.6186 99.6925C24.3999 99.5831 24.1198 99.5284 23.7784 99.5284C23.3111 99.5284 22.9216 99.6361 22.6101 99.8516C22.3018 100.064 22.1477 100.334 22.1477 100.662C22.1477 100.954 22.2538 101.184 22.4659 101.353C22.678 101.522 23.0095 101.663 23.4602 101.776L24.5938 102.054C25.2765 102.22 25.7853 102.473 26.12 102.815C26.4548 103.153 26.6222 103.589 26.6222 104.122C26.6222 104.56 26.4962 104.951 26.2443 105.295C25.9957 105.64 25.6477 105.912 25.2003 106.111C24.7528 106.31 24.2325 106.409 23.6392 106.409C22.8603 106.409 22.2157 106.24 21.7053 105.902C21.1948 105.564 20.8717 105.07 20.7358 104.42L21.8494 104.142C21.9555 104.553 22.156 104.861 22.451 105.067C22.7493 105.272 23.1387 105.375 23.6193 105.375C24.1662 105.375 24.6004 105.259 24.9219 105.027C25.2467 104.792 25.4091 104.51 25.4091 104.182C25.4091 103.917 25.3163 103.695 25.1307 103.516C24.9451 103.333 24.66 103.197 24.2756 103.108L23.0028 102.81C22.3035 102.644 21.7898 102.387 21.4616 102.039C21.1368 101.688 20.9744 101.249 20.9744 100.722C20.9744 100.291 21.0954 99.9096 21.3374 99.5781C21.5826 99.2467 21.9157 98.9865 22.3366 98.7976C22.7609 98.6087 23.2415 98.5142 23.7784 98.5142C24.5341 98.5142 25.1274 98.6799 25.5582 99.0114C25.9924 99.3428 26.3007 99.7803 26.483 100.324ZM31.7093 98.6136V99.608H27.752V98.6136H31.7093ZM28.9054 96.7841H30.0787V104.062C30.0787 104.394 30.1267 104.643 30.2228 104.808C30.3223 104.971 30.4482 105.08 30.6007 105.136C30.7565 105.189 30.9205 105.216 31.0929 105.216C31.2221 105.216 31.3282 105.209 31.411 105.196C31.4939 105.179 31.5602 105.166 31.6099 105.156L31.8485 106.21C31.769 106.24 31.658 106.27 31.5154 106.3C31.3729 106.333 31.1923 106.349 30.9735 106.349C30.6421 106.349 30.3173 106.278 29.9991 106.136C29.6842 105.993 29.4224 105.776 29.2136 105.484C29.0081 105.193 28.9054 104.825 28.9054 104.381V96.7841ZM36.4945 106.409C35.8051 106.409 35.2002 106.245 34.6799 105.917C34.1628 105.589 33.7585 105.13 33.4668 104.54C33.1784 103.95 33.0343 103.26 33.0343 102.472C33.0343 101.676 33.1784 100.982 33.4668 100.388C33.7585 99.7952 34.1628 99.3345 34.6799 99.0064C35.2002 98.6783 35.8051 98.5142 36.4945 98.5142C37.1839 98.5142 37.7871 98.6783 38.3042 99.0064C38.8245 99.3345 39.2289 99.7952 39.5172 100.388C39.8089 100.982 39.9547 101.676 39.9547 102.472C39.9547 103.26 39.8089 103.95 39.5172 104.54C39.2289 105.13 38.8245 105.589 38.3042 105.917C37.7871 106.245 37.1839 106.409 36.4945 106.409ZM36.4945 105.355C37.0182 105.355 37.449 105.221 37.7871 104.952C38.1252 104.684 38.3754 104.331 38.5378 103.893C38.7002 103.456 38.7814 102.982 38.7814 102.472C38.7814 101.961 38.7002 101.486 38.5378 101.045C38.3754 100.604 38.1252 100.248 37.7871 99.9759C37.449 99.7041 37.0182 99.5682 36.4945 99.5682C35.9708 99.5682 35.54 99.7041 35.2019 99.9759C34.8638 100.248 34.6136 100.604 34.4512 101.045C34.2888 101.486 34.2076 101.961 34.2076 102.472C34.2076 102.982 34.2888 103.456 34.4512 103.893C34.6136 104.331 34.8638 104.684 35.2019 104.952C35.54 105.221 35.9708 105.355 36.4945 105.355ZM41.7457 106.25V98.6136H42.8793V99.767H42.9588C43.098 99.3892 43.3499 99.0826 43.7145 98.8473C44.0791 98.612 44.4901 98.4943 44.9474 98.4943C45.0336 98.4943 45.1413 98.496 45.2706 98.4993C45.3999 98.5026 45.4976 98.5076 45.5639 98.5142V99.7074C45.5241 99.6974 45.433 99.6825 45.2905 99.6626C45.1513 99.6394 45.0038 99.6278 44.848 99.6278C44.4768 99.6278 44.1454 99.7057 43.8537 99.8615C43.5653 100.014 43.3366 100.226 43.1676 100.498C43.0019 100.766 42.919 101.073 42.919 101.418V106.25H41.7457ZM46.9547 106.25V98.6136H48.128V106.25H46.9547ZM47.5513 97.3409C47.3226 97.3409 47.1254 97.263 46.9597 97.1072C46.7973 96.9515 46.7161 96.7642 46.7161 96.5455C46.7161 96.3267 46.7973 96.1394 46.9597 95.9837C47.1254 95.8279 47.3226 95.75 47.5513 95.75C47.78 95.75 47.9756 95.8279 48.138 95.9837C48.3037 96.1394 48.3865 96.3267 48.3865 96.5455C48.3865 96.7642 48.3037 96.9515 48.138 97.1072C47.9756 97.263 47.78 97.3409 47.5513 97.3409ZM53.4787 106.409C52.7429 106.409 52.1082 106.247 51.5746 105.922C51.0443 105.594 50.6349 105.136 50.3466 104.55C50.0616 103.96 49.919 103.274 49.919 102.491C49.919 101.709 50.0616 101.02 50.3466 100.423C50.6349 99.8234 51.036 99.3561 51.5497 99.0213C52.0668 98.6832 52.67 98.5142 53.3594 98.5142C53.7571 98.5142 54.1499 98.5805 54.5376 98.7131C54.9254 98.8456 55.2784 99.0611 55.5966 99.3594C55.9148 99.6544 56.1683 100.045 56.3572 100.533C56.5462 101.02 56.6406 101.62 56.6406 102.332V102.83H50.7543V101.815H55.4474C55.4474 101.384 55.3613 101 55.1889 100.662C55.0199 100.324 54.7779 100.057 54.4631 99.8615C54.1515 99.666 53.7836 99.5682 53.3594 99.5682C52.892 99.5682 52.4877 99.6842 52.1463 99.9162C51.8082 100.145 51.5481 100.443 51.3658 100.811C51.1835 101.179 51.0923 101.573 51.0923 101.994V102.67C51.0923 103.247 51.1918 103.736 51.3906 104.137C51.5928 104.535 51.8729 104.838 52.2308 105.047C52.5888 105.252 53.0047 105.355 53.4787 105.355C53.7869 105.355 54.0653 105.312 54.3139 105.226C54.5658 105.136 54.7829 105.004 54.9652 104.828C55.1475 104.649 55.2884 104.427 55.3878 104.162L56.5213 104.48C56.402 104.865 56.2015 105.203 55.9197 105.494C55.638 105.783 55.29 106.008 54.8757 106.17C54.4614 106.33 53.9957 106.409 53.4787 106.409ZM63.8345 100.324L62.7805 100.622C62.7143 100.446 62.6165 100.276 62.4872 100.11C62.3613 99.9411 62.1889 99.8018 61.9702 99.6925C61.7514 99.5831 61.4714 99.5284 61.13 99.5284C60.6626 99.5284 60.2732 99.6361 59.9616 99.8516C59.6534 100.064 59.4993 100.334 59.4993 100.662C59.4993 100.954 59.6054 101.184 59.8175 101.353C60.0296 101.522 60.361 101.663 60.8118 101.776L61.9453 102.054C62.6281 102.22 63.1368 102.473 63.4716 102.815C63.8063 103.153 63.9737 103.589 63.9737 104.122C63.9737 104.56 63.8478 104.951 63.5959 105.295C63.3473 105.64 62.9993 105.912 62.5518 106.111C62.1044 106.31 61.584 106.409 60.9908 106.409C60.2119 106.409 59.5672 106.24 59.0568 105.902C58.5464 105.564 58.2232 105.07 58.0874 104.42L59.201 104.142C59.3071 104.553 59.5076 104.861 59.8026 105.067C60.1009 105.272 60.4903 105.375 60.9709 105.375C61.5178 105.375 61.9519 105.259 62.2734 105.027C62.5982 104.792 62.7607 104.51 62.7607 104.182C62.7607 103.917 62.6679 103.695 62.4822 103.516C62.2966 103.333 62.0116 103.197 61.6271 103.108L60.3544 102.81C59.6551 102.644 59.1413 102.387 58.8132 102.039C58.4884 101.688 58.326 101.249 58.326 100.722C58.326 100.291 58.447 99.9096 58.6889 99.5781C58.9342 99.2467 59.2673 98.9865 59.6882 98.7976C60.1125 98.6087 60.593 98.5142 61.13 98.5142C61.8857 98.5142 62.4789 98.6799 62.9098 99.0114C63.344 99.3428 63.6522 99.7803 63.8345 100.324ZM66.595 106.33C66.3497 106.33 66.1393 106.242 65.9636 106.066C65.7879 105.89 65.7001 105.68 65.7001 105.435C65.7001 105.189 65.7879 104.979 65.9636 104.803C66.1393 104.628 66.3497 104.54 66.595 104.54C66.8403 104.54 67.0507 104.628 67.2264 104.803C67.402 104.979 67.4899 105.189 67.4899 105.435C67.4899 105.597 67.4484 105.746 67.3656 105.882C67.286 106.018 67.1783 106.127 67.0424 106.21C66.9099 106.29 66.7607 106.33 66.595 106.33Z" fill="white"/>
<rect x="0.5" y="0.75" width="339" height="139" rx="15.5" stroke="#5554AB"/>
<defs>
<linearGradient id="paint0_linear_25_441" x1="0" y1="70.25" x2="340" y2="70.25" gradientUnits="userSpaceOnUse">
<stop stop-color="#212161"/>
<stop offset="1" stop-color="#211E6B" stop-opacity="0.5"/>
</linearGradient>
<clipPath id="clip0_25_441">
<rect width="122" height="24" fill="white" transform="translate(20 29.25)"/>
</clipPath>
<clipPath id="clip1_25_441">
<rect width="6" height="11" fill="white" transform="translate(31 35.75)"/>
</clipPath>
</defs>
</svg>
