<svg width="340" height="141" viewBox="0 0 340 141" fill="none" xmlns="http://www.w3.org/2000/svg">
<rect y="0.25" width="340" height="140" rx="16" fill="url(#paint0_linear_25_458)"/>
<g clip-path="url(#clip0_25_458)">
<rect x="22" y="18.75" width="24" height="24" rx="12" fill="#414787" fill-opacity="0.5"/>
<g clip-path="url(#clip1_25_458)">
<path d="M33.25 25.5H32.125C31.504 25.5 31 26.004 31 26.625V34.875C31 35.496 31.504 36 32.125 36H35.875C36.496 36 37 35.496 37 34.875V26.625C37 26.004 36.496 25.5 35.875 25.5H34.75M33.25 25.5V26.25H34.75V25.5M33.25 25.5H34.75M33.25 34.875H34.75" stroke="white" stroke-linecap="round" stroke-linejoin="round"/>
</g>
<path d="M55.2784 24.6136H57.4091L61.1136 33.6591H61.25L64.9545 24.6136H67.0852V36.25H65.4148V27.8295H65.3068L61.875 36.233H60.4886L57.0568 27.8239H56.9489V36.25H55.2784V24.6136ZM73.1776 36.4261C72.3594 36.4261 71.6454 36.2386 71.0355 35.8636C70.4257 35.4886 69.9522 34.964 69.6151 34.2898C69.2779 33.6155 69.1094 32.8277 69.1094 31.9261C69.1094 31.0208 69.2779 30.2292 69.6151 29.5511C69.9522 28.8731 70.4257 28.3466 71.0355 27.9716C71.6454 27.5966 72.3594 27.4091 73.1776 27.4091C73.9957 27.4091 74.7098 27.5966 75.3196 27.9716C75.9295 28.3466 76.4029 28.8731 76.7401 29.5511C77.0772 30.2292 77.2457 31.0208 77.2457 31.9261C77.2457 32.8277 77.0772 33.6155 76.7401 34.2898C76.4029 34.964 75.9295 35.4886 75.3196 35.8636C74.7098 36.2386 73.9957 36.4261 73.1776 36.4261ZM73.1832 35C73.7135 35 74.1529 34.8598 74.5014 34.5795C74.8499 34.2992 75.1075 33.9261 75.2741 33.4602C75.4446 32.9943 75.5298 32.4811 75.5298 31.9205C75.5298 31.3636 75.4446 30.8523 75.2741 30.3864C75.1075 29.9167 74.8499 29.5398 74.5014 29.2557C74.1529 28.9716 73.7135 28.8295 73.1832 28.8295C72.6491 28.8295 72.206 28.9716 71.8537 29.2557C71.5052 29.5398 71.2457 29.9167 71.0753 30.3864C70.9086 30.8523 70.8253 31.3636 70.8253 31.9205C70.8253 32.4811 70.9086 32.9943 71.0753 33.4602C71.2457 33.9261 71.5052 34.2992 71.8537 34.5795C72.206 34.8598 72.6491 35 73.1832 35ZM82.8182 36.4261C82 36.4261 81.286 36.2386 80.6761 35.8636C80.0663 35.4886 79.5928 34.964 79.2557 34.2898C78.9186 33.6155 78.75 32.8277 78.75 31.9261C78.75 31.0208 78.9186 30.2292 79.2557 29.5511C79.5928 28.8731 80.0663 28.3466 80.6761 27.9716C81.286 27.5966 82 27.4091 82.8182 27.4091C83.6364 27.4091 84.3504 27.5966 84.9602 27.9716C85.5701 28.3466 86.0436 28.8731 86.3807 29.5511C86.7178 30.2292 86.8864 31.0208 86.8864 31.9261C86.8864 32.8277 86.7178 33.6155 86.3807 34.2898C86.0436 34.964 85.5701 35.4886 84.9602 35.8636C84.3504 36.2386 83.6364 36.4261 82.8182 36.4261ZM82.8239 35C83.3542 35 83.7936 34.8598 84.142 34.5795C84.4905 34.2992 84.7481 33.9261 84.9148 33.4602C85.0852 32.9943 85.1705 32.4811 85.1705 31.9205C85.1705 31.3636 85.0852 30.8523 84.9148 30.3864C84.7481 29.9167 84.4905 29.5398 84.142 29.2557C83.7936 28.9716 83.3542 28.8295 82.8239 28.8295C82.2898 28.8295 81.8466 28.9716 81.4943 29.2557C81.1458 29.5398 80.8864 29.9167 80.7159 30.3864C80.5492 30.8523 80.4659 31.3636 80.4659 31.9205C80.4659 32.4811 80.5492 32.9943 80.7159 33.4602C80.8864 33.9261 81.1458 34.2992 81.4943 34.5795C81.8466 34.8598 82.2898 35 82.8239 35ZM92.0497 36.4205C91.3452 36.4205 90.7164 36.2405 90.1634 35.8807C89.6141 35.517 89.1823 35 88.8679 34.3295C88.5573 33.6553 88.402 32.8466 88.402 31.9034C88.402 30.9602 88.5592 30.1534 88.8736 29.483C89.1918 28.8125 89.6274 28.2992 90.1804 27.9432C90.7334 27.5871 91.3603 27.4091 92.0611 27.4091C92.6027 27.4091 93.0384 27.5 93.3679 27.6818C93.7012 27.8598 93.9588 28.0682 94.1406 28.3068C94.3262 28.5455 94.4702 28.7557 94.5724 28.9375H94.6747V24.6136H96.3736V36.25H94.7145V34.892H94.5724C94.4702 35.0777 94.3224 35.2898 94.1293 35.5284C93.9399 35.767 93.6785 35.9754 93.3452 36.1534C93.0118 36.3314 92.58 36.4205 92.0497 36.4205ZM92.4247 34.9716C92.9134 34.9716 93.3262 34.8428 93.6634 34.5852C94.0043 34.3239 94.2618 33.9621 94.4361 33.5C94.6141 33.0379 94.7031 32.5 94.7031 31.8864C94.7031 31.2803 94.616 30.75 94.4418 30.2955C94.2675 29.8409 94.0118 29.4867 93.6747 29.233C93.3376 28.9792 92.9209 28.8523 92.4247 28.8523C91.9134 28.8523 91.4872 28.9848 91.1463 29.25C90.8054 29.5152 90.5478 29.8769 90.3736 30.3352C90.2031 30.7936 90.1179 31.3106 90.1179 31.8864C90.1179 32.4697 90.205 32.9943 90.3793 33.4602C90.5535 33.9261 90.8111 34.2955 91.152 34.5682C91.4967 34.8371 91.9209 34.9716 92.4247 34.9716ZM102.595 26.125V24.6136H111.601V26.125H107.97V36.25H106.22V26.125H102.595ZM112.548 36.25V27.5227H114.19V28.9091H114.281C114.44 28.4394 114.721 28.0701 115.122 27.8011C115.527 27.5284 115.986 27.392 116.497 27.392C116.603 27.392 116.728 27.3958 116.872 27.4034C117.02 27.411 117.135 27.4205 117.219 27.4318V29.0568C117.151 29.0379 117.029 29.017 116.855 28.9943C116.681 28.9678 116.507 28.9545 116.332 28.9545C115.931 28.9545 115.573 29.0398 115.259 29.2102C114.948 29.3769 114.702 29.6098 114.52 29.9091C114.338 30.2045 114.247 30.5417 114.247 30.9205V36.25H112.548ZM121.151 36.4432C120.598 36.4432 120.098 36.3409 119.651 36.1364C119.204 35.928 118.849 35.6269 118.588 35.233C118.33 34.839 118.202 34.3561 118.202 33.7841C118.202 33.2917 118.296 32.8864 118.486 32.5682C118.675 32.25 118.931 31.9981 119.253 31.8125C119.575 31.6269 119.935 31.4867 120.332 31.392C120.73 31.2973 121.135 31.2254 121.548 31.1761C122.071 31.1155 122.495 31.0663 122.821 31.0284C123.147 30.9867 123.384 30.9205 123.531 30.8295C123.679 30.7386 123.753 30.5909 123.753 30.3864V30.3466C123.753 29.8504 123.613 29.4659 123.332 29.1932C123.056 28.9205 122.643 28.7841 122.094 28.7841C121.522 28.7841 121.071 28.911 120.741 29.1648C120.416 29.4148 120.19 29.6932 120.065 30L118.469 29.6364C118.658 29.1061 118.935 28.678 119.298 28.3523C119.666 28.0227 120.088 27.7841 120.565 27.6364C121.043 27.4848 121.545 27.4091 122.071 27.4091C122.42 27.4091 122.789 27.4508 123.179 27.5341C123.573 27.6136 123.94 27.7614 124.281 27.9773C124.626 28.1932 124.908 28.5019 125.128 28.9034C125.348 29.3011 125.457 29.8182 125.457 30.4545V36.25H123.798V35.0568H123.73C123.62 35.2765 123.455 35.4924 123.236 35.7045C123.016 35.9167 122.734 36.0928 122.389 36.233C122.045 36.3731 121.632 36.4432 121.151 36.4432ZM121.52 35.0795C121.99 35.0795 122.391 34.9867 122.724 34.8011C123.062 34.6155 123.317 34.3731 123.491 34.0739C123.67 33.7708 123.759 33.447 123.759 33.1023V31.9773C123.698 32.0379 123.58 32.0947 123.406 32.1477C123.236 32.197 123.041 32.2405 122.821 32.2784C122.601 32.3125 122.387 32.3447 122.179 32.375C121.971 32.4015 121.796 32.4242 121.656 32.4432C121.327 32.4848 121.026 32.5549 120.753 32.6534C120.484 32.7519 120.268 32.8939 120.105 33.0795C119.946 33.2614 119.866 33.5038 119.866 33.8068C119.866 34.2273 120.022 34.5455 120.332 34.7614C120.643 34.9735 121.039 35.0795 121.52 35.0795ZM131.396 36.4261C130.552 36.4261 129.824 36.2348 129.214 35.8523C128.608 35.4659 128.143 34.9337 127.817 34.2557C127.491 33.5777 127.328 32.8011 127.328 31.9261C127.328 31.0398 127.495 30.2576 127.828 29.5795C128.161 28.8977 128.631 28.3655 129.237 27.983C129.843 27.6004 130.557 27.4091 131.379 27.4091C132.042 27.4091 132.633 27.5322 133.152 27.7784C133.671 28.0208 134.089 28.3617 134.408 28.8011C134.73 29.2405 134.921 29.7538 134.982 30.3409H133.328C133.237 29.9318 133.029 29.5795 132.703 29.2841C132.381 28.9886 131.949 28.8409 131.408 28.8409C130.934 28.8409 130.519 28.9659 130.163 29.2159C129.811 29.4621 129.536 29.8144 129.339 30.2727C129.143 30.7273 129.044 31.2652 129.044 31.8864C129.044 32.5227 129.141 33.072 129.334 33.5341C129.527 33.9962 129.8 34.3542 130.152 34.608C130.508 34.8617 130.927 34.9886 131.408 34.9886C131.73 34.9886 132.021 34.9299 132.283 34.8125C132.548 34.6913 132.769 34.5189 132.947 34.2955C133.129 34.072 133.256 33.803 133.328 33.4886H134.982C134.921 34.053 134.737 34.5568 134.43 35C134.124 35.4432 133.713 35.7917 133.197 36.0455C132.686 36.2992 132.086 36.4261 131.396 36.4261ZM138.361 33.2898L138.349 31.2159H138.645L142.122 27.5227H144.156L140.19 31.7273H139.923L138.361 33.2898ZM136.798 36.25V24.6136H138.497V36.25H136.798ZM142.31 36.25L139.185 32.1023L140.355 30.9148L144.395 36.25H142.31ZM149.107 36.4261C148.247 36.4261 147.506 36.2424 146.885 35.875C146.268 35.5038 145.79 34.983 145.453 34.3125C145.12 33.6383 144.953 32.8485 144.953 31.9432C144.953 31.0492 145.12 30.2614 145.453 29.5795C145.79 28.8977 146.26 28.3655 146.862 27.983C147.468 27.6004 148.177 27.4091 148.987 27.4091C149.48 27.4091 149.957 27.4905 150.419 27.6534C150.881 27.8163 151.296 28.072 151.663 28.4205C152.031 28.7689 152.321 29.2216 152.533 29.7784C152.745 30.3314 152.851 31.0038 152.851 31.7955V32.3977H145.913V31.125H151.186C151.186 30.678 151.095 30.2822 150.913 29.9375C150.732 29.589 150.476 29.3144 150.146 29.1136C149.821 28.9129 149.438 28.8125 148.999 28.8125C148.521 28.8125 148.105 28.9299 147.749 29.1648C147.396 29.3958 147.124 29.6989 146.93 30.0739C146.741 30.4451 146.646 30.8485 146.646 31.2841V32.2784C146.646 32.8617 146.749 33.358 146.953 33.767C147.161 34.1761 147.451 34.4886 147.822 34.7045C148.194 34.9167 148.627 35.0227 149.124 35.0227C149.446 35.0227 149.739 34.9773 150.004 34.8864C150.269 34.7917 150.499 34.6515 150.692 34.4659C150.885 34.2803 151.033 34.0511 151.135 33.7784L152.743 34.0682C152.614 34.5417 152.383 34.9564 152.05 35.3125C151.72 35.6648 151.305 35.9394 150.805 36.1364C150.309 36.3295 149.743 36.4261 149.107 36.4261ZM154.736 36.25V27.5227H156.378V28.9091H156.469C156.628 28.4394 156.908 28.0701 157.31 27.8011C157.715 27.5284 158.173 27.392 158.685 27.392C158.791 27.392 158.916 27.3958 159.06 27.4034C159.207 27.411 159.323 27.4205 159.406 27.4318V29.0568C159.338 29.0379 159.217 29.017 159.043 28.9943C158.868 28.9678 158.694 28.9545 158.52 28.9545C158.118 28.9545 157.76 29.0398 157.446 29.2102C157.135 29.3769 156.889 29.6098 156.707 29.9091C156.526 30.2045 156.435 30.5417 156.435 30.9205V36.25H154.736Z" fill="white"/>
</g>
<path d="M21.233 74.75V64.5682H27.3778V65.6619H22.4659V69.1023H27.0597V70.196H22.4659V73.6562H27.4574V74.75H21.233ZM30.6143 70.1562V74.75H29.4411V67.1136H30.5746V68.3068H30.674C30.853 67.919 31.1248 67.6075 31.4893 67.3722C31.8539 67.1335 32.3246 67.0142 32.9013 67.0142C33.4183 67.0142 33.8707 67.1203 34.2585 67.3324C34.6463 67.5412 34.9479 67.8594 35.1634 68.2869C35.3788 68.7112 35.4865 69.2481 35.4865 69.8977V74.75H34.3132V69.9773C34.3132 69.3774 34.1574 68.91 33.8459 68.5753C33.5343 68.2372 33.1068 68.0682 32.5632 68.0682C32.1887 68.0682 31.8539 68.1494 31.5589 68.3118C31.2673 68.4742 31.0369 68.7112 30.8679 69.0227C30.6989 69.3343 30.6143 69.7121 30.6143 70.1562ZM40.7328 74.9091C40.0169 74.9091 39.4004 74.7401 38.8833 74.402C38.3663 74.0639 37.9686 73.5982 37.6902 73.005C37.4118 72.4117 37.2725 71.7339 37.2725 70.9716C37.2725 70.196 37.4151 69.5116 37.7001 68.9183C37.9885 68.3217 38.3895 67.8561 38.9032 67.5213C39.4203 67.1832 40.0235 67.0142 40.7129 67.0142C41.2498 67.0142 41.7337 67.1136 42.1646 67.3125C42.5955 67.5114 42.9484 67.7898 43.2235 68.1477C43.4986 68.5057 43.6693 68.9233 43.7356 69.4006H42.5623C42.4728 69.0526 42.274 68.7443 41.9657 68.4759C41.6608 68.2041 41.2498 68.0682 40.7328 68.0682C40.2754 68.0682 39.8743 68.1875 39.5297 68.4261C39.1883 68.6615 38.9215 68.9946 38.7292 69.4254C38.5403 69.853 38.4458 70.3551 38.4458 70.9318C38.4458 71.5218 38.5386 72.0355 38.7243 72.473C38.9132 72.9105 39.1783 73.2502 39.5197 73.4922C39.8644 73.7341 40.2688 73.8551 40.7328 73.8551C41.0377 73.8551 41.3145 73.8021 41.563 73.696C41.8116 73.59 42.0221 73.4375 42.1944 73.2386C42.3668 73.0398 42.4894 72.8011 42.5623 72.5227H43.7356C43.6693 72.9735 43.5053 73.3795 43.2434 73.7408C42.9849 74.0987 42.6419 74.3838 42.2143 74.5959C41.7901 74.8047 41.2962 74.9091 40.7328 74.9091ZM48.5531 74.9091C47.8637 74.9091 47.2588 74.745 46.7385 74.4169C46.2214 74.0888 45.8171 73.6297 45.5254 73.0398C45.237 72.4498 45.0929 71.7604 45.0929 70.9716C45.0929 70.1761 45.237 69.4818 45.5254 68.8885C45.8171 68.2952 46.2214 67.8345 46.7385 67.5064C47.2588 67.1783 47.8637 67.0142 48.5531 67.0142C49.2425 67.0142 49.8457 67.1783 50.3627 67.5064C50.8831 67.8345 51.2875 68.2952 51.5758 68.8885C51.8675 69.4818 52.0133 70.1761 52.0133 70.9716C52.0133 71.7604 51.8675 72.4498 51.5758 73.0398C51.2875 73.6297 50.8831 74.0888 50.3627 74.4169C49.8457 74.745 49.2425 74.9091 48.5531 74.9091ZM48.5531 73.8551C49.0768 73.8551 49.5076 73.7209 49.8457 73.4524C50.1838 73.1839 50.434 72.831 50.5964 72.3935C50.7588 71.956 50.84 71.482 50.84 70.9716C50.84 70.4612 50.7588 69.9856 50.5964 69.5447C50.434 69.1039 50.1838 68.7476 49.8457 68.4759C49.5076 68.2041 49.0768 68.0682 48.5531 68.0682C48.0294 68.0682 47.5985 68.2041 47.2605 68.4759C46.9224 68.7476 46.6722 69.1039 46.5098 69.5447C46.3474 69.9856 46.2662 70.4612 46.2662 70.9716C46.2662 71.482 46.3474 71.956 46.5098 72.3935C46.6722 72.831 46.9224 73.1839 47.2605 73.4524C47.5985 73.7209 48.0294 73.8551 48.5531 73.8551ZM58.6168 71.6278V67.1136H59.7901V74.75H58.6168V73.4574H58.5373C58.3583 73.8452 58.0799 74.175 57.7021 74.4467C57.3242 74.7152 56.8469 74.8494 56.2702 74.8494C55.793 74.8494 55.3687 74.745 54.9975 74.5362C54.6263 74.3241 54.3346 74.0059 54.1225 73.5817C53.9104 73.1541 53.8043 72.6155 53.8043 71.9659V67.1136H54.9776V71.8864C54.9776 72.4432 55.1334 72.8873 55.445 73.2188C55.7598 73.5502 56.1609 73.7159 56.6481 73.7159C56.9397 73.7159 57.2364 73.6413 57.538 73.4922C57.8429 73.343 58.0981 73.1143 58.3036 72.8061C58.5124 72.4979 58.6168 72.1051 58.6168 71.6278ZM61.9391 74.75V67.1136H63.0726V68.267H63.1522C63.2914 67.8892 63.5433 67.5826 63.9078 67.3473C64.2724 67.112 64.6834 66.9943 65.1408 66.9943C65.227 66.9943 65.3347 66.996 65.464 66.9993C65.5932 67.0026 65.691 67.0076 65.7573 67.0142V68.2074C65.7175 68.1974 65.6264 68.1825 65.4838 68.1626C65.3446 68.1394 65.1971 68.1278 65.0414 68.1278C64.6702 68.1278 64.3387 68.2057 64.0471 68.3615C63.7587 68.514 63.53 68.7261 63.361 68.9979C63.1953 69.2663 63.1124 69.5729 63.1124 69.9176V74.75H61.9391ZM69.3952 74.929C68.9113 74.929 68.4722 74.8378 68.0778 74.6555C67.6834 74.4699 67.3701 74.2031 67.1381 73.8551C66.9061 73.5038 66.7901 73.0795 66.7901 72.5824C66.7901 72.1449 66.8763 71.7902 67.0487 71.5185C67.221 71.2434 67.4513 71.0279 67.7397 70.8722C68.0281 70.7164 68.3462 70.6004 68.6942 70.5241C69.0456 70.4446 69.3986 70.3816 69.7532 70.3352C70.2172 70.2756 70.5934 70.2308 70.8817 70.201C71.1734 70.1679 71.3855 70.1132 71.5181 70.0369C71.654 69.9607 71.7219 69.8281 71.7219 69.6392V69.5994C71.7219 69.1089 71.5877 68.7277 71.3192 68.456C71.0541 68.1842 70.6514 68.0483 70.1112 68.0483C69.551 68.0483 69.1119 68.1709 68.7937 68.4162C68.4755 68.6615 68.2518 68.9233 68.1225 69.2017L67.0089 68.804C67.2077 68.34 67.4729 67.9787 67.8043 67.7202C68.1391 67.4583 68.5037 67.276 68.8981 67.1733C69.2958 67.0672 69.6869 67.0142 70.0714 67.0142C70.3166 67.0142 70.5984 67.044 70.9165 67.1037C71.238 67.16 71.5479 67.2777 71.8462 67.4567C72.1478 67.6357 72.3981 67.9058 72.5969 68.267C72.7958 68.6283 72.8952 69.1122 72.8952 69.7188V74.75H71.7219V73.7159H71.6623C71.5827 73.8816 71.4502 74.0589 71.2646 74.2479C71.079 74.4368 70.832 74.5975 70.5238 74.7301C70.2156 74.8627 69.8394 74.929 69.3952 74.929ZM69.5742 73.875C70.0382 73.875 70.4293 73.7839 70.7475 73.6016C71.069 73.4193 71.311 73.1839 71.4734 72.8956C71.6391 72.6072 71.7219 72.304 71.7219 71.9858V70.9119C71.6722 70.9716 71.5629 71.0263 71.3938 71.076C71.2281 71.1224 71.0359 71.1638 70.8171 71.2003C70.6017 71.2334 70.3912 71.2633 70.1857 71.2898C69.9835 71.313 69.8195 71.3329 69.6935 71.3494C69.3886 71.3892 69.1036 71.4538 68.8384 71.5433C68.5766 71.6295 68.3645 71.7604 68.2021 71.9361C68.043 72.1084 67.9634 72.3437 67.9634 72.642C67.9634 73.0497 68.1142 73.358 68.4158 73.5668C68.7208 73.7723 69.1069 73.875 69.5742 73.875ZM78.1191 77.7727C77.5524 77.7727 77.0652 77.6998 76.6575 77.554C76.2498 77.4115 75.9101 77.2225 75.6383 76.9872C75.3699 76.7552 75.1561 76.5066 74.997 76.2415L75.9316 75.5852C76.0377 75.7244 76.1719 75.8835 76.3343 76.0625C76.4967 76.2448 76.7188 76.4022 77.0005 76.5348C77.2856 76.6707 77.6584 76.7386 78.1191 76.7386C78.7356 76.7386 79.2444 76.5895 79.6454 76.2912C80.0465 75.9929 80.247 75.5256 80.247 74.8892V73.3381H80.1475C80.0614 73.4773 79.9387 73.6496 79.7797 73.8551C79.6239 74.0573 79.3985 74.2379 79.1035 74.397C78.8118 74.5528 78.4174 74.6307 77.9203 74.6307C77.3038 74.6307 76.7503 74.4848 76.2598 74.1932C75.7725 73.9015 75.3864 73.4773 75.1014 72.9205C74.8197 72.3636 74.6788 71.6875 74.6788 70.892C74.6788 70.1098 74.8163 69.4287 75.0914 68.8487C75.3665 68.2654 75.7493 67.8146 76.2399 67.4964C76.7304 67.175 77.2972 67.0142 77.9402 67.0142C78.4373 67.0142 78.8317 67.0971 79.1234 67.2628C79.4184 67.4252 79.6438 67.6108 79.7995 67.8196C79.9586 68.0251 80.0813 68.1941 80.1674 68.3267H80.2868V67.1136H81.4203V74.9688C81.4203 75.625 81.2711 76.1586 80.9728 76.5696C80.6779 76.9839 80.2801 77.2872 79.7797 77.4794C79.2825 77.675 78.729 77.7727 78.1191 77.7727ZM78.0794 73.5767C78.55 73.5767 78.9477 73.469 79.2725 73.2536C79.5974 73.0381 79.8443 72.7282 80.0133 72.3239C80.1824 71.9195 80.2669 71.4356 80.2669 70.8722C80.2669 70.322 80.184 69.8364 80.0183 69.4155C79.8526 68.9946 79.6073 68.6648 79.2825 68.4261C78.9577 68.1875 78.5566 68.0682 78.0794 68.0682C77.5822 68.0682 77.1679 68.1941 76.8365 68.446C76.5083 68.6979 76.2614 69.036 76.0957 69.4602C75.9333 69.8845 75.8521 70.3551 75.8521 70.8722C75.8521 71.4025 75.935 71.8714 76.1007 72.2791C76.2697 72.6835 76.5183 73.0017 76.8464 73.2337C77.1779 73.4624 77.5888 73.5767 78.0794 73.5767ZM86.7697 74.9091C86.0339 74.9091 85.3992 74.7467 84.8656 74.4219C84.3353 74.0938 83.926 73.6364 83.6376 73.0497C83.3526 72.4598 83.21 71.7737 83.21 70.9915C83.21 70.2093 83.3526 69.5199 83.6376 68.9233C83.926 68.3234 84.327 67.8561 84.8407 67.5213C85.3578 67.1832 85.961 67.0142 86.6504 67.0142C87.0481 67.0142 87.4409 67.0805 87.8287 67.2131C88.2164 67.3456 88.5694 67.5611 88.8876 67.8594C89.2058 68.1544 89.4593 68.5455 89.6483 69.0327C89.8372 69.5199 89.9316 70.1198 89.9316 70.8324V71.3295H84.0453V70.3153H88.7385C88.7385 69.8845 88.6523 69.5 88.4799 69.1619C88.3109 68.8239 88.069 68.5571 87.7541 68.3615C87.4425 68.166 87.0746 68.0682 86.6504 68.0682C86.1831 68.0682 85.7787 68.1842 85.4373 68.4162C85.0993 68.6449 84.8391 68.9432 84.6568 69.3111C84.4745 69.679 84.3833 70.0734 84.3833 70.4943V71.1705C84.3833 71.7472 84.4828 72.236 84.6816 72.6371C84.8838 73.0348 85.1639 73.3381 85.5218 73.5469C85.8798 73.7524 86.2958 73.8551 86.7697 73.8551C87.0779 73.8551 87.3564 73.812 87.6049 73.7259C87.8568 73.6364 88.0739 73.5038 88.2562 73.3281C88.4385 73.1491 88.5794 72.9271 88.6788 72.6619L89.8123 72.9801C89.693 73.3646 89.4925 73.7027 89.2108 73.9943C88.929 74.2827 88.581 74.508 88.1667 74.6705C87.7524 74.8295 87.2868 74.9091 86.7697 74.9091ZM98.8556 74.9091C98.1199 74.9091 97.4851 74.7467 96.9515 74.4219C96.4212 74.0938 96.0119 73.6364 95.7235 73.0497C95.4385 72.4598 95.296 71.7737 95.296 70.9915C95.296 70.2093 95.4385 69.5199 95.7235 68.9233C96.0119 68.3234 96.4129 67.8561 96.9267 67.5213C97.4437 67.1832 98.0469 67.0142 98.7363 67.0142C99.1341 67.0142 99.5268 67.0805 99.9146 67.2131C100.302 67.3456 100.655 67.5611 100.974 67.8594C101.292 68.1544 101.545 68.5455 101.734 69.0327C101.923 69.5199 102.018 70.1198 102.018 70.8324V71.3295H96.1312V70.3153H100.824C100.824 69.8845 100.738 69.5 100.566 69.1619C100.397 68.8239 100.155 68.5571 99.84 68.3615C99.5285 68.166 99.1606 68.0682 98.7363 68.0682C98.269 68.0682 97.8646 68.1842 97.5233 68.4162C97.1852 68.6449 96.925 68.9432 96.7427 69.3111C96.5604 69.679 96.4693 70.0734 96.4693 70.4943V71.1705C96.4693 71.7472 96.5687 72.236 96.7676 72.6371C96.9698 73.0348 97.2498 73.3381 97.6078 73.5469C97.9657 73.7524 98.3817 73.8551 98.8556 73.8551C99.1639 73.8551 99.4423 73.812 99.6909 73.7259C99.9428 73.6364 100.16 73.5038 100.342 73.3281C100.524 73.1491 100.665 72.9271 100.765 72.6619L101.898 72.9801C101.779 73.3646 101.578 73.7027 101.297 73.9943C101.015 74.2827 100.667 74.508 100.253 74.6705C99.8384 74.8295 99.3727 74.9091 98.8556 74.9091ZM103.802 74.75V67.1136H104.936V68.3068H105.035C105.194 67.8991 105.451 67.5826 105.806 67.3572C106.161 67.1286 106.586 67.0142 107.084 67.0142C107.587 67.0142 108.007 67.1286 108.341 67.3572C108.68 67.5826 108.943 67.8991 109.132 68.3068H109.211C109.407 67.9124 109.7 67.5992 110.091 67.3672C110.483 67.1319 110.952 67.0142 111.498 67.0142C112.181 67.0142 112.74 67.228 113.174 67.6555C113.608 68.0798 113.825 68.741 113.825 69.6392V74.75H112.652V69.6392C112.652 69.0758 112.498 68.6731 112.189 68.4311C111.881 68.1892 111.518 68.0682 111.101 68.0682C110.564 68.0682 110.148 68.2306 109.853 68.5554C109.558 68.8769 109.41 69.2846 109.41 69.7784V74.75H108.217V69.5199C108.217 69.0857 108.076 68.736 107.795 68.4709C107.513 68.2024 107.15 68.0682 106.706 68.0682C106.401 68.0682 106.116 68.1494 105.851 68.3118C105.589 68.4742 105.377 68.6996 105.214 68.9879C105.055 69.273 104.976 69.6027 104.976 69.9773V74.75H103.802ZM115.97 77.6136V67.1136H117.104V68.3267H117.243C117.329 68.1941 117.449 68.0251 117.601 67.8196C117.757 67.6108 117.979 67.4252 118.267 67.2628C118.559 67.0971 118.953 67.0142 119.45 67.0142C120.093 67.0142 120.66 67.175 121.151 67.4964C121.641 67.8179 122.024 68.2737 122.299 68.8636C122.574 69.4536 122.712 70.1496 122.712 70.9517C122.712 71.7604 122.574 72.4614 122.299 73.0547C122.024 73.6446 121.643 74.102 121.156 74.4268C120.669 74.7483 120.107 74.9091 119.47 74.9091C118.98 74.9091 118.587 74.8279 118.292 74.6655C117.997 74.4998 117.77 74.3125 117.611 74.1037C117.452 73.8916 117.329 73.7159 117.243 73.5767H117.144V77.6136H115.97ZM117.124 70.9318C117.124 71.5085 117.208 72.0173 117.377 72.4581C117.546 72.8956 117.793 73.2386 118.118 73.4872C118.443 73.7325 118.841 73.8551 119.311 73.8551C119.802 73.8551 120.211 73.7259 120.539 73.4673C120.871 73.2055 121.119 72.8542 121.285 72.4134C121.454 71.9692 121.539 71.4754 121.539 70.9318C121.539 70.3949 121.456 69.911 121.29 69.4801C121.128 69.0459 120.881 68.7029 120.549 68.451C120.221 68.1958 119.808 68.0682 119.311 68.0682C118.834 68.0682 118.433 68.1892 118.108 68.4311C117.783 68.6697 117.538 69.0045 117.372 69.4354C117.207 69.8629 117.124 70.3617 117.124 70.9318ZM125.675 64.5682V74.75H124.502V64.5682H125.675ZM130.926 74.9091C130.237 74.9091 129.632 74.745 129.112 74.4169C128.594 74.0888 128.19 73.6297 127.898 73.0398C127.61 72.4498 127.466 71.7604 127.466 70.9716C127.466 70.1761 127.61 69.4818 127.898 68.8885C128.19 68.2952 128.594 67.8345 129.112 67.5064C129.632 67.1783 130.237 67.0142 130.926 67.0142C131.616 67.0142 132.219 67.1783 132.736 67.5064C133.256 67.8345 133.661 68.2952 133.949 68.8885C134.241 69.4818 134.386 70.1761 134.386 70.9716C134.386 71.7604 134.241 72.4498 133.949 73.0398C133.661 73.6297 133.256 74.0888 132.736 74.4169C132.219 74.745 131.616 74.9091 130.926 74.9091ZM130.926 73.8551C131.45 73.8551 131.881 73.7209 132.219 73.4524C132.557 73.1839 132.807 72.831 132.969 72.3935C133.132 71.956 133.213 71.482 133.213 70.9716C133.213 70.4612 133.132 69.9856 132.969 69.5447C132.807 69.1039 132.557 68.7476 132.219 68.4759C131.881 68.2041 131.45 68.0682 130.926 68.0682C130.402 68.0682 129.972 68.2041 129.634 68.4759C129.295 68.7476 129.045 69.1039 128.883 69.5447C128.72 69.9856 128.639 70.4612 128.639 70.9716C128.639 71.482 128.72 71.956 128.883 72.3935C129.045 72.831 129.295 73.1839 129.634 73.4524C129.972 73.7209 130.402 73.8551 130.926 73.8551ZM136.66 77.6136C136.461 77.6136 136.283 77.5971 136.128 77.5639C135.972 77.5341 135.864 77.5043 135.805 77.4744L136.103 76.4403C136.388 76.5133 136.64 76.5398 136.858 76.5199C137.077 76.5 137.271 76.4022 137.44 76.2266C137.613 76.0542 137.77 75.7741 137.912 75.3864L138.131 74.7898L135.307 67.1136H136.58L138.688 73.1989H138.768L140.876 67.1136H142.148L138.907 75.8636C138.761 76.258 138.58 76.5845 138.365 76.843C138.149 77.1049 137.899 77.2988 137.614 77.4247C137.332 77.5507 137.014 77.6136 136.66 77.6136ZM146.625 74.9091C145.889 74.9091 145.255 74.7467 144.721 74.4219C144.191 74.0938 143.781 73.6364 143.493 73.0497C143.208 72.4598 143.066 71.7737 143.066 70.9915C143.066 70.2093 143.208 69.5199 143.493 68.9233C143.781 68.3234 144.182 67.8561 144.696 67.5213C145.213 67.1832 145.816 67.0142 146.506 67.0142C146.904 67.0142 147.296 67.0805 147.684 67.2131C148.072 67.3456 148.425 67.5611 148.743 67.8594C149.061 68.1544 149.315 68.5455 149.504 69.0327C149.693 69.5199 149.787 70.1198 149.787 70.8324V71.3295H143.901V70.3153H148.594C148.594 69.8845 148.508 69.5 148.335 69.1619C148.166 68.8239 147.924 68.5571 147.61 68.3615C147.298 68.166 146.93 68.0682 146.506 68.0682C146.039 68.0682 145.634 68.1842 145.293 68.4162C144.955 68.6449 144.695 68.9432 144.512 69.3111C144.33 69.679 144.239 70.0734 144.239 70.4943V71.1705C144.239 71.7472 144.338 72.236 144.537 72.6371C144.739 73.0348 145.019 73.3381 145.377 73.5469C145.735 73.7524 146.151 73.8551 146.625 73.8551C146.933 73.8551 147.212 73.812 147.46 73.7259C147.712 73.6364 147.929 73.5038 148.112 73.3281C148.294 73.1491 148.435 72.9271 148.534 72.6619L149.668 72.9801C149.548 73.3646 149.348 73.7027 149.066 73.9943C148.785 74.2827 148.436 74.508 148.022 74.6705C147.608 74.8295 147.142 74.9091 146.625 74.9091ZM154.774 74.9091C154.038 74.9091 153.403 74.7467 152.869 74.4219C152.339 74.0938 151.93 73.6364 151.642 73.0497C151.356 72.4598 151.214 71.7737 151.214 70.9915C151.214 70.2093 151.356 69.5199 151.642 68.9233C151.93 68.3234 152.331 67.8561 152.845 67.5213C153.362 67.1832 153.965 67.0142 154.654 67.0142C155.052 67.0142 155.445 67.0805 155.833 67.2131C156.22 67.3456 156.573 67.5611 156.892 67.8594C157.21 68.1544 157.463 68.5455 157.652 69.0327C157.841 69.5199 157.936 70.1198 157.936 70.8324V71.3295H152.049V70.3153H156.742C156.742 69.8845 156.656 69.5 156.484 69.1619C156.315 68.8239 156.073 68.5571 155.758 68.3615C155.446 68.166 155.079 68.0682 154.654 68.0682C154.187 68.0682 153.783 68.1842 153.441 68.4162C153.103 68.6449 152.843 68.9432 152.661 69.3111C152.478 69.679 152.387 70.0734 152.387 70.4943V71.1705C152.387 71.7472 152.487 72.236 152.686 72.6371C152.888 73.0348 153.168 73.3381 153.526 73.5469C153.884 73.7524 154.3 73.8551 154.774 73.8551C155.082 73.8551 155.36 73.812 155.609 73.7259C155.861 73.6364 156.078 73.5038 156.26 73.3281C156.442 73.1491 156.583 72.9271 156.683 72.6619L157.816 72.9801C157.697 73.3646 157.496 73.7027 157.215 73.9943C156.933 74.2827 156.585 74.508 156.171 74.6705C155.756 74.8295 155.291 74.9091 154.774 74.9091ZM165.129 68.8239L164.075 69.1222C164.009 68.9465 163.911 68.7758 163.782 68.6101C163.656 68.4411 163.484 68.3018 163.265 68.1925C163.046 68.0831 162.766 68.0284 162.425 68.0284C161.958 68.0284 161.568 68.1361 161.257 68.3516C160.948 68.5637 160.794 68.8338 160.794 69.1619C160.794 69.4536 160.9 69.6839 161.112 69.853C161.325 70.022 161.656 70.1629 162.107 70.2756L163.24 70.554C163.923 70.7197 164.432 70.9732 164.767 71.3146C165.101 71.6527 165.269 72.0885 165.269 72.6222C165.269 73.0597 165.143 73.4508 164.891 73.7955C164.642 74.1402 164.294 74.4119 163.847 74.6108C163.399 74.8097 162.879 74.9091 162.286 74.9091C161.507 74.9091 160.862 74.7401 160.352 74.402C159.841 74.0639 159.518 73.5701 159.382 72.9205L160.496 72.642C160.602 73.053 160.802 73.3613 161.097 73.5668C161.396 73.7723 161.785 73.875 162.266 73.875C162.813 73.875 163.247 73.759 163.568 73.527C163.893 73.2917 164.056 73.0099 164.056 72.6818C164.056 72.4167 163.963 72.1946 163.777 72.0156C163.592 71.8333 163.307 71.6974 162.922 71.608L161.649 71.3097C160.95 71.1439 160.436 70.8871 160.108 70.5391C159.783 70.1877 159.621 69.7486 159.621 69.2216C159.621 68.7907 159.742 68.4096 159.984 68.0781C160.229 67.7467 160.562 67.4865 160.983 67.2976C161.407 67.1087 161.888 67.0142 162.425 67.0142C163.181 67.0142 163.774 67.1799 164.205 67.5114C164.639 67.8428 164.947 68.2803 165.129 68.8239ZM174.293 67.1136V68.108H170.336V67.1136H174.293ZM171.489 65.2841H172.663V72.5625C172.663 72.8939 172.711 73.1425 172.807 73.3082C172.906 73.4706 173.032 73.58 173.185 73.6364C173.34 73.6894 173.504 73.7159 173.677 73.7159C173.806 73.7159 173.912 73.7093 173.995 73.696C174.078 73.6795 174.144 73.6662 174.194 73.6562L174.433 74.7102C174.353 74.7401 174.242 74.7699 174.099 74.7997C173.957 74.8329 173.776 74.8494 173.558 74.8494C173.226 74.8494 172.901 74.7782 172.583 74.6357C172.268 74.4931 172.006 74.276 171.798 73.9844C171.592 73.6927 171.489 73.3248 171.489 72.8807V65.2841ZM179.078 74.9091C178.389 74.9091 177.784 74.745 177.264 74.4169C176.747 74.0888 176.342 73.6297 176.051 73.0398C175.762 72.4498 175.618 71.7604 175.618 70.9716C175.618 70.1761 175.762 69.4818 176.051 68.8885C176.342 68.2952 176.747 67.8345 177.264 67.5064C177.784 67.1783 178.389 67.0142 179.078 67.0142C179.768 67.0142 180.371 67.1783 180.888 67.5064C181.408 67.8345 181.813 68.2952 182.101 68.8885C182.393 69.4818 182.539 70.1761 182.539 70.9716C182.539 71.7604 182.393 72.4498 182.101 73.0398C181.813 73.6297 181.408 74.0888 180.888 74.4169C180.371 74.745 179.768 74.9091 179.078 74.9091ZM179.078 73.8551C179.602 73.8551 180.033 73.7209 180.371 73.4524C180.709 73.1839 180.959 72.831 181.122 72.3935C181.284 71.956 181.365 71.482 181.365 70.9716C181.365 70.4612 181.284 69.9856 181.122 69.5447C180.959 69.1039 180.709 68.7476 180.371 68.4759C180.033 68.2041 179.602 68.0682 179.078 68.0682C178.555 68.0682 178.124 68.2041 177.786 68.4759C177.448 68.7476 177.198 69.1039 177.035 69.5447C176.873 69.9856 176.792 70.4612 176.792 70.9716C176.792 71.482 176.873 71.956 177.035 72.3935C177.198 72.831 177.448 73.1839 177.786 73.4524C178.124 73.7209 178.555 73.8551 179.078 73.8551ZM193.676 68.8239L192.622 69.1222C192.556 68.9465 192.458 68.7758 192.329 68.6101C192.203 68.4411 192.031 68.3018 191.812 68.1925C191.593 68.0831 191.313 68.0284 190.972 68.0284C190.504 68.0284 190.115 68.1361 189.803 68.3516C189.495 68.5637 189.341 68.8338 189.341 69.1619C189.341 69.4536 189.447 69.6839 189.659 69.853C189.871 70.022 190.203 70.1629 190.654 70.2756L191.787 70.554C192.47 70.7197 192.979 70.9732 193.313 71.3146C193.648 71.6527 193.816 72.0885 193.816 72.6222C193.816 73.0597 193.69 73.4508 193.438 73.7955C193.189 74.1402 192.841 74.4119 192.394 74.6108C191.946 74.8097 191.426 74.9091 190.833 74.9091C190.054 74.9091 189.409 74.7401 188.899 74.402C188.388 74.0639 188.065 73.5701 187.929 72.9205L189.043 72.642C189.149 73.053 189.349 73.3613 189.644 73.5668C189.943 73.7723 190.332 73.875 190.813 73.875C191.36 73.875 191.794 73.759 192.115 73.527C192.44 73.2917 192.602 73.0099 192.602 72.6818C192.602 72.4167 192.51 72.1946 192.324 72.0156C192.138 71.8333 191.853 71.6974 191.469 71.608L190.196 71.3097C189.497 71.1439 188.983 70.8871 188.655 70.5391C188.33 70.1877 188.168 69.7486 188.168 69.2216C188.168 68.7907 188.289 68.4096 188.531 68.0781C188.776 67.7467 189.109 67.4865 189.53 67.2976C189.954 67.1087 190.435 67.0142 190.972 67.0142C191.727 67.0142 192.321 67.1799 192.752 67.5114C193.186 67.8428 193.494 68.2803 193.676 68.8239ZM196.755 70.1562V74.75H195.582V64.5682H196.755V68.3068H196.854C197.033 67.9124 197.302 67.5992 197.66 67.3672C198.021 67.1319 198.502 67.0142 199.102 67.0142C199.622 67.0142 200.078 67.1186 200.469 67.3274C200.86 67.5329 201.163 67.8494 201.379 68.277C201.597 68.7012 201.707 69.2415 201.707 69.8977V74.75H200.533V69.9773C200.533 69.3707 200.376 68.9018 200.061 68.5703C199.75 68.2356 199.317 68.0682 198.763 68.0682C198.379 68.0682 198.034 68.1494 197.729 68.3118C197.428 68.4742 197.189 68.7112 197.013 69.0227C196.841 69.3343 196.755 69.7121 196.755 70.1562ZM206.1 74.929C205.616 74.929 205.177 74.8378 204.783 74.6555C204.388 74.4699 204.075 74.2031 203.843 73.8551C203.611 73.5038 203.495 73.0795 203.495 72.5824C203.495 72.1449 203.581 71.7902 203.754 71.5185C203.926 71.2434 204.156 71.0279 204.445 70.8722C204.733 70.7164 205.051 70.6004 205.399 70.5241C205.751 70.4446 206.104 70.3816 206.458 70.3352C206.922 70.2756 207.298 70.2308 207.587 70.201C207.878 70.1679 208.091 70.1132 208.223 70.0369C208.359 69.9607 208.427 69.8281 208.427 69.6392V69.5994C208.427 69.1089 208.293 68.7277 208.024 68.456C207.759 68.1842 207.356 68.0483 206.816 68.0483C206.256 68.0483 205.817 68.1709 205.499 68.4162C205.181 68.6615 204.957 68.9233 204.828 69.2017L203.714 68.804C203.913 68.34 204.178 67.9787 204.509 67.7202C204.844 67.4583 205.209 67.276 205.603 67.1733C206.001 67.0672 206.392 67.0142 206.776 67.0142C207.022 67.0142 207.303 67.044 207.622 67.1037C207.943 67.16 208.253 67.2777 208.551 67.4567C208.853 67.6357 209.103 67.9058 209.302 68.267C209.501 68.6283 209.6 69.1122 209.6 69.7188V74.75H208.427V73.7159H208.367C208.288 73.8816 208.155 74.0589 207.97 74.2479C207.784 74.4368 207.537 74.5975 207.229 74.7301C206.921 74.8627 206.544 74.929 206.1 74.929ZM206.279 73.875C206.743 73.875 207.134 73.7839 207.453 73.6016C207.774 73.4193 208.016 73.1839 208.178 72.8956C208.344 72.6072 208.427 72.304 208.427 71.9858V70.9119C208.377 70.9716 208.268 71.0263 208.099 71.076C207.933 71.1224 207.741 71.1638 207.522 71.2003C207.307 71.2334 207.096 71.2633 206.891 71.2898C206.689 71.313 206.525 71.3329 206.399 71.3494C206.094 71.3892 205.809 71.4538 205.544 71.5433C205.282 71.6295 205.07 71.7604 204.907 71.9361C204.748 72.1084 204.669 72.3437 204.669 72.642C204.669 73.0497 204.819 73.358 205.121 73.5668C205.426 73.7723 205.812 73.875 206.279 73.875ZM211.742 74.75V67.1136H212.875V68.267H212.955C213.094 67.8892 213.346 67.5826 213.711 67.3473C214.075 67.112 214.486 66.9943 214.944 66.9943C215.03 66.9943 215.137 66.996 215.267 66.9993C215.396 67.0026 215.494 67.0076 215.56 67.0142V68.2074C215.52 68.1974 215.429 68.1825 215.287 68.1626C215.147 68.1394 215 68.1278 214.844 68.1278C214.473 68.1278 214.141 68.2057 213.85 68.3615C213.561 68.514 213.333 68.7261 213.164 68.9979C212.998 69.2663 212.915 69.5729 212.915 69.9176V74.75H211.742ZM219.92 74.9091C219.184 74.9091 218.55 74.7467 218.016 74.4219C217.486 74.0938 217.076 73.6364 216.788 73.0497C216.503 72.4598 216.36 71.7737 216.36 70.9915C216.36 70.2093 216.503 69.5199 216.788 68.9233C217.076 68.3234 217.477 67.8561 217.991 67.5213C218.508 67.1832 219.111 67.0142 219.801 67.0142C220.199 67.0142 220.591 67.0805 220.979 67.2131C221.367 67.3456 221.72 67.5611 222.038 67.8594C222.356 68.1544 222.61 68.5455 222.799 69.0327C222.988 69.5199 223.082 70.1198 223.082 70.8324V71.3295H217.196V70.3153H221.889C221.889 69.8845 221.803 69.5 221.63 69.1619C221.461 68.8239 221.219 68.5571 220.904 68.3615C220.593 68.166 220.225 68.0682 219.801 68.0682C219.333 68.0682 218.929 68.1842 218.588 68.4162C218.25 68.6449 217.989 68.9432 217.807 69.3111C217.625 69.679 217.534 70.0734 217.534 70.4943V71.1705C217.534 71.7472 217.633 72.236 217.832 72.6371C218.034 73.0348 218.314 73.3381 218.672 73.5469C219.03 73.7524 219.446 73.8551 219.92 73.8551C220.228 73.8551 220.507 73.812 220.755 73.7259C221.007 73.6364 221.224 73.5038 221.407 73.3281C221.589 73.1491 221.73 72.9271 221.829 72.6619L222.963 72.9801C222.843 73.3646 222.643 73.7027 222.361 73.9943C222.079 74.2827 221.731 74.508 221.317 74.6705C220.903 74.8295 220.437 74.9091 219.92 74.9091ZM229.978 70.1562V74.75H228.804V64.5682H229.978V68.3068H230.077C230.256 67.9124 230.525 67.5992 230.882 67.3672C231.244 67.1319 231.724 67.0142 232.324 67.0142C232.845 67.0142 233.3 67.1186 233.691 67.3274C234.083 67.5329 234.386 67.8494 234.601 68.277C234.82 68.7012 234.929 69.2415 234.929 69.8977V74.75H233.756V69.9773C233.756 69.3707 233.599 68.9018 233.284 68.5703C232.972 68.2356 232.54 68.0682 231.986 68.0682C231.602 68.0682 231.257 68.1494 230.952 68.3118C230.65 68.4742 230.412 68.7112 230.236 69.0227C230.064 69.3343 229.978 69.7121 229.978 70.1562ZM240.178 74.9091C239.489 74.9091 238.884 74.745 238.363 74.4169C237.846 74.0888 237.442 73.6297 237.15 73.0398C236.862 72.4498 236.718 71.7604 236.718 70.9716C236.718 70.1761 236.862 69.4818 237.15 68.8885C237.442 68.2952 237.846 67.8345 238.363 67.5064C238.884 67.1783 239.489 67.0142 240.178 67.0142C240.867 67.0142 241.471 67.1783 241.988 67.5064C242.508 67.8345 242.912 68.2952 243.201 68.8885C243.492 69.4818 243.638 70.1761 243.638 70.9716C243.638 71.7604 243.492 72.4498 243.201 73.0398C242.912 73.6297 242.508 74.0888 241.988 74.4169C241.471 74.745 240.867 74.9091 240.178 74.9091ZM240.178 73.8551C240.702 73.8551 241.133 73.7209 241.471 73.4524C241.809 73.1839 242.059 72.831 242.221 72.3935C242.384 71.956 242.465 71.482 242.465 70.9716C242.465 70.4612 242.384 69.9856 242.221 69.5447C242.059 69.1039 241.809 68.7476 241.471 68.4759C241.133 68.2041 240.702 68.0682 240.178 68.0682C239.654 68.0682 239.224 68.2041 238.885 68.4759C238.547 68.7476 238.297 69.1039 238.135 69.5447C237.972 69.9856 237.891 70.4612 237.891 70.9716C237.891 71.482 237.972 71.956 238.135 72.3935C238.297 72.831 238.547 73.1839 238.885 73.4524C239.224 73.7209 239.654 73.8551 240.178 73.8551ZM246.9 74.75L244.573 67.1136H245.806L247.456 72.9602H247.536L249.167 67.1136H250.42L252.03 72.9403H252.11L253.76 67.1136H254.993L252.667 74.75H251.513L249.843 68.8835H249.724L248.053 74.75H246.9ZM263.803 67.1136V68.108H259.846V67.1136H263.803ZM260.999 65.2841H262.172V72.5625C262.172 72.8939 262.22 73.1425 262.317 73.3082C262.416 73.4706 262.542 73.58 262.694 73.6364C262.85 73.6894 263.014 73.7159 263.187 73.7159C263.316 73.7159 263.422 73.7093 263.505 73.696C263.588 73.6795 263.654 73.6662 263.704 73.6562L263.942 74.7102C263.863 74.7401 263.752 74.7699 263.609 74.7997C263.467 74.8329 263.286 74.8494 263.067 74.8494C262.736 74.8494 262.411 74.7782 262.093 74.6357C261.778 74.4931 261.516 74.276 261.307 73.9844C261.102 73.6927 260.999 73.3248 260.999 72.8807V65.2841ZM266.905 70.1562V74.75H265.732V64.5682H266.905V68.3068H267.005C267.184 67.9124 267.452 67.5992 267.81 67.3672C268.171 67.1319 268.652 67.0142 269.252 67.0142C269.772 67.0142 270.228 67.1186 270.619 67.3274C271.01 67.5329 271.314 67.8494 271.529 68.277C271.748 68.7012 271.857 69.2415 271.857 69.8977V74.75H270.684V69.9773C270.684 69.3707 270.526 68.9018 270.211 68.5703C269.9 68.2356 269.467 68.0682 268.914 68.0682C268.529 68.0682 268.185 68.1494 267.88 68.3118C267.578 68.4742 267.34 68.7112 267.164 69.0227C266.992 69.3343 266.905 69.7121 266.905 70.1562ZM277.205 74.9091C276.469 74.9091 275.835 74.7467 275.301 74.4219C274.771 74.0938 274.362 73.6364 274.073 73.0497C273.788 72.4598 273.646 71.7737 273.646 70.9915C273.646 70.2093 273.788 69.5199 274.073 68.9233C274.362 68.3234 274.763 67.8561 275.276 67.5213C275.793 67.1832 276.397 67.0142 277.086 67.0142C277.484 67.0142 277.876 67.0805 278.264 67.2131C278.652 67.3456 279.005 67.5611 279.323 67.8594C279.641 68.1544 279.895 68.5455 280.084 69.0327C280.273 69.5199 280.367 70.1198 280.367 70.8324V71.3295H274.481V70.3153H279.174C279.174 69.8845 279.088 69.5 278.915 69.1619C278.746 68.8239 278.504 68.5571 278.19 68.3615C277.878 68.166 277.51 68.0682 277.086 68.0682C276.619 68.0682 276.214 68.1842 275.873 68.4162C275.535 68.6449 275.275 68.9432 275.092 69.3111C274.91 69.679 274.819 70.0734 274.819 70.4943V71.1705C274.819 71.7472 274.918 72.236 275.117 72.6371C275.319 73.0348 275.599 73.3381 275.957 73.5469C276.315 73.7524 276.731 73.8551 277.205 73.8551C277.513 73.8551 277.792 73.812 278.04 73.7259C278.292 73.6364 278.509 73.5038 278.692 73.3281C278.874 73.1491 279.015 72.9271 279.114 72.6619L280.248 72.9801C280.129 73.3646 279.928 73.7027 279.646 73.9943C279.365 74.2827 279.017 74.508 278.602 74.6705C278.188 74.8295 277.722 74.9091 277.205 74.9091ZM282.675 77.6136C282.476 77.6136 282.299 77.5971 282.143 77.5639C281.988 77.5341 281.88 77.5043 281.82 77.4744L282.118 76.4403C282.403 76.5133 282.655 76.5398 282.874 76.5199C283.093 76.5 283.287 76.4022 283.456 76.2266C283.628 76.0542 283.786 75.7741 283.928 75.3864L284.147 74.7898L281.323 67.1136H282.596L284.704 73.1989H284.783L286.891 67.1136H288.164L284.922 75.8636C284.777 76.258 284.596 76.5845 284.381 76.843C284.165 77.1049 283.915 77.2988 283.63 77.4247C283.348 77.5507 283.03 77.6136 282.675 77.6136ZM291.239 64.5682V65.4631C291.239 65.7348 291.189 66.0249 291.09 66.3331C290.994 66.638 290.851 66.9347 290.662 67.223C290.477 67.508 290.251 67.7566 289.986 67.9688L289.35 67.4517C289.558 67.1534 289.739 66.8435 289.892 66.522C290.047 66.1972 290.125 65.8509 290.125 65.483V64.5682H291.239ZM292.488 74.75V67.1136H293.621V68.267H293.701C293.84 67.8892 294.092 67.5826 294.457 67.3473C294.821 67.112 295.232 66.9943 295.69 66.9943C295.776 66.9943 295.884 66.996 296.013 66.9993C296.142 67.0026 296.24 67.0076 296.306 67.0142V68.2074C296.266 68.1974 296.175 68.1825 296.033 68.1626C295.893 68.1394 295.746 68.1278 295.59 68.1278C295.219 68.1278 294.888 68.2057 294.596 68.3615C294.308 68.514 294.079 68.7261 293.91 68.9979C293.744 69.2663 293.661 69.5729 293.661 69.9176V74.75H292.488ZM300.666 74.9091C299.93 74.9091 299.296 74.7467 298.762 74.4219C298.232 74.0938 297.822 73.6364 297.534 73.0497C297.249 72.4598 297.107 71.7737 297.107 70.9915C297.107 70.2093 297.249 69.5199 297.534 68.9233C297.822 68.3234 298.223 67.8561 298.737 67.5213C299.254 67.1832 299.857 67.0142 300.547 67.0142C300.945 67.0142 301.337 67.0805 301.725 67.2131C302.113 67.3456 302.466 67.5611 302.784 67.8594C303.102 68.1544 303.356 68.5455 303.545 69.0327C303.734 69.5199 303.828 70.1198 303.828 70.8324V71.3295H297.942V70.3153H302.635C302.635 69.8845 302.549 69.5 302.376 69.1619C302.207 68.8239 301.965 68.5571 301.651 68.3615C301.339 68.166 300.971 68.0682 300.547 68.0682C300.08 68.0682 299.675 68.1842 299.334 68.4162C298.996 68.6449 298.736 68.9432 298.553 69.3111C298.371 69.679 298.28 70.0734 298.28 70.4943V71.1705C298.28 71.7472 298.379 72.236 298.578 72.6371C298.78 73.0348 299.06 73.3381 299.418 73.5469C299.776 73.7524 300.192 73.8551 300.666 73.8551C300.974 73.8551 301.253 73.812 301.501 73.7259C301.753 73.6364 301.97 73.5038 302.153 73.3281C302.335 73.1491 302.476 72.9271 302.575 72.6619L303.709 72.9801C303.589 73.3646 303.389 73.7027 303.107 73.9943C302.826 74.2827 302.478 74.508 302.063 74.6705C301.649 74.8295 301.183 74.9091 300.666 74.9091ZM24.4744 88.1136V89.108H20.358V88.1136H24.4744ZM21.5909 95.75V87.0597C21.5909 86.6222 21.6937 86.2576 21.8991 85.9659C22.1046 85.6742 22.3714 85.4555 22.6996 85.3097C23.0277 85.1638 23.3741 85.0909 23.7386 85.0909C24.027 85.0909 24.2623 85.1141 24.4446 85.1605C24.6269 85.2069 24.7628 85.25 24.8523 85.2898L24.5142 86.304C24.4545 86.2841 24.3717 86.2592 24.2656 86.2294C24.1629 86.1996 24.027 86.1847 23.858 86.1847C23.4702 86.1847 23.1901 86.2824 23.0178 86.478C22.8487 86.6735 22.7642 86.9602 22.7642 87.3381V95.75H21.5909ZM29.006 95.9091C28.2702 95.9091 27.6355 95.7467 27.1019 95.4219C26.5716 95.0938 26.1623 94.6364 25.8739 94.0497C25.5889 93.4598 25.4464 92.7737 25.4464 91.9915C25.4464 91.2093 25.5889 90.5199 25.8739 89.9233C26.1623 89.3234 26.5633 88.8561 27.0771 88.5213C27.5941 88.1832 28.1973 88.0142 28.8867 88.0142C29.2844 88.0142 29.6772 88.0805 30.065 88.2131C30.4528 88.3456 30.8058 88.5611 31.1239 88.8594C31.4421 89.1544 31.6957 89.5455 31.8846 90.0327C32.0735 90.5199 32.168 91.1198 32.168 91.8324V92.3295H26.2816V91.3153H30.9748C30.9748 90.8845 30.8886 90.5 30.7163 90.1619C30.5472 89.8239 30.3053 89.5571 29.9904 89.3615C29.6789 89.166 29.311 89.0682 28.8867 89.0682C28.4194 89.0682 28.015 89.1842 27.6737 89.4162C27.3356 89.6449 27.0754 89.9432 26.8931 90.3111C26.7108 90.679 26.6197 91.0734 26.6197 91.4943V92.1705C26.6197 92.7472 26.7191 93.236 26.918 93.6371C27.1201 94.0348 27.4002 94.3381 27.7582 94.5469C28.1161 94.7524 28.5321 94.8551 29.006 94.8551C29.3143 94.8551 29.5927 94.812 29.8413 94.7259C30.0932 94.6364 30.3103 94.5038 30.4925 94.3281C30.6748 94.1491 30.8157 93.9271 30.9151 93.6619L32.0487 93.9801C31.9293 94.3646 31.7288 94.7027 31.4471 94.9943C31.1654 95.2827 30.8174 95.508 30.4031 95.6705C29.9888 95.8295 29.5231 95.9091 29.006 95.9091ZM37.1545 95.9091C36.4187 95.9091 35.784 95.7467 35.2504 95.4219C34.7201 95.0938 34.3107 94.6364 34.0224 94.0497C33.7373 93.4598 33.5948 92.7737 33.5948 91.9915C33.5948 91.2093 33.7373 90.5199 34.0224 89.9233C34.3107 89.3234 34.7118 88.8561 35.2255 88.5213C35.7425 88.1832 36.3458 88.0142 37.0352 88.0142C37.4329 88.0142 37.8256 88.0805 38.2134 88.2131C38.6012 88.3456 38.9542 88.5611 39.2724 88.8594C39.5906 89.1544 39.8441 89.5455 40.033 90.0327C40.2219 90.5199 40.3164 91.1198 40.3164 91.8324V92.3295H34.43V91.3153H39.1232C39.1232 90.8845 39.0371 90.5 38.8647 90.1619C38.6957 89.8239 38.4537 89.5571 38.1388 89.3615C37.8273 89.166 37.4594 89.0682 37.0352 89.0682C36.5678 89.0682 36.1635 89.1842 35.8221 89.4162C35.484 89.6449 35.2238 89.9432 35.0415 90.3111C34.8593 90.679 34.7681 91.0734 34.7681 91.4943V92.1705C34.7681 92.7472 34.8675 93.236 35.0664 93.6371C35.2686 94.0348 35.5487 94.3381 35.9066 94.5469C36.2646 94.7524 36.6805 94.8551 37.1545 94.8551C37.4627 94.8551 37.7411 94.812 37.9897 94.7259C38.2416 94.6364 38.4587 94.5038 38.641 94.3281C38.8233 94.1491 38.9641 93.9271 39.0636 93.6619L40.1971 93.9801C40.0778 94.3646 39.8772 94.7027 39.5955 94.9943C39.3138 95.2827 38.9658 95.508 38.5515 95.6705C38.1372 95.8295 37.6715 95.9091 37.1545 95.9091ZM43.2745 85.5682V95.75H42.1012V85.5682H43.2745ZM45.4235 95.75V88.1136H46.5968V95.75H45.4235ZM46.0201 86.8409C45.7914 86.8409 45.5942 86.763 45.4284 86.6072C45.266 86.4515 45.1848 86.2642 45.1848 86.0455C45.1848 85.8267 45.266 85.6394 45.4284 85.4837C45.5942 85.3279 45.7914 85.25 46.0201 85.25C46.2488 85.25 46.4443 85.3279 46.6067 85.4837C46.7724 85.6394 46.8553 85.8267 46.8553 86.0455C46.8553 86.2642 46.7724 86.4515 46.6067 86.6072C46.4443 86.763 46.2488 86.8409 46.0201 86.8409ZM49.919 91.1562V95.75H48.7457V88.1136H49.8793V89.3068H49.9787C50.1577 88.919 50.4295 88.6075 50.794 88.3722C51.1586 88.1335 51.6293 88.0142 52.206 88.0142C52.723 88.0142 53.1754 88.1203 53.5632 88.3324C53.951 88.5412 54.2526 88.8594 54.468 89.2869C54.6835 89.7112 54.7912 90.2481 54.7912 90.8977V95.75H53.6179V90.9773C53.6179 90.3774 53.4621 89.91 53.1506 89.5753C52.839 89.2372 52.4115 89.0682 51.8679 89.0682C51.4934 89.0682 51.1586 89.1494 50.8636 89.3118C50.572 89.4742 50.3416 89.7112 50.1726 90.0227C50.0036 90.3343 49.919 90.7121 49.919 91.1562ZM60.0176 98.7727C59.4508 98.7727 58.9636 98.6998 58.5559 98.554C58.1483 98.4115 57.8085 98.2225 57.5368 97.9872C57.2683 97.7552 57.0545 97.5066 56.8954 97.2415L57.8301 96.5852C57.9361 96.7244 58.0704 96.8835 58.2328 97.0625C58.3952 97.2448 58.6172 97.4022 58.899 97.5348C59.184 97.6707 59.5569 97.7386 60.0176 97.7386C60.6341 97.7386 61.1428 97.5895 61.5439 97.2912C61.9449 96.9929 62.1454 96.5256 62.1454 95.8892V94.3381H62.046C61.9598 94.4773 61.8372 94.6496 61.6781 94.8551C61.5223 95.0573 61.2969 95.2379 61.002 95.397C60.7103 95.5528 60.3159 95.6307 59.8187 95.6307C59.2022 95.6307 58.6487 95.4848 58.1582 95.1932C57.671 94.9015 57.2849 94.4773 56.9998 93.9205C56.7181 93.3636 56.5772 92.6875 56.5772 91.892C56.5772 91.1098 56.7148 90.4287 56.9899 89.8487C57.265 89.2654 57.6478 88.8146 58.1383 88.4964C58.6288 88.175 59.1956 88.0142 59.8386 88.0142C60.3358 88.0142 60.7302 88.0971 61.0218 88.2628C61.3168 88.4252 61.5422 88.6108 61.698 88.8196C61.8571 89.0251 61.9797 89.1941 62.0659 89.3267H62.1852V88.1136H63.3187V95.9688C63.3187 96.625 63.1696 97.1586 62.8713 97.5696C62.5763 97.9839 62.1786 98.2872 61.6781 98.4794C61.1809 98.675 60.6274 98.7727 60.0176 98.7727ZM59.9778 94.5767C60.4484 94.5767 60.8462 94.469 61.171 94.2536C61.4958 94.0381 61.7427 93.7282 61.9118 93.3239C62.0808 92.9195 62.1653 92.4356 62.1653 91.8722C62.1653 91.322 62.0824 90.8364 61.9167 90.4155C61.751 89.9946 61.5057 89.6648 61.1809 89.4261C60.8561 89.1875 60.4551 89.0682 59.9778 89.0682C59.4806 89.0682 59.0663 89.1941 58.7349 89.446C58.4068 89.6979 58.1599 90.036 57.9941 90.4602C57.8317 90.8845 57.7505 91.3551 57.7505 91.8722C57.7505 92.4025 57.8334 92.8714 57.9991 93.2791C58.1681 93.6835 58.4167 94.0017 58.7449 94.2337C59.0763 94.4624 59.4873 94.5767 59.9778 94.5767ZM67.2164 94.358L67.1369 94.8949C67.0806 95.2727 66.9944 95.6771 66.8784 96.108C66.7657 96.5388 66.648 96.9448 66.5254 97.326C66.4028 97.7071 66.3017 98.0104 66.2221 98.2358H65.3272C65.3703 98.0237 65.4267 97.7436 65.4963 97.3956C65.5659 97.0476 65.6355 96.6581 65.7051 96.2273C65.778 95.7997 65.8377 95.3622 65.8841 94.9148L65.9437 94.358H67.2164ZM74.5011 91.1562V95.75H73.3278V85.5682H74.5011V89.3068H74.6005C74.7795 88.9124 75.0479 88.5992 75.4059 88.3672C75.7672 88.1319 76.2478 88.0142 76.8477 88.0142C77.368 88.0142 77.8237 88.1186 78.2148 88.3274C78.6059 88.5329 78.9092 88.8494 79.1246 89.277C79.3434 89.7012 79.4528 90.2415 79.4528 90.8977V95.75H78.2795V90.9773C78.2795 90.3707 78.122 89.9018 77.8072 89.5703C77.4956 89.2356 77.0631 89.0682 76.5096 89.0682C76.1251 89.0682 75.7804 89.1494 75.4755 89.3118C75.1739 89.4742 74.9353 89.7112 74.7596 90.0227C74.5872 90.3343 74.5011 90.7121 74.5011 91.1562ZM84.801 95.9091C84.0652 95.9091 83.4305 95.7467 82.8968 95.4219C82.3665 95.0938 81.9572 94.6364 81.6689 94.0497C81.3838 93.4598 81.2413 92.7737 81.2413 91.9915C81.2413 91.2093 81.3838 90.5199 81.6689 89.9233C81.9572 89.3234 82.3583 88.8561 82.872 88.5213C83.389 88.1832 83.9922 88.0142 84.6816 88.0142C85.0794 88.0142 85.4721 88.0805 85.8599 88.2131C86.2477 88.3456 86.6007 88.5611 86.9189 88.8594C87.237 89.1544 87.4906 89.5455 87.6795 90.0327C87.8684 90.5199 87.9629 91.1198 87.9629 91.8324V92.3295H82.0765V91.3153H86.7697C86.7697 90.8845 86.6835 90.5 86.5112 90.1619C86.3422 89.8239 86.1002 89.5571 85.7853 89.3615C85.4738 89.166 85.1059 89.0682 84.6816 89.0682C84.2143 89.0682 83.81 89.1842 83.4686 89.4162C83.1305 89.6449 82.8703 89.9432 82.688 90.3111C82.5057 90.679 82.4146 91.0734 82.4146 91.4943V92.1705C82.4146 92.7472 82.514 93.236 82.7129 93.6371C82.9151 94.0348 83.1951 94.3381 83.5531 94.5469C83.911 94.7524 84.327 94.8551 84.801 94.8551C85.1092 94.8551 85.3876 94.812 85.6362 94.7259C85.8881 94.6364 86.1052 94.5038 86.2875 94.3281C86.4698 94.1491 86.6106 93.9271 86.71 93.6619L87.8436 93.9801C87.7243 94.3646 87.5237 94.7027 87.242 94.9943C86.9603 95.2827 86.6123 95.508 86.198 95.6705C85.7837 95.8295 85.318 95.9091 84.801 95.9091ZM90.921 85.5682V95.75H89.7477V85.5682H90.921ZM93.07 98.6136V88.1136H94.2035V89.3267H94.3427C94.4289 89.1941 94.5482 89.0251 94.7006 88.8196C94.8564 88.6108 95.0785 88.4252 95.3668 88.2628C95.6585 88.0971 96.0529 88.0142 96.5501 88.0142C97.1931 88.0142 97.7598 88.175 98.2504 88.4964C98.7409 88.8179 99.1237 89.2737 99.3988 89.8636C99.6739 90.4536 99.8114 91.1496 99.8114 91.9517C99.8114 92.7604 99.6739 93.4614 99.3988 94.0547C99.1237 94.6446 98.7425 95.102 98.2553 95.4268C97.7681 95.7483 97.2063 95.9091 96.57 95.9091C96.0794 95.9091 95.6867 95.8279 95.3917 95.6655C95.0967 95.4998 94.8697 95.3125 94.7106 95.1037C94.5515 94.8916 94.4289 94.7159 94.3427 94.5767H94.2433V98.6136H93.07ZM94.2234 91.9318C94.2234 92.5085 94.3079 93.0173 94.4769 93.4581C94.646 93.8956 94.8929 94.2386 95.2177 94.4872C95.5425 94.7325 95.9402 94.8551 96.4109 94.8551C96.9014 94.8551 97.3107 94.7259 97.6388 94.4673C97.9703 94.2055 98.2189 93.8542 98.3846 93.4134C98.5536 92.9692 98.6381 92.4754 98.6381 91.9318C98.6381 91.3949 98.5553 90.911 98.3896 90.4801C98.2272 90.0459 97.9802 89.7029 97.6488 89.451C97.3207 89.1958 96.908 89.0682 96.4109 89.0682C95.9336 89.0682 95.5326 89.1892 95.2077 89.4311C94.8829 89.6697 94.6377 90.0045 94.4719 90.4354C94.3062 90.8629 94.2234 91.3617 94.2234 91.9318ZM101.601 95.75V88.1136H102.775V95.75H101.601ZM102.198 86.8409C101.969 86.8409 101.772 86.763 101.606 86.6072C101.444 86.4515 101.363 86.2642 101.363 86.0455C101.363 85.8267 101.444 85.6394 101.606 85.4837C101.772 85.3279 101.969 85.25 102.198 85.25C102.426 85.25 102.622 85.3279 102.784 85.4837C102.95 85.6394 103.033 85.8267 103.033 86.0455C103.033 86.2642 102.95 86.4515 102.784 86.6072C102.622 86.763 102.426 86.8409 102.198 86.8409ZM106.097 91.1562V95.75H104.923V88.1136H106.057V89.3068H106.156C106.335 88.919 106.607 88.6075 106.972 88.3722C107.336 88.1335 107.807 88.0142 108.384 88.0142C108.901 88.0142 109.353 88.1203 109.741 88.3324C110.129 88.5412 110.43 88.8594 110.646 89.2869C110.861 89.7112 110.969 90.2481 110.969 90.8977V95.75H109.796V90.9773C109.796 90.3774 109.64 89.91 109.328 89.5753C109.017 89.2372 108.589 89.0682 108.046 89.0682C107.671 89.0682 107.336 89.1494 107.041 89.3118C106.75 89.4742 106.519 89.7112 106.35 90.0227C106.181 90.3343 106.097 90.7121 106.097 91.1562ZM116.195 98.7727C115.629 98.7727 115.141 98.6998 114.734 98.554C114.326 98.4115 113.986 98.2225 113.714 97.9872C113.446 97.7552 113.232 97.5066 113.073 97.2415L114.008 96.5852C114.114 96.7244 114.248 96.8835 114.411 97.0625C114.573 97.2448 114.795 97.4022 115.077 97.5348C115.362 97.6707 115.735 97.7386 116.195 97.7386C116.812 97.7386 117.321 97.5895 117.722 97.2912C118.123 96.9929 118.323 96.5256 118.323 95.8892V94.3381H118.224C118.138 94.4773 118.015 94.6496 117.856 94.8551C117.7 95.0573 117.475 95.2379 117.18 95.397C116.888 95.5528 116.494 95.6307 115.996 95.6307C115.38 95.6307 114.826 95.4848 114.336 95.1932C113.849 94.9015 113.463 94.4773 113.178 93.9205C112.896 93.3636 112.755 92.6875 112.755 91.892C112.755 91.1098 112.893 90.4287 113.168 89.8487C113.443 89.2654 113.826 88.8146 114.316 88.4964C114.807 88.175 115.373 88.0142 116.016 88.0142C116.513 88.0142 116.908 88.0971 117.2 88.2628C117.495 88.4252 117.72 88.6108 117.876 88.8196C118.035 89.0251 118.157 89.1941 118.244 89.3267H118.363V88.1136H119.496V95.9688C119.496 96.625 119.347 97.1586 119.049 97.5696C118.754 97.9839 118.356 98.2872 117.856 98.4794C117.359 98.675 116.805 98.7727 116.195 98.7727ZM116.156 94.5767C116.626 94.5767 117.024 94.469 117.349 94.2536C117.674 94.0381 117.92 93.7282 118.089 93.3239C118.259 92.9195 118.343 92.4356 118.343 91.8722C118.343 91.322 118.26 90.8364 118.094 90.4155C117.929 89.9946 117.683 89.6648 117.359 89.4261C117.034 89.1875 116.633 89.0682 116.156 89.0682C115.658 89.0682 115.244 89.1941 114.913 89.446C114.585 89.6979 114.338 90.036 114.172 90.4602C114.009 90.8845 113.928 91.3551 113.928 91.8722C113.928 92.4025 114.011 92.8714 114.177 93.2791C114.346 93.6835 114.594 94.0017 114.923 94.2337C115.254 94.4624 115.665 94.5767 116.156 94.5767ZM126.337 98.6136C126.138 98.6136 125.961 98.5971 125.805 98.5639C125.65 98.5341 125.542 98.5043 125.482 98.4744L125.781 97.4403C126.066 97.5133 126.317 97.5398 126.536 97.5199C126.755 97.5 126.949 97.4022 127.118 97.2266C127.29 97.0542 127.448 96.7741 127.59 96.3864L127.809 95.7898L124.985 88.1136H126.258L128.366 94.1989H128.445L130.553 88.1136H131.826L128.585 96.8636C128.439 97.258 128.258 97.5845 128.043 97.843C127.827 98.1049 127.577 98.2988 127.292 98.4247C127.01 98.5507 126.692 98.6136 126.337 98.6136ZM136.203 95.9091C135.514 95.9091 134.909 95.745 134.389 95.4169C133.872 95.0888 133.467 94.6297 133.176 94.0398C132.887 93.4498 132.743 92.7604 132.743 91.9716C132.743 91.1761 132.887 90.4818 133.176 89.8885C133.467 89.2952 133.872 88.8345 134.389 88.5064C134.909 88.1783 135.514 88.0142 136.203 88.0142C136.893 88.0142 137.496 88.1783 138.013 88.5064C138.533 88.8345 138.938 89.2952 139.226 89.8885C139.518 90.4818 139.664 91.1761 139.664 91.9716C139.664 92.7604 139.518 93.4498 139.226 94.0398C138.938 94.6297 138.533 95.0888 138.013 95.4169C137.496 95.745 136.893 95.9091 136.203 95.9091ZM136.203 94.8551C136.727 94.8551 137.158 94.7209 137.496 94.4524C137.834 94.1839 138.084 93.831 138.247 93.3935C138.409 92.956 138.49 92.482 138.49 91.9716C138.49 91.4612 138.409 90.9856 138.247 90.5447C138.084 90.1039 137.834 89.7476 137.496 89.4759C137.158 89.2041 136.727 89.0682 136.203 89.0682C135.68 89.0682 135.249 89.2041 134.911 89.4759C134.573 89.7476 134.323 90.1039 134.16 90.5447C133.998 90.9856 133.917 91.4612 133.917 91.9716C133.917 92.482 133.998 92.956 134.16 93.3935C134.323 93.831 134.573 94.1839 134.911 94.4524C135.249 94.7209 135.68 94.8551 136.203 94.8551ZM146.267 92.6278V88.1136H147.441V95.75H146.267V94.4574H146.188C146.009 94.8452 145.73 95.175 145.352 95.4467C144.975 95.7152 144.497 95.8494 143.921 95.8494C143.443 95.8494 143.019 95.745 142.648 95.5362C142.277 95.3241 141.985 95.0059 141.773 94.5817C141.561 94.1541 141.455 93.6155 141.455 92.9659V88.1136H142.628V92.8864C142.628 93.4432 142.784 93.8873 143.095 94.2188C143.41 94.5502 143.811 94.7159 144.298 94.7159C144.59 94.7159 144.887 94.6413 145.188 94.4922C145.493 94.343 145.749 94.1143 145.954 93.8061C146.163 93.4979 146.267 93.1051 146.267 92.6278ZM156.928 88.1136V89.108H152.811V88.1136H156.928ZM154.044 95.75V87.0597C154.044 86.6222 154.147 86.2576 154.352 85.9659C154.558 85.6742 154.825 85.4555 155.153 85.3097C155.481 85.1638 155.827 85.0909 156.192 85.0909C156.48 85.0909 156.715 85.1141 156.898 85.1605C157.08 85.2069 157.216 85.25 157.305 85.2898L156.967 86.304C156.908 86.2841 156.825 86.2592 156.719 86.2294C156.616 86.1996 156.48 86.1847 156.311 86.1847C155.923 86.1847 155.643 86.2824 155.471 86.478C155.302 86.6735 155.217 86.9602 155.217 87.3381V95.75H154.044ZM161.36 95.9091C160.67 95.9091 160.065 95.745 159.545 95.4169C159.028 95.0888 158.624 94.6297 158.332 94.0398C158.044 93.4498 157.9 92.7604 157.9 91.9716C157.9 91.1761 158.044 90.4818 158.332 89.8885C158.624 89.2952 159.028 88.8345 159.545 88.5064C160.065 88.1783 160.67 88.0142 161.36 88.0142C162.049 88.0142 162.652 88.1783 163.169 88.5064C163.69 88.8345 164.094 89.2952 164.382 89.8885C164.674 90.4818 164.82 91.1761 164.82 91.9716C164.82 92.7604 164.674 93.4498 164.382 94.0398C164.094 94.6297 163.69 95.0888 163.169 95.4169C162.652 95.745 162.049 95.9091 161.36 95.9091ZM161.36 94.8551C161.883 94.8551 162.314 94.7209 162.652 94.4524C162.99 94.1839 163.241 93.831 163.403 93.3935C163.565 92.956 163.647 92.482 163.647 91.9716C163.647 91.4612 163.565 90.9856 163.403 90.5447C163.241 90.1039 162.99 89.7476 162.652 89.4759C162.314 89.2041 161.883 89.0682 161.36 89.0682C160.836 89.0682 160.405 89.2041 160.067 89.4759C159.729 89.7476 159.479 90.1039 159.316 90.5447C159.154 90.9856 159.073 91.4612 159.073 91.9716C159.073 92.482 159.154 92.956 159.316 93.3935C159.479 93.831 159.729 94.1839 160.067 94.4524C160.405 94.7209 160.836 94.8551 161.36 94.8551ZM172.02 89.8239L170.966 90.1222C170.9 89.9465 170.802 89.7758 170.673 89.6101C170.547 89.4411 170.374 89.3018 170.156 89.1925C169.937 89.0831 169.657 89.0284 169.316 89.0284C168.848 89.0284 168.459 89.1361 168.147 89.3516C167.839 89.5637 167.685 89.8338 167.685 90.1619C167.685 90.4536 167.791 90.6839 168.003 90.853C168.215 91.022 168.547 91.1629 168.997 91.2756L170.131 91.554C170.814 91.7197 171.322 91.9732 171.657 92.3146C171.992 92.6527 172.159 93.0885 172.159 93.6222C172.159 94.0597 172.033 94.4508 171.781 94.7955C171.533 95.1402 171.185 95.4119 170.737 95.6108C170.29 95.8097 169.77 95.9091 169.176 95.9091C168.397 95.9091 167.753 95.7401 167.242 95.402C166.732 95.0639 166.409 94.5701 166.273 93.9205L167.387 93.642C167.493 94.053 167.693 94.3613 167.988 94.5668C168.286 94.7723 168.676 94.875 169.156 94.875C169.703 94.875 170.137 94.759 170.459 94.527C170.784 94.2917 170.946 94.0099 170.946 93.6818C170.946 93.4167 170.853 93.1946 170.668 93.0156C170.482 92.8333 170.197 92.6974 169.813 92.608L168.54 92.3097C167.841 92.1439 167.327 91.8871 166.999 91.5391C166.674 91.1877 166.512 90.7486 166.512 90.2216C166.512 89.7907 166.633 89.4096 166.874 89.0781C167.12 88.7467 167.453 88.4865 167.874 88.2976C168.298 88.1087 168.779 88.0142 169.316 88.0142C170.071 88.0142 170.664 88.1799 171.095 88.5114C171.53 88.8428 171.838 89.2803 172.02 89.8239ZM177.246 88.1136V89.108H173.289V88.1136H177.246ZM174.442 86.2841H175.616V93.5625C175.616 93.8939 175.664 94.1425 175.76 94.3082C175.859 94.4706 175.985 94.58 176.138 94.6364C176.294 94.6894 176.458 94.7159 176.63 94.7159C176.759 94.7159 176.865 94.7093 176.948 94.696C177.031 94.6795 177.097 94.6662 177.147 94.6562L177.386 95.7102C177.306 95.7401 177.195 95.7699 177.053 95.7997C176.91 95.8329 176.729 95.8494 176.511 95.8494C176.179 95.8494 175.854 95.7782 175.536 95.6357C175.221 95.4931 174.96 95.276 174.751 94.9844C174.545 94.6927 174.442 94.3248 174.442 93.8807V86.2841ZM182.131 95.9091C181.395 95.9091 180.761 95.7467 180.227 95.4219C179.697 95.0938 179.287 94.6364 178.999 94.0497C178.714 93.4598 178.571 92.7737 178.571 91.9915C178.571 91.2093 178.714 90.5199 178.999 89.9233C179.287 89.3234 179.688 88.8561 180.202 88.5213C180.719 88.1832 181.322 88.0142 182.012 88.0142C182.409 88.0142 182.802 88.0805 183.19 88.2131C183.578 88.3456 183.931 88.5611 184.249 88.8594C184.567 89.1544 184.821 89.5455 185.01 90.0327C185.199 90.5199 185.293 91.1198 185.293 91.8324V92.3295H179.407V91.3153H184.1C184.1 90.8845 184.014 90.5 183.841 90.1619C183.672 89.8239 183.43 89.5571 183.115 89.3615C182.804 89.166 182.436 89.0682 182.012 89.0682C181.544 89.0682 181.14 89.1842 180.799 89.4162C180.461 89.6449 180.2 89.9432 180.018 90.3111C179.836 90.679 179.745 91.0734 179.745 91.4943V92.1705C179.745 92.7472 179.844 93.236 180.043 93.6371C180.245 94.0348 180.525 94.3381 180.883 94.5469C181.241 94.7524 181.657 94.8551 182.131 94.8551C182.439 94.8551 182.718 94.812 182.966 94.7259C183.218 94.6364 183.435 94.5038 183.618 94.3281C183.8 94.1491 183.941 93.9271 184.04 93.6619L185.174 93.9801C185.054 94.3646 184.854 94.7027 184.572 94.9943C184.29 95.2827 183.942 95.508 183.528 95.6705C183.114 95.8295 182.648 95.9091 182.131 95.9091ZM187.078 95.75V88.1136H188.211V89.267H188.291C188.43 88.8892 188.682 88.5826 189.047 88.3473C189.411 88.112 189.822 87.9943 190.279 87.9943C190.366 87.9943 190.473 87.996 190.603 87.9993C190.732 88.0026 190.83 88.0076 190.896 88.0142V89.2074C190.856 89.1974 190.765 89.1825 190.623 89.1626C190.483 89.1394 190.336 89.1278 190.18 89.1278C189.809 89.1278 189.477 89.2057 189.186 89.3615C188.897 89.514 188.669 89.7261 188.5 89.9979C188.334 90.2663 188.251 90.5729 188.251 90.9176V95.75H187.078ZM198.471 95.929C197.988 95.929 197.548 95.8378 197.154 95.6555C196.76 95.4699 196.446 95.2031 196.214 94.8551C195.982 94.5038 195.866 94.0795 195.866 93.5824C195.866 93.1449 195.952 92.7902 196.125 92.5185C196.297 92.2434 196.528 92.0279 196.816 91.8722C197.104 91.7164 197.422 91.6004 197.77 91.5241C198.122 91.4446 198.475 91.3816 198.829 91.3352C199.293 91.2756 199.67 91.2308 199.958 91.201C200.25 91.1679 200.462 91.1132 200.594 91.0369C200.73 90.9607 200.798 90.8281 200.798 90.6392V90.5994C200.798 90.1089 200.664 89.7277 200.395 89.456C200.13 89.1842 199.728 89.0483 199.187 89.0483C198.627 89.0483 198.188 89.1709 197.87 89.4162C197.552 89.6615 197.328 89.9233 197.199 90.2017L196.085 89.804C196.284 89.34 196.549 88.9787 196.881 88.7202C197.215 88.4583 197.58 88.276 197.974 88.1733C198.372 88.0672 198.763 88.0142 199.148 88.0142C199.393 88.0142 199.675 88.044 199.993 88.1037C200.314 88.16 200.624 88.2777 200.922 88.4567C201.224 88.6357 201.474 88.9058 201.673 89.267C201.872 89.6283 201.971 90.1122 201.971 90.7188V95.75H200.798V94.7159H200.738C200.659 94.8816 200.526 95.0589 200.341 95.2479C200.155 95.4368 199.908 95.5975 199.6 95.7301C199.292 95.8627 198.916 95.929 198.471 95.929ZM198.65 94.875C199.114 94.875 199.506 94.7839 199.824 94.6016C200.145 94.4193 200.387 94.1839 200.55 93.8956C200.715 93.6072 200.798 93.304 200.798 92.9858V91.9119C200.748 91.9716 200.639 92.0263 200.47 92.076C200.304 92.1224 200.112 92.1638 199.893 92.2003C199.678 92.2334 199.467 92.2633 199.262 92.2898C199.06 92.313 198.896 92.3329 198.77 92.3494C198.465 92.3892 198.18 92.4538 197.915 92.5433C197.653 92.6295 197.441 92.7604 197.278 92.9361C197.119 93.1084 197.04 93.3437 197.04 93.642C197.04 94.0497 197.19 94.358 197.492 94.5668C197.797 94.7723 198.183 94.875 198.65 94.875ZM209.224 91.1562V95.75H208.05V85.5682H209.224V89.3068H209.323C209.502 88.9124 209.771 88.5992 210.129 88.3672C210.49 88.1319 210.97 88.0142 211.57 88.0142C212.091 88.0142 212.546 88.1186 212.938 88.3274C213.329 88.5329 213.632 88.8494 213.847 89.277C214.066 89.7012 214.175 90.2415 214.175 90.8977V95.75H213.002V90.9773C213.002 90.3707 212.845 89.9018 212.53 89.5703C212.218 89.2356 211.786 89.0682 211.232 89.0682C210.848 89.0682 210.503 89.1494 210.198 89.3118C209.897 89.4742 209.658 89.7112 209.482 90.0227C209.31 90.3343 209.224 90.7121 209.224 91.1562ZM218.569 95.929C218.085 95.929 217.646 95.8378 217.252 95.6555C216.857 95.4699 216.544 95.2031 216.312 94.8551C216.08 94.5038 215.964 94.0795 215.964 93.5824C215.964 93.1449 216.05 92.7902 216.222 92.5185C216.395 92.2434 216.625 92.0279 216.914 91.8722C217.202 91.7164 217.52 91.6004 217.868 91.5241C218.219 91.4446 218.572 91.3816 218.927 91.3352C219.391 91.2756 219.767 91.2308 220.056 91.201C220.347 91.1679 220.559 91.1132 220.692 91.0369C220.828 90.9607 220.896 90.8281 220.896 90.6392V90.5994C220.896 90.1089 220.762 89.7277 220.493 89.456C220.228 89.1842 219.825 89.0483 219.285 89.0483C218.725 89.0483 218.286 89.1709 217.968 89.4162C217.649 89.6615 217.426 89.9233 217.296 90.2017L216.183 89.804C216.382 89.34 216.647 88.9787 216.978 88.7202C217.313 88.4583 217.677 88.276 218.072 88.1733C218.47 88.0672 218.861 88.0142 219.245 88.0142C219.49 88.0142 219.772 88.044 220.09 88.1037C220.412 88.16 220.722 88.2777 221.02 88.4567C221.322 88.6357 221.572 88.9058 221.771 89.267C221.97 89.6283 222.069 90.1122 222.069 90.7188V95.75H220.896V94.7159H220.836C220.757 94.8816 220.624 95.0589 220.438 95.2479C220.253 95.4368 220.006 95.5975 219.698 95.7301C219.389 95.8627 219.013 95.929 218.569 95.929ZM218.748 94.875C219.212 94.875 219.603 94.7839 219.921 94.6016C220.243 94.4193 220.485 94.1839 220.647 93.8956C220.813 93.6072 220.896 93.304 220.896 92.9858V91.9119C220.846 91.9716 220.737 92.0263 220.568 92.076C220.402 92.1224 220.21 92.1638 219.991 92.2003C219.776 92.2334 219.565 92.2633 219.36 92.2898C219.157 92.313 218.993 92.3329 218.867 92.3494C218.562 92.3892 218.277 92.4538 218.012 92.5433C217.75 92.6295 217.538 92.7604 217.376 92.9361C217.217 93.1084 217.137 93.3437 217.137 93.642C217.137 94.0497 217.288 94.358 217.59 94.5668C217.895 94.7723 218.281 94.875 218.748 94.875ZM224.211 98.6136V88.1136H225.344V89.3267H225.483C225.569 89.1941 225.689 89.0251 225.841 88.8196C225.997 88.6108 226.219 88.4252 226.507 88.2628C226.799 88.0971 227.194 88.0142 227.691 88.0142C228.334 88.0142 228.9 88.175 229.391 88.4964C229.882 88.8179 230.264 89.2737 230.539 89.8636C230.815 90.4536 230.952 91.1496 230.952 91.9517C230.952 92.7604 230.815 93.4614 230.539 94.0547C230.264 94.6446 229.883 95.102 229.396 95.4268C228.909 95.7483 228.347 95.9091 227.711 95.9091C227.22 95.9091 226.827 95.8279 226.532 95.6655C226.237 95.4998 226.01 95.3125 225.851 95.1037C225.692 94.8916 225.569 94.7159 225.483 94.5767H225.384V98.6136H224.211ZM225.364 91.9318C225.364 92.5085 225.449 93.0173 225.618 93.4581C225.787 93.8956 226.033 94.2386 226.358 94.4872C226.683 94.7325 227.081 94.8551 227.551 94.8551C228.042 94.8551 228.451 94.7259 228.779 94.4673C229.111 94.2055 229.359 93.8542 229.525 93.4134C229.694 92.9692 229.779 92.4754 229.779 91.9318C229.779 91.3949 229.696 90.911 229.53 90.4801C229.368 90.0459 229.121 89.7029 228.789 89.451C228.461 89.1958 228.049 89.0682 227.551 89.0682C227.074 89.0682 226.673 89.1892 226.348 89.4311C226.024 89.6697 225.778 90.0045 225.613 90.4354C225.447 90.8629 225.364 91.3617 225.364 91.9318ZM232.742 98.6136V88.1136H233.875V89.3267H234.015C234.101 89.1941 234.22 89.0251 234.373 88.8196C234.528 88.6108 234.75 88.4252 235.039 88.2628C235.33 88.0971 235.725 88.0142 236.222 88.0142C236.865 88.0142 237.432 88.175 237.922 88.4964C238.413 88.8179 238.796 89.2737 239.071 89.8636C239.346 90.4536 239.483 91.1496 239.483 91.9517C239.483 92.7604 239.346 93.4614 239.071 94.0547C238.796 94.6446 238.414 95.102 237.927 95.4268C237.44 95.7483 236.878 95.9091 236.242 95.9091C235.751 95.9091 235.359 95.8279 235.064 95.6655C234.769 95.4998 234.542 95.3125 234.382 95.1037C234.223 94.8916 234.101 94.7159 234.015 94.5767H233.915V98.6136H232.742ZM233.895 91.9318C233.895 92.5085 233.98 93.0173 234.149 93.4581C234.318 93.8956 234.565 94.2386 234.89 94.4872C235.214 94.7325 235.612 94.8551 236.083 94.8551C236.573 94.8551 236.983 94.7259 237.311 94.4673C237.642 94.2055 237.891 93.8542 238.056 93.4134C238.225 92.9692 238.31 92.4754 238.31 91.9318C238.31 91.3949 238.227 90.911 238.061 90.4801C237.899 90.0459 237.652 89.7029 237.321 89.451C236.993 89.1958 236.58 89.0682 236.083 89.0682C235.605 89.0682 235.204 89.1892 234.88 89.4311C234.555 89.6697 234.31 90.0045 234.144 90.4354C233.978 90.8629 233.895 91.3617 233.895 91.9318ZM241.273 95.75V88.1136H242.446V95.75H241.273ZM241.87 86.8409C241.641 86.8409 241.444 86.763 241.278 86.6072C241.116 86.4515 241.034 86.2642 241.034 86.0455C241.034 85.8267 241.116 85.6394 241.278 85.4837C241.444 85.3279 241.641 85.25 241.87 85.25C242.098 85.25 242.294 85.3279 242.456 85.4837C242.622 85.6394 242.705 85.8267 242.705 86.0455C242.705 86.2642 242.622 86.4515 242.456 86.6072C242.294 86.763 242.098 86.8409 241.87 86.8409ZM247.797 95.9091C247.061 95.9091 246.427 95.7467 245.893 95.4219C245.363 95.0938 244.953 94.6364 244.665 94.0497C244.38 93.4598 244.237 92.7737 244.237 91.9915C244.237 91.2093 244.38 90.5199 244.665 89.9233C244.953 89.3234 245.354 88.8561 245.868 88.5213C246.385 88.1832 246.988 88.0142 247.678 88.0142C248.075 88.0142 248.468 88.0805 248.856 88.2131C249.244 88.3456 249.597 88.5611 249.915 88.8594C250.233 89.1544 250.487 89.5455 250.676 90.0327C250.865 90.5199 250.959 91.1198 250.959 91.8324V92.3295H245.073V91.3153H249.766C249.766 90.8845 249.68 90.5 249.507 90.1619C249.338 89.8239 249.096 89.5571 248.781 89.3615C248.47 89.166 248.102 89.0682 247.678 89.0682C247.21 89.0682 246.806 89.1842 246.465 89.4162C246.127 89.6449 245.866 89.9432 245.684 90.3111C245.502 90.679 245.411 91.0734 245.411 91.4943V92.1705C245.411 92.7472 245.51 93.236 245.709 93.6371C245.911 94.0348 246.191 94.3381 246.549 94.5469C246.907 94.7524 247.323 94.8551 247.797 94.8551C248.105 94.8551 248.384 94.812 248.632 94.7259C248.884 94.6364 249.101 94.5038 249.284 94.3281C249.466 94.1491 249.607 93.9271 249.706 93.6619L250.84 93.9801C250.72 94.3646 250.52 94.7027 250.238 94.9943C249.956 95.2827 249.608 95.508 249.194 95.6705C248.78 95.8295 248.314 95.9091 247.797 95.9091ZM252.744 95.75V88.1136H253.877V89.267H253.957C254.096 88.8892 254.348 88.5826 254.713 88.3473C255.077 88.112 255.488 87.9943 255.945 87.9943C256.032 87.9943 256.139 87.996 256.269 87.9993C256.398 88.0026 256.496 88.0076 256.562 88.0142V89.2074C256.522 89.1974 256.431 89.1825 256.289 89.1626C256.149 89.1394 256.002 89.1278 255.846 89.1278C255.475 89.1278 255.143 89.2057 254.852 89.3615C254.563 89.514 254.335 89.7261 254.166 89.9979C254 90.2663 253.917 90.5729 253.917 90.9176V95.75H252.744ZM258.828 94.358L258.748 94.8949C258.692 95.2727 258.606 95.6771 258.49 96.108C258.377 96.5388 258.259 96.9448 258.137 97.326C258.014 97.7071 257.913 98.0104 257.833 98.2358H256.939C256.982 98.0237 257.038 97.7436 257.108 97.3956C257.177 97.0476 257.247 96.6581 257.316 96.2273C257.389 95.7997 257.449 95.3622 257.495 94.9148L257.555 94.358H258.828ZM22.2472 112.156V116.75H21.0739V106.568H22.2472V110.307H22.3466C22.5256 109.912 22.794 109.599 23.152 109.367C23.5133 109.132 23.9938 109.014 24.5938 109.014C25.1141 109.014 25.5698 109.119 25.9609 109.327C26.352 109.533 26.6553 109.849 26.8707 110.277C27.0895 110.701 27.1989 111.241 27.1989 111.898V116.75H26.0256V111.977C26.0256 111.371 25.8681 110.902 25.5533 110.57C25.2417 110.236 24.8092 110.068 24.2557 110.068C23.8712 110.068 23.5265 110.149 23.2216 110.312C22.92 110.474 22.6813 110.711 22.5057 111.023C22.3333 111.334 22.2472 111.712 22.2472 112.156ZM32.5471 116.909C31.8113 116.909 31.1766 116.747 30.6429 116.422C30.1126 116.094 29.7033 115.636 29.415 115.05C29.1299 114.46 28.9874 113.774 28.9874 112.991C28.9874 112.209 29.1299 111.52 29.415 110.923C29.7033 110.323 30.1043 109.856 30.6181 109.521C31.1351 109.183 31.7383 109.014 32.4277 109.014C32.8255 109.014 33.2182 109.08 33.606 109.213C33.9938 109.346 34.3468 109.561 34.665 109.859C34.9831 110.154 35.2367 110.545 35.4256 111.033C35.6145 111.52 35.709 112.12 35.709 112.832V113.33H29.8226V112.315H34.5158C34.5158 111.884 34.4296 111.5 34.2573 111.162C34.0882 110.824 33.8463 110.557 33.5314 110.362C33.2199 110.166 32.852 110.068 32.4277 110.068C31.9604 110.068 31.556 110.184 31.2147 110.416C30.8766 110.645 30.6164 110.943 30.4341 111.311C30.2518 111.679 30.1607 112.073 30.1607 112.494V113.17C30.1607 113.747 30.2601 114.236 30.459 114.637C30.6612 115.035 30.9412 115.338 31.2992 115.547C31.6571 115.752 32.0731 115.855 32.5471 115.855C32.8553 115.855 33.1337 115.812 33.3823 115.726C33.6342 115.636 33.8513 115.504 34.0336 115.328C34.2159 115.149 34.3567 114.927 34.4561 114.662L35.5897 114.98C35.4703 115.365 35.2698 115.703 34.9881 115.994C34.7064 116.283 34.3584 116.508 33.9441 116.67C33.5298 116.83 33.0641 116.909 32.5471 116.909ZM39.7409 116.929C39.257 116.929 38.8179 116.838 38.4235 116.656C38.0291 116.47 37.7158 116.203 37.4838 115.855C37.2518 115.504 37.1358 115.08 37.1358 114.582C37.1358 114.145 37.222 113.79 37.3944 113.518C37.5667 113.243 37.7971 113.028 38.0854 112.872C38.3738 112.716 38.6919 112.6 39.04 112.524C39.3913 112.445 39.7443 112.382 40.0989 112.335C40.5629 112.276 40.9391 112.231 41.2275 112.201C41.5191 112.168 41.7312 112.113 41.8638 112.037C41.9997 111.961 42.0676 111.828 42.0676 111.639V111.599C42.0676 111.109 41.9334 110.728 41.665 110.456C41.3998 110.184 40.9971 110.048 40.4569 110.048C39.8967 110.048 39.4576 110.171 39.1394 110.416C38.8212 110.661 38.5975 110.923 38.4682 111.202L37.3546 110.804C37.5534 110.34 37.8186 109.979 38.15 109.72C38.4848 109.458 38.8494 109.276 39.2438 109.173C39.6415 109.067 40.0326 109.014 40.4171 109.014C40.6623 109.014 40.9441 109.044 41.2623 109.104C41.5837 109.16 41.8936 109.278 42.1919 109.457C42.4935 109.636 42.7438 109.906 42.9426 110.267C43.1415 110.628 43.2409 111.112 43.2409 111.719V116.75H42.0676V115.716H42.008C41.9284 115.882 41.7959 116.059 41.6103 116.248C41.4247 116.437 41.1777 116.598 40.8695 116.73C40.5613 116.863 40.1851 116.929 39.7409 116.929ZM39.9199 115.875C40.3839 115.875 40.775 115.784 41.0932 115.602C41.4147 115.419 41.6567 115.184 41.8191 114.896C41.9848 114.607 42.0676 114.304 42.0676 113.986V112.912C42.0179 112.972 41.9086 113.026 41.7395 113.076C41.5738 113.122 41.3816 113.164 41.1628 113.2C40.9474 113.233 40.7369 113.263 40.5314 113.29C40.3292 113.313 40.1652 113.333 40.0392 113.349C39.7343 113.389 39.4493 113.454 39.1841 113.543C38.9223 113.629 38.7102 113.76 38.5478 113.936C38.3887 114.108 38.3091 114.344 38.3091 114.642C38.3091 115.05 38.4599 115.358 38.7615 115.567C39.0665 115.772 39.4526 115.875 39.9199 115.875ZM46.5558 106.568V116.75H45.3825V106.568H46.5558ZM52.0257 109.114V110.108H48.0684V109.114H52.0257ZM49.2218 107.284H50.3951V114.562C50.3951 114.894 50.4431 115.143 50.5392 115.308C50.6387 115.471 50.7646 115.58 50.9171 115.636C51.0729 115.689 51.2369 115.716 51.4093 115.716C51.5385 115.716 51.6446 115.709 51.7275 115.696C51.8103 115.679 51.8766 115.666 51.9263 115.656L52.165 116.71C52.0854 116.74 51.9744 116.77 51.8319 116.8C51.6893 116.833 51.5087 116.849 51.29 116.849C50.9585 116.849 50.6337 116.778 50.3155 116.636C50.0007 116.493 49.7388 116.276 49.53 115.984C49.3245 115.693 49.2218 115.325 49.2218 114.881V107.284ZM55.128 112.156V116.75H53.9547V106.568H55.128V110.307H55.2275C55.4064 109.912 55.6749 109.599 56.0328 109.367C56.3941 109.132 56.8747 109.014 57.4746 109.014C57.995 109.014 58.4507 109.119 58.8418 109.327C59.2329 109.533 59.5362 109.849 59.7516 110.277C59.9703 110.701 60.0797 111.241 60.0797 111.898V116.75H58.9064V111.977C58.9064 111.371 58.749 110.902 58.4341 110.57C58.1226 110.236 57.69 110.068 57.1365 110.068C56.7521 110.068 56.4074 110.149 56.1025 110.312C55.8008 110.474 55.5622 110.711 55.3865 111.023C55.2142 111.334 55.128 111.712 55.128 112.156ZM62.2262 116.75V109.114H63.3995V116.75H62.2262ZM62.8228 107.841C62.5941 107.841 62.3969 107.763 62.2312 107.607C62.0688 107.451 61.9876 107.264 61.9876 107.045C61.9876 106.827 62.0688 106.639 62.2312 106.484C62.3969 106.328 62.5941 106.25 62.8228 106.25C63.0515 106.25 63.247 106.328 63.4094 106.484C63.5752 106.639 63.658 106.827 63.658 107.045C63.658 107.264 63.5752 107.451 63.4094 107.607C63.247 107.763 63.0515 107.841 62.8228 107.841ZM68.7502 116.909C68.0144 116.909 67.3797 116.747 66.8461 116.422C66.3158 116.094 65.9064 115.636 65.6181 115.05C65.333 114.46 65.1905 113.774 65.1905 112.991C65.1905 112.209 65.333 111.52 65.6181 110.923C65.9064 110.323 66.3075 109.856 66.8212 109.521C67.3382 109.183 67.9415 109.014 68.6309 109.014C69.0286 109.014 69.4213 109.08 69.8091 109.213C70.1969 109.346 70.5499 109.561 70.8681 109.859C71.1863 110.154 71.4398 110.545 71.6287 111.033C71.8176 111.52 71.9121 112.12 71.9121 112.832V113.33H66.0257V112.315H70.7189C70.7189 111.884 70.6328 111.5 70.4604 111.162C70.2914 110.824 70.0494 110.557 69.7346 110.362C69.423 110.166 69.0551 110.068 68.6309 110.068C68.1635 110.068 67.7592 110.184 67.4178 110.416C67.0797 110.645 66.8195 110.943 66.6373 111.311C66.455 111.679 66.3638 112.073 66.3638 112.494V113.17C66.3638 113.747 66.4632 114.236 66.6621 114.637C66.8643 115.035 67.1444 115.338 67.5023 115.547C67.8603 115.752 68.2762 115.855 68.7502 115.855C69.0584 115.855 69.3368 115.812 69.5854 115.726C69.8373 115.636 70.0544 115.504 70.2367 115.328C70.419 115.149 70.5598 114.927 70.6593 114.662L71.7928 114.98C71.6735 115.365 71.473 115.703 71.1912 115.994C70.9095 116.283 70.5615 116.508 70.1472 116.67C69.7329 116.83 69.2672 116.909 68.7502 116.909ZM73.6969 116.75V109.114H74.8304V110.267H74.91C75.0492 109.889 75.3011 109.583 75.6657 109.347C76.0302 109.112 76.4412 108.994 76.8986 108.994C76.9848 108.994 77.0925 108.996 77.2218 108.999C77.351 109.003 77.4488 109.008 77.5151 109.014V110.207C77.4753 110.197 77.3842 110.183 77.2417 110.163C77.1025 110.139 76.955 110.128 76.7992 110.128C76.428 110.128 76.0965 110.206 75.8049 110.362C75.5165 110.514 75.2878 110.726 75.1188 110.998C74.9531 111.266 74.8702 111.573 74.8702 111.918V116.75H73.6969ZM84.5735 116.75L82.2468 109.114H83.4798L85.1303 114.96H85.2099L86.8406 109.114H88.0934L89.7042 114.94H89.7837L91.4343 109.114H92.6673L90.3406 116.75H89.1871L87.5167 110.884H87.3974L85.7269 116.75H84.5735ZM97.0609 116.909C96.3715 116.909 95.7666 116.745 95.2463 116.417C94.7292 116.089 94.3249 115.63 94.0332 115.04C93.7449 114.45 93.6007 113.76 93.6007 112.972C93.6007 112.176 93.7449 111.482 94.0332 110.888C94.3249 110.295 94.7292 109.835 95.2463 109.506C95.7666 109.178 96.3715 109.014 97.0609 109.014C97.7503 109.014 98.3535 109.178 98.8706 109.506C99.3909 109.835 99.7953 110.295 100.084 110.888C100.375 111.482 100.521 112.176 100.521 112.972C100.521 113.76 100.375 114.45 100.084 115.04C99.7953 115.63 99.3909 116.089 98.8706 116.417C98.3535 116.745 97.7503 116.909 97.0609 116.909ZM97.0609 115.855C97.5846 115.855 98.0154 115.721 98.3535 115.452C98.6916 115.184 98.9418 114.831 99.1042 114.393C99.2666 113.956 99.3478 113.482 99.3478 112.972C99.3478 112.461 99.2666 111.986 99.1042 111.545C98.9418 111.104 98.6916 110.748 98.3535 110.476C98.0154 110.204 97.5846 110.068 97.0609 110.068C96.5372 110.068 96.1064 110.204 95.7683 110.476C95.4302 110.748 95.18 111.104 95.0176 111.545C94.8552 111.986 94.774 112.461 94.774 112.972C94.774 113.482 94.8552 113.956 95.0176 114.393C95.18 114.831 95.4302 115.184 95.7683 115.452C96.1064 115.721 96.5372 115.855 97.0609 115.855ZM102.312 116.75V109.114H103.446V110.267H103.525C103.664 109.889 103.916 109.583 104.281 109.347C104.645 109.112 105.056 108.994 105.514 108.994C105.6 108.994 105.708 108.996 105.837 108.999C105.966 109.003 106.064 109.008 106.13 109.014V110.207C106.091 110.197 105.999 110.183 105.857 110.163C105.718 110.139 105.57 110.128 105.414 110.128C105.043 110.128 104.712 110.206 104.42 110.362C104.132 110.514 103.903 110.726 103.734 110.998C103.568 111.266 103.485 111.573 103.485 111.918V116.75H102.312ZM108.615 113.966L108.595 112.514H108.834L112.175 109.114H113.626L110.067 112.713H109.967L108.615 113.966ZM107.521 116.75V106.568H108.694V116.75H107.521ZM112.373 116.75L109.39 112.972L110.226 112.156L113.865 116.75H112.373ZM115.136 119.614V109.114H116.27V110.327H116.409C116.495 110.194 116.615 110.025 116.767 109.82C116.923 109.611 117.145 109.425 117.433 109.263C117.725 109.097 118.119 109.014 118.616 109.014C119.259 109.014 119.826 109.175 120.317 109.496C120.807 109.818 121.19 110.274 121.465 110.864C121.74 111.454 121.878 112.15 121.878 112.952C121.878 113.76 121.74 114.461 121.465 115.055C121.19 115.645 120.809 116.102 120.322 116.427C119.835 116.748 119.273 116.909 118.636 116.909C118.146 116.909 117.753 116.828 117.458 116.665C117.163 116.5 116.936 116.312 116.777 116.104C116.618 115.892 116.495 115.716 116.409 115.577H116.31V119.614H115.136ZM116.29 112.932C116.29 113.509 116.374 114.017 116.543 114.458C116.712 114.896 116.959 115.239 117.284 115.487C117.609 115.732 118.007 115.855 118.477 115.855C118.968 115.855 119.377 115.726 119.705 115.467C120.037 115.205 120.285 114.854 120.451 114.413C120.62 113.969 120.705 113.475 120.705 112.932C120.705 112.395 120.622 111.911 120.456 111.48C120.294 111.046 120.047 110.703 119.715 110.451C119.387 110.196 118.974 110.068 118.477 110.068C118 110.068 117.599 110.189 117.274 110.431C116.949 110.67 116.704 111.004 116.538 111.435C116.373 111.863 116.29 112.362 116.29 112.932ZM124.841 106.568V116.75H123.668V106.568H124.841ZM129.237 116.929C128.753 116.929 128.314 116.838 127.92 116.656C127.525 116.47 127.212 116.203 126.98 115.855C126.748 115.504 126.632 115.08 126.632 114.582C126.632 114.145 126.718 113.79 126.89 113.518C127.063 113.243 127.293 113.028 127.581 112.872C127.87 112.716 128.188 112.6 128.536 112.524C128.887 112.445 129.24 112.382 129.595 112.335C130.059 112.276 130.435 112.231 130.724 112.201C131.015 112.168 131.227 112.113 131.36 112.037C131.496 111.961 131.564 111.828 131.564 111.639V111.599C131.564 111.109 131.43 110.728 131.161 110.456C130.896 110.184 130.493 110.048 129.953 110.048C129.393 110.048 128.954 110.171 128.635 110.416C128.317 110.661 128.094 110.923 127.964 111.202L126.851 110.804C127.05 110.34 127.315 109.979 127.646 109.72C127.981 109.458 128.345 109.276 128.74 109.173C129.138 109.067 129.529 109.014 129.913 109.014C130.158 109.014 130.44 109.044 130.758 109.104C131.08 109.16 131.39 109.278 131.688 109.457C131.99 109.636 132.24 109.906 132.439 110.267C132.638 110.628 132.737 111.112 132.737 111.719V116.75H131.564V115.716H131.504C131.425 115.882 131.292 116.059 131.106 116.248C130.921 116.437 130.674 116.598 130.366 116.73C130.057 116.863 129.681 116.929 129.237 116.929ZM129.416 115.875C129.88 115.875 130.271 115.784 130.589 115.602C130.911 115.419 131.153 115.184 131.315 114.896C131.481 114.607 131.564 114.304 131.564 113.986V112.912C131.514 112.972 131.405 113.026 131.236 113.076C131.07 113.122 130.878 113.164 130.659 113.2C130.443 113.233 130.233 113.263 130.028 113.29C129.825 113.313 129.661 113.333 129.535 113.349C129.23 113.389 128.945 113.454 128.68 113.543C128.418 113.629 128.206 113.76 128.044 113.936C127.885 114.108 127.805 114.344 127.805 114.642C127.805 115.05 127.956 115.358 128.258 115.567C128.563 115.772 128.949 115.875 129.416 115.875ZM137.981 116.909C137.265 116.909 136.648 116.74 136.131 116.402C135.614 116.064 135.217 115.598 134.938 115.005C134.66 114.412 134.521 113.734 134.521 112.972C134.521 112.196 134.663 111.512 134.948 110.918C135.237 110.322 135.638 109.856 136.151 109.521C136.668 109.183 137.272 109.014 137.961 109.014C138.498 109.014 138.982 109.114 139.413 109.312C139.844 109.511 140.196 109.79 140.472 110.148C140.747 110.506 140.917 110.923 140.984 111.401H139.81C139.721 111.053 139.522 110.744 139.214 110.476C138.909 110.204 138.498 110.068 137.981 110.068C137.523 110.068 137.122 110.187 136.778 110.426C136.436 110.661 136.17 110.995 135.977 111.425C135.788 111.853 135.694 112.355 135.694 112.932C135.694 113.522 135.787 114.036 135.972 114.473C136.161 114.911 136.426 115.25 136.768 115.492C137.112 115.734 137.517 115.855 137.981 115.855C138.286 115.855 138.562 115.802 138.811 115.696C139.06 115.59 139.27 115.438 139.442 115.239C139.615 115.04 139.737 114.801 139.81 114.523H140.984C140.917 114.973 140.753 115.379 140.491 115.741C140.233 116.099 139.89 116.384 139.462 116.596C139.038 116.805 138.544 116.909 137.981 116.909ZM145.901 116.909C145.165 116.909 144.53 116.747 143.996 116.422C143.466 116.094 143.057 115.636 142.768 115.05C142.483 114.46 142.341 113.774 142.341 112.991C142.341 112.209 142.483 111.52 142.768 110.923C143.057 110.323 143.458 109.856 143.972 109.521C144.489 109.183 145.092 109.014 145.781 109.014C146.179 109.014 146.572 109.08 146.96 109.213C147.347 109.346 147.7 109.561 148.018 109.859C148.337 110.154 148.59 110.545 148.779 111.033C148.968 111.52 149.062 112.12 149.062 112.832V113.33H143.176V112.315H147.869C147.869 111.884 147.783 111.5 147.611 111.162C147.442 110.824 147.2 110.557 146.885 110.362C146.573 110.166 146.205 110.068 145.781 110.068C145.314 110.068 144.91 110.184 144.568 110.416C144.23 110.645 143.97 110.943 143.788 111.311C143.605 111.679 143.514 112.073 143.514 112.494V113.17C143.514 113.747 143.614 114.236 143.812 114.637C144.015 115.035 144.295 115.338 144.653 115.547C145.011 115.752 145.427 115.855 145.901 115.855C146.209 115.855 146.487 115.812 146.736 115.726C146.988 115.636 147.205 115.504 147.387 115.328C147.569 115.149 147.71 114.927 147.81 114.662L148.943 114.98C148.824 115.365 148.623 115.703 148.342 115.994C148.06 116.283 147.712 116.508 147.298 116.67C146.883 116.83 146.418 116.909 145.901 116.909ZM157.887 116.909C157.171 116.909 156.555 116.74 156.038 116.402C155.521 116.064 155.123 115.598 154.844 115.005C154.566 114.412 154.427 113.734 154.427 112.972C154.427 112.196 154.569 111.512 154.854 110.918C155.143 110.322 155.544 109.856 156.058 109.521C156.575 109.183 157.178 109.014 157.867 109.014C158.404 109.014 158.888 109.114 159.319 109.312C159.75 109.511 160.103 109.79 160.378 110.148C160.653 110.506 160.824 110.923 160.89 111.401H159.717C159.627 111.053 159.428 110.744 159.12 110.476C158.815 110.204 158.404 110.068 157.887 110.068C157.43 110.068 157.029 110.187 156.684 110.426C156.343 110.661 156.076 110.995 155.884 111.425C155.695 111.853 155.6 112.355 155.6 112.932C155.6 113.522 155.693 114.036 155.879 114.473C156.067 114.911 156.333 115.25 156.674 115.492C157.019 115.734 157.423 115.855 157.887 115.855C158.192 115.855 158.469 115.802 158.717 115.696C158.966 115.59 159.176 115.438 159.349 115.239C159.521 115.04 159.644 114.801 159.717 114.523H160.89C160.824 114.973 160.66 115.379 160.398 115.741C160.139 116.099 159.796 116.384 159.369 116.596C158.944 116.805 158.451 116.909 157.887 116.909ZM167.418 113.628V109.114H168.591V116.75H167.418V115.457H167.338C167.159 115.845 166.881 116.175 166.503 116.447C166.125 116.715 165.648 116.849 165.071 116.849C164.594 116.849 164.17 116.745 163.798 116.536C163.427 116.324 163.135 116.006 162.923 115.582C162.711 115.154 162.605 114.616 162.605 113.966V109.114H163.778V113.886C163.778 114.443 163.934 114.887 164.246 115.219C164.561 115.55 164.962 115.716 165.449 115.716C165.741 115.716 166.037 115.641 166.339 115.492C166.644 115.343 166.899 115.114 167.104 114.806C167.313 114.498 167.418 114.105 167.418 113.628ZM171.913 106.568V116.75H170.74V106.568H171.913ZM177.383 109.114V110.108H173.426V109.114H177.383ZM174.579 107.284H175.752V114.562C175.752 114.894 175.801 115.143 175.897 115.308C175.996 115.471 176.122 115.58 176.275 115.636C176.43 115.689 176.594 115.716 176.767 115.716C176.896 115.716 177.002 115.709 177.085 115.696C177.168 115.679 177.234 115.666 177.284 115.656L177.522 116.71C177.443 116.74 177.332 116.77 177.189 116.8C177.047 116.833 176.866 116.849 176.647 116.849C176.316 116.849 175.991 116.778 175.673 116.636C175.358 116.493 175.096 116.276 174.887 115.984C174.682 115.693 174.579 115.325 174.579 114.881V107.284ZM183.961 113.628V109.114H185.134V116.75H183.961V115.457H183.881C183.702 115.845 183.424 116.175 183.046 116.447C182.668 116.715 182.191 116.849 181.614 116.849C181.137 116.849 180.712 116.745 180.341 116.536C179.97 116.324 179.678 116.006 179.466 115.582C179.254 115.154 179.148 114.616 179.148 113.966V109.114H180.321V113.886C180.321 114.443 180.477 114.887 180.789 115.219C181.104 115.55 181.505 115.716 181.992 115.716C182.283 115.716 182.58 115.641 182.882 115.492C183.187 115.343 183.442 115.114 183.647 114.806C183.856 114.498 183.961 114.105 183.961 113.628ZM187.283 116.75V109.114H188.416V110.267H188.496C188.635 109.889 188.887 109.583 189.252 109.347C189.616 109.112 190.027 108.994 190.485 108.994C190.571 108.994 190.678 108.996 190.808 108.999C190.937 109.003 191.035 109.008 191.101 109.014V110.207C191.061 110.197 190.97 110.183 190.828 110.163C190.688 110.139 190.541 110.128 190.385 110.128C190.014 110.128 189.682 110.206 189.391 110.362C189.102 110.514 188.874 110.726 188.705 110.998C188.539 111.266 188.456 111.573 188.456 111.918V116.75H187.283ZM195.461 116.909C194.725 116.909 194.091 116.747 193.557 116.422C193.027 116.094 192.617 115.636 192.329 115.05C192.044 114.46 191.901 113.774 191.901 112.991C191.901 112.209 192.044 111.52 192.329 110.923C192.617 110.323 193.018 109.856 193.532 109.521C194.049 109.183 194.652 109.014 195.342 109.014C195.74 109.014 196.132 109.08 196.52 109.213C196.908 109.346 197.261 109.561 197.579 109.859C197.897 110.154 198.151 110.545 198.34 111.033C198.529 111.52 198.623 112.12 198.623 112.832V113.33H192.737V112.315H197.43C197.43 111.884 197.344 111.5 197.171 111.162C197.002 110.824 196.76 110.557 196.445 110.362C196.134 110.166 195.766 110.068 195.342 110.068C194.874 110.068 194.47 110.184 194.129 110.416C193.791 110.645 193.53 110.943 193.348 111.311C193.166 111.679 193.075 112.073 193.075 112.494V113.17C193.075 113.747 193.174 114.236 193.373 114.637C193.575 115.035 193.855 115.338 194.213 115.547C194.571 115.752 194.987 115.855 195.461 115.855C195.769 115.855 196.048 115.812 196.296 115.726C196.548 115.636 196.765 115.504 196.948 115.328C197.13 115.149 197.271 114.927 197.37 114.662L198.504 114.98C198.384 115.365 198.184 115.703 197.902 115.994C197.62 116.283 197.272 116.508 196.858 116.67C196.444 116.83 195.978 116.909 195.461 116.909Z" fill="white"/>
<rect x="0.5" y="0.75" width="339" height="139" rx="15.5" stroke="#5554AB"/>
<defs>
<linearGradient id="paint0_linear_25_458" x1="0" y1="70.25" x2="340" y2="70.25" gradientUnits="userSpaceOnUse">
<stop stop-color="#212161"/>
<stop offset="1" stop-color="#211E6B" stop-opacity="0.5"/>
</linearGradient>
<clipPath id="clip0_25_458">
<rect width="143" height="24" fill="white" transform="translate(20 18.75)"/>
</clipPath>
<clipPath id="clip1_25_458">
<rect width="6" height="11" fill="white" transform="translate(31 25.25)"/>
</clipPath>
</defs>
</svg>
