<svg width="145" height="45" viewBox="0 0 145 45" fill="none" xmlns="http://www.w3.org/2000/svg">
<rect x="0.85" y="0.6" width="143.3" height="43.3" rx="7.65" fill="url(#paint0_linear_25_424)"/>
<rect x="0.85" y="0.6" width="143.3" height="43.3" rx="7.65" stroke="#5554AB" stroke-width="0.7"/>
<path d="M35.255 18.6667C34.598 18.6667 33.581 17.9197 32.51 17.9467C31.097 17.9647 29.801 18.7657 29.072 20.0347C27.605 22.5817 28.694 26.3437 30.125 28.4137C30.827 29.4217 31.655 30.5557 32.753 30.5197C33.806 30.4747 34.202 29.8357 35.48 29.8357C36.749 29.8357 37.109 30.5197 38.225 30.4927C39.359 30.4747 40.079 29.4667 40.772 28.4497C41.573 27.2797 41.906 26.1457 41.924 26.0827C41.897 26.0737 39.719 25.2367 39.692 22.7167C39.674 20.6107 41.411 19.6027 41.492 19.5577C40.502 18.1087 38.981 17.9467 38.45 17.9107C37.064 17.8027 35.903 18.6667 35.255 18.6667ZM37.595 16.5427C38.18 15.8407 38.567 14.8597 38.459 13.8877C37.622 13.9237 36.614 14.4457 36.011 15.1477C35.471 15.7687 35.003 16.7677 35.129 17.7217C36.056 17.7937 37.01 17.2447 37.595 16.5427Z" fill="white"/>
<path d="M54.4476 28.25H52.9703L57.2431 16.6136H58.6976L62.9703 28.25H61.4931L58.0158 18.4545H57.9249L54.4476 28.25ZM54.9931 23.7045H60.9476V24.9545H54.9931V23.7045ZM64.281 31.5227V19.5227H65.5765V20.9091H65.7356C65.8341 20.7576 65.9704 20.5644 66.1447 20.3295C66.3227 20.0909 66.5765 19.8788 66.906 19.6932C67.2394 19.5038 67.6901 19.4091 68.2583 19.4091C68.9931 19.4091 69.6409 19.5928 70.2015 19.9602C70.7621 20.3277 71.1996 20.8485 71.514 21.5227C71.8284 22.197 71.9856 22.9924 71.9856 23.9091C71.9856 24.8333 71.8284 25.6345 71.514 26.3125C71.1996 26.9867 70.764 27.5095 70.2072 27.8807C69.6503 28.2481 69.0083 28.4318 68.281 28.4318C67.7204 28.4318 67.2716 28.339 66.9344 28.1534C66.5973 27.964 66.3378 27.75 66.156 27.5114C65.9742 27.2689 65.8341 27.0682 65.7356 26.9091H65.6219V31.5227H64.281ZM65.5992 23.8864C65.5992 24.5455 65.6958 25.1269 65.889 25.6307C66.0822 26.1307 66.3644 26.5227 66.7356 26.8068C67.1068 27.0871 67.5613 27.2273 68.0992 27.2273C68.6598 27.2273 69.1276 27.0795 69.5026 26.7841C69.8814 26.4848 70.1655 26.0833 70.3549 25.5795C70.5481 25.072 70.6447 24.5076 70.6447 23.8864C70.6447 23.2727 70.55 22.7197 70.3606 22.2273C70.175 21.7311 69.8928 21.339 69.514 21.0511C69.139 20.7595 68.6674 20.6136 68.0992 20.6136C67.5537 20.6136 67.0954 20.7519 66.7242 21.0284C66.353 21.3011 66.0727 21.6837 65.8833 22.1761C65.6939 22.6648 65.5992 23.2348 65.5992 23.8864ZM73.711 31.5227V19.5227H75.0065V20.9091H75.1656C75.2641 20.7576 75.4004 20.5644 75.5747 20.3295C75.7527 20.0909 76.0065 19.8788 76.336 19.6932C76.6694 19.5038 77.1201 19.4091 77.6883 19.4091C78.4231 19.4091 79.0709 19.5928 79.6315 19.9602C80.1921 20.3277 80.6296 20.8485 80.944 21.5227C81.2584 22.197 81.4156 22.9924 81.4156 23.9091C81.4156 24.8333 81.2584 25.6345 80.944 26.3125C80.6296 26.9867 80.194 27.5095 79.6372 27.8807C79.0803 28.2481 78.4383 28.4318 77.711 28.4318C77.1504 28.4318 76.7016 28.339 76.3644 28.1534C76.0273 27.964 75.7678 27.75 75.586 27.5114C75.4042 27.2689 75.2641 27.0682 75.1656 26.9091H75.0519V31.5227H73.711ZM75.0292 23.8864C75.0292 24.5455 75.1258 25.1269 75.319 25.6307C75.5122 26.1307 75.7944 26.5227 76.1656 26.8068C76.5368 27.0871 76.9913 27.2273 77.5292 27.2273C78.0898 27.2273 78.5576 27.0795 78.9326 26.7841C79.3114 26.4848 79.5955 26.0833 79.7849 25.5795C79.9781 25.072 80.0747 24.5076 80.0747 23.8864C80.0747 23.2727 79.98 22.7197 79.7906 22.2273C79.605 21.7311 79.3228 21.339 78.944 21.0511C78.569 20.7595 78.0974 20.6136 77.5292 20.6136C76.9837 20.6136 76.5254 20.7519 76.1542 21.0284C75.783 21.3011 75.5027 21.6837 75.3133 22.1761C75.1239 22.6648 75.0292 23.2348 75.0292 23.8864ZM93.5028 21.4773L92.2983 21.8182C92.2225 21.6174 92.1108 21.4223 91.9631 21.233C91.8191 21.0398 91.6222 20.8807 91.3722 20.7557C91.1222 20.6307 90.8021 20.5682 90.4119 20.5682C89.8778 20.5682 89.4328 20.6913 89.0767 20.9375C88.7244 21.1799 88.5483 21.4886 88.5483 21.8636C88.5483 22.197 88.6695 22.4602 88.9119 22.6534C89.1544 22.8466 89.5331 23.0076 90.0483 23.1364L91.3438 23.4545C92.1241 23.6439 92.7055 23.9337 93.0881 24.3239C93.4706 24.7102 93.6619 25.2083 93.6619 25.8182C93.6619 26.3182 93.518 26.7652 93.2301 27.1591C92.946 27.553 92.5483 27.8636 92.0369 28.0909C91.5256 28.3182 90.9309 28.4318 90.2528 28.4318C89.3627 28.4318 88.6259 28.2386 88.0426 27.8523C87.4593 27.4659 87.09 26.9015 86.9347 26.1591L88.2074 25.8409C88.3286 26.3106 88.5578 26.6629 88.8949 26.8977C89.2358 27.1326 89.6809 27.25 90.2301 27.25C90.8551 27.25 91.3513 27.1174 91.7188 26.8523C92.09 26.5833 92.2756 26.2614 92.2756 25.8864C92.2756 25.5833 92.1695 25.3295 91.9574 25.125C91.7453 24.9167 91.4195 24.7614 90.9801 24.6591L89.5256 24.3182C88.7263 24.1288 88.1392 23.8352 87.7642 23.4375C87.393 23.036 87.2074 22.5341 87.2074 21.9318C87.2074 21.4394 87.3456 21.0038 87.6222 20.625C87.9025 20.2462 88.2831 19.9489 88.7642 19.733C89.2491 19.517 89.7983 19.4091 90.4119 19.4091C91.2756 19.4091 91.9536 19.5985 92.446 19.9773C92.9422 20.3561 93.2945 20.8561 93.5028 21.4773ZM99.1559 19.5227V20.6591H94.6331V19.5227H99.1559ZM95.9513 17.4318H97.2922V25.75C97.2922 26.1288 97.3471 26.4129 97.457 26.6023C97.5706 26.7879 97.7146 26.9129 97.8888 26.9773C98.0668 27.0379 98.2543 27.0682 98.4513 27.0682C98.599 27.0682 98.7202 27.0606 98.8149 27.0455C98.9096 27.0265 98.9854 27.0114 99.0422 27L99.3149 28.2045C99.224 28.2386 99.0971 28.2727 98.9343 28.3068C98.7714 28.3447 98.5649 28.3636 98.3149 28.3636C97.9362 28.3636 97.5649 28.2822 97.2013 28.1193C96.8415 27.9564 96.5422 27.7083 96.3036 27.375C96.0687 27.0417 95.9513 26.6212 95.9513 26.1136V17.4318ZM104.305 28.4318C103.517 28.4318 102.825 28.2443 102.231 27.8693C101.64 27.4943 101.178 26.9697 100.844 26.2955C100.515 25.6212 100.35 24.8333 100.35 23.9318C100.35 23.0227 100.515 22.2292 100.844 21.5511C101.178 20.8731 101.64 20.3466 102.231 19.9716C102.825 19.5966 103.517 19.4091 104.305 19.4091C105.092 19.4091 105.782 19.5966 106.373 19.9716C106.967 20.3466 107.43 20.8731 107.759 21.5511C108.092 22.2292 108.259 23.0227 108.259 23.9318C108.259 24.8333 108.092 25.6212 107.759 26.2955C107.43 26.9697 106.967 27.4943 106.373 27.8693C105.782 28.2443 105.092 28.4318 104.305 28.4318ZM104.305 27.2273C104.903 27.2273 105.396 27.0739 105.782 26.767C106.168 26.4602 106.454 26.0568 106.64 25.5568C106.825 25.0568 106.918 24.5152 106.918 23.9318C106.918 23.3485 106.825 22.8049 106.64 22.3011C106.454 21.7973 106.168 21.3902 105.782 21.0795C105.396 20.7689 104.903 20.6136 104.305 20.6136C103.706 20.6136 103.214 20.7689 102.827 21.0795C102.441 21.3902 102.155 21.7973 101.969 22.3011C101.784 22.8049 101.691 23.3485 101.691 23.9318C101.691 24.5152 101.784 25.0568 101.969 25.5568C102.155 26.0568 102.441 26.4602 102.827 26.767C103.214 27.0739 103.706 27.2273 104.305 27.2273ZM109.986 28.25V19.5227H111.281V20.8409H111.372C111.531 20.4091 111.819 20.0587 112.236 19.7898C112.653 19.5208 113.122 19.3864 113.645 19.3864C113.744 19.3864 113.867 19.3883 114.014 19.392C114.162 19.3958 114.274 19.4015 114.35 19.4091V20.7727C114.304 20.7614 114.2 20.7443 114.037 20.7216C113.878 20.6951 113.71 20.6818 113.531 20.6818C113.107 20.6818 112.728 20.7708 112.395 20.9489C112.066 21.1231 111.804 21.3655 111.611 21.6761C111.422 21.983 111.327 22.3333 111.327 22.7273V28.25H109.986ZM119.013 28.4318C118.172 28.4318 117.446 28.2462 116.836 27.875C116.23 27.5 115.763 26.9773 115.433 26.3068C115.107 25.6326 114.944 24.8485 114.944 23.9545C114.944 23.0606 115.107 22.2727 115.433 21.5909C115.763 20.9053 116.221 20.3712 116.808 19.9886C117.399 19.6023 118.088 19.4091 118.876 19.4091C119.331 19.4091 119.78 19.4848 120.223 19.6364C120.666 19.7879 121.069 20.0341 121.433 20.375C121.797 20.7121 122.086 21.1591 122.302 21.7159C122.518 22.2727 122.626 22.9583 122.626 23.7727V24.3409H115.899V23.1818H121.263C121.263 22.6894 121.164 22.25 120.967 21.8636C120.774 21.4773 120.497 21.1723 120.138 20.9489C119.782 20.7254 119.361 20.6136 118.876 20.6136C118.342 20.6136 117.88 20.7462 117.49 21.0114C117.104 21.2727 116.806 21.6136 116.598 22.0341C116.39 22.4545 116.285 22.9053 116.285 23.3864V24.1591C116.285 24.8182 116.399 25.3769 116.626 25.8352C116.857 26.2898 117.177 26.6364 117.586 26.875C117.996 27.1098 118.471 27.2273 119.013 27.2273C119.365 27.2273 119.683 27.178 119.967 27.0795C120.255 26.9773 120.503 26.8258 120.711 26.625C120.92 26.4205 121.081 26.1667 121.194 25.8636L122.49 26.2273C122.354 26.6667 122.124 27.053 121.802 27.3864C121.48 27.7159 121.083 27.9735 120.609 28.1591C120.136 28.3409 119.604 28.4318 119.013 28.4318Z" fill="white"/>
<defs>
<linearGradient id="paint0_linear_25_424" x1="0.5" y1="22.25" x2="144.5" y2="22.25" gradientUnits="userSpaceOnUse">
<stop stop-color="#212161"/>
<stop offset="1" stop-color="#211E6B" stop-opacity="0.5"/>
</linearGradient>
</defs>
</svg>
