<svg width="156" height="44" viewBox="0 0 156 44" fill="none" xmlns="http://www.w3.org/2000/svg">
<rect x="0.35" y="0.35" width="155.3" height="43.3" rx="7.65" fill="white"/>
<rect x="0.35" y="0.35" width="155.3" height="43.3" rx="7.65" stroke="#D2D2D2" stroke-width="0.7"/>
<path d="M39.255 18.4167C38.598 18.4167 37.581 17.6697 36.51 17.6967C35.097 17.7147 33.801 18.5157 33.072 19.7847C31.605 22.3317 32.694 26.0937 34.125 28.1637C34.827 29.1717 35.655 30.3057 36.753 30.2697C37.806 30.2247 38.202 29.5857 39.48 29.5857C40.749 29.5857 41.109 30.2697 42.225 30.2427C43.359 30.2247 44.079 29.2167 44.772 28.1997C45.573 27.0297 45.906 25.8957 45.924 25.8327C45.897 25.8237 43.719 24.9867 43.692 22.4667C43.674 20.3607 45.411 19.3527 45.492 19.3077C44.502 17.8587 42.981 17.6967 42.45 17.6607C41.064 17.5527 39.903 18.4167 39.255 18.4167ZM41.595 16.2927C42.18 15.5907 42.567 14.6097 42.459 13.6377C41.622 13.6737 40.614 14.1957 40.011 14.8977C39.471 15.5187 39.003 16.5177 39.129 17.4717C40.056 17.5437 41.01 16.9947 41.595 16.2927Z" fill="black"/>
<path d="M58.4476 28H56.9703L61.2431 16.3636H62.6976L66.9703 28H65.4931L62.0158 18.2045H61.9249L58.4476 28ZM58.9931 23.4545H64.9476V24.7045H58.9931V23.4545ZM68.281 31.2727V19.2727H69.5765V20.6591H69.7356C69.8341 20.5076 69.9704 20.3144 70.1447 20.0795C70.3227 19.8409 70.5765 19.6288 70.906 19.4432C71.2394 19.2538 71.6901 19.1591 72.2583 19.1591C72.9931 19.1591 73.6409 19.3428 74.2015 19.7102C74.7621 20.0777 75.1996 20.5985 75.514 21.2727C75.8284 21.947 75.9856 22.7424 75.9856 23.6591C75.9856 24.5833 75.8284 25.3845 75.514 26.0625C75.1996 26.7367 74.764 27.2595 74.2072 27.6307C73.6503 27.9981 73.0083 28.1818 72.281 28.1818C71.7204 28.1818 71.2716 28.089 70.9344 27.9034C70.5973 27.714 70.3378 27.5 70.156 27.2614C69.9742 27.0189 69.8341 26.8182 69.7356 26.6591H69.6219V31.2727H68.281ZM69.5992 23.6364C69.5992 24.2955 69.6958 24.8769 69.889 25.3807C70.0822 25.8807 70.3644 26.2727 70.7356 26.5568C71.1068 26.8371 71.5613 26.9773 72.0992 26.9773C72.6598 26.9773 73.1276 26.8295 73.5026 26.5341C73.8814 26.2348 74.1655 25.8333 74.3549 25.3295C74.5481 24.822 74.6447 24.2576 74.6447 23.6364C74.6447 23.0227 74.55 22.4697 74.3606 21.9773C74.175 21.4811 73.8928 21.089 73.514 20.8011C73.139 20.5095 72.6674 20.3636 72.0992 20.3636C71.5537 20.3636 71.0954 20.5019 70.7242 20.7784C70.353 21.0511 70.0727 21.4337 69.8833 21.9261C69.6939 22.4148 69.5992 22.9848 69.5992 23.6364ZM77.711 31.2727V19.2727H79.0065V20.6591H79.1656C79.2641 20.5076 79.4004 20.3144 79.5747 20.0795C79.7527 19.8409 80.0065 19.6288 80.336 19.4432C80.6694 19.2538 81.1201 19.1591 81.6883 19.1591C82.4231 19.1591 83.0709 19.3428 83.6315 19.7102C84.1921 20.0777 84.6296 20.5985 84.944 21.2727C85.2584 21.947 85.4156 22.7424 85.4156 23.6591C85.4156 24.5833 85.2584 25.3845 84.944 26.0625C84.6296 26.7367 84.194 27.2595 83.6372 27.6307C83.0803 27.9981 82.4383 28.1818 81.711 28.1818C81.1504 28.1818 80.7016 28.089 80.3644 27.9034C80.0273 27.714 79.7678 27.5 79.586 27.2614C79.4042 27.0189 79.2641 26.8182 79.1656 26.6591H79.0519V31.2727H77.711ZM79.0292 23.6364C79.0292 24.2955 79.1258 24.8769 79.319 25.3807C79.5122 25.8807 79.7944 26.2727 80.1656 26.5568C80.5368 26.8371 80.9913 26.9773 81.5292 26.9773C82.0898 26.9773 82.5576 26.8295 82.9326 26.5341C83.3114 26.2348 83.5955 25.8333 83.7849 25.3295C83.9781 24.822 84.0747 24.2576 84.0747 23.6364C84.0747 23.0227 83.98 22.4697 83.7906 21.9773C83.605 21.4811 83.3228 21.089 82.944 20.8011C82.569 20.5095 82.0974 20.3636 81.5292 20.3636C80.9837 20.3636 80.5254 20.5019 80.1542 20.7784C79.783 21.0511 79.5027 21.4337 79.3133 21.9261C79.1239 22.4148 79.0292 22.9848 79.0292 23.6364ZM97.5028 21.2273L96.2983 21.5682C96.2225 21.3674 96.1108 21.1723 95.9631 20.983C95.8191 20.7898 95.6222 20.6307 95.3722 20.5057C95.1222 20.3807 94.8021 20.3182 94.4119 20.3182C93.8778 20.3182 93.4328 20.4413 93.0767 20.6875C92.7244 20.9299 92.5483 21.2386 92.5483 21.6136C92.5483 21.947 92.6695 22.2102 92.9119 22.4034C93.1544 22.5966 93.5331 22.7576 94.0483 22.8864L95.3438 23.2045C96.1241 23.3939 96.7055 23.6837 97.0881 24.0739C97.4706 24.4602 97.6619 24.9583 97.6619 25.5682C97.6619 26.0682 97.518 26.5152 97.2301 26.9091C96.946 27.303 96.5483 27.6136 96.0369 27.8409C95.5256 28.0682 94.9309 28.1818 94.2528 28.1818C93.3627 28.1818 92.6259 27.9886 92.0426 27.6023C91.4593 27.2159 91.09 26.6515 90.9347 25.9091L92.2074 25.5909C92.3286 26.0606 92.5578 26.4129 92.8949 26.6477C93.2358 26.8826 93.6809 27 94.2301 27C94.8551 27 95.3513 26.8674 95.7188 26.6023C96.09 26.3333 96.2756 26.0114 96.2756 25.6364C96.2756 25.3333 96.1695 25.0795 95.9574 24.875C95.7453 24.6667 95.4195 24.5114 94.9801 24.4091L93.5256 24.0682C92.7263 23.8788 92.1392 23.5852 91.7642 23.1875C91.393 22.786 91.2074 22.2841 91.2074 21.6818C91.2074 21.1894 91.3456 20.7538 91.6222 20.375C91.9025 19.9962 92.2831 19.6989 92.7642 19.483C93.2491 19.267 93.7983 19.1591 94.4119 19.1591C95.2756 19.1591 95.9536 19.3485 96.446 19.7273C96.9422 20.1061 97.2945 20.6061 97.5028 21.2273ZM103.156 19.2727V20.4091H98.6331V19.2727H103.156ZM99.9513 17.1818H101.292V25.5C101.292 25.8788 101.347 26.1629 101.457 26.3523C101.571 26.5379 101.715 26.6629 101.889 26.7273C102.067 26.7879 102.254 26.8182 102.451 26.8182C102.599 26.8182 102.72 26.8106 102.815 26.7955C102.91 26.7765 102.985 26.7614 103.042 26.75L103.315 27.9545C103.224 27.9886 103.097 28.0227 102.934 28.0568C102.771 28.0947 102.565 28.1136 102.315 28.1136C101.936 28.1136 101.565 28.0322 101.201 27.8693C100.841 27.7064 100.542 27.4583 100.304 27.125C100.069 26.7917 99.9513 26.3712 99.9513 25.8636V17.1818ZM108.305 28.1818C107.517 28.1818 106.825 27.9943 106.231 27.6193C105.64 27.2443 105.178 26.7197 104.844 26.0455C104.515 25.3712 104.35 24.5833 104.35 23.6818C104.35 22.7727 104.515 21.9792 104.844 21.3011C105.178 20.6231 105.64 20.0966 106.231 19.7216C106.825 19.3466 107.517 19.1591 108.305 19.1591C109.092 19.1591 109.782 19.3466 110.373 19.7216C110.967 20.0966 111.43 20.6231 111.759 21.3011C112.092 21.9792 112.259 22.7727 112.259 23.6818C112.259 24.5833 112.092 25.3712 111.759 26.0455C111.43 26.7197 110.967 27.2443 110.373 27.6193C109.782 27.9943 109.092 28.1818 108.305 28.1818ZM108.305 26.9773C108.903 26.9773 109.396 26.8239 109.782 26.517C110.168 26.2102 110.454 25.8068 110.64 25.3068C110.825 24.8068 110.918 24.2652 110.918 23.6818C110.918 23.0985 110.825 22.5549 110.64 22.0511C110.454 21.5473 110.168 21.1402 109.782 20.8295C109.396 20.5189 108.903 20.3636 108.305 20.3636C107.706 20.3636 107.214 20.5189 106.827 20.8295C106.441 21.1402 106.155 21.5473 105.969 22.0511C105.784 22.5549 105.691 23.0985 105.691 23.6818C105.691 24.2652 105.784 24.8068 105.969 25.3068C106.155 25.8068 106.441 26.2102 106.827 26.517C107.214 26.8239 107.706 26.9773 108.305 26.9773ZM113.986 28V19.2727H115.281V20.5909H115.372C115.531 20.1591 115.819 19.8087 116.236 19.5398C116.653 19.2708 117.122 19.1364 117.645 19.1364C117.744 19.1364 117.867 19.1383 118.014 19.142C118.162 19.1458 118.274 19.1515 118.35 19.1591V20.5227C118.304 20.5114 118.2 20.4943 118.037 20.4716C117.878 20.4451 117.71 20.4318 117.531 20.4318C117.107 20.4318 116.728 20.5208 116.395 20.6989C116.066 20.8731 115.804 21.1155 115.611 21.4261C115.422 21.733 115.327 22.0833 115.327 22.4773V28H113.986ZM123.013 28.1818C122.172 28.1818 121.446 27.9962 120.836 27.625C120.23 27.25 119.763 26.7273 119.433 26.0568C119.107 25.3826 118.944 24.5985 118.944 23.7045C118.944 22.8106 119.107 22.0227 119.433 21.3409C119.763 20.6553 120.221 20.1212 120.808 19.7386C121.399 19.3523 122.088 19.1591 122.876 19.1591C123.331 19.1591 123.78 19.2348 124.223 19.3864C124.666 19.5379 125.069 19.7841 125.433 20.125C125.797 20.4621 126.086 20.9091 126.302 21.4659C126.518 22.0227 126.626 22.7083 126.626 23.5227V24.0909H119.899V22.9318H125.263C125.263 22.4394 125.164 22 124.967 21.6136C124.774 21.2273 124.497 20.9223 124.138 20.6989C123.782 20.4754 123.361 20.3636 122.876 20.3636C122.342 20.3636 121.88 20.4962 121.49 20.7614C121.104 21.0227 120.806 21.3636 120.598 21.7841C120.39 22.2045 120.285 22.6553 120.285 23.1364V23.9091C120.285 24.5682 120.399 25.1269 120.626 25.5852C120.857 26.0398 121.177 26.3864 121.586 26.625C121.996 26.8598 122.471 26.9773 123.013 26.9773C123.365 26.9773 123.683 26.928 123.967 26.8295C124.255 26.7273 124.503 26.5758 124.711 26.375C124.92 26.1705 125.081 25.9167 125.194 25.6136L126.49 25.9773C126.354 26.4167 126.124 26.803 125.802 27.1364C125.48 27.4659 125.083 27.7235 124.609 27.9091C124.136 28.0909 123.604 28.1818 123.013 28.1818Z" fill="black"/>
</svg>
