<svg width="504" height="504" viewBox="0 0 504 504" fill="none" xmlns="http://www.w3.org/2000/svg">
<g clip-path="url(#clip0_120_188)">
<rect width="504" height="504" rx="16" fill="url(#paint0_linear_120_188)"/>
<path d="M-39.5151 -19L40.4538 28.9813L141.121 86.3708L-1.88271 136.234L-39.5151 -19Z" fill="url(#paint1_linear_120_188)" fill-opacity="0.2"/>
<path d="M141.121 86.373L196.629 48.7406L252.137 9.22656L179.694 116.479L141.121 172.928L101.607 231.258L83.7314 208.678L141.121 86.373Z" fill="url(#paint2_linear_120_188)" fill-opacity="0.2"/>
<path d="M-59.272 160.699L79.968 111.777L141.121 86.375L31.7814 278.3L-59.272 160.699Z" fill="url(#paint3_linear_120_188)" fill-opacity="0.2"/>
<path d="M-15.0537 -19L172.168 -0.183788H239.906L141.121 86.3708L-15.0537 -19Z" fill="url(#paint4_linear_120_188)" fill-opacity="0.2"/>
<path d="M347.793 -4.91016L432.695 46.031L539.572 106.961L387.747 159.9L347.793 -4.91016Z" fill="url(#paint5_linear_120_188)" fill-opacity="0.2"/>
<path d="M539.572 106.96L598.504 67.0063L657.436 25.0547L580.525 138.923L539.572 198.854L497.621 260.783L478.643 236.81L539.572 106.96Z" fill="url(#paint6_linear_120_188)" fill-opacity="0.2"/>
<path d="M326.818 185.87L474.648 133.93L539.573 106.961L423.489 310.726L326.818 185.87Z" fill="url(#paint7_linear_120_188)" fill-opacity="0.2"/>
<path d="M373.764 -4.91016L572.534 15.0668H644.451L539.572 106.961L373.764 -4.91016Z" fill="url(#paint8_linear_120_188)" fill-opacity="0.2"/>
<path d="M166.726 517.086L102.904 490.322L22.884 458.843L122.63 407.061L166.726 517.086Z" fill="url(#paint9_linear_120_188)" fill-opacity="0.1"/>
<path d="M22.8831 458.84L-13.8966 492.364L-50.4767 527.27L-8.63927 440.817L13.7078 395.268L36.5463 348.237L52.0689 362.926L22.8831 458.84Z" fill="url(#paint10_linear_120_188)" fill-opacity="0.2"/>
<path d="M162.188 383.009L65.1059 433.701L22.8838 458.84L82.8452 306.286L162.188 383.009Z" fill="url(#paint11_linear_120_188)" fill-opacity="0.2"/>
<path d="M148.76 519.68L9.25649 525.706L-40.4954 532.887L22.8841 458.843L148.76 519.68Z" fill="url(#paint12_linear_120_188)" fill-opacity="0.1"/>
<path d="M562.455 451.817L594 490.307L626.937 528.671L542.801 482.349L498.489 457.64L452.723 432.362L468.207 417.633L562.455 451.817Z" fill="url(#paint13_linear_120_188)" fill-opacity="0.2"/>
<path d="M494.045 308.723L539.567 408.333L562.454 451.818L413.26 383.925L494.045 308.723Z" fill="url(#paint14_linear_120_188)" fill-opacity="0.2"/>
</g>
<defs>
<linearGradient id="paint0_linear_120_188" x1="252" y1="0" x2="252" y2="504" gradientUnits="userSpaceOnUse">
<stop stop-color="#0055FF"/>
<stop offset="1" stop-color="#0248D3"/>
</linearGradient>
<linearGradient id="paint1_linear_120_188" x1="50.8027" y1="-19" x2="50.8027" y2="136.234" gradientUnits="userSpaceOnUse">
<stop stop-color="white"/>
<stop offset="1" stop-color="white" stop-opacity="0"/>
</linearGradient>
<linearGradient id="paint2_linear_120_188" x1="167.934" y1="9.22656" x2="167.934" y2="231.258" gradientUnits="userSpaceOnUse">
<stop stop-color="white"/>
<stop offset="1" stop-color="white" stop-opacity="0"/>
</linearGradient>
<linearGradient id="paint3_linear_120_188" x1="40.9244" y1="86.375" x2="40.9244" y2="278.3" gradientUnits="userSpaceOnUse">
<stop stop-color="white"/>
<stop offset="1" stop-color="white" stop-opacity="0"/>
</linearGradient>
<linearGradient id="paint4_linear_120_188" x1="112.426" y1="-19" x2="112.426" y2="86.3708" gradientUnits="userSpaceOnUse">
<stop stop-color="white"/>
<stop offset="1" stop-color="white" stop-opacity="0"/>
</linearGradient>
<linearGradient id="paint5_linear_120_188" x1="443.682" y1="-4.91016" x2="443.682" y2="159.9" gradientUnits="userSpaceOnUse">
<stop stop-color="white"/>
<stop offset="1" stop-color="white" stop-opacity="0"/>
</linearGradient>
<linearGradient id="paint6_linear_120_188" x1="568.039" y1="25.0547" x2="568.039" y2="260.783" gradientUnits="userSpaceOnUse">
<stop stop-color="white"/>
<stop offset="1" stop-color="white" stop-opacity="0"/>
</linearGradient>
<linearGradient id="paint7_linear_120_188" x1="433.196" y1="106.961" x2="433.196" y2="310.726" gradientUnits="userSpaceOnUse">
<stop stop-color="white"/>
<stop offset="1" stop-color="white" stop-opacity="0"/>
</linearGradient>
<linearGradient id="paint8_linear_120_188" x1="509.107" y1="-4.91016" x2="509.107" y2="106.961" gradientUnits="userSpaceOnUse">
<stop stop-color="white"/>
<stop offset="1" stop-color="white" stop-opacity="0"/>
</linearGradient>
<linearGradient id="paint9_linear_120_188" x1="100.39" y1="526.66" x2="83.9341" y2="412.645" gradientUnits="userSpaceOnUse">
<stop stop-color="white"/>
<stop offset="1" stop-color="white" stop-opacity="0"/>
</linearGradient>
<linearGradient id="paint10_linear_120_188" x1="11.3676" y1="518.344" x2="-12.169" y2="355.268" gradientUnits="userSpaceOnUse">
<stop stop-color="white"/>
<stop offset="1" stop-color="white" stop-opacity="0"/>
</linearGradient>
<linearGradient id="paint11_linear_120_188" x1="96.4751" y1="448.219" x2="76.1299" y2="307.255" gradientUnits="userSpaceOnUse">
<stop stop-color="white"/>
<stop offset="1" stop-color="white" stop-opacity="0"/>
</linearGradient>
<linearGradient id="paint12_linear_120_188" x1="55.1295" y1="533.193" x2="43.9596" y2="455.802" gradientUnits="userSpaceOnUse">
<stop stop-color="white"/>
<stop offset="1" stop-color="white" stop-opacity="0"/>
</linearGradient>
<linearGradient id="paint13_linear_120_188" x1="621.272" y1="466.443" x2="457.185" y2="481.379" gradientUnits="userSpaceOnUse">
<stop stop-color="white"/>
<stop offset="1" stop-color="white" stop-opacity="0"/>
</linearGradient>
<linearGradient id="paint14_linear_120_188" x1="555.713" y1="377.77" x2="413.875" y2="390.682" gradientUnits="userSpaceOnUse">
<stop stop-color="white"/>
<stop offset="1" stop-color="white" stop-opacity="0"/>
</linearGradient>
<clipPath id="clip0_120_188">
<rect width="504" height="504" rx="16" fill="white"/>
</clipPath>
</defs>
</svg>
