<svg xmlns="http://www.w3.org/2000/svg" viewBox="0 0 263 263" fill="none">
  <path d="M131.5 0C204.125 0 263 58.8746 263 131.5C263 204.125 204.125 263 131.5 263C58.8746 263 0 204.125 0 131.5C1.22411e-06 58.8746 58.8746 1.22442e-06 131.5 0ZM131.5 19.3428C69.5571 19.3428 19.3428 69.5571 19.3428 131.5C19.3428 193.443 69.5571 243.657 131.5 243.657C193.443 243.657 243.657 193.443 243.657 131.5C243.657 69.5571 193.443 19.3428 131.5 19.3428ZM217.637 110.717C219.112 110.717 220.376 111.785 220.606 113.243C222.674 126.347 222.745 134.499 220.654 146.147C220.399 147.571 219.149 148.594 217.703 148.593L151.944 148.522C172.439 157.627 192.544 173.576 202.355 182.584C203.477 183.614 203.619 185.323 202.674 186.518C194.176 197.257 184.548 204.186 179.412 207.099C178.433 207.654 177.232 207.541 176.322 206.878C168.78 201.38 154.161 190.933 145.812 185.72C141.553 183.06 138.329 181.408 136.005 180.463C135.973 180.45 135.941 180.437 135.908 180.423C135.726 180.344 135.543 180.269 135.351 180.221C132.58 179.519 129.94 179.583 127.148 180.416C127.113 180.432 127.077 180.449 127.041 180.463C124.717 181.408 121.493 183.06 117.233 185.72C108.885 190.933 94.266 201.38 86.7236 206.878C85.8142 207.541 84.6137 207.654 83.6348 207.099C78.4987 204.186 68.87 197.257 60.3721 186.518C59.427 185.324 59.569 183.614 60.6904 182.584C70.5175 173.562 90.6701 157.576 111.198 148.479L45.3086 148.41C43.8256 148.408 42.5608 147.33 42.3359 145.864C40.4768 133.757 40.0373 125.833 42.6113 113.097C42.8925 111.707 44.1246 110.717 45.543 110.717H217.637ZM88.4609 54.8945C99.4839 48.7133 113.483 43.5643 131.013 43.8447C153.124 44.1984 166.646 50.8337 174.53 55.0107C175.948 55.7615 176.886 57.2045 176.815 58.8076C176.083 75.3558 161.757 100.749 131.013 101.267C117.67 101.491 88.6892 91.4896 86.29 58.8955C86.1691 57.2559 87.0269 55.6986 88.4609 54.8945Z" fill="url(#paint0_linear)"/>
  <defs>
    <linearGradient id="paint0_linear" x1="28.7043" y1="20.8535" x2="246.562" y2="285.672" gradientUnits="userSpaceOnUse">
      <stop stop-color="#153CD8"/>
      <stop offset="1" stop-color="#19B8DB"/>
    </linearGradient>
  </defs>
</svg>
