<svg width="1266" height="263" viewBox="0 0 1266 263" fill="none" xmlns="http://www.w3.org/2000/svg">
<path d="M131.5 0C204.125 0 263 58.8746 263 131.5C263 204.125 204.125 263 131.5 263C58.8746 263 0 204.125 0 131.5C1.22411e-06 58.8746 58.8746 1.22442e-06 131.5 0ZM131.5 19.3428C69.5571 19.3428 19.3428 69.5571 19.3428 131.5C19.3428 193.443 69.5571 243.657 131.5 243.657C193.443 243.657 243.657 193.443 243.657 131.5C243.657 69.5571 193.443 19.3428 131.5 19.3428ZM217.637 110.717C219.112 110.717 220.376 111.785 220.606 113.243C222.674 126.347 222.745 134.499 220.654 146.147C220.399 147.571 219.149 148.594 217.703 148.593L151.944 148.522C172.439 157.627 192.544 173.576 202.355 182.584C203.477 183.614 203.619 185.323 202.674 186.518C194.176 197.257 184.548 204.186 179.412 207.099C178.433 207.654 177.232 207.541 176.322 206.878C168.78 201.38 154.161 190.933 145.812 185.72C141.553 183.06 138.329 181.408 136.005 180.463C135.973 180.45 135.941 180.437 135.908 180.423C135.726 180.344 135.543 180.269 135.351 180.221C132.58 179.519 129.94 179.583 127.148 180.416C127.113 180.432 127.077 180.449 127.041 180.463C124.717 181.408 121.493 183.06 117.233 185.72C108.885 190.933 94.266 201.38 86.7236 206.878C85.8142 207.541 84.6137 207.654 83.6348 207.099C78.4987 204.186 68.87 197.257 60.3721 186.518C59.427 185.324 59.569 183.614 60.6904 182.584C70.5175 173.562 90.6701 157.576 111.198 148.479L45.3086 148.41C43.8256 148.408 42.5608 147.33 42.3359 145.864C40.4768 133.757 40.0373 125.833 42.6113 113.097C42.8925 111.707 44.1246 110.717 45.543 110.717H217.637ZM88.4609 54.8945C99.4839 48.7133 113.483 43.5643 131.013 43.8447C153.124 44.1984 166.646 50.8337 174.53 55.0107C175.948 55.7615 176.886 57.2045 176.815 58.8076C176.083 75.3558 161.757 100.749 131.013 101.267C117.67 101.491 88.6892 91.4896 86.29 58.8955C86.1691 57.2559 87.0269 55.6986 88.4609 54.8945Z" fill="url(#paint0_linear_139_329)"/>
<path d="M371.53 221.22C349.21 221.22 332.45 215.62 321.25 204.42C310.13 193.22 304.57 177.1 304.57 156.06V126.9C304.57 105.78 310.17 89.5 321.37 78.06C332.65 66.54 349.37 60.78 371.53 60.78C393.69 60.78 410.37 66.54 421.57 78.06C432.85 89.5 438.49 105.78 438.49 126.9V156.06C438.49 177.1 432.89 193.22 421.69 204.42C410.49 215.62 393.77 221.22 371.53 221.22ZM371.53 190.26C381.21 190.26 388.41 187.42 393.13 181.74C397.85 176.06 400.21 168.1 400.21 157.86V124.98C400.21 114.26 397.85 106.02 393.13 100.26C388.41 94.5 381.21 91.62 371.53 91.62C361.85 91.62 354.65 94.5 349.93 100.26C345.21 106.02 342.85 114.26 342.85 124.98V157.86C342.85 168.1 345.21 176.06 349.93 181.74C354.65 187.42 361.85 190.26 371.53 190.26ZM447.193 90.78H468.793V83.58C468.793 56.22 487.993 36.06 516.313 36.06C524.953 36.06 533.833 38.22 541.513 42.3L534.793 67.98C530.233 65.82 526.153 64.38 521.113 64.38C507.433 64.38 502.393 73.02 502.393 85.74V90.78H550.873V83.58C550.873 57.18 567.913 36.06 595.993 36.06C603.673 36.06 612.073 37.98 618.793 41.82L612.073 67.26C608.473 65.58 604.393 64.38 600.313 64.38C587.833 64.38 584.473 75.18 584.473 85.74V90.78H666.553V217.5H632.953V117.18H584.473V217.5H550.873V117.18H502.393V217.5H468.793V117.18H447.193V90.78ZM630.553 56.46C630.553 45.66 638.713 37.26 649.753 37.26C660.793 37.26 668.953 45.18 668.953 56.46C668.953 67.26 660.793 75.66 649.753 75.66C639.193 75.66 630.553 67.26 630.553 56.46ZM683.901 155.1C683.901 118.62 710.061 87.18 748.461 87.18C774.861 87.18 797.661 102.3 804.381 128.7L772.461 134.94C767.901 124.38 759.501 117.42 747.741 117.42C727.821 117.42 718.221 136.86 718.221 154.62C718.221 172.14 727.821 190.86 747.741 190.86C759.501 190.86 769.341 184.38 773.661 173.34L805.581 179.58C798.621 206.22 774.381 221.1 747.501 221.1C710.541 221.1 683.901 192.3 683.901 155.1ZM814.804 153.9C814.804 117.9 840.004 87.18 877.924 87.18C916.564 87.18 939.844 115.74 939.844 154.14V162.54H848.884C851.524 179.34 861.604 192.78 879.844 192.78C891.844 192.78 900.964 187.02 907.204 176.94L937.204 186.54C928.084 209.34 903.364 221.1 879.604 221.1C841.444 221.1 814.804 192.3 814.804 153.9ZM877.924 113.1C861.844 113.1 852.244 125.1 849.364 139.98H905.284C903.124 125.1 894.004 113.1 877.924 113.1ZM958.058 47.1H993.818V122.7L1056.94 47.1H1098.7L1030.54 126.54L1107.34 217.5H1061.02L993.818 134.94V217.5H958.058V47.1ZM1118.21 217.5V90.78H1151.81V217.5H1118.21ZM1135.01 75.66C1124.45 75.66 1115.81 67.26 1115.81 56.46C1115.81 45.66 1123.97 37.26 1135.01 37.26C1146.05 37.26 1154.21 45.18 1154.21 56.46C1154.21 67.26 1146.05 75.66 1135.01 75.66ZM1164.76 90.78H1186.36V47.58H1219.96V90.78H1254.52V117.9H1219.96V172.86C1219.96 183.42 1223.8 191.82 1235.56 191.82C1241.8 191.82 1247.56 189.9 1253.32 187.5L1259.32 212.7C1250.2 218.46 1239.4 221.1 1228.84 221.1C1201.96 221.1 1186.36 204.3 1186.36 176.94V117.9H1164.76V90.78Z" fill="#011049"/>
<defs>
<linearGradient id="paint0_linear_139_329" x1="28.7043" y1="20.8535" x2="246.562" y2="285.672" gradientUnits="userSpaceOnUse">
<stop stop-color="#153CD8"/>
<stop offset="1" stop-color="#19B8DB"/>
</linearGradient>
</defs>
</svg>
