<svg width="145" height="45" viewBox="0 0 145 45" fill="none" xmlns="http://www.w3.org/2000/svg">
<rect x="0.85" y="0.6" width="143.3" height="43.3" rx="7.65" fill="url(#paint0_linear_43_3060)"/>
<rect x="0.85" y="0.6" width="143.3" height="43.3" rx="7.65" stroke="#5554AB" stroke-width="0.7"/>
<g clip-path="url(#clip0_43_3060)">
<path d="M32.5055 21.7173L26.542 28.5253C26.7589 29.2451 27.4481 29.7502 28.2184 29.7502C28.5537 29.7502 28.8472 29.6685 29.0986 29.505L36.4339 25.4191L32.5055 21.7173Z" fill="#EA4335"/>
<path d="M39.5359 20.7589L36.3919 19.001L33.0388 22.2302L36.434 25.4187L39.5777 23.7018C40.1226 23.4156 40.5 22.8434 40.5 22.2302C40.4579 21.617 40.0809 21.0448 39.5359 20.7589Z" fill="#FBBC04"/>
<path d="M32.4911 22.7615L36.3922 19.0011L29.1407 14.9952C28.8892 14.8317 28.5537 14.75 28.2184 14.75C27.4222 14.75 26.7096 15.2815 26.542 15.9764L32.4911 22.7615Z" fill="#34A853"/>
<path d="M26.5418 15.9766C26.5 16.099 26.5 16.2628 26.5 16.426V28.0761C26.5 28.2392 26.5 28.362 26.5421 28.5255L33.0394 22.2305L26.5418 15.9766Z" fill="#4285F4"/>
</g>
<path d="M50.0395 27.25V17.0682H53.6688C54.4609 17.0682 55.1172 17.2124 55.6375 17.5007C56.1579 17.7891 56.5473 18.1835 56.8058 18.6839C57.0644 19.1811 57.1936 19.7412 57.1936 20.3643C57.1936 20.9908 57.0627 21.5542 56.8009 22.0547C56.5423 22.5518 56.1512 22.9463 55.6276 23.2379C55.1072 23.5263 54.4526 23.6705 53.6638 23.6705H51.1681V22.3679H53.5246C54.0251 22.3679 54.4311 22.2817 54.7426 22.1094C55.0542 21.9337 55.2829 21.6951 55.4287 21.3935C55.5745 21.0919 55.6475 20.7488 55.6475 20.3643C55.6475 19.9799 55.5745 19.6385 55.4287 19.3402C55.2829 19.0419 55.0525 18.8082 54.7377 18.6392C54.4261 18.4702 54.0151 18.3857 53.5047 18.3857H51.5757V27.25H50.0395ZM60.3618 17.0682V27.25H58.8753V17.0682H60.3618ZM64.5839 27.419C64.1 27.419 63.6625 27.3295 63.2714 27.1506C62.8803 26.9683 62.5704 26.7048 62.3417 26.3601C62.1163 26.0154 62.0036 25.5928 62.0036 25.0923C62.0036 24.6615 62.0865 24.3068 62.2522 24.0284C62.4179 23.75 62.6417 23.5296 62.9234 23.3672C63.2051 23.2048 63.52 23.0821 63.868 22.9993C64.216 22.9164 64.5706 22.8535 64.9319 22.8104C65.3893 22.7573 65.7605 22.7143 66.0455 22.6811C66.3306 22.6446 66.5377 22.5866 66.667 22.5071C66.7963 22.4276 66.8609 22.2983 66.8609 22.1193V22.0845C66.8609 21.6503 66.7383 21.3139 66.493 21.0753C66.251 20.8366 65.8898 20.7173 65.4092 20.7173C64.9087 20.7173 64.5143 20.8284 64.2259 21.0504C63.9409 21.2692 63.7437 21.5128 63.6343 21.7812L62.2373 21.4631C62.403 20.9991 62.645 20.6245 62.9632 20.3395C63.2847 20.0511 63.6542 19.8423 64.0718 19.7131C64.4894 19.5805 64.9286 19.5142 65.3893 19.5142C65.6942 19.5142 66.0174 19.5507 66.3588 19.6236C66.7035 19.6932 67.0249 19.8224 67.3232 20.0114C67.6249 20.2003 67.8718 20.4704 68.064 20.8217C68.2562 21.1697 68.3524 21.6222 68.3524 22.179V27.25H66.9007V26.206H66.841C66.7449 26.3982 66.6007 26.5871 66.4085 26.7727C66.2162 26.9583 65.9693 27.1125 65.6677 27.2351C65.3661 27.3577 65.0048 27.419 64.5839 27.419ZM64.907 26.2259C65.318 26.2259 65.6694 26.1446 65.961 25.9822C66.256 25.8198 66.4797 25.6077 66.6322 25.3459C66.788 25.0807 66.8659 24.7973 66.8659 24.4957V23.5114C66.8128 23.5644 66.7101 23.6141 66.5576 23.6605C66.4085 23.7036 66.2378 23.7417 66.0455 23.7749C65.8533 23.8047 65.666 23.8329 65.4838 23.8594C65.3015 23.8826 65.149 23.9025 65.0264 23.919C64.738 23.9555 64.4745 24.0168 64.2359 24.103C64.0006 24.1892 63.8116 24.3134 63.6691 24.4759C63.5299 24.6349 63.4603 24.8471 63.4603 25.1122C63.4603 25.4801 63.5962 25.7585 63.868 25.9474C64.1398 26.133 64.4861 26.2259 64.907 26.2259ZM70.9985 30.1136C70.7764 30.1136 70.5742 30.0954 70.392 30.0589C70.2097 30.0258 70.0738 29.9893 69.9843 29.9496L70.3422 28.7315C70.614 28.8045 70.856 28.8359 71.0681 28.826C71.2802 28.8161 71.4675 28.7365 71.6299 28.5874C71.7956 28.4382 71.9414 28.1946 72.0674 27.8565L72.2513 27.3494L69.4573 19.6136H71.0482L72.9822 25.5398H73.0617L74.9956 19.6136H76.5915L73.4445 28.2692C73.2987 28.6669 73.1131 29.0033 72.8877 29.2784C72.6623 29.5568 72.3939 29.7656 72.0823 29.9048C71.7707 30.044 71.4095 30.1136 70.9985 30.1136ZM87.4159 21.478L86.0686 21.7166C86.0123 21.5443 85.9228 21.3802 85.8002 21.2244C85.6808 21.0687 85.5184 20.9411 85.3129 20.8416C85.1075 20.7422 84.8506 20.6925 84.5423 20.6925C84.1214 20.6925 83.7701 20.7869 83.4884 20.9759C83.2066 21.1615 83.0658 21.4018 83.0658 21.6967C83.0658 21.9519 83.1602 22.1574 83.3492 22.3132C83.5381 22.469 83.843 22.5966 84.2639 22.696L85.477 22.9744C86.1797 23.1368 86.7033 23.3871 87.048 23.7251C87.3927 24.0632 87.5651 24.5024 87.5651 25.0426C87.5651 25.5 87.4325 25.9077 87.1673 26.2656C86.9055 26.6203 86.5393 26.8987 86.0686 27.1009C85.6013 27.303 85.0594 27.4041 84.4429 27.4041C83.5878 27.4041 82.8901 27.2218 82.3499 26.8572C81.8096 26.4893 81.4782 25.9673 81.3556 25.2912L82.7923 25.0724C82.8818 25.447 83.0658 25.7304 83.3442 25.9226C83.6226 26.1115 83.9855 26.206 84.433 26.206C84.9202 26.206 85.3096 26.1049 85.6013 25.9027C85.893 25.6972 86.0388 25.447 86.0388 25.152C86.0388 24.9134 85.9493 24.7128 85.7703 24.5504C85.5947 24.388 85.3245 24.2654 84.96 24.1825L83.6673 23.8991C82.9548 23.7367 82.4278 23.4782 82.0864 23.1236C81.7483 22.7689 81.5793 22.3198 81.5793 21.7763C81.5793 21.3255 81.7052 20.9311 81.9571 20.593C82.209 20.255 82.557 19.9915 83.0012 19.8026C83.4453 19.6103 83.954 19.5142 84.5274 19.5142C85.3527 19.5142 86.0023 19.6932 86.4763 20.0511C86.9503 20.4058 87.2635 20.8814 87.4159 21.478ZM92.7641 19.6136V20.8068H88.593V19.6136H92.7641ZM89.7116 17.7841H91.1981V25.0078C91.1981 25.2962 91.2412 25.5133 91.3273 25.6591C91.4135 25.8016 91.5245 25.8994 91.6604 25.9524C91.7996 26.0021 91.9504 26.027 92.1128 26.027C92.2322 26.027 92.3366 26.0187 92.426 26.0021C92.5155 25.9856 92.5851 25.9723 92.6349 25.9624L92.9033 27.1903C92.8171 27.2235 92.6945 27.2566 92.5354 27.2898C92.3763 27.3262 92.1775 27.3461 91.9388 27.3494C91.5477 27.3561 91.1831 27.2865 90.8451 27.1406C90.507 26.9948 90.2336 26.7694 90.0248 26.4645C89.816 26.1596 89.7116 25.7768 89.7116 25.3161V17.7841ZM97.5431 27.4041C96.8271 27.4041 96.2024 27.2401 95.6688 26.9119C95.1352 26.5838 94.7209 26.1248 94.4259 25.5348C94.1309 24.9448 93.9834 24.2554 93.9834 23.4666C93.9834 22.6745 94.1309 21.9818 94.4259 21.3885C94.7209 20.7952 95.1352 20.3345 95.6688 20.0064C96.2024 19.6783 96.8271 19.5142 97.5431 19.5142C98.259 19.5142 98.8837 19.6783 99.4173 20.0064C99.951 20.3345 100.365 20.7952 100.66 21.3885C100.955 21.9818 101.103 22.6745 101.103 23.4666C101.103 24.2554 100.955 24.9448 100.66 25.5348C100.365 26.1248 99.951 26.5838 99.4173 26.9119C98.8837 27.2401 98.259 27.4041 97.5431 27.4041ZM97.548 26.1562C98.012 26.1562 98.3965 26.0336 98.7014 25.7884C99.0064 25.5431 99.2317 25.2166 99.3776 24.8089C99.5267 24.4013 99.6013 23.9522 99.6013 23.4616C99.6013 22.9744 99.5267 22.527 99.3776 22.1193C99.2317 21.7083 99.0064 21.3786 98.7014 21.13C98.3965 20.8814 98.012 20.7571 97.548 20.7571C97.0807 20.7571 96.6929 20.8814 96.3847 21.13C96.0798 21.3786 95.8527 21.7083 95.7036 22.1193C95.5577 22.527 95.4848 22.9744 95.4848 23.4616C95.4848 23.9522 95.5577 24.4013 95.7036 24.8089C95.8527 25.2166 96.0798 25.5431 96.3847 25.7884C96.6929 26.0336 97.0807 26.1562 97.548 26.1562ZM102.762 27.25V19.6136H104.199V20.8267H104.278C104.418 20.4157 104.663 20.0926 105.014 19.8572C105.369 19.6186 105.77 19.4993 106.217 19.4993C106.31 19.4993 106.419 19.5026 106.545 19.5092C106.675 19.5159 106.776 19.5241 106.849 19.5341V20.956C106.789 20.9394 106.683 20.9212 106.53 20.9013C106.378 20.8781 106.226 20.8665 106.073 20.8665C105.722 20.8665 105.409 20.9411 105.133 21.0902C104.862 21.236 104.646 21.4399 104.487 21.7017C104.328 21.9602 104.248 22.2552 104.248 22.5866V27.25H102.762ZM111.153 27.4041C110.4 27.4041 109.752 27.2434 109.209 26.9219C108.669 26.5971 108.251 26.1413 107.956 25.5547C107.664 24.9647 107.519 24.2737 107.519 23.4815C107.519 22.6993 107.664 22.0099 107.956 21.4134C108.251 20.8168 108.662 20.3511 109.189 20.0163C109.719 19.6816 110.339 19.5142 111.048 19.5142C111.479 19.5142 111.897 19.5855 112.301 19.728C112.706 19.8705 113.069 20.0942 113.39 20.3991C113.712 20.7041 113.965 21.1001 114.151 21.5874C114.336 22.0713 114.429 22.6596 114.429 23.3523V23.8793H108.359V22.7656H112.972C112.972 22.3745 112.893 22.0282 112.734 21.7266C112.575 21.4216 112.351 21.1813 112.063 21.0057C111.778 20.83 111.443 20.7422 111.058 20.7422C110.641 20.7422 110.276 20.8449 109.965 21.0504C109.656 21.2526 109.418 21.5178 109.249 21.8459C109.083 22.1707 109 22.5237 109 22.9048V23.7749C109 24.2853 109.09 24.7195 109.269 25.0774C109.451 25.4354 109.704 25.7088 110.029 25.8977C110.354 26.0833 110.734 26.1761 111.168 26.1761C111.449 26.1761 111.706 26.1364 111.938 26.0568C112.17 25.974 112.371 25.8513 112.54 25.6889C112.709 25.5265 112.838 25.326 112.928 25.0874L114.335 25.3409C114.222 25.7552 114.02 26.1181 113.728 26.4297C113.44 26.7379 113.077 26.9782 112.639 27.1506C112.205 27.3196 111.71 27.4041 111.153 27.4041Z" fill="white"/>
<defs>
<linearGradient id="paint0_linear_43_3060" x1="0.5" y1="22.25" x2="144.5" y2="22.25" gradientUnits="userSpaceOnUse">
<stop stop-color="#212161"/>
<stop offset="1" stop-color="#211E6B" stop-opacity="0.5"/>
</linearGradient>
<clipPath id="clip0_43_3060">
<rect width="14" height="15" fill="white" transform="translate(26.5 14.75)"/>
</clipPath>
</defs>
</svg>
