<svg width="156" height="44" viewBox="0 0 156 44" fill="none" xmlns="http://www.w3.org/2000/svg">
<rect x="0.35" y="0.35" width="155.3" height="43.3" rx="7.65" fill="white"/>
<rect x="0.35" y="0.35" width="155.3" height="43.3" rx="7.65" stroke="#D2D2D2" stroke-width="0.7"/>
<g clip-path="url(#clip0_43_3060)">
<path d="M41.0055 21.4673L35.042 28.2753C35.2589 28.9951 35.9481 29.5002 36.7184 29.5002C37.0537 29.5002 37.3472 29.4185 37.5986 29.255L44.9339 25.1691L41.0055 21.4673Z" fill="#EA4335"/>
<path d="M48.0361 20.5089L44.8922 18.751L41.5391 21.9802L44.9342 25.1687L48.0779 23.4518C48.6229 23.1656 49.0002 22.5934 49.0002 21.9802C48.9582 21.367 48.5811 20.7948 48.0361 20.5089Z" fill="#FBBC04"/>
<path d="M40.9911 22.5115L44.8922 18.7511L37.6407 14.7452C37.3892 14.5817 37.0537 14.5 36.7184 14.5C35.9222 14.5 35.2096 15.0315 35.042 15.7264L40.9911 22.5115Z" fill="#34A853"/>
<path d="M35.0418 15.7266C35 15.849 35 16.0128 35 16.176V27.8261C35 27.9892 35 28.112 35.0421 28.2755L41.5394 21.9805L35.0418 15.7266Z" fill="#4285F4"/>
</g>
<path d="M58.5395 27V16.8182H62.1688C62.9609 16.8182 63.6172 16.9624 64.1375 17.2507C64.6579 17.5391 65.0473 17.9335 65.3058 18.4339C65.5644 18.9311 65.6936 19.4912 65.6936 20.1143C65.6936 20.7408 65.5627 21.3042 65.3009 21.8047C65.0423 22.3018 64.6512 22.6963 64.1276 22.9879C63.6072 23.2763 62.9526 23.4205 62.1638 23.4205H59.6681V22.1179H62.0246C62.5251 22.1179 62.9311 22.0317 63.2426 21.8594C63.5542 21.6837 63.7829 21.4451 63.9287 21.1435C64.0745 20.8419 64.1475 20.4988 64.1475 20.1143C64.1475 19.7299 64.0745 19.3885 63.9287 19.0902C63.7829 18.7919 63.5525 18.5582 63.2377 18.3892C62.9261 18.2202 62.5151 18.1357 62.0047 18.1357H60.0757V27H58.5395ZM68.8618 16.8182V27H67.3753V16.8182H68.8618ZM73.0839 27.169C72.6 27.169 72.1625 27.0795 71.7714 26.9006C71.3803 26.7183 71.0704 26.4548 70.8417 26.1101C70.6163 25.7654 70.5036 25.3428 70.5036 24.8423C70.5036 24.4115 70.5865 24.0568 70.7522 23.7784C70.9179 23.5 71.1417 23.2796 71.4234 23.1172C71.7051 22.9548 72.02 22.8321 72.368 22.7493C72.716 22.6664 73.0706 22.6035 73.4319 22.5604C73.8893 22.5073 74.2605 22.4643 74.5455 22.4311C74.8306 22.3946 75.0377 22.3366 75.167 22.2571C75.2963 22.1776 75.3609 22.0483 75.3609 21.8693V21.8345C75.3609 21.4003 75.2383 21.0639 74.993 20.8253C74.751 20.5866 74.3898 20.4673 73.9092 20.4673C73.4087 20.4673 73.0143 20.5784 72.7259 20.8004C72.4409 21.0192 72.2437 21.2628 72.1343 21.5312L70.7373 21.2131C70.903 20.7491 71.145 20.3745 71.4632 20.0895C71.7847 19.8011 72.1542 19.5923 72.5718 19.4631C72.9894 19.3305 73.4286 19.2642 73.8893 19.2642C74.1942 19.2642 74.5174 19.3007 74.8588 19.3736C75.2035 19.4432 75.5249 19.5724 75.8232 19.7614C76.1249 19.9503 76.3718 20.2204 76.564 20.5717C76.7562 20.9197 76.8524 21.3722 76.8524 21.929V27H75.4007V25.956H75.341C75.2449 26.1482 75.1007 26.3371 74.9085 26.5227C74.7162 26.7083 74.4693 26.8625 74.1677 26.9851C73.8661 27.1077 73.5048 27.169 73.0839 27.169ZM73.407 25.9759C73.818 25.9759 74.1694 25.8946 74.461 25.7322C74.756 25.5698 74.9797 25.3577 75.1322 25.0959C75.288 24.8307 75.3659 24.5473 75.3659 24.2457V23.2614C75.3128 23.3144 75.2101 23.3641 75.0576 23.4105C74.9085 23.4536 74.7378 23.4917 74.5455 23.5249C74.3533 23.5547 74.166 23.5829 73.9838 23.6094C73.8015 23.6326 73.649 23.6525 73.5264 23.669C73.238 23.7055 72.9745 23.7668 72.7359 23.853C72.5006 23.9392 72.3116 24.0634 72.1691 24.2259C72.0299 24.3849 71.9603 24.5971 71.9603 24.8622C71.9603 25.2301 72.0962 25.5085 72.368 25.6974C72.6398 25.883 72.9861 25.9759 73.407 25.9759ZM79.4985 29.8636C79.2764 29.8636 79.0742 29.8454 78.892 29.8089C78.7097 29.7758 78.5738 29.7393 78.4843 29.6996L78.8422 28.4815C79.114 28.5545 79.356 28.5859 79.5681 28.576C79.7802 28.5661 79.9675 28.4865 80.1299 28.3374C80.2956 28.1882 80.4414 27.9446 80.5674 27.6065L80.7513 27.0994L77.9573 19.3636H79.5482L81.4822 25.2898H81.5617L83.4956 19.3636H85.0915L81.9445 28.0192C81.7987 28.4169 81.6131 28.7533 81.3877 29.0284C81.1623 29.3068 80.8939 29.5156 80.5823 29.6548C80.2707 29.794 79.9095 29.8636 79.4985 29.8636ZM95.9159 21.228L94.5686 21.4666C94.5123 21.2943 94.4228 21.1302 94.3002 20.9744C94.1808 20.8187 94.0184 20.6911 93.8129 20.5916C93.6075 20.4922 93.3506 20.4425 93.0423 20.4425C92.6214 20.4425 92.2701 20.5369 91.9884 20.7259C91.7066 20.9115 91.5658 21.1518 91.5658 21.4467C91.5658 21.7019 91.6602 21.9074 91.8492 22.0632C92.0381 22.219 92.343 22.3466 92.7639 22.446L93.977 22.7244C94.6797 22.8868 95.2033 23.1371 95.548 23.4751C95.8927 23.8132 96.0651 24.2524 96.0651 24.7926C96.0651 25.25 95.9325 25.6577 95.6673 26.0156C95.4055 26.3703 95.0393 26.6487 94.5686 26.8509C94.1013 27.053 93.5594 27.1541 92.9429 27.1541C92.0878 27.1541 91.3901 26.9718 90.8499 26.6072C90.3096 26.2393 89.9782 25.7173 89.8556 25.0412L91.2923 24.8224C91.3818 25.197 91.5658 25.4804 91.8442 25.6726C92.1226 25.8615 92.4855 25.956 92.933 25.956C93.4202 25.956 93.8096 25.8549 94.1013 25.6527C94.393 25.4472 94.5388 25.197 94.5388 24.902C94.5388 24.6634 94.4493 24.4628 94.2703 24.3004C94.0947 24.138 93.8245 24.0154 93.46 23.9325L92.1673 23.6491C91.4548 23.4867 90.9278 23.2282 90.5864 22.8736C90.2483 22.5189 90.0793 22.0698 90.0793 21.5263C90.0793 21.0755 90.2052 20.6811 90.4571 20.343C90.709 20.005 91.057 19.7415 91.5012 19.5526C91.9453 19.3603 92.454 19.2642 93.0274 19.2642C93.8527 19.2642 94.5023 19.4432 94.9763 19.8011C95.4503 20.1558 95.7635 20.6314 95.9159 21.228ZM101.264 19.3636V20.5568H97.093V19.3636H101.264ZM98.2116 17.5341H99.6981V24.7578C99.6981 25.0462 99.7412 25.2633 99.8273 25.4091C99.9135 25.5516 100.025 25.6494 100.16 25.7024C100.3 25.7521 100.45 25.777 100.613 25.777C100.732 25.777 100.837 25.7687 100.926 25.7521C101.016 25.7356 101.085 25.7223 101.135 25.7124L101.403 26.9403C101.317 26.9735 101.195 27.0066 101.035 27.0398C100.876 27.0762 100.677 27.0961 100.439 27.0994C100.048 27.1061 99.6831 27.0365 99.3451 26.8906C99.007 26.7448 98.7336 26.5194 98.5248 26.2145C98.316 25.9096 98.2116 25.5268 98.2116 25.0661V17.5341ZM106.043 27.1541C105.327 27.1541 104.702 26.9901 104.169 26.6619C103.635 26.3338 103.221 25.8748 102.926 25.2848C102.631 24.6948 102.483 24.0054 102.483 23.2166C102.483 22.4245 102.631 21.7318 102.926 21.1385C103.221 20.5452 103.635 20.0845 104.169 19.7564C104.702 19.4283 105.327 19.2642 106.043 19.2642C106.759 19.2642 107.384 19.4283 107.917 19.7564C108.451 20.0845 108.865 20.5452 109.16 21.1385C109.455 21.7318 109.603 22.4245 109.603 23.2166C109.603 24.0054 109.455 24.6948 109.16 25.2848C108.865 25.8748 108.451 26.3338 107.917 26.6619C107.384 26.9901 106.759 27.1541 106.043 27.1541ZM106.048 25.9062C106.512 25.9062 106.897 25.7836 107.201 25.5384C107.506 25.2931 107.732 24.9666 107.878 24.5589C108.027 24.1513 108.101 23.7022 108.101 23.2116C108.101 22.7244 108.027 22.277 107.878 21.8693C107.732 21.4583 107.506 21.1286 107.201 20.88C106.897 20.6314 106.512 20.5071 106.048 20.5071C105.581 20.5071 105.193 20.6314 104.885 20.88C104.58 21.1286 104.353 21.4583 104.204 21.8693C104.058 22.277 103.985 22.7244 103.985 23.2116C103.985 23.7022 104.058 24.1513 104.204 24.5589C104.353 24.9666 104.58 25.2931 104.885 25.5384C105.193 25.7836 105.581 25.9062 106.048 25.9062ZM111.262 27V19.3636H112.699V20.5767H112.778C112.918 20.1657 113.163 19.8426 113.514 19.6072C113.869 19.3686 114.27 19.2493 114.717 19.2493C114.81 19.2493 114.919 19.2526 115.045 19.2592C115.175 19.2659 115.276 19.2741 115.349 19.2841V20.706C115.289 20.6894 115.183 20.6712 115.03 20.6513C114.878 20.6281 114.726 20.6165 114.573 20.6165C114.222 20.6165 113.909 20.6911 113.633 20.8402C113.362 20.986 113.146 21.1899 112.987 21.4517C112.828 21.7102 112.748 22.0052 112.748 22.3366V27H111.262ZM119.653 27.1541C118.9 27.1541 118.252 26.9934 117.709 26.6719C117.169 26.3471 116.751 25.8913 116.456 25.3047C116.164 24.7147 116.019 24.0237 116.019 23.2315C116.019 22.4493 116.164 21.7599 116.456 21.1634C116.751 20.5668 117.162 20.1011 117.689 19.7663C118.219 19.4316 118.839 19.2642 119.548 19.2642C119.979 19.2642 120.397 19.3355 120.801 19.478C121.206 19.6205 121.569 19.8442 121.89 20.1491C122.212 20.4541 122.465 20.8501 122.651 21.3374C122.836 21.8213 122.929 22.4096 122.929 23.1023V23.6293H116.859V22.5156H121.472C121.472 22.1245 121.393 21.7782 121.234 21.4766C121.075 21.1716 120.851 20.9313 120.563 20.7557C120.278 20.58 119.943 20.4922 119.558 20.4922C119.141 20.4922 118.776 20.5949 118.465 20.8004C118.156 21.0026 117.918 21.2678 117.749 21.5959C117.583 21.9207 117.5 22.2737 117.5 22.6548V23.5249C117.5 24.0353 117.59 24.4695 117.769 24.8274C117.951 25.1854 118.204 25.4588 118.529 25.6477C118.854 25.8333 119.234 25.9261 119.668 25.9261C119.949 25.9261 120.206 25.8864 120.438 25.8068C120.67 25.724 120.871 25.6013 121.04 25.4389C121.209 25.2765 121.338 25.076 121.428 24.8374L122.835 25.0909C122.722 25.5052 122.52 25.8681 122.228 26.1797C121.94 26.4879 121.577 26.7282 121.139 26.9006C120.705 27.0696 120.21 27.1541 119.653 27.1541Z" fill="black"/>
<defs>
<clipPath id="clip0_43_3060">
<rect width="14" height="15" fill="white" transform="translate(35 14.5)"/>
</clipPath>
</defs>
</svg>
