<svg width="149" height="48" viewBox="0 0 149 48" fill="none" xmlns="http://www.w3.org/2000/svg">
<rect x="0.936523" width="148" height="48" rx="8" fill="black"/>
<path d="M27.9448 15.5117L36.4309 24.0001L27.9457 32.4888C27.7848 32.4208 27.6439 32.3018 27.5496 32.139C27.4762 32.0121 27.4375 31.8681 27.4375 31.7214V16.2789C27.4375 15.9343 27.6466 15.6386 27.9448 15.5117ZM37.02 24.5893L38.9383 26.5076L29.8242 31.7851L37.02 24.5893ZM39.6858 21.9242L42.0251 23.279C42.4234 23.5096 42.5594 24.0194 42.3288 24.4177C42.2558 24.5437 42.1512 24.6484 42.0251 24.7213L39.685 26.0759L37.6092 24.0001L39.6858 21.9242ZM29.8242 16.2151L38.9392 21.4917L37.02 23.4109L29.8242 16.2151Z" fill="white"/>
<path d="M57.594 18.5781C59.068 18.5781 60.1435 18.8672 60.8206 19.4453C61.5029 20.0182 61.844 20.8411 61.844 21.9141C61.844 22.3984 61.7633 22.8594 61.6018 23.2969C61.4456 23.7292 61.1904 24.112 60.8362 24.4453C60.482 24.7734 60.0159 25.0339 59.4378 25.2266C58.8649 25.4141 58.1617 25.5078 57.3284 25.5078H55.9378V30H54.6096V18.5781H57.594ZM57.469 19.7109H55.9378V24.3672H57.18C57.9091 24.3672 58.5159 24.2891 59.0003 24.1328C59.4899 23.9766 59.857 23.724 60.1018 23.375C60.3466 23.0208 60.469 22.5521 60.469 21.9688C60.469 21.2083 60.2268 20.6432 59.7425 20.2734C59.2581 19.8984 58.5003 19.7109 57.469 19.7109ZM65.184 30H63.8793V17.8438H65.184V30ZM70.9693 21.2969C71.9902 21.2969 72.748 21.526 73.2428 21.9844C73.7376 22.4427 73.985 23.1745 73.985 24.1797V30H73.0396L72.7896 28.7344H72.7271C72.4876 29.0469 72.2376 29.3099 71.9771 29.5234C71.7167 29.7318 71.4146 29.8906 71.0709 30C70.7324 30.1042 70.3157 30.1562 69.8209 30.1562C69.3001 30.1562 68.8365 30.0651 68.4303 29.8828C68.0292 29.7005 67.7115 29.4245 67.4771 29.0547C67.248 28.6849 67.1334 28.2161 67.1334 27.6484C67.1334 26.7943 67.4719 26.138 68.149 25.6797C68.8261 25.2214 69.8574 24.9714 71.2428 24.9297L72.7193 24.8672V24.3438C72.7193 23.6042 72.5605 23.0859 72.2428 22.7891C71.9251 22.4922 71.4771 22.3438 70.899 22.3438C70.4511 22.3438 70.024 22.4089 69.6178 22.5391C69.2115 22.6693 68.8261 22.8229 68.4615 23L68.0631 22.0156C68.4485 21.8177 68.8912 21.6484 69.3912 21.5078C69.8912 21.3672 70.4173 21.2969 70.9693 21.2969ZM72.7037 25.7812L71.399 25.8359C70.3313 25.8776 69.5787 26.0521 69.1412 26.3594C68.7037 26.6667 68.485 27.1016 68.485 27.6641C68.485 28.1536 68.6334 28.5156 68.9303 28.75C69.2271 28.9844 69.6204 29.1016 70.11 29.1016C70.8704 29.1016 71.4928 28.8906 71.9771 28.4688C72.4615 28.0469 72.7037 27.4141 72.7037 26.5703V25.7812ZM75.1453 21.4375H76.5359L78.4265 26.4062C78.5359 26.6979 78.6375 26.9792 78.7312 27.25C78.825 27.5156 78.9083 27.7708 78.9812 28.0156C79.0541 28.2604 79.1114 28.4974 79.1531 28.7266H79.2078C79.2807 28.4661 79.3849 28.125 79.5203 27.7031C79.6557 27.276 79.8015 26.8411 79.9578 26.3984L81.7468 21.4375H83.1453L79.4187 31.2578C79.2208 31.7839 78.989 32.2422 78.7234 32.6328C78.463 33.0234 78.1453 33.3229 77.7703 33.5312C77.3953 33.7448 76.9422 33.8516 76.4109 33.8516C76.1661 33.8516 75.95 33.8359 75.7625 33.8047C75.575 33.7786 75.4135 33.7474 75.2781 33.7109V32.6719C75.3927 32.6979 75.5307 32.7214 75.6922 32.7422C75.8588 32.763 76.0307 32.7734 76.2078 32.7734C76.5307 32.7734 76.8093 32.7109 77.0437 32.5859C77.2833 32.4661 77.489 32.2891 77.6609 32.0547C77.8328 31.8203 77.9812 31.5417 78.1062 31.2188L78.575 30.0156L75.1453 21.4375ZM93.8878 27.6562C93.8878 28.2031 93.7498 28.6641 93.4737 29.0391C93.2029 29.4089 92.8123 29.6875 92.3018 29.875C91.7966 30.0625 91.1925 30.1562 90.4893 30.1562C89.8904 30.1562 89.3722 30.1094 88.9347 30.0156C88.4972 29.9219 88.1143 29.7891 87.7862 29.6172V28.4219C88.1352 28.5938 88.5518 28.75 89.0362 28.8906C89.5206 29.0312 90.0154 29.1016 90.5206 29.1016C91.2602 29.1016 91.7966 28.9818 92.13 28.7422C92.4633 28.5026 92.63 28.1771 92.63 27.7656C92.63 27.5312 92.5623 27.3255 92.4268 27.1484C92.2966 26.9661 92.0753 26.7917 91.7628 26.625C91.4503 26.4531 91.018 26.2656 90.4659 26.0625C89.919 25.8542 89.4451 25.6484 89.044 25.4453C88.6482 25.237 88.3409 24.9844 88.1222 24.6875C87.9086 24.3906 87.8018 24.0052 87.8018 23.5312C87.8018 22.8073 88.0935 22.2526 88.6768 21.8672C89.2654 21.4766 90.0362 21.2812 90.9893 21.2812C91.505 21.2812 91.9867 21.3333 92.4347 21.4375C92.8878 21.5365 93.3097 21.6719 93.7003 21.8438L93.2628 22.8828C92.9086 22.7318 92.531 22.6042 92.13 22.5C91.7289 22.3958 91.3201 22.3438 90.9034 22.3438C90.3044 22.3438 89.8435 22.4427 89.5206 22.6406C89.2029 22.8385 89.044 23.1094 89.044 23.4531C89.044 23.7188 89.1169 23.9375 89.2628 24.1094C89.4138 24.2812 89.6534 24.4427 89.9815 24.5938C90.3097 24.7448 90.7419 24.9219 91.2784 25.125C91.8149 25.3229 92.2784 25.5286 92.669 25.7422C93.0597 25.9505 93.3591 26.2057 93.5675 26.5078C93.781 26.8047 93.8878 27.1875 93.8878 27.6562ZM98.5793 29.0938C98.7929 29.0938 99.0116 29.0755 99.2356 29.0391C99.4595 29.0026 99.6418 28.9583 99.7825 28.9062V29.9141C99.6314 29.9818 99.4205 30.0391 99.1497 30.0859C98.884 30.1328 98.6236 30.1562 98.3684 30.1562C97.9153 30.1562 97.5038 30.0781 97.134 29.9219C96.7642 29.7604 96.4674 29.4896 96.2434 29.1094C96.0247 28.7292 95.9153 28.2031 95.9153 27.5312V22.4531H94.6965V21.8203L95.9231 21.3125L96.4387 19.4531H97.22V21.4375H99.7278V22.4531H97.22V27.4922C97.22 28.0286 97.3424 28.4297 97.5872 28.6953C97.8372 28.9609 98.1679 29.0938 98.5793 29.0938ZM108.74 25.7031C108.74 26.4062 108.649 27.0339 108.466 27.5859C108.284 28.138 108.021 28.6042 107.677 28.9844C107.333 29.3646 106.917 29.6562 106.427 29.8594C105.943 30.0573 105.393 30.1562 104.779 30.1562C104.206 30.1562 103.68 30.0573 103.201 29.8594C102.727 29.6562 102.315 29.3646 101.966 28.9844C101.622 28.6042 101.354 28.138 101.162 27.5859C100.974 27.0339 100.88 26.4062 100.88 25.7031C100.88 24.7656 101.039 23.9688 101.357 23.3125C101.675 22.651 102.128 22.1484 102.716 21.8047C103.31 21.4557 104.016 21.2812 104.833 21.2812C105.615 21.2812 106.297 21.4557 106.88 21.8047C107.469 22.1536 107.925 22.6589 108.247 23.3203C108.576 23.9766 108.74 24.7708 108.74 25.7031ZM102.224 25.7031C102.224 26.3906 102.315 26.987 102.497 27.4922C102.68 27.9974 102.961 28.388 103.341 28.6641C103.721 28.9401 104.211 29.0781 104.81 29.0781C105.404 29.0781 105.891 28.9401 106.271 28.6641C106.656 28.388 106.94 27.9974 107.122 27.4922C107.305 26.987 107.396 26.3906 107.396 25.7031C107.396 25.0208 107.305 24.4323 107.122 23.9375C106.94 23.4375 106.659 23.0521 106.279 22.7812C105.899 22.5104 105.406 22.375 104.802 22.375C103.912 22.375 103.258 22.6693 102.841 23.2578C102.43 23.8464 102.224 24.6615 102.224 25.7031ZM114.712 21.2812C114.884 21.2812 115.064 21.2917 115.252 21.3125C115.439 21.3281 115.606 21.3516 115.752 21.3828L115.587 22.5859C115.447 22.5495 115.291 22.5208 115.119 22.5C114.947 22.4792 114.785 22.4688 114.634 22.4688C114.291 22.4688 113.965 22.5391 113.658 22.6797C113.356 22.8151 113.09 23.013 112.861 23.2734C112.632 23.5286 112.452 23.8385 112.322 24.2031C112.192 24.5625 112.127 24.9635 112.127 25.4062V30H110.822V21.4375H111.9L112.041 23.0156H112.095C112.272 22.6979 112.486 22.4089 112.736 22.1484C112.986 21.8828 113.275 21.6719 113.603 21.5156C113.936 21.3594 114.306 21.2812 114.712 21.2812ZM120.506 21.2812C121.235 21.2812 121.86 21.4427 122.381 21.7656C122.901 22.0885 123.3 22.5417 123.576 23.125C123.852 23.7031 123.99 24.3802 123.99 25.1562V25.9609H118.076C118.092 26.9661 118.342 27.7318 118.826 28.2578C119.31 28.7839 119.993 29.0469 120.873 29.0469C121.414 29.0469 121.894 28.9974 122.31 28.8984C122.727 28.7995 123.159 28.6536 123.607 28.4609V29.6016C123.175 29.7943 122.745 29.9349 122.318 30.0234C121.896 30.112 121.396 30.1562 120.818 30.1562C119.995 30.1562 119.276 29.9896 118.662 29.6562C118.052 29.3177 117.579 28.8229 117.24 28.1719C116.901 27.5208 116.732 26.724 116.732 25.7812C116.732 24.8594 116.886 24.0625 117.193 23.3906C117.506 22.7135 117.943 22.1927 118.506 21.8281C119.073 21.4635 119.74 21.2812 120.506 21.2812ZM120.49 22.3438C119.797 22.3438 119.245 22.5703 118.834 23.0234C118.422 23.4766 118.177 24.1094 118.099 24.9219H122.631C122.625 24.4115 122.545 23.9635 122.388 23.5781C122.237 23.1875 122.006 22.8854 121.693 22.6719C121.381 22.4531 120.98 22.3438 120.49 22.3438Z" fill="white"/>
</svg>
